<svg xmlns="http://www.w3.org/2000/svg" viewBox="0 0 50 50"><g fill="none" stroke="#ff8144" stroke-width="2" stroke-linecap="round" stroke-linejoin="round" stroke-miterlimit="10"><path d="M34 22.8l-4.9 2.8c-1.4.8-3 1.2-4.6 1.2h-18c-3.1 0-5.5-2.5-5.5-5.5v-7.8C1 10.4 3.5 8 6.5 8h18c1.6 0 3.2.4 4.6 1.2L34 12v10.8zm6.7-1.6c-1.6 1-3.4 1.5-5.3 1.5H34V12h1.4c1.9 0 3.7.5 5.3 1.5.8.5 1.3 1.3 1.3 2.2v3.2c0 .9-.5 1.8-1.3 2.3zM42 16h7v2.7h-7z"/><path d="M8.1 26.8S9 32 6 40c0 0-2 4 4 4h5s4 0 3-3-4-1-2-6 3.8-8.3 3.8-8.3"/><path d="M17 32.6h6s-2-2.6 0-5.8"/></g></svg>