<svg id="_1" data-name="1" xmlns="http://www.w3.org/2000/svg" viewBox="0 0 50 50"><defs><style>.cls-1,.cls-2{fill:none;stroke-miterlimit:10;stroke-width:2px}.cls-1{stroke:#ff8042;stroke-linecap:round}.cls-2{stroke:#ff8144}.cls-3{fill:#ff8144}</style></defs><title>icon_courier_01</title><path class="cls-1" d="M33.1 40.82v5.43m2.72-2.72h-5.43"/><path class="cls-2" d="M39 36.77c-2.69-2.11-7.19.58-9.82-1.82a2.51 2.51 0 0 1-.58-2.45 21.83 21.83 0 0 0 7.27-2.5c1-.41 1.06-.7.71-1.63a33.66 33.66 0 0 1-2.4-9.24 15.14 15.14 0 0 0-1.18-4.4 2 2 0 0 0-1-1 16 16 0 0 0-7-2 16 16 0 0 0-7 2 2.71 2.71 0 0 0-1 1 15.14 15.14 0 0 0-1.23 4.44 33.66 33.66 0 0 1-2.4 9.24c-.35.93-.29 1.28.71 1.63a22.48 22.48 0 0 0 7.3 2.46 2.51 2.51 0 0 1-.53 2.5c-2.63 2.4-7.13-.29-9.82 1.82s-3.75 4-5.38 12.16h38.7C42.72 40.8 41.66 38.87 39 36.77z"/><path class="cls-3" d="M25 3.22c4.6 0 7.2 1.2 8.42 2l-1.68 4.25A17 17 0 0 0 25 8a17 17 0 0 0-6.74 1.48l-1.68-4.26c1.23-.8 3.83-2 8.42-2m0-2c-7.95 0-10.82 3.39-10.82 3.39l3 7.66A15.41 15.41 0 0 1 25 10a15.41 15.41 0 0 1 7.78 2.28l3-7.66S33 1.22 25 1.22z"/></svg>