<svg id="_x31_" xmlns="http://www.w3.org/2000/svg" viewBox="0 0 50 50"><style>.st0{stroke:#ff8144;stroke-miterlimit:10}.st0,.st1{fill:#ff8144}.st2{stroke:#6d2003;stroke-width:4}.st2,.st3,.st4,.st5,.st6{fill:none;stroke-miterlimit:10}.st3{stroke-width:4;stroke-linejoin:round;stroke:#6d2003}.st4,.st5,.st6{stroke:#ff8144}.st4{stroke-linecap:round;stroke-linejoin:round;stroke-width:2}.st5{stroke-width:4}.st6{stroke-width:2}.st7{fill:#dddbde}.st8{fill:#98acb3}.st9{fill:#366}.st10{fill:#905744}.st11{fill:#b86332}.st12{fill:#332f2f}.st13{fill:#f65727}.st14{fill:#ff8042}.st15{stroke-width:4;stroke-linecap:round}.st15,.st16,.st17{fill:none;stroke:#ff8042;stroke-miterlimit:10}.st16{stroke-linecap:round}.st17{stroke-width:4}.st18{fill:#fff}.st19{stroke-linecap:round}.st19,.st20{fill:none;stroke:#ff8042;stroke-width:3;stroke-miterlimit:10}.st21,.st22{stroke-width:3;stroke-linecap:round}.st21{fill:none;stroke-linejoin:round;stroke-miterlimit:10;stroke:#ff8042}.st22{stroke:#366}.st22,.st23,.st24{fill:none;stroke-miterlimit:10}.st23{stroke:#ff8144;stroke-width:1.8}.st24{stroke-linecap:round}.st24,.st25{stroke:#ff8144;stroke-width:1.8;stroke-linejoin:round}.st25,.st26,.st27{fill:none;stroke-miterlimit:10}.st26{stroke:#ff8144;stroke-width:1.5}.st27{stroke-linecap:round}.st27,.st28{stroke:#ff8144;stroke-width:1.5;stroke-linejoin:round}.st28,.st29,.st30{fill:none;stroke-miterlimit:10}.st29{stroke-linecap:round;stroke:#ff8042;stroke-width:2}.st30{stroke:#fff;stroke-width:1.8}.st31{stroke-linecap:round}.st31,.st32,.st33{fill:none;stroke:#fff;stroke-width:1.8;stroke-linejoin:round;stroke-miterlimit:10}.st33{stroke:#ff8144;stroke-width:2}</style><path class="st6" d="M32.2 23.8H20.7c-.3 0-.6-.3-.6-.6v-6.7c0-.3.3-.6.6-.6h27.6c.3 0 .6.3.6.6v6.7c0 .3-.3.6-.6.6H36.8m9.9.6v12.9c0 .4-.4.7-.8.7H23.1c-.4 0-.8-.3-.8-.7V24.4"/><path class="st6" d="M32 15.9h4.8V38H32z"/><path class="st33" d="M34.2 15.9s-7-1.7-9-3c-1.3-.8-3.5-3.7-.4-6.4s5.9.3 6.2 1 3.2 8.4 3.2 8.4zm.7 0s7-1.7 9-3c1.3-.8 3.5-3.7.4-6.4s-5.9.3-6.2 1-3.2 8.4-3.2 8.4z"/><path class="st4" d="M21 41.7h10.4c1 0 2.2 1.1 2.2 2.1 0 1.1-.6 2.4-2.2 2.4h-15c-1.2 0-2.3-1-2.9-1.5l-7.7-6.3H1.1V31h9.5s1 0 1.7.4c.6.4 1.2.9 1.2.9l7.1 7.1c.3.2.4.6.5.9.1.3.1.6 0 .9-.1.3-.2.6-.4.8-.7.7-1.9.8-2.7 0l-4.1-4"/></svg>