<svg id="_x31_" xmlns="http://www.w3.org/2000/svg" viewBox="0 0 50 50"><style>.st0{stroke:#ff8144;stroke-miterlimit:10}.st0,.st1{fill:#ff8144}.st2{stroke:#6d2003;stroke-width:4}.st2,.st3,.st4,.st5,.st6{fill:none;stroke-miterlimit:10}.st3{stroke-width:4;stroke-linejoin:round;stroke:#6d2003}.st4,.st5,.st6{stroke:#ff8144}.st4{stroke-linecap:round;stroke-linejoin:round;stroke-width:2}.st5{stroke-width:4}.st6{stroke-width:2}.st7{fill:#dddbde}.st8{fill:#98acb3}.st9{fill:#366}.st10{fill:#905744}.st11{fill:#b86332}.st12{fill:#332f2f}.st13{fill:#f65727}.st14{fill:#ff8042}.st15{stroke-width:4;stroke-linecap:round}.st15,.st16,.st17{fill:none;stroke:#ff8042;stroke-miterlimit:10}.st16{stroke-linecap:round}.st17{stroke-width:4}.st18{fill:#fff}.st19{stroke-linecap:round}.st19,.st20{fill:none;stroke:#ff8042;stroke-width:3;stroke-miterlimit:10}.st21,.st22{stroke-width:3;stroke-linecap:round}.st21{fill:none;stroke-linejoin:round;stroke-miterlimit:10;stroke:#ff8042}.st22{stroke:#366}.st22,.st23,.st24{fill:none;stroke-miterlimit:10}.st23{stroke:#ff8144;stroke-width:1.8}.st24{stroke-linecap:round}.st24,.st25{stroke:#ff8144;stroke-width:1.8;stroke-linejoin:round}.st25,.st26,.st27{fill:none;stroke-miterlimit:10}.st26{stroke:#ff8144;stroke-width:1.5}.st27{stroke-linecap:round}.st27,.st28{stroke:#ff8144;stroke-width:1.5;stroke-linejoin:round}.st28,.st29,.st30{fill:none;stroke-miterlimit:10}.st29{stroke-linecap:round;stroke:#ff8042;stroke-width:2}.st30{stroke:#fff;stroke-width:1.8}.st31{stroke-linecap:round}.st31,.st32,.st33{fill:none;stroke:#fff;stroke-width:1.8;stroke-linejoin:round;stroke-miterlimit:10}.st33{stroke:#ff8144;stroke-width:2}</style><path class="st1" d="M45.6 33c0-10.3-7.5-19-17.7-20.4v-1.2c1.2-.9 2-2.4 2-3.9 0-2.7-2.2-4.9-4.9-4.9s-4.9 2.2-4.9 4.9c0 1.6.7 3 2 4v1.2C11.9 14 4.4 22.6 4.4 33v3h41.3v-3zm-2 .9H6.4v-1c0-9.6 7.2-17.6 16.8-18.5l.9-.1v-4.1l-.5-.2c-.9-.5-1.5-1.5-1.5-2.6 0-1.6 1.3-2.9 2.9-2.9s2.9 1.3 2.9 2.9c0 1-.6 2-1.5 2.5l-.4.4v4.1l.9.1c9.6.9 16.8 8.9 16.8 18.5v.9zm3 4H3.4c-1.6 0-3 1.3-3 3v3.9c0 1.6 1.3 3 3 3h43.2c1.6 0 3-1.3 3-3v-3.9c0-1.7-1.4-3-3-3zm1 6.9c0 .5-.4 1-1 1H3.4c-.5 0-1-.4-1-1v-3.9c0-.5.4-1 1-1h43.2c.5 0 1 .4 1 1v3.9z"/></svg>