<svg xmlns="http://www.w3.org/2000/svg" viewBox="0 0 50 50"><g fill="none" stroke="#ff8144" stroke-width="2" stroke-linecap="round" stroke-linejoin="round" stroke-miterlimit="10"><path d="M28 20.7l-7.2 7.2.7.7 3.9 1.3 1.3 3.9 13.8 13.8 3.9 1.3 4.6-4.6-1.3-3.9-13.8-13.8-3.9-1.3-1.3-3.9zm2.3 9.5L42.1 42"/><path d="M4.8 2L3.5 3.3 2.1 4.7l3.3 7.2h4l13.7 13.7 2.6-2.6L12 9.2V5.3zm20.3 16.4l2.6-2.6-.2-5.4c-.1-1.4.5-2.7 1.4-3.7 2.4-2.4 5.6-3.7 9-3.7h2.6l-6.6 6.6 6.6 6.6L47 9.6v2.6c0 3.4-1.3 6.6-3.7 9-1 1-2.3 1.5-3.7 1.4l-5.4-.2-1 1m-9.7 9.7l-3.6 3.6c.8 3.1 0 6.5-2.4 8.9-3.6 3.6-9.5 3.6-13.1 0-3.6-3.6-3.6-9.5 0-13.1 2.4-2.4 5.9-3.2 8.9-2.4l5.1-5.1"/><path d="M10.4 34.4L7 37.8l1.2 4.7 4.7 1.2 3.4-3.4-1.2-4.6z"/></g></svg>