<svg xmlns="http://www.w3.org/2000/svg" viewBox="112.51 35.5 569.99 520.636"><path d="M544 431.3c-11.524 0-20.9-9.375-20.9-20.899s9.376-20.9 20.9-20.9 20.9 9.376 20.9 20.9S555.524 431.3 544 431.3zm0-25c-2.261 0-4.1 1.84-4.1 4.101s1.839 4.1 4.1 4.1 4.1-1.839 4.1-4.1-1.839-4.101-4.1-4.101zm-86.4 25c-11.524 0-20.899-9.375-20.899-20.899s9.375-20.9 20.899-20.9 20.9 9.376 20.9 20.9-9.376 20.899-20.9 20.899zm0-25c-2.261 0-4.1 1.84-4.1 4.101s1.839 4.1 4.1 4.1 4.101-1.839 4.101-4.1-1.841-4.101-4.101-4.101z" fill="#FF8144"/><path fill="#FF8144" d="M503.87 556.136c-1.483 0-2.523-.019-3.07-.031-3.773.089-31.026.444-65.173-6.883-48.381-10.382-87.606-31.473-113.434-60.99a12.499 12.499 0 0 1-3.065-9.063c.203-3.039 5.164-74.84 22.815-111.403 3.001-6.217 10.476-8.824 16.691-5.822 6.217 3.001 8.824 10.475 5.823 16.691-13.056 27.044-18.518 80.127-19.967 96.954 54.967 57.912 154.889 55.555 155.915 55.517.266-.008.54-.009.803.001 1.015.024 101.028 2.404 155.981-55.6-1.899-26.61-8.81-84.702-23.589-104.407a12.5 12.5 0 0 1-2-11c.132-.457 11.994-42.813-.659-86.612l-47.47 41.886a12.502 12.502 0 0 1-8.271 3.127H456.4c-6.903 0-12.5-5.597-12.5-12.5s5.597-12.5 12.5-12.5h114.073l57.656-50.873a12.503 12.503 0 0 1 19.694 4.296c21.299 47.923 13.019 97.652 9.234 114.378 20.268 34.121 24.938 109.145 25.424 118.015a12.5 12.5 0 0 1-3.074 8.915c-25.828 29.518-65.054 50.608-113.435 60.99-29.196 6.265-53.353 6.914-62.102 6.914zM530.8 514.1h-60c-6.903 0-12.5-5.597-12.5-12.5s5.597-12.5 12.5-12.5h60c6.903 0 12.5 5.597 12.5 12.5s-5.597 12.5-12.5 12.5z"/><path fill="#FF8144" d="M470.81 473.303c-4.586 0-9-2.532-11.19-6.913-3.087-6.175-.584-13.683 5.591-16.771l14.4-7.2a12.506 12.506 0 0 1 5.59-1.319h31.2c1.94 0 3.854.452 5.591 1.319l14.399 7.2c6.174 3.088 8.677 10.597 5.59 16.771-3.088 6.174-10.598 8.678-16.771 5.59l-11.76-5.881h-25.298l-11.762 5.881a12.451 12.451 0 0 1-5.58 1.323zM370 384.5H250c-27.134 0-52.807-10.729-72.289-30.211S147.5 309.135 147.5 282c0-24.18 8.488-47.394 24-65.91V152.4c0-64.459 52.441-116.9 116.9-116.9h43.2c64.459 0 116.9 52.441 116.9 116.9v63.902c15.93 19.965 24 42.045 24 65.698 0 27.135-10.729 52.807-30.211 72.289S397.134 384.5 370 384.5zm-81.6-324c-50.674 0-91.9 41.226-91.9 91.9v68.4c0 3.143-1.184 6.169-3.315 8.479C179.846 243.729 172.5 262.453 172.5 282c0 42.01 35.491 77.5 77.5 77.5h120c42.01 0 77.5-35.49 77.5-77.5 0-18.962-7.063-36.815-20.99-53.065a12.501 12.501 0 0 1-3.01-8.135v-68.4c0-50.674-41.226-91.9-91.9-91.9h-43.2z"/><path fill="#FF8144" d="M310 384.5c-6.904 0-12.5-5.597-12.5-12.5v-71.124a20.787 20.787 0 0 1-2.213-1.622l-30.238-18.608A12.5 12.5 0 0 1 259.1 270v-22.8a12.5 12.5 0 0 1 9.468-12.127l14.4-3.6c.137-.034.274-.066.413-.096 18.458-3.955 37.179-3.955 55.638 0 .138.03.276.062.413.096l14.4 3.6A12.5 12.5 0 0 1 363.3 247.2V270a12.5 12.5 0 0 1-5.949 10.646l-31.2 19.2a33.285 33.285 0 0 1-3.652 1.915V372c.001 6.903-5.595 12.5-12.499 12.5zm0-109c2.071 0 4.024.503 5.745 1.396l22.555-13.88v-6.055l-4.721-1.18c-14.851-3.154-29.906-3.154-44.758 0l-4.721 1.18v6.055l21.551 13.262A12.44 12.44 0 0 1 310 275.5zm128.019-69.783c-.737 0-1.478-.006-2.227-.019-6.903-.115-12.405-5.804-12.29-12.707.113-6.831 5.688-12.292 12.494-12.292.07 0 .141 0 .212.002 12.179.192 28.114-1.596 34.969-11.313 7.009-9.937 3.501-26.237 1.336-32.403-2.818-5.522-24.481-47.277-45.352-68.147-16.429-16.429-42.072-.252-43.155.445-5.775 3.784-13.5 2.155-17.284-3.62-3.783-5.774-2.147-13.537 3.628-17.32 14.976-9.813 49.819-21.853 74.489 2.817 25.146 25.146 49.324 73.215 50.342 75.249.18.36.342.728.486 1.103.512 1.33 12.337 32.832-3.955 56.136-10.241 14.649-28.301 22.069-53.693 22.069zm-263.237 0c-25.395 0-43.452-7.419-53.693-22.069-16.293-23.304-4.467-54.806-3.956-56.136.145-.375.307-.743.487-1.103 1.017-2.034 25.196-50.103 50.341-75.249 24.67-24.669 59.512-12.631 74.489-2.817 5.775 3.783 7.389 11.531 3.605 17.306-3.772 5.76-11.491 7.383-17.262 3.634-1.083-.696-26.727-16.871-43.155-.445-20.878 20.878-42.55 62.658-45.356 68.155-2.147 6.095-5.683 22.439 1.34 32.395 6.854 9.717 22.793 11.505 34.969 11.313l.212-.002c6.807 0 12.38 5.46 12.494 12.292.115 6.903-5.387 12.592-12.29 12.707-.746.013-1.49.019-2.225.019zM353.2 214.1c-11.524 0-20.9-9.375-20.9-20.9s9.376-20.9 20.9-20.9 20.9 9.376 20.9 20.9-9.375 20.9-20.9 20.9zm0-25c-2.261 0-4.1 1.839-4.1 4.1s1.839 4.1 4.1 4.1 4.1-1.839 4.1-4.1-1.839-4.1-4.1-4.1zm-86.4 25c-11.524 0-20.9-9.375-20.9-20.9s9.375-20.9 20.9-20.9 20.9 9.376 20.9 20.9-9.376 20.9-20.9 20.9zm0-25c-2.261 0-4.1 1.839-4.1 4.1s1.839 4.1 4.1 4.1 4.1-1.839 4.1-4.1-1.839-4.1-4.1-4.1zm234 325c-6.903 0-12.5-5.597-12.5-12.5v-48c0-6.903 5.597-12.5 12.5-12.5s12.5 5.597 12.5 12.5v48c0 6.903-5.597 12.5-12.5 12.5z"/></svg>