<svg xmlns="http://www.w3.org/2000/svg" viewBox="0 0 50 50"><path d="M12.8 17l1.6 2h14.3L26 36.7l.6-.6c.6-.6 1.2-1.2 1.8-1.7L31 17H12.8zm11.6 30.4l-.1.6H6.7L2.3 19h9.5l-1.6-2H0l5 33h21l.2-1h-.6c-.2 0-.9-1-1.2-1.6z" fill="#ff8144"/><path fill="none" stroke="#ff8144" stroke-width="2" stroke-linecap="round" stroke-linejoin="round" stroke-miterlimit="10" d="M16 24L2 7m32 24c-2.9 1-5.3 3-7.5 5.1-2 1.9-3.6 4.6-3.4 7.5.1 1.2.5 2.5 1 3.6.1.1 1.2 1.9 1.4 1.9H48c-12.9-3.8-9-16-9-16"/><path d="M4.8 10.4L6.1 12c-1.2.3-2.1 1-2.8 2.1-.2.3-.4.7-.5 1.1-.1.1-.1.3-.1.3h-2c0-.5.2-1 .3-1.1.1-.4.3-.9.6-1.4.8-1.2 1.9-2.1 3.2-2.6zm25.6 5.1h-2c0-.1-.1-.3-.1-.4-.9-1.6-2.6-2.7-4.5-2.7-.3 0-.5 0-.8.1-.3 0-.6 0-.8-.2-.2-.2-.3-.5-.4-.7-.6-3.1-3.3-5.4-6.5-5.4-2.9 0-5.5 1.9-6.3 4.7v.2c-.1.5-.3.8-.8.8-.2 0 .2 0 0 0L6.6 10c.4-.2.3-.1.7-.2 1.3-3.4 4.5-5.7 8.1-5.7 3.9 0 7.3 2.6 8.3 6.3 2.7 0 5.1 1.4 6.4 3.8 0 .1.3.7.3 1.3z" fill="#ff8144"/><path d="M36.5 49.2s-3.3-2.1-1.8-6.9m-5.3 6.9s-2.8-6.7 2.3-10.5M45.1 2.4v-.1C45.4 1.5 46.2 1 47 1c1.1 0 2 .9 2 2 0 .3-.1.5-.2.8L39 33l-5-2L45.1 2.3" fill="none" stroke="#ff8144" stroke-width="2" stroke-linecap="round" stroke-linejoin="round" stroke-miterlimit="10"/></svg>