<svg xmlns="http://www.w3.org/2000/svg" viewBox="0 0 50 50"><g fill="none" stroke="#ff8144" stroke-width="2" stroke-linecap="round" stroke-linejoin="round" stroke-miterlimit="10"><circle cx="12" cy="6" r="4"/><path d="M7 36v9.6c0 1.2.7 2.3 1.9 2.5 1.6.4 3.1-.8 3.1-2.4m5-9.7v9.7c0 1.6-1.5 2.8-3.1 2.4-1.1-.3-1.9-1.4-1.9-2.5V36m0-22h5l5.4 15.4c.3.9-.2 1.9-1.1 2.2-.9.3-1.9-.2-2.2-1.1L16 21m-4-7H6.8L1.4 29.4c-.3.9.2 1.9 1.1 2.2.9.3 1.9-.2 2.2-1.1L7.8 21"/><path d="M16 21l5 15H3l5-15m30 21h-3c-6.1 0-11-4.9-11-11h25c0 6.1-4.9 11-11 11zm11-11H33.9l6.3-10.8c5 1 8.8 5.4 8.8 10.8z"/><path d="M42.5 41h.5c2.2 0 4 1.8 4 4s-1.8 4-4 4-4-1.8-4-4c0-1.4.8-2.7 1.9-3.4m-8.8 0c1.1.7 1.9 2 1.9 3.4 0 2.2-1.8 4-4 4s-4-1.8-4-4 1.8-4 4-4h.5"/></g></svg>