<svg xmlns="http://www.w3.org/2000/svg" viewBox="0 0 50 50"><g fill="none" stroke="#ff8144" stroke-width="2" stroke-linecap="round" stroke-linejoin="round" stroke-miterlimit="10"><circle cx="11.5" cy="6.5" r="3.5"/><path d="M7 20v23.7c0 1.2.7 2.3 1.9 2.5 1.6.4 3.1-.8 3.1-2.4"/><path d="M12 34v9.7c0 1.2.7 2.3 1.9 2.5 1.6.4 3.1-.8 3.1-2.4V18h11.7c.9 0 1.7-.5 2-1.3.4-1.4-.6-2.7-1.9-2.7H16l-4 5-4-5h-.1C5.1 14 3 16.4 3 19.1V31c0 .9.5 1.7 1.3 2 1.4.4 2.7-.6 2.7-1.9"/><path d="M19 5h27v28H20m4.2 12.3l6-11 6 11M30 5V2"/></g></svg>