<svg xmlns="http://www.w3.org/2000/svg" xmlns:xlink="http://www.w3.org/1999/xlink" viewBox="0 0 500 500"><path d="M475.2 320.1c-1.1 13.5-6.9 30-17.2 46.9l-2 3c-7.7 12-17.7 24.1-30 35.3-2.7 2.4-5.4 4.8-8.3 7.2-2.3 1.8-4.6 3.7-7 5.4-.5.4-1.1.8-1.6 1.2-4.1 3-8.3 5.8-12.7 8.6-.6.3-1.1.7-1.7 1-4 2.4-8.1 4.7-12.4 6.9-.6.3-1.1.6-1.7.9h-.1c-4.6 2.3-9.4 4.5-14.3 6.5-.6.2-1.2.5-1.8.7-5.2 2.1-10.6 4-16.2 5.7-.6.2-1.2.4-1.8.5-5.5 1.6-11.1 3-16.9 4.2-12.1 2.5-24.9 4-38.4 4.5-66.5 2.2-129.2-1.1-169.3-18.3-4-1.7-7.7-3.5-11.2-5.5-5.2-2.9-9.8-6.2-13.9-9.7-12.4-10.8-19.4-24.8-19.5-42.5 0-1.6 0-3.1.1-4.8.1-1.1.2-2.2.3-3.2.2-1.4.3-2.9.4-4.3.1-1.6.3-3.2.4-4.8.3-5 .5-9.7.5-14.2v-5.1c-.5-26-6-45.3-12.9-61.4-1.2-2.8-2.5-5.5-3.7-8.2-.3-.6-.6-1.2-.8-1.7-.5-1-1-2-1.5-2.9-.6-1.1-1.1-2.2-1.7-3.3-.3-.6-.6-1.2-1-1.8-1-1.9-2-3.8-3-5.6-1.4-2.5-2.7-5-4.1-7.4-.6-1.1-1.2-2.3-1.8-3.4C42 238.4 37 226.8 36 213c-.1-.6-.1-1.3-.1-1.9-.3-7.2.5-15 2.9-23.9 4-15.1 9.3-27.8 15.5-38.4 13.9-23.8 32.6-37.7 52.8-46.6.6-.3 1.3-.6 1.9-.8 7.5-3.2 15.2-5.7 22.9-7.8.7-.2 1.4-.4 2-.6 8.2-2.2 16.5-3.9 24.6-5.5 5.3-1 10.9-1.9 16.6-2.5 38-4 82.9 1.2 113.8 6.3 18.8 3.1 37.1 8.5 54.4 16.1 22.7 9.9 43.6 23.6 61.9 40.6.5.4.9.9 1.4 1.3 2.1 2 4.1 4 6 6 1.8 1.8 3.5 3.7 5.2 5.5 1.6 1.7 3.1 3.5 4.6 5.3 1.5 1.8 3 3.6 4.5 5.5 11.5 14.4 20.5 29.4 27.4 44.3l.9 1.8c1.9 4.2 3.7 8.4 5.3 12.6.8 2 1.5 4 2.2 5.9 12.1 33.7 14.1 64.6 12.5 83.9z" fill="#f2f5f6"/><path d="M418.2 161v115.7H62.5c-.3-.6-.6-1.2-.8-1.7-.5-1-1-2-1.5-2.9-.6-1.1-1.1-2.2-1.7-3.3-.3-.6-.6-1.2-1-1.8-1-1.9-2-3.8-3-5.6V148.8c13.9-23.8 32.6-37.7 52.8-46.6.6-.3 1.3-.6 1.9-.8 7.5-3.2 15.2-5.7 22.9-7.8.7-.2 1.4-.4 2-.6 8.2-2.2 16.5-3.9 24.6-5.5 5.3-1 10.9-1.9 16.6-2.5 38-4 82.9 1.2 113.8 6.3 18.8 3.1 37.1 8.5 54.4 16.1 22.7 9.9 43.6 23.6 61.9 40.6.5.4.9.9 1.4 1.3 2.1 2 4.1 4 6 6 2 2 3.7 3.8 5.4 5.7z" fill="#f2f5f6"/><path d="M60.2 272c.5 1 1 1.9 1.5 2.9.3.6.6 1.2.8 1.7 1.3 2.6 2.5 5.3 3.7 8.2 6.9 16.1 12.4 35.4 12.9 61.4h-3c0-.3-.1-.5-.2-.8.1-.3.1-.6.1-.9l1.5-1c.3-.2.3-.6.2-.8-.2-.3-.6-.4-.8-.2l-.9.6c-.1-.6-.3-1.2-.6-1.7-.4-.6-.8-1-1.4-1.3v-.1l.3-2.6c0-.3-.2-.6-.5-.7-.3 0-.6.2-.7.5l-.1.7-.2 1.8c-.6 0-1.1.3-1.6.7l-.2-.5c-.1-.3-.5-.4-.8-.3-.3.1-.4.5-.3.8l.4.9c-.5.7-.9 1.5-1.1 2.4-.3-.1-.6.1-.7.4-.1.3.1.7.4.8h.1v1h-3.5c.5-1.1 1-2.4 1.3-3.7l.3-.1c.3-.1.5-.5.4-.8-.1-.2-.2-.3-.4-.4.1-.9.2-1.9.2-2.8 0-.5 0-.9-.1-1.3l1.1-.3c.3-.1.5-.4.4-.8-.1-.3-.4-.5-.8-.4l-.8.3c-.1-.9-.3-1.7-.5-2.5.3-.1.5-.2.8-.3l1.5.4h.2c.3 0 .5-.2.6-.4.1-.3-.1-.7-.4-.7l-.4-.1c.4-.3.8-.7 1.1-1.1.7-.9 1.2-1.9 1.4-2.9v-.3l1.6-.3.6-.1c.3-.1.5-.4.5-.7s-.4-.5-.7-.5l-.6.1-1.3.3c-.1-.6-.3-1.1-.7-1.5l-.3-.3c-.9-.8-2.3-.7-3.6-.1l-.2-1.4c-.1-.3-.4-.6-.7-.5-.3 0-.6.4-.5.7l.3 1.9c-.4.3-.9.8-1.3 1.2-.3.3-.5.7-.7 1.1-.9-1-1.9-1.7-3-2.1l.8-3.2c.1-.3-.1-.7-.5-.7-.3-.1-.6.1-.7.5l-.8 3.2c-.3-.1-.6-.1-.9-.1-1.5 0-2.9.6-4.1 1.6l-.1-.1v54.5c6.6.6 14.5 1.1 23.3 1.5.1 17.8 7.1 31.7 19.5 42.5 4.1 3.6 8.8 6.8 13.9 9.7 3.5 2 7.2 3.8 11.2 5.5 40.1 17.2 102.8 20.5 169.3 18.3 13.5-.5 26.3-2 38.4-4.5 5.8-1.2 11.4-2.6 16.9-4.2.6-.2 1.2-.3 1.8-.5 5.6-1.7 11-3.6 16.2-5.7.6-.2 1.2-.5 1.8-.7 4.9-2 9.7-4.2 14.3-6.5h.1c.6-.3 1.2-.6 1.7-.9 4.3-2.2 8.4-4.5 12.4-6.9.6-.3 1.1-.7 1.7-1 4.4-2.7 8.7-5.6 12.7-8.6.6-.4 1.1-.8 1.6-1.2 2.4-1.8 4.7-3.6 7-5.4V272H60.2zm19 79.3c0 4.5-.2 9.3-.5 14.2-1.8.1-3.5.1-5.2.2l2.6-10 1-4 .1-.5h1.7c.1.2.2.2.3.1z" fill="#dddbde"/><path d="M160.7 262.6c-1.4-2.1-4.2-2.2-6.1-2v-60.4c0-.9-1.2-1.3-1.7-.6l-6.7 8.1h-15.3l-6.9-7.3c-.8-.8-2.1-.2-2 .9.3 5.1.5 14.9-2.3 19.7-3.8 6.6-16.9 12.1-20.4 18.1-7.4 12.6-2 25.3-2 25.3l-.8 3.2 64.4-.3c-.1-.1 2-1.4-.2-4.7z" fill="#332f2f"/><path d="M134.7 218.4c.1.4-1.9 2.2-4.2 2.2-2.3 0-4.2-1.8-4.2-2.2 0-.5 1.9-2.2 4.2-2.2 2.3-.1 4.1 1.8 4.2 2.2z" fill="#f2f5f6"/><ellipse cx="130.4" cy="218.4" rx=".9" ry="2.2" fill="#332f2f"/><path d="M148.9 218.4c.1.4-1.9 2.2-4.2 2.2s-4.2-1.8-4.2-2.2c0-.5 1.9-2.2 4.2-2.2s4 1.8 4.2 2.2z" fill="#f2f5f6"/><ellipse cx="144.6" cy="218.4" rx=".9" ry="2.2" fill="#332f2f"/><path d="M137.3 224.2s2.4-1.3 2.1-1.9c-.4-1-3.9-1-4.3 0-.2.6 2.2 1.9 2.2 1.9z" fill="#ff8144"/><path d="M149.3 265.7c-.3 0-.6-.2-.6-.5l-2.6-21.3c0-.3.2-.6.5-.7.3 0 .6.2.7.5l2.6 21.3c.1.3-.2.6-.6.7.1 0 0 0 0 0zm-24.1-.5c-.3 0-.5-.2-.6-.4-.7-1.9-5.2-2.1-6.8-2.1-.2 0-.4-.1-.5-.3-.1-.2-.1-.4-.1-.6 4-10.6-5.1-17.4-5.5-17.7-.3-.2-.3-.6-.1-.9.2-.3.6-.3.9-.1.1.1 9.7 7.2 6.2 18.3 1.9 0 6.2.4 7.1 2.9.1.3-.1.7-.4.8 0 .1-.1.1-.2.1zm19.1.2c-.4 0-.6-.3-.6-.6 0-.9-.2-1.6-.8-2.1-1.9-1.9-6.4-1.6-6.4-1.6-.3 0-.6-.2-.6-.6 0-.3.2-.6.6-.6.2 0 5.1-.3 7.4 2 .8.8 1.2 1.8 1.2 3.1-.2.1-.4.4-.8.4zm273.5 1.5v17.9H66.2c-1.2-2.8-2.5-5.5-3.7-8.2-.3-.6-.6-1.2-.8-1.7-.5-1-1-2-1.5-2.9-.6-1.1-1.1-2.2-1.7-3.3-.3-.6-.6-1.2-1-1.8h360.3z" fill="#fff"/><path d="M475.2 320.1c-1.1 13.5-6.9 30-17.2 46.9l-2 3c-7.7 12-17.7 24.1-30 35.3-2.7 2.4-5.4 4.8-8.3 7.2-2.3 1.8-4.6 3.7-7 5.4-.5.4-1.1.8-1.6 1.2-4.1 3-8.3 5.8-12.7 8.6-.6.3-1.1.7-1.7 1-4 2.4-8.1 4.7-12.4 6.9-.6.3-1.1.6-1.7.9h-.1c-5.7-1.7-10.6-3.3-14.2-4.5l-1.8-.6c-3.4-1.1-5.3-1.8-5.3-1.8.8-14.9 2.8-29.7 5.7-44.1.6-2.8 1.2-5.7 1.8-8.5 2.8-12.3 6.3-24.3 10.1-35.9.5-1.6 1-3.1 1.6-4.7 2.1-6.2 4.3-12.3 6.6-18.1.2-.6.5-1.2.7-1.8 1-2.6 2-5.1 3.1-7.6l.3-.9c3.4-8.1 6.8-15.9 10.3-23.2 1.3-2.8 2.6-5.5 3.9-8.2.8-1.6 1.6-3.1 2.3-4.7.9-1.7 1.7-3.4 2.6-5.1.8-1.6 1.6-3.2 2.5-4.7.7-1.3 1.4-2.6 2-3.8 0-.1.1-.1.1-.2.9-1.6 1.7-3.1 2.5-4.6.8-1.5 1.7-3 2.5-4.5 2.4-4.2 4.6-8 6.7-11.5 6.9-11.7 12-19.2 13.6-21.5.3-.5.5-.7.5-.7l-.9-.3c-7-2.1-13.6-5.1-19.9-8.8-3.9-2.3-7.8-4.9-11.5-7.7-5.3-4.1-10.4-8.7-15.3-13.7l-.6-.6c-2.5-2.6-5-5.4-7.3-8.2-.3-.4-.7-.8-1-1.2l-.2-.2-1.5-1.8c-.1-.2-.3-.4-.5-.6-.1-.1-.1-.2-.2-.3-.4-.5-.7-.9-1.1-1.4-.4-.5-.7-1-1.1-1.4-2.6-3.5-5.2-7.1-7.7-10.8-.4-.5-.7-1.1-1.1-1.6-.1-.1-.2-.2-.2-.4-1.8-2.8-3.6-5.6-5.3-8.5-.8-1.3-1.6-2.7-2.3-4-.2-.3-.4-.7-.6-1-6.5-11.4-12.3-23.4-17.3-35.2 22.7 9.9 43.6 23.6 61.9 40.6.5.4.9.9 1.4 1.3 2.1 2 4.1 4 6 6 1.8 1.8 3.5 3.7 5.2 5.5 1.6 1.7 3.1 3.5 4.6 5.3 1.5 1.8 3 3.6 4.5 5.5 11.5 14.4 20.5 29.4 27.4 44.3l.9 1.8c1.9 4.2 3.7 8.4 5.3 12.6.8 2 1.5 4 2.2 5.9 12.4 33.5 14.4 64.4 12.8 83.7z" fill="#ff8144"/><path d="M428.1 174.8c-.2.1-.3.2-.5.2s-.5-.1-.6-.3c-3.1-3.3-6-6.7-8.8-10-4.6-5.5-8.8-11-12.7-16.5.5.4.9.9 1.4 1.3 2.1 2 4.1 4 6 6 1.7 2.2 3.4 4.4 5.2 6.6 1.9 2.3 3.9 4.7 5.9 7-.4-.8-.8-1.8-1.3-2.8 1.5 1.8 3 3.6 4.5 5.5.6 1.3 1 2 1 2 .3.3.2.8-.1 1zm26.6 41.2l.9 1.8c-4.8 0-10.3-.5-16.7-1.6-.1 0-.3-.1-.4-.2-.3-.2-.4-.5-.4-.9v-.1c.1-.4.6-.7 1-.6 6 1 11.1 1.5 15.6 1.6zm8.3 20.3l-5 130.6-2 3.1 5.1-134.1c-4.7 17.5-16.6 64.2-27 125.8-.1.5-.5.8-1 .7-.5-.1-.8-.5-.7-1 11.7-69 25.2-119.4 28.4-131 .8 2 1.5 3.9 2.2 5.9z" fill="#f65727"/><ellipse cx="232.1" cy="271.7" rx="7.7" ry="2.7" fill="#b86332"/><path d="M240.3 231.5s15.2 5.7-.5 40.2l-12.6-17.4-3.3-22.2 16.4-.6z" fill="#b86332"/><path d="M223.5 231.5s-15.2 5.7.5 40.2l.6.7 12-18.1-13.1-22.8z" fill="#b86332"/><ellipse cx="231.9" cy="232" rx="8.9" ry="1.7" fill="#360000"/><path d="M240.6 232.4c-.8.8-4.4 1.4-8.7 1.4-4.1 0-7.6-.5-8.6-1.3l1.1 39.7 15.4-.4 1-39.3h-.2z" fill="#b86332"/><defs><path id="a" d="M240.3 231.5l-16.4.6-.3-.6s-15.2 5.7.5 40.2l.4-.5v.9h.1c.6 1.3 3.8 2.2 7.6 2.2 4.3 0 7.7-1.2 7.7-2.7 15.5-34.4.4-40.1.4-40.1z"/></defs><clipPath id="b"><use xlink:href="#a" overflow="visible"/></clipPath><g opacity=".32" clip-path="url(#b)"><path d="M231.9 240.8c-10.8 0-19.3-4.6-19.3-10.5h1.2c0 5.1 8.1 9.3 18.1 9.3s18.1-4.2 18.1-9.3h1.2c0 5.9-8.5 10.5-19.3 10.5z" fill="#360000"/></g><g opacity=".32" clip-path="url(#b)"><path d="M231.9 250.2c-10.8 0-19.3-4.6-19.3-10.5h1.2c0 5.1 8.1 9.3 18.1 9.3s18.1-4.2 18.1-9.3h1.2c0 5.9-8.5 10.5-19.3 10.5z" fill="#360000"/></g><g opacity=".32" clip-path="url(#b)"><path d="M231.9 259.7c-10.8 0-19.3-4.6-19.3-10.5h1.2c0 5.1 8.1 9.3 18.1 9.3s18.1-4.2 18.1-9.3h1.2c0 5.9-8.5 10.5-19.3 10.5z" fill="#360000"/></g><g opacity=".32" clip-path="url(#b)"><path d="M231.9 269.1c-10.8 0-19.3-4.6-19.3-10.5h1.2c0 5.1 8.1 9.3 18.1 9.3s18.1-4.2 18.1-9.3h1.2c0 5.9-8.5 10.5-19.3 10.5z" fill="#360000"/></g><path d="M246 201s-5.6-4.5-.8-9.8c4.8-5.3 20.8 6.7 25.9 6.4 5.1-.2-7.2 7.5-13.3 11-6.1 3.4-13.5.1-11.8-7.6zm-28.1 6s7.1.8 5.9 7.9-21.1 5.5-25.3 8.5c-4.2 3 2.1-10.2 5.4-16.4 3.2-6.2 11.2-7.4 14 0z" fill="#98acb3"/><path d="M226.9 188.9s.5 4.3-3.8 4.5-6-11.5-8.3-13.6 6.2-.1 10.3.9c4 1.1 5.8 5.6 1.8 8.2zm10.6 32.5s-4.3-.5-3.5-4.7c.8-4.2 12.6-3.2 15.2-4.9 2.5-1.7-1.3 6.1-3.3 9.7-2 3.7-6.8 4.3-8.4-.1z" fill="#dddbde"/><path d="M227.4 166.6s-3.1 6.5-9.4 3.1c-6.3-3.4 1.6-21.8.1-26.7s9 5.3 13.8 10.4c4.9 5 3.4 12.9-4.5 13.2zm16.7-8.4s-7.2-.1-6.7-7.2c.5-7.1 20.4-7.7 24.3-11 3.9-3.4-1 10.4-3.7 16.9-2.5 6.4-10.4 8.4-13.9 1.3z" fill="#98acb3"/><path d="M231.9 234.3h-.1c-.3-.1-.6-.4-.5-.7 7.3-44.3-4.3-66.6-4.4-66.8-.2-.3 0-.7.2-.8.3-.2.7 0 .8.2.1.2 11.9 22.8 4.5 67.6 0 .3-.2.5-.5.5z" fill="#98acb3"/><path d="M231.6 178.5c-.4 0-.6-.4-.6-.7 1.7-13 12.3-19.9 12.7-20.2.3-.2.7-.1.8.2.2.3.1.7-.2.8-.1.1-10.6 6.9-12.2 19.3.1.4-.2.6-.5.6zm3 26.2c-.1 0-.2 0-.2-.1-.3-.1-.4-.5-.3-.8 1.1-2.4 2.7-4 4.7-4.6 3.7-1.1 7.4 1.1 7.6 1.2.3.2.4.5.2.8-.2.3-.5.4-.8.2 0 0-3.5-2.1-6.6-1.1-1.7.5-3 1.9-4 3.9-.2.4-.4.5-.6.5zm-.5 8.5c-.3 0-.5-.2-.6-.5-.5-3.1-1.9-5.2-3.9-6.2-4.6-2.3-11.4 1-11.5 1.1-.3.1-.7 0-.8-.3-.2-.3 0-.7.3-.8s7.4-3.7 12.5-1.1c2.4 1.2 4 3.6 4.6 7.1.1.3-.2.6-.5.7h-.1zm-.3-17.7c-.2 0-.5-.1-.6-.4-2.3-5.8-6.1-5.6-6.3-5.6-.3 0-.6-.2-.6-.6 0-.3.2-.6.6-.6.2 0 4.9-.3 7.5 6.4.1.3 0 .7-.3.8h-.3zm-.8 31.2h-.1c-.3-.1-.6-.4-.5-.7.6-3.3 4.7-5 4.9-5.1.3-.1.7 0 .8.3.1.3 0 .7-.3.8 0 0-3.6 1.6-4.1 4.2-.2.3-.4.5-.7.5z" fill="#98acb3"/><path d="M144.5 378c-.5-2.2-1-4.4-1.5-6.5-.1-.4-.2-.8-.3-1.3 0-.2-.1-.5-.2-.7v-.1c0-.1 0-.2-.1-.2 0-.2-.1-.4-.1-.6-.3-1.1-.5-2.1-.8-3.2-.4-1.7-.9-3.4-1.3-5-3.4-12.5-7.4-24.7-11.7-36.3-.6-1.6-1.2-3.2-1.8-4.7-.6-1.5-1.1-3-1.7-4.4-.3-.7-.5-1.4-.8-2.1l-.3-.6-.3-.6-.6-1.5-.9-2.1c-.1-.2-.1-.3-.2-.5l-.3-.6-.3-.6c-1.6-3.9-3.3-7.8-4.9-11.5l-.3-.6-.3-.6c-1.3-3-2.6-5.8-3.9-8.7-1.3-2.8-2.6-5.5-3.9-8.2-.8-1.6-1.5-3.1-2.3-4.7-.8-1.5-1.5-3-2.3-4.5l-.3-.6c-2.7-5.3-5.4-10.3-7.9-15-11.5-20.9-20.7-34.6-22.9-37.8-.3-.5-.5-.7-.5-.7.3-.1.5-.2.8-.2 50.8-15.3 83.4-75.9 102.7-128-5.7.6-11.3 1.4-16.6 2.5-8.1 1.6-16.4 3.3-24.6 5.5-.7.2-1.4.4-2 .6-7.7 2.1-15.4 4.6-22.9 7.8-.6.3-1.3.5-1.9.8-20.3 8.9-38.9 22.7-52.8 46.6-6.2 10.4-11.5 23-15.5 38.1-2.4 8.8-3.2 16.7-2.9 23.9 0 .6 0 1.3.1 1.9.9 13.8 6 25.5 12.4 37.5.6 1.1 1.2 2.3 1.8 3.4 1.3 2.4 2.7 4.9 4.1 7.4 1 1.8 2 3.7 3 5.6.3.6.6 1.2 1 1.8.6 1.1 1.1 2.2 1.7 3.3.5 1 1 1.9 1.5 2.9.3.6.6 1.2.8 1.7 1.3 2.6 2.5 5.3 3.7 8.2 6.9 16.1 12.4 35.4 12.9 61.4h-3c0-.3-.1-.5-.2-.8.1-.3.1-.6.1-.9l1.5-1c.3-.2.3-.6.2-.8-.2-.3-.6-.4-.8-.2l-.9.6c-.1-.6-.3-1.2-.6-1.7-.4-.6-.8-1-1.4-1.3v-.1l.3-2.6c0-.3-.2-.6-.5-.7-.3 0-.6.2-.7.5l-.1.7-.2 1.8c-.6 0-1.1.3-1.6.7l-.2-.5c-.1-.3-.5-.4-.8-.3-.3.1-.4.5-.3.8l.4.9c-.5.7-.9 1.5-1.1 2.4-.3-.1-.6.1-.7.4-.1.3.1.7.4.8h.1v1h-3.5c.5-1.1 1-2.4 1.3-3.7l.3-.1c.3-.1.5-.5.4-.8-.1-.2-.2-.3-.4-.4.1-.9.2-1.9.2-2.8 0-.5 0-.9-.1-1.3l1.1-.3c.3-.1.5-.4.4-.8-.1-.3-.4-.5-.8-.4l-.8.3c-.1-.9-.3-1.7-.5-2.5.3-.1.5-.2.8-.3l1.5.4h.2c.3 0 .5-.2.6-.4.1-.3-.1-.7-.4-.7l-.4-.1c.4-.3.8-.7 1.1-1.1.7-.9 1.2-1.9 1.4-2.9v-.3l1.6-.3.6-.1c.3-.1.5-.4.5-.7s-.4-.5-.7-.5l-.6.1-1.3.3c-.1-.6-.3-1.1-.7-1.5l-.3-.3c-.9-.8-2.3-.7-3.6-.1l-.2-1.4c-.1-.3-.4-.6-.7-.5-.3 0-.6.4-.5.7l.3 1.9c-.4.3-.9.8-1.3 1.2-.3.3-.5.7-.7 1.1-.9-1-1.9-1.7-3-2.1l.8-3.2c.1-.3-.1-.7-.5-.7-.3-.1-.6.1-.7.5l-.8 3.2c-.3-.1-.6-.1-.9-.1-1.5 0-2.9.6-4.1 1.6l-.1-.1-.9-1.5-.4-.6c-.2-.3-.6-.4-.8-.2-.3.2-.4.5-.2.8l1.5 2.3c-.6.6-1.1 1.4-1.6 2.2-1 1.8-1.7 4-2 6.4l-1.9-1.2c-.3-.2-.7-.1-.8.2-.2.3-.1.6.2.8l2.5 1.6v.9c0 1.5.2 3 .5 4.4l-.8-.3c-.3-.1-.7.1-.8.4-.1.3.1.7.4.8l1.5.5c.2.7.5 1.4.8 2h-5.4c-.8 0-1.5.7-1.5 1.5v2.2c0 .8.7 1.5 1.5 1.5H48l4.2 15.9c-11.6 1.1-18.7 2.6-19.3 4.2v5.1c.4 1.8 8.5 3.3 21.7 4.5 6.6.6 14.5 1.1 23.3 1.5.1 17.8 7.1 31.7 19.5 42.5 4.1 3.6 8.8 6.8 13.9 9.7 3.5 2 7.2 3.8 11.2 5.5 17.6-6.1 29.4-12.6 29.4-12.6-.8-15.2-2.9-30.3-5.9-45.1-.8-1.5-1.2-3-1.5-4.6zm-65.3-26.7c0 4.5-.2 9.3-.5 14.2-1.8.1-3.5.1-5.2.2l2.6-10 1-4 .1-.5h1.7c.1.2.2.2.3.1z" fill="#ff8144"/><path d="M132.1 93.7c.7-.2 1.4-.4 2-.6-9.8 24.6-25.5 52.9-50.3 79.7-.2.2-.4.3-.6.3-.2 0-.3-.1-.5-.2-.4-.3-.5-.7-.3-1.1.2-.4 16.4-31.2 24.8-69.6.6-.3 1.3-.6 1.9-.8-6.3 29.7-17.3 55-22.4 65.7 22-24.8 36.2-50.7 45.4-73.4zM72.4 214.1c-.1.1-.2.1-.3.1-6.7 1.2-12.5 1.6-17.4 1.6h-.3c-8.8 0-14.7-1.5-18.3-2.9-.1-.6-.1-1.3-.1-1.9 3.2 1.3 9.2 3 18.4 3.1 4.8 0 10.6-.4 17.3-1.6.4-.1.8.2.9.6v.1c.2.4.1.7-.2.9zM53.2 327.6l-1.5-2.3c-.2-.3-.1-.6.2-.8.3-.2.7-.1.8.2l.4.6.1 2.3zm1.7 44l.1 2.9c0 .5-.4.9-.8.9h-.1c-.4 0-.7-.4-.8-.8l-.1-2.9v-.5l-.1-3.9-.6-15.8v-.3l-.1-3-.1-1.9-.1-1.4-.1-1.3-.5-13.7c.5-.8 1-1.6 1.6-2.2l.2 6.3v1.1l.4 11.2.1 3.8v1.5l.6 15.6.2 4.3.2.1zm6.7-96.7c-.5-1-1-2-1.5-2.9-.6-1.1-1.1-2.2-1.7-3.3-.1-.6-.3-1.2-.4-1.8-1.3-5.4-2.5-10.3-3.6-14.7-2-8-3.7-14.4-4.8-18.8l.8 20.4c-.6-1.1-1.2-2.3-1.8-3.4l-.9-24.3c0-.4.3-.8.7-.9.4-.1.8.2 1 .6 0 .2 2 7.1 5.1 19.3 1.5 6 3.3 13.2 5.3 21.6l1.2 5.1c.2 1.2.4 2.2.6 3.1zm10.9 51.5c.1.4.2.8.2 1.2l-1.6.3v.3c0-.1 0-.2-.1-.3-.1-.4-.2-.8-.2-1.2-.1-.5-.2-1.1-.3-1.6.4.4.6.9.7 1.5l1.3-.2zm4.6 25.4l-1 4c-.3-1.5-.5-3-.8-4.4 0-.1 0-.2-.1-.3-.2-.9-.3-1.7-.4-2.5-.1-.8-.3-1.6-.4-2.3-.3-1.9-.7-3.7-1-5.6 0-.2-.1-.4-.1-.6-.1-.6-.2-1.3-.4-1.9l.1-.7c0-.3.3-.6.7-.5.3 0 .6.3.5.7l-.3 2.6v.1c.6.2 1 .7 1.4 1.3.1.6.2 1.3.3 1.9.1.4.2.9.2 1.3 0 .3.1.5.1.7.1.3.1.5.2.8.3 1.6.6 3.2.9 4.9 0 .1 0 .2.1.3v.2z" fill="#f65727"/><path d="M110.9 379.9v55c-5.2-2.9-9.8-6.2-13.9-9.7v-46.3l13.9 1zm315.2 25.5c-2.7 2.4-5.4 4.8-8.3 7.2-2.3 1.8-4.6 3.7-7 5.4-.5.4-1.1.8-1.6 1.2-4.1 3-8.3 5.8-12.7 8.6-.6.3-1.1.7-1.7 1-4 2.4-8.1 4.7-12.4 6.9-.6.3-1.1.6-1.7.9h-.1c-4.6 2.3-9.4 4.5-14.3 6.5-.6.2-1.2.5-1.8.7-5.2 2.1-10.6 4-16.2 5.7-.6.2-1.2.4-1.8.5-5.5 1.6-11.1 3-16.9 4.2.1-2.3.2-4.6.3-7.1 0-.5 0-1 .1-1.4.1-2.8.3-5.8.5-8.9 0-.8.1-1.5.1-2.3.1-.9.1-1.8.2-2.7 0-.4.1-.8.1-1.3 0-.4 0-.9.1-1.3.1-2.2.3-4.5.4-6.8.2-3.6.4-7.3.7-11 .1-2.2.3-4.5.4-6.7 0-.3 0-.5.1-.8.4-6.3.9-12.8 1.3-19.2.2-2 .3-3.9.5-5.9.1-1.9.3-3.8.4-5.7.3-2.9.5-5.7.8-8.6.1-.9.2-1.9.3-2.8.1-.9.2-1.9.3-2.8.1-1.5.3-3 .4-4.5.1-.6.1-1.1.2-1.7.2-1.5.3-3.1.5-4.6.3-2.6.6-5.2.9-7.7 1.2-9.8 4.7-18.6 7.4-24.4.1-.3.3-.6.4-.8 1.8-3.7 3.2-5.9 3.2-5.9h.1l40.2-1.3 12.1-.4c.2.1.3.3.5.5l.5.5c.3.3.6.7.9 1.1.1.2.3.4.4.5.8 1 1.5 2.1 2.2 3.4.1.2.3.4.4.7.2.3.3.6.5.9l1.2 2.4c.2.4.3.7.5 1.1.1.3.3.6.4 1 .4.9.8 1.9 1.1 2.9.2.4.3.8.4 1.2 0 .1.1.3.1.4.2.5.4 1.1.6 1.7.1.2.2.4.2.6.2.7.5 1.5.7 2.2v.1c.2.5.3.9.4 1.4.3 1 .6 1.9.8 2.9 1.5 5.3 2.9 11.1 4.2 17.3 1.4 6.6 2.6 13.6 3.7 20.7.1.8.3 1.6.4 2.4 0 .3.1.7.2 1 .2 1.6.5 3.2.7 4.8.1.8.2 1.5.3 2.3.3 1.9.5 3.8.8 5.7 1 6.1 1.7 12.2 2.4 18.1z" fill="#905744"/><path d="M354.4 316.5v.3l-.1 1.8-5.9 130.8c-.6.2-1.2.4-1.8.5l6-131.6.1-1.8v-.1l1.7.1zm13.2 2.2v.6l-.6 57.8-.5 55-.1 11c-.6.2-1.2.5-1.8.7l.1-12.2.4-45.9.6-66.3v-.6l1.9-.1zm14.8 116.9c-.6.3-1.1.6-1.7.9l-3.6-95.4-.9-22.1v-.9l1.8-.1v.9l.7 17.5 3.7 99.2zm14.1-7.9c-.6.3-1.1.7-1.7 1l-7.6-110.6-.1-.9 1.8-.1.1.9 7.5 109.7zm14.3-9.7c-.5.4-1.1.8-1.6 1.2l-11.1-102-.1-.9 1.7-.2.1.9 11 101z" fill="#360000"/><path d="M367.7 319.3c-14.7 0-22.2-2.4-22.6-2.5l.5-1.7c.1 0 12.2 3.9 35.5 1.8 22.8-2 25.4-2.6 25.5-2.7l.5 1.7c-.2.1-2.6.7-25.8 2.7-5 .5-9.6.7-13.6.7z" fill="#360000"/><path d="M426.1 405.4c-2.7 2.4-5.4 4.8-8.3 7.2-2.3 1.8-4.6 3.7-7 5.4-.5.4-1.1.8-1.6 1.2-4.1 3-8.3 5.8-12.7 8.6-.6.3-1.1.7-1.7 1-4 2.4-8.1 4.7-12.4 6.9-.6.3-1.1.6-1.7.9h-.1c-4.6 2.3-9.4 4.5-14.3 6.5-.6.2-1.2.5-1.8.7-5.2 2.1-10.6 4-16.2 5.7-.6.2-1.2.4-1.8.5-5.5 1.6-11.1 3-16.9 4.2.1-2.3.2-4.6.3-7.1 0-.5 0-1 .1-1.4.1-2.8.3-5.8.5-8.9 0-.8.1-1.5.1-2.3.1-.9.1-1.8.2-2.7 0-.4.1-.8.1-1.3 0-.4 0-.9.1-1.3.1-2.2.3-4.5.4-6.8.2-3.6.4-7.3.7-11 .1-2.2.3-4.5.4-6.7 0-.3 0-.5.1-.8.4-6.3.9-12.8 1.3-19.2.2-2 .3-3.9.5-5.9.1-1.9.3-3.8.4-5.7.3-2.9.5-5.7.8-8.6.1-.9.2-1.9.3-2.8.1-.9.2-1.9.3-2.8.1-1.5.3-3 .4-4.5.1-.6.1-1.1.2-1.7.2-1.5.3-3.1.5-4.6.3-2.6.6-5.2.9-7.7 1.2-9.8 4.7-18.6 7.4-24.4.1-.3.3-.6.4-.8 1.8-3.7 3.2-5.9 3.2-5.9h.1l40.2-1.3 12.1-.4c.2.1.3.3.5.5l.5.5c.3.3.6.7.9 1.1.1.2.3.4.4.5.8 1 1.5 2.1 2.2 3.4.1.2.3.4.4.7.2.3.3.6.5.9l1.2 2.4c.2.4.3.7.5 1.1.1.3.3.6.4 1 .4.9.8 1.9 1.1 2.9.2.4.3.8.4 1.2 0 .1.1.3.1.4.2.5.4 1.1.6 1.7.1.2.2.4.2.6.2.7.5 1.5.7 2.2v.1c.2.5.3.9.4 1.4.3 1 .6 1.9.8 2.9 1.5 5.3 2.9 11.1 4.2 17.3 1.4 6.6 2.6 13.6 3.7 20.7.1.8.3 1.6.4 2.4 0 .3.1.7.2 1 .2 1.6.5 3.2.7 4.8.1.8.2 1.5.3 2.3.3 1.9.5 3.8.8 5.7 1 6.1 1.7 12.2 2.4 18.1z" fill="none"/><path fill="#ff8144" d="M178.6 269.1l17.6-.3-4.5-12.3h-31.9l-4.6 12.3 17.7.3v.1l2.8-.1 2.9.1z"/><path d="M196.7 271.5h-41.9c-.9 0-1.7-.7-1.7-1.7 0-.9.7-1.7 1.7-1.7h41.9c.9 0 1.7.7 1.7 1.7s-.8 1.7-1.7 1.7z" fill="#f65727"/><ellipse cx="175.7" cy="256.5" rx="15.9" ry="2.1" fill="#f65727"/><path d="M189.5 257v.5c-1.9.7-7.7 1.2-14.7 1.1-4.8-.1-9.1-.3-11.8-.8-.4-.3-.7-.7-1-1.2l-.3-.9c-.1-.3-.1-.6-.1-.9 0-2 1.6-3.6 3.4-3.5.8 0 1.6.3 2.1.8.6-1.2 1.7-1.9 3-1.9.6 0 1.2.2 1.7.5.4-1.5 1.7-2.5 3.3-2.5 1.8 0 3.2 1.5 3.3 3.4.4-.1.7-.2 1.1-.2.9 0 1.7.4 2.3 1 .6-.8 1.6-1.2 2.6-1.2 1.7 0 3.1 1.4 3.3 3.1.8.4 1.5 1.2 1.6 2.1.2.3.2.5.2.6z" fill="#fcc5a7"/><path d="M175.5 261.4c-9.7 0-16-2.3-16.1-2.3-.3-.1-.5-.5-.4-.8.1-.3.5-.5.8-.4.1.1 13.5 4.9 31.1.2.3-.1.7.1.7.4s-.1.7-.4.7c-5.7 1.6-11.1 2.2-15.7 2.2z" fill="#f65727"/><path d="M165.2 255.2c1 0 1-1.5 0-1.5s-1 1.5 0 1.5zm4.7 2.2c1 0 1-1.5 0-1.5s-1 1.5 0 1.5zm2.9-3.4c1 0 1-1.5 0-1.5s-1 1.5 0 1.5zm5.4 3.7c1 0 1-1.5 0-1.5-1-.1-1 1.5 0 1.5zm-2.4-6.2c1 0 1-1.5 0-1.5s-1 1.5 0 1.5zm5.3 3.3c1 0 1-1.5 0-1.5s-1 1.5 0 1.5zm-5.8 1.3c1 0 1-1.5 0-1.5-.9-.1-.9 1.5 0 1.5zm9.1 1.7c1 0 1-1.5 0-1.5s-1 1.5 0 1.5zm1.9-3.5c1 0 1-1.5 0-1.5-1-.1-1 1.5 0 1.5zm-17.3-1.5c1 0 1-1.5 0-1.5s-1 1.5 0 1.5z" fill="#ff8144"/><path fill="#f65727" d="M251.417 172.122l27.805 19.567-19.567 27.806-27.805-19.567z"/><path d="M270.6 214.9c-2.9 0-6-.6-9.1-2.1l1.1-2.4c9.6 4.5 16.6-.2 18.6-1.7 2.9-2.3 4.5-5.3 4-7.5-.2-.9-.7-1.6-1.5-2-2.8-1.7-8.6-.7-10.7-.2l-.7-2.5c.3-.1 8.4-2.1 12.7.5 1.4.9 2.3 2.1 2.6 3.7.7 3.2-1.3 7.2-5 10.1-2.8 2.3-7.1 4.1-12 4.1zm-28.4-28.3l-8.3 14.4v-36.9l2-.5z" fill="#f65727"/><path d="M235.2 165.3l4.2-5.4c.2-.3 0-.7-.3-.6l-8.7.3c-.3 0-.5.4-.3.7l4.5 5.1c.1.1.4.1.6-.1z" fill="#f65727"/><path d="M276.8 196h-.2c-.1 0-14.2-4.4-28.1-19.7-.2-.2-.2-.6 0-.9.3-.2.6-.2.9 0 13.7 15.1 27.4 19.3 27.6 19.4.3.1.5.4.4.8-.1.3-.4.4-.6.4zm-14.7 20.3h-.2c-.1 0-14.2-4.4-28.1-19.7-.2-.2-.2-.6 0-.9.3-.2.6-.2.9 0 13.7 15.1 27.4 19.3 27.6 19.4.3.1.5.4.4.8-.1.2-.3.4-.6.4z" fill="#fff"/><path fill="#905744" d="M300.1 245.5l6.5 27.2h24.2l6.6-27.2z"/><path d="M339.2 245.9h-41c-1 0-1.9-.9-1.9-1.9v-3.2c0-1 .9-1.9 1.9-1.9h41c1 0 1.9.9 1.9 1.9v3.2c0 1.1-.8 1.9-1.9 1.9z" fill="#360000"/><path d="M338.2 159.2c-4.1 6.1-6.3 12-4.8 13.2s5.9-2.9 10-9 4.8-13.2 4.8-13.2-5.9 2.9-10 9zm.2 19.3c-6.9.7-12.4 2.7-12.2 4.7.2 1.9 5.9 3 12.8 2.3 6.9-.7 12.2-4.7 12.2-4.7s-5.9-3-12.8-2.3z" fill="#dddbde"/><path d="M321.1 169.3c.8 7.5 2.9 13.5 4.7 13.2 1.8-.2 2.5-6.5 1.7-14.1s-4.7-13.2-4.7-13.2-2.5 6.5-1.7 14.1zm-8.8 19.8c3.7 6.4 7.9 10.8 9.4 9.7s-.3-7.1-4-13.5-9.4-9.7-9.4-9.7.3 7.1 4 13.5zm-.6 18.8c4.9 5.3 9.9 8.6 11.2 7.2s-1.7-6.8-6.6-12.2-11.2-7.2-11.2-7.2 1.7 6.9 6.6 12.2zm2.5 18.6c5.4 4.8 10.7 7.4 11.8 5.9 1.1-1.5-2.3-6.6-7.7-11.4s-11.8-5.9-11.8-5.9 2.3 6.6 7.7 11.4zm20.1-32.6c-6.9.3-12.5 2.1-12.4 4.1s5.7 3.3 12.7 2.9c6.9-.3 12.4-4.1 12.4-4.1s-5.8-3.2-12.7-2.9z" fill="#dddbde"/><path d="M333.2 208.1c-6.7 2-11.7 5.2-11.2 7.1.5 1.9 6.3 1.7 13-.3s11.2-7.1 11.2-7.1-6.4-1.7-13 .3zm2.2 14c-6.1 3.7-10.3 8.1-9.4 9.8.9 1.7 6.5.1 12.5-3.6 6.1-3.7 9.4-9.8 9.4-9.8s-6.4-.1-12.5 3.6z" fill="#dddbde"/><path d="M328.9 238.4c-.2 0-.4-.1-.5-.3-.2-.4-18.3-42.1 4.7-66.1.2-.2.5-.2.7 0 .2.2.2.5 0 .7-22.5 23.5-4.7 64.5-4.5 64.9.1.3 0 .6-.3.7 0 .1-.1.1-.1.1z" fill="#dddbde"/><path d="M314.8 239.8h-.1c-.4-.1-.6-.4-.6-.8 12.5-77.8-15.9-115.4-16.2-115.7-.2-.3-.2-.7.1-1 .3-.2.7-.2 1 .1.3.4 29.1 38.4 16.5 116.8 0 .3-.3.6-.7.6z" fill="#98acb3"/><path d="M292.3 113.6c2.6 7 6.1 12.1 7.7 11.4 1.6-.7.9-7-1.7-14s-7.7-11.4-7.7-11.4-.9 6.9 1.7 14zm12.1 7.7c-1.1 7.5-.6 13.8 1.2 14.1 1.8.3 4.1-5.5 5.1-13 1.1-7.5-1.2-14.1-1.2-14.1s-4 5.5-5.1 13z" fill="#98acb3"/><path d="M292.7 133.5c6.5 2.6 12.3 3.2 12.9 1.4.6-1.8-4.2-5.4-10.7-8-6.5-2.6-12.9-1.4-12.9-1.4s4.1 5.4 10.7 8zm17.8 2.9c-1.1 7.5-.6 13.8 1.2 14.1 1.8.3 4.1-5.5 5.1-13s-1.2-14.1-1.2-14.1-4 5.5-5.1 13z" fill="#98acb3"/><path d="M298.8 148.6c6.5 2.6 12.3 3.2 12.9 1.4.6-1.8-4.2-5.4-10.7-8-6.5-2.6-12.9-1.4-12.9-1.4s4.2 5.4 10.7 8zm18.1 7.1c-1.7 7.3-1.8 13.7-.1 14.2s4.5-5.1 6.3-12.4c1.7-7.3.1-14.2.1-14.2s-4.6 5-6.3 12.4z" fill="#98acb3"/><path d="M304.1 166.6c6.3 3.3 11.9 4.5 12.7 2.8s-3.7-5.8-9.9-9.1c-6.3-3.3-12.7-2.8-12.7-2.8s3.7 5.8 9.9 9.1zm17 9.8c-3.1 6.8-4.3 13-2.8 13.9 1.6.9 5.4-3.9 8.5-10.7 3.1-6.8 2.8-13.9 2.8-13.9s-5.4 3.9-8.5 10.7z" fill="#98acb3"/><path d="M306.5 184.2c5.5 4.6 10.8 7.1 11.9 5.6s-2.5-6.5-8-11.2c-5.5-4.6-11.9-5.6-11.9-5.6s2.5 6.6 8 11.2zm16.9 14.4c-4.3 6-6.6 11.8-5.2 13s6-2.7 10.3-8.6 5.2-13 5.2-13-6 2.6-10.3 8.6z" fill="#98acb3"/><path d="M307.7 203c4.5 5.7 9.3 9.4 10.6 8.1 1.3-1.3-1.2-6.9-5.8-12.7-4.5-5.7-10.6-8.1-10.6-8.1s1.3 7 5.8 12.7zm13.8 12.8c-4.3 6-6.6 11.8-5.2 13 1.4 1.2 6-2.7 10.3-8.6 4.3-6 5.2-13 5.2-13s-6.1 2.6-10.3 8.6z" fill="#98acb3"/><path d="M305.8 220.3c4.5 5.7 9.3 9.4 10.6 8.1 1.3-1.3-1.2-6.9-5.8-12.7-4.5-5.7-10.6-8.1-10.6-8.1s1.2 6.9 5.8 12.7z" fill="#98acb3"/><path d="M371.4 192.7l-1.2-.2c-11.7-1.8-14-15.4-12.2-27.1l-4-8.4c1.8-11.7 12.8-19.7 24.5-17.9l1.2.2c11.7 1.8 19.7 12.8 17.9 24.5l-1.7 11.1c-1.9 11.6-12.8 19.6-24.5 17.8z" fill="#fff"/><path d="M369.2 198.1c-9.6-1.5-16.4-9.7-16.5-19.1l-2.6-.2 5.2-17.7c1.6-10.6 11.6-17.9 22.2-16.3 10.6 1.6 17.9 11.6 16.3 22.2l-2.3 14.7c-1.8 10.8-11.7 18-22.3 16.4z" fill="#fcc5a7"/><path d="M377.4 144.9c-1.1-.2-2.2-.2-3.2-.2 5.6 4.2 8.8 11.2 7.7 18.6l-2.3 14.7c-1.5 9.5-9.6 16.4-19 16.5 2.5 1.8 5.4 3.1 8.6 3.6 10.6 1.6 20.6-5.6 22.2-16.3l2.3-14.7c1.6-10.6-5.7-20.6-16.3-22.2z" fill="#360000"/><path fill="#fcc5a7" d="M366.2 188.9h23.3v31.5h-23.3z"/><path d="M373.7 158.8h-.1l-17.1-2.6c-.5-.1-.8-.5-.7-1 .1-.5.5-.8 1-.7l17.1 2.6c.5.1.8.5.7 1-.1.4-.5.7-.9.7zm-3.5 2.3h-.1l-14.1-2.2c-.5-.1-.8-.5-.7-1 .1-.5.5-.8 1-.7l14.1 2.2c.5.1.8.5.7 1-.1.4-.5.7-.9.7z" fill="#e69880"/><path d="M383.8 172.4c-9.5-5.4-12.3-17-12.3-17s-10.1 6.4-18.1 5.4c-12.6-1.5-1.6-23 10.7-17.2l18.5-.5 12.4 7.4 1.3 2s20.7 34.5 8 50c-4.4 5.3-11.4 7.9-19.5 7.1-10.4-1-14.6-7.5-13.7-17.8.4-4.9 4.2-13.3 9.3-14.9 0 0 .4 1.4 1.9-1.5l1.5-3z" fill="#fff"/><ellipse transform="rotate(-56.564 381.13 172.154)" cx="381.1" cy="172.2" rx="6.1" ry="4.3" fill="#fcc5a7"/><path d="M379 173c-.2 0-.3 0-.5-.1-.4-.3-.5-.8-.2-1.2 1.2-1.9 3.1-3.2 4.9-3.6.5-.1.9.2 1 .7.1.5-.2.9-.7 1-1.4.3-2.8 1.3-3.8 2.8-.2.3-.4.4-.7.4z" fill="#e69880"/><path d="M381.2 176.1c-.1 0-.3 0-.4-.1-.4-.2-.6-.7-.4-1.2.6-1.3.7-3 .1-4.7-.2-.5.1-1 .5-1.1.5-.2 1 .1 1.1.5.7 2.1.7 4.4-.2 6 0 .4-.3.6-.7.6z" fill="#e69880"/><ellipse transform="rotate(-81.193 358 169.92)" cx="358" cy="169.9" rx="2.6" ry="1.6" fill="#360000"/><path d="M363.6 167.2c-.1 0-.2 0-.3-.1-.4-.2-.6-.7-.5-1.2.2-.4.1-.8-.1-1.2-.2-.5-.7-.9-1.2-1.1-1.1-.5-2.2-.2-2.6.6-.2.4-.7.6-1.2.5-.4-.2-.6-.7-.5-1.2.7-1.7 2.9-2.4 4.9-1.5.9.4 1.7 1.1 2.1 1.9.5.9.5 1.9.1 2.7 0 .4-.4.6-.7.6z" fill="#fff"/><path d="M360.5 170.3c-.7 0-1.5-.2-2.1-.7-.4-.3-.5-.8-.2-1.2.3-.4.8-.5 1.2-.2.4.3.8.4 1.2.4.2 0 .5-.1.7-.4.3-.4.8-.5 1.2-.2.4.3.5.8.2 1.2-.5.6-1.2 1.1-2.1 1.1h-.1z" fill="#360000"/><path d="M355.2 188.4c2.8 0 5.1-1.6 5.1-3.5l-6.7-.2c.4 1.3.9 2.6 1.6 3.7z" fill="#fff"/><path d="M364.4 172.5c-.4 0-.8-.3-.9-.8-.1-.5.3-.9.7-1l2.9-.4c.5-.1.9.3 1 .7s-.3.9-.7 1l-2.9.4c0 .1-.1.1-.1.1z" fill="#e69880"/><path d="M285.3 225.4l-5.2.8-10.5-13.2c-1.1-1.6-.7-2.8 1.1-3l.3-1.5s1.2-1.5 2.2-.7c0 0-.3-2.4 1.8-1.8 0 0-.1-.5 2-1.7 0 0 1.7-1.5 2.1-.2.4 1.3-1.5 2.7-.6 4.4.6 1 .7 1.4 2.1 2.8.4.4 1.1 0 .9-.6l-1.5-4.4s-.8-1.9.6-2.3c1.4-.4 3.5 3.1 3.5 3.1l7.3 8.6c-.1.1-4.5 10.5-6.1 9.7z" fill="#fcc5a7"/><path d="M415.5 223.4s19.8 30.1 26.7 40.9c1.5 2.4 1.6 5.3.4 7.8l-18.5 37.7-16.5-5 15.3-32.4-17.8-25.8 10.4-23.2z" fill="#98acb3"/><path d="M349.8 251l-.6 58.6 53.5-.9 5.8-32.2 4.1-23.1s7.2-26.1 2.5-30.8c-6.2-6.1-25.6-8.9-25.6-8.9h-23.3l-1.8.5c-5.8 1.4-11.3 4-16.1 7.6L322 244l-28.2-27.1-13 10.7 37 39.4 32-16z" fill="#98acb3"/><path fill="#fff" d="M424.2 309.7l-1 2.4-16.7-4.9 1.1-2.4z"/><path d="M426.9 332.2c-.8-1-4.9-2.2-5.9-4-.6-1-1.2-3.4-1.6-5.2-.1-.6.6-.9 1-.5l2.9 3.5s1.2 1.6 2.2.7c1-.9-1.1-4-1.1-4l-4-9.2s.1-1 .1-2.3l-14.1-4.2c-1 1.2-.1 7.5-.3 9.2l6.2 14.9c.7 1.7 2.1 3.1 3.9 3.7l4.3 1.6s1 .3.9-.9c0 0 1.3 1.3 1.9-.7 0 0 .8 1.3 2.2-.8.1.1 2.3-.7 1.4-1.8z" fill="#fcc5a7"/><path fill="#fff" d="M293.2 217.2l-2-1.9-11.9 10.2 1.8 1.9z"/><path fill="#360000" d="M412 256.9l1.1-18.1 4.6 26zm-52.7-12.3l-9.5 11.1V251zM192.9 371.1v5.4c0 2.8-19.5 5.1-47.4 6.2-10 .4-21.2.6-32.9.6h-1.8c-4.8 0-9.4 0-13.9-.1-6.9-.1-13.4-.3-19.5-.6-8.8-.4-16.7-.9-23.3-1.5-13.2-1.2-21.3-2.8-21.7-4.5v-4.9l20.8-.1h3.7c4.6-.4 9.8-.7 15.3-1 2-.1 4-.2 6.1-.3 9.8-.4 20.6-.6 32.1-.6h8.1c5.8 0 11.5.1 16.9.3h1c2.2.1 4.3.1 6.3.2 2.2.1 4.3.2 6.4.3 5 .2 9.8.5 14.1.8l29.3-.1h.4z"/><path d="M192.9 371.7c0 2.8-19.9 5.2-48.4 6.3-9.8.4-20.5.6-31.9.6-12.6 0-24.5-.2-35-.7-8.9-.4-16.8-.9-23.5-1.5-13-1.2-21.1-2.7-21.7-4.5v-.4c.5-1.6 7.7-3.1 19.3-4.2.5 0 .9-.1 1.4-.1.3 0 .7-.1 1-.1.2 0 .4 0 .7-.1 5.5-.5 11.8-.9 18.7-1.2 1.7-.1 3.4-.1 5.2-.2 8-.3 16.7-.5 25.9-.6h8.1c10.2 0 19.9.2 28.8.5 4.1.1 8 .3 11.7.5.5 0 1.1.1 1.6.1h.3c.7 0 1.4.1 2.1.1 19.6 1.1 33.1 2.9 35.4 5 .2.1.3.3.3.5z" fill="#905744"/><path d="M88.6 331.2c0 15.5 8.4 29 20.8 36.3 1 .6 2 1.1 3 1.6h36.7c.1-.1.3-.1.4-.2 13.9-6.9 23.5-21.2 23.5-37.7V330c-.1-2.1-.3-4.3-.6-6.3v-.1c-1.4-7.6-4.8-14.6-9.7-20.2-7.6 4.3-18.9 7-31.5 7-12.8 0-24.3-2.8-31.9-7.2-4 4.6-7.1 10-8.9 16-1.1 3.6-1.7 7.4-1.7 11.3-.1.2-.1.5-.1.7z" fill="#fff" opacity=".5"/><defs><path id="c" d="M155.5 353s-3.5-.4-4.4-6.4c0-.2-.4-.1-.6-.1.2.9 0 3.4-.9 2.9-1.8-.9-7.2 2.1-7.2 2.1.4-1.1.4-2.2.3-3.2-1.2-.3-2.6-.8-4.2-1.6-1.1 2.4-2.8 5.7-2.5 4.3.3-1.4.4-4 .4-5.5-.4-.2-.7-.5-1.1-.7-2.9-1.9-4.4-3.9-5.1-5.8-.7-.8-2.6-3.6-.8-7 0 0 .1.9.4 2 .5-2.2 1.6-3.7 1.6-3.7s.9 1.1 3.1 1.4c1.1.2 5.5 1.7 9.8 3.7 1.4-1 4.4-3.2 7-4.1 0 0-2 1.6-2.6 4.9-.1.5-.1.9-.2 1.3 3.8 3.6 3.1 7.1 4 5.8 2.2-3.3 6-2.6 6-2.6l-4.2 5.1 1.2 7.2z"/></defs><use xlink:href="#c" overflow="visible" fill="#f65727"/><clipPath id="d"><use xlink:href="#c" overflow="visible"/></clipPath><g clip-path="url(#d)"><path d="M145.2 336.1c-.1 0-.1 0-.2-.1s-.1-.3 0-.4c1.9-1.8 4.7-2.7 4.8-2.8.1 0 .3 0 .3.2 0 .1 0 .3-.2.3 0 0-2.8 1-4.6 2.7.1.1 0 .1-.1.1z" fill="#ff8144"/></g><g clip-path="url(#d)"><path d="M146.2 336.9c-.1 0-.1 0-.2-.1s-.1-.3 0-.4c.1-.1 2.1-2 3.9-2.3.1 0 .3.1.3.2s-.1.3-.2.3c-1.7.3-3.6 2.2-3.7 2.2.1.1 0 .1-.1.1z" fill="#ff8144"/></g><g clip-path="url(#d)"><path d="M147.4 337.4c-.1 0-.1 0-.2-.1s-.1-.3 0-.4c0-.1 1.1-1.3 2.8-2.3.1-.1.3 0 .4.1.1.1 0 .3-.1.4-1.7 1-2.7 2.2-2.7 2.2-.1.1-.2.1-.2.1z" fill="#ff8144"/></g><circle cx="136.2" cy="333" r="2.5" fill="#dddbde"/><circle cx="136.2" cy="333" r="1.7" fill="#332f2f"/><path d="M139.9 335.9c.2.4.2.9 0 1.3v.1c.6.2 1.2 0 1.6-.5.3-.5.2-1.2-.2-1.6 0 .1-.1.1-.1.2-.4.3-.9.5-1.3.5zm-2.3.8c.2.4.2.9 0 1.3v.1c.6.2 1.2 0 1.6-.5.3-.5.2-1.2-.2-1.6 0 .1-.1.1-.1.2-.4.3-.9.5-1.3.5zm.5 2.3c.2.4.2.9 0 1.3v.1c.6.2 1.2 0 1.6-.5.3-.5.2-1.2-.2-1.6 0 .1 0 .1-.1.2-.4.3-.9.5-1.3.5zm-2.3.7c.2.4.2.9 0 1.3v.1c.6.2 1.2 0 1.6-.5.3-.5.2-1.2-.2-1.6 0 .1-.1.1-.1.2-.4.3-.8.5-1.3.5zm.6 2.1c.2.4.2.9 0 1.3v.1c.6.2 1.2 0 1.6-.5.3-.5.2-1.2-.2-1.6 0 .1-.1.1-.1.2-.4.3-.8.5-1.3.5zm4.2-3.5c.2.4.2.9 0 1.3v.1c.6.2 1.2 0 1.6-.5.3-.5.2-1.2-.2-1.6 0 .1-.1.1-.1.2-.4.3-.8.5-1.3.5zm-1.6 3.2c.2.4.2.9 0 1.3v.1c.6.2 1.2 0 1.6-.5.3-.5.2-1.2-.2-1.6 0 .1 0 .1-.1.2-.4.3-.8.5-1.3.5zm3.8-3.9c.2.4.2.9 0 1.3v.1c.6.2 1.2 0 1.6-.5.3-.5.2-1.2-.2-1.6 0 .1-.1.1-.1.2-.4.3-.8.6-1.3.5zm-1.3 3.3c.2.4.2.9 0 1.3v.1c.6.2 1.2 0 1.6-.5.3-.5.2-1.2-.2-1.6 0 .1-.1.1-.1.2-.4.3-.9.5-1.3.5zm-1.8 3c.2.4.2.9 0 1.3v.1c.6.2 1.2 0 1.6-.5.3-.5.2-1.2-.2-1.6 0 .1-.1.1-.1.2-.3.3-.8.5-1.3.5zm4.1-3.7c.2.4.2.9 0 1.3v.1c.6.2 1.2 0 1.6-.5.3-.5.2-1.2-.2-1.6 0 .1 0 .1-.1.2-.4.3-.8.6-1.3.5zm-1.5 3c.2.4.2.9 0 1.3v.1c.6.2 1.2 0 1.6-.5.3-.5.2-1.2-.2-1.6 0 .1-.1.1-.1.2-.4.3-.8.5-1.3.5zm4.1-3.8c.2.4.2.9 0 1.3v.1c.6.2 1.2 0 1.6-.5.3-.5.2-1.2-.2-1.6 0 .1-.1.1-.1.2-.4.3-.8.5-1.3.5zm-1.3 3.2c.2.4.2.9 0 1.3v.1c.6.2 1.2 0 1.6-.5.3-.5.2-1.2-.2-1.6 0 .1 0 .1-.1.2-.4.3-.9.5-1.3.5zm-1.5 2.8c.2.4.2.9 0 1.3v.1c.6.2 1.2 0 1.6-.5.3-.5.2-1.2-.2-1.6 0 .1 0 .1-.1.2-.4.3-.9.5-1.3.5zm2.8-.5c.2.4.2.9 0 1.3v.1c.6.2 1.2 0 1.6-.5.3-.5.2-1.2-.2-1.6 0 .1-.1.1-.1.2-.4.3-.9.5-1.3.5zm1.5-3c.2.4.2.9 0 1.3v.1c.6.2 1.2 0 1.6-.5.3-.5.2-1.2-.2-1.6 0 .1 0 .1-.1.2-.4.3-.8.5-1.3.5zm.9 2.4c.2.4.2.9 0 1.3v.1c.6.2 1.2 0 1.6-.5.3-.5.2-1.2-.2-1.6 0 .1 0 .1-.1.2-.3.3-.8.5-1.3.5z" fill="#ff8144"/><path d="M103.7 336.3s3.7 5.7 1.4 9c-2.2 3.3.1 8.8.1 8.8l-1 3.8s-4.1-4.5-3-8.9c1.1-4.5 2.9-4 2.9-6.6 0-2.7.3-3.2-.4-6.1z" fill="#dddbde"/><path d="M112.2 335.4s3.7 3.2 1.4 9.3c-2.2 6.1-1.9 7.1.5 9.7 2.4 2.6 1.4 9.4 1.4 9.4l-4.5-.6s2.3-4.1 1.2-6.9c-1.1-2.8-4.2-5.2-.3-10.6 3.2-4.6.3-10.3.3-10.3z" fill="#98acb3"/><path d="M111.8 328.6s-5.6 4.8-4.2 10.7c1.4 5.9 2.7 7.1.1 13.6s2.6 10.5 2.6 10.5l-2.5 1s-5.3-3.8-4.2-8.9c1.1-5.1 4.7-7.2 3.6-11.5-1.2-4.3-3.1-10 4.6-15.4z" fill="#98acb3"/><path d="M110.9 339.9s-.5 2.7.8 5c1.4 2.3 3.3 3.3 4.1 7.3.9 4-3.4 11.3-3.4 11.3l-3.3.2s3.8-6.1 4.3-7.8.2-6.4-.8-7.6c-1-1.2-2.4-4.9-1.7-8.4z" fill="#dddbde"/><path d="M155.3 364s-1.4-5.1-7-4c-5.6 1.1-5.6.2-10.7.2s-13.1 1-16.6 2.5-11.7-.6-13.5.8c-1.8 1.4 5.3 8.8 23.7 6.8s24.3-.3 24.1-6.3z" fill="#f65727"/><path d="M126.6 326.8c1 0 1-1.5 0-1.5-1-.1-1 1.5 0 1.5zm-1 4.9c1 0 1-1.5 0-1.5-1-.1-1 1.5 0 1.5zm2.9-1.7c1 0 1-1.5 0-1.5s-1 1.5 0 1.5z" fill="#ff8144"/><ellipse cx="131.3" cy="319.4" rx="40.7" ry="4.6" fill="#fff" opacity=".8"/><path d="M88.6 331.2c0 15.5 8.4 29 20.8 36.3l6.8 1.6 7.5 1.8 23.2-1.8 2.8-.2c13.9-6.9 23.5-21.2 23.5-37.7V330c-.1-2.1-.3-4.3-.6-6.3v-.1c-.6-2.6-1.1-4.2-1.1-4.2l-80.9-.2c-1.1 3.6-1.7 7.4-1.7 11.3-.3.2-.3.5-.3.7z" fill="#fff" opacity=".4"/><path d="M112.5 369.8c-.1 0-.2 0-.3-.1-14.9-7.3-24.2-22-24.2-38.5 0-.3.3-.6.6-.6s.6.3.6.6c0 16 9 30.4 23.5 37.4.3.1.4.5.3.8 0 .3-.3.4-.5.4zm60.6-38c-.3 0-.6-.3-.6-.6 0-10.1-3.7-19.8-10.3-27.4-.2-.3-.2-.6.1-.9.3-.2.6-.2.9.1 6.8 7.8 10.6 17.8 10.6 28.2-.1.3-.4.6-.7.6z" fill="#98acb3"/><path d="M130.5 312.4c17.1 0 35.5-3.7 35.5-11.8 0-1.4-1.2-2.6-2.6-2.6-1.4 0-2.6 1.2-2.6 2.6-.1 2-10.6 6.5-30.3 6.5s-30.1-4.6-30.3-6.5c-.1-1.4-1.3-2.6-2.7-2.5-1.4 0-2.5 1.1-2.5 2.5 0 8.1 18.4 11.8 35.5 11.8zm.6 59.7c12.6 0 26.1-2.1 26.1-6.6 0-.8-.9-1.5-1.9-1.5s-1.9.7-1.9 1.5c-.1 1.1-7.8 3.7-22.3 3.7s-22.2-2.6-22.3-3.7c-.1-.8-.9-1.5-2-1.4-1 0-1.9.6-1.9 1.4.1 4.5 13.6 6.6 26.2 6.6z" fill="#fff"/><ellipse cx="130.3" cy="300.8" rx="35.2" ry="7.3" fill="#fff" opacity=".7"/><path d="M100.3 297.6c-.3 0-.5-.2-.6-.4-.1-.3.1-.7.4-.8 6.5-2.2 17.8-3.5 30.2-3.5 7.3 0 14.4.5 20.4 1.3.3 0 .6.4.5.7 0 .3-.4.6-.7.5-5.9-.9-12.9-1.3-20.2-1.3-12.2 0-23.4 1.3-29.8 3.4 0 .1-.1.1-.2.1z" fill="#98acb3"/><g fill="#98acb3"><path d="M130.5 307.8c-18.5 0-30.7-4.2-30.9-7.1 0-.3.2-.6.6-.7.3 0 .6.2.7.6.2 1.4 9.8 6 29.6 6 .3 0 .6.3.6.6s-.3.6-.6.6z"/><path d="M130.5 313c-18 0-36.1-3.8-36.1-12.4 0-.3.3-.6.6-.6s.6.3.6.6c0 7.3 17.5 11.2 34.9 11.2 17.3 0 34.9-3.8 34.9-11.2 0-.3.3-.6.6-.6s.6.3.6.6c0 8.5-18.1 12.4-36.1 12.4z"/></g><g opacity=".77" fill="#ff8144"><path d="M135.4 321.1c1 0 1-1.5 0-1.5s-1 1.5 0 1.5zm-6 1.4c1 0 1-1.5 0-1.5-.9-.1-.9 1.5 0 1.5zm3.6.7c1 0 1-1.5 0-1.5s-1 1.5 0 1.5zm-8.1-2.2c1 0 1-1.5 0-1.5s-1 1.5 0 1.5zm6.9-.7c1 0 1-1.5 0-1.5s-1 1.5 0 1.5zm-3-.2c1 0 1-1.5 0-1.5-.9 0-.9 1.5 0 1.5z"/><path d="M130.6 322.3c1 0 1-1.5 0-1.5s-1 1.5 0 1.5zm-4.6.9c1 0 1-1.5 0-1.5s-1 1.5 0 1.5z"/></g><path d="M67 338.4c0 1-.1 1.9-.2 2.8-.1.4-.1.8-.2 1.2-.3 1.3-.7 2.6-1.3 3.7-1.1 2.3-2.7 4-4.5 4.9-.3.1-.5.2-.8.3-.6.2-1.2.3-1.8.3-.6 0-1.2-.1-1.8-.3-.3-.1-.5-.2-.8-.3-.6-.3-1.1-.6-1.6-1.1-.6-.5-1.2-1.2-1.8-1.9-.4-.6-.8-1.2-1.1-1.9-.3-.6-.6-1.3-.8-2-.1-.4-.3-.9-.4-1.4-.3-1.4-.5-2.9-.5-4.4v-.9c0-.5 0-.9.1-1.4.3-2.4 1-4.6 2-6.4.5-.8 1-1.6 1.6-2.2l.8-.8.1-.1c1.2-1 2.6-1.6 4.1-1.6.3 0 .6 0 .9.1l1.2.3c1.1.4 2.2 1.1 3 2.1 1 1.1 1.8 2.4 2.4 4 .1.3.3.7.4 1.1.1.2.1.4.2.6.2.8.4 1.6.5 2.5.1.4.1.8.1 1.2.2.7.2 1.2.2 1.6z" fill="#98acb3"/><path d="M71.1 327.9v.3c-.2 1-.7 2-1.4 2.9-.3.4-.7.8-1.1 1.1-.5.4-.9.7-1.4.9-.3.1-.5.2-.8.3-1 .3-2 .1-2.7-.4-.1 0-.1-.1-.2-.1-.3-.3-.5-.6-.6-1-.4-1.1-.2-2.6.6-4 .2-.4.5-.7.7-1.1.4-.5.8-.9 1.3-1.2.4-.3.7-.5 1.1-.7 1.3-.6 2.7-.6 3.6.1l.3.3c.4.4.6.9.7 1.5 0 .2 0 .6-.1 1.1zm5 16.6c0 .3 0 .6-.1.9v.3c0 .2-.1.3-.1.5-.2.9-.6 1.7-1 2.3-.9 1.2-2.1 1.9-3.2 1.7-1.5-.3-2.6-1.9-2.7-4.1v-1c0-.2 0-.4.1-.6s.1-.4.1-.6c.2-.9.6-1.7 1.1-2.4.3-.4.6-.7.9-.9.5-.4 1.1-.6 1.6-.7h.6c.2 0 .4.1.6.2.6.2 1 .7 1.4 1.3.3.5.5 1 .6 1.7 0 .5.1.9.1 1.4zm1.2 6.6l-.1.3-.1.5-1 4-2.6 10-1.3 4.8-.1.4s-4.8 1.1-9.4 1c-2 0-4-.2-5.8-.4-.7-.1-1.4-.2-2-.2-.3 0-.6-.1-.8-.1-.3-.1-.7-.1-.9-.1-.3 0-.5-.1-.5-.1l-1-3.7-4.2-15.9-.1-.3h29.9z" fill="#98acb3"/><path d="M80.4 347.7v2.2c0 .7-.5 1.3-1.2 1.4H45.8c-.8 0-1.5-.7-1.5-1.5v-2.2c0-.8.7-1.5 1.5-1.5h33.3c.7.2 1.3.8 1.3 1.6zM55 329.1c-.1.1-.2.1-.3.1-.2 0-.4-.1-.5-.3l-.8-1.3-1.5-2.3c-.2-.3-.1-.6.2-.8.3-.2.7-.1.8.2l.4.6.9 1.5.1.1 1 1.5c0 .2-.1.5-.3.7zm6.1-6.7l-.8 3.2-.2.8c-.1.3-.3.5-.6.5h-.1c-.3-.1-.5-.4-.4-.7l.2-.9.8-3.2c.1-.3.4-.5.7-.5.3.1.5.4.4.8zm12.2 5l-.6.1-1.6.3H71l-.7.1h-.1c-.3 0-.5-.2-.6-.5-.1-.3.2-.6.5-.7l.7-.1.3-.1 1.3-.3.6-.1c.3-.1.6.1.7.5s-.1.8-.4.8zm-6.5-.9c0 .3-.2.6-.5.7h-.1c-.3 0-.5-.2-.6-.5l-.2-1.3-.3-1.9c0-.3.2-.6.5-.7.3-.1.6.2.7.5l.2 1.4.3 1.8zm2.6 6.5c-.1.3-.3.4-.6.4h-.2l-1.5-.4-1-.3h-.2c-.3-.1-.5-.4-.4-.7 0-.1.1-.2.2-.3.1-.1.3-.2.5-.1l2.2.6.4.1c.5.1.7.4.6.7zm-9 1.7c-.2 0-.4-.1-.5-.3-.2-.3-.1-.7.2-.8l2.7-1.8c.3-.2.7-.1.8.2.2.3.1.7-.2.8l-2.7 1.8c-.1 0-.2.1-.3.1zm-4.7 2.8c-.2 0-.4-.1-.5-.2l-1.9-2.5c-.2-.3-.2-.6.1-.8.3-.2.6-.2.8.1l1.9 2.5c.2.3.2.6-.1.8 0 0-.2.1-.3.1zm-4.8.2c-.1.2-.3.3-.5.3-.1 0-.2 0-.3-.1l-.5-.3-2.5-1.6c-.3-.2-.4-.5-.2-.8.2-.3.6-.4.8-.2l1.9 1.2 1 .7c.4.1.5.5.3.8zm2.8 6.9c-.1.3-.3.4-.6.4h-.2l-.7-.2-1.8-.6-1.5-.5c-.3-.1-.5-.4-.4-.8.1-.3.4-.5.8-.4l.8.3 2.1.7 1.1.4c.3.1.5.4.4.7zm4.8-1.8h-.2c-.3-.1-.5-.4-.4-.7l.8-3c.1-.3.4-.5.7-.4.3.1.5.4.4.7l-.8 3c0 .2-.2.4-.5.4zm8.4-.4l-.3.1-3 1.1h-.2c-.3 0-.5-.2-.6-.4-.1-.3 0-.6.4-.8l3.3-1.2h.4c.2 0 .3.2.4.4 0 .4-.1.7-.4.8zm1.1-5.6l-1.1.3-1.9.6h-.2c-.3 0-.5-.2-.6-.4-.1-.3.1-.7.4-.8l2.1-.7.8-.3c.3-.1.7.1.8.4.2.4.1.7-.3.9zm3.4 6.1h-.2c-.2 0-.4-.1-.5-.4l-.4-1-.4-.9c-.1-.3 0-.7.3-.8.3-.1.7 0 .8.3l.2.5.6 1.4c0 .4-.1.7-.4.9zm6.1.6l-1.5 1-.2.1-.6.4c-.1.1-.2.1-.3.1-.2 0-.4-.1-.5-.3-.2-.3-.1-.6.2-.8l1-.7.3-.2.9-.6c.3-.2.6-.1.8.2.3.3.2.6-.1.8zm-3.3-6l-.3 2.6v.1c-.1.2-.3.4-.5.4h-.2c-.3 0-.5-.3-.5-.6l.2-1.8.1-.7c0-.3.3-.6.7-.5.3-.1.6.2.5.5zm-2.6 7.8c-.1.3-.3.4-.6.4h-.2l-2-.6h-.1c-.3-.1-.5-.4-.4-.8.1-.3.4-.5.7-.4l2.1.6c.4.2.6.5.5.8z" fill="#dddbde"/></svg>