<svg xmlns="http://www.w3.org/2000/svg" viewBox="0 0 500 500"><path d="M474.6 320.1c-1.9 23.3-17.8 55.7-47.1 83.4-5.8 5.5-12.2 10.8-19 15.8-29.7 21.7-69.1 37.7-117.7 39.3-51.8 1.7-101.3.1-139.6-8.8-6.4-1.5-12.5-3.2-18.3-5.1-7.5-2.5-14.4-5.4-20.6-8.7-5.9-3.2-11.2-6.7-15.7-10.7-14.3-12.4-21.5-28.9-19.2-50.6 3.7-35.4-.8-60.6-8-80.5-.1-.1-.1-.3-.1-.4-1.2-3.2-2.4-6.3-3.7-9.3l-1.2-2.7c-.1-.2-.2-.3-.2-.5-.2-.4-.3-.7-.5-1-.2-.5-.5-1-.7-1.5-.1-.3-.3-.6-.4-.8 0-.1-.1-.1-.1-.2l-1.5-3c-.1-.2-.2-.5-.4-.7-.3-.5-.5-1-.8-1.5l-.3-.6c-.3-.6-.6-1.3-1-1.9-1.5-2.8-2.9-5.5-4.4-8.2-.7-1.2-1.3-2.3-1.9-3.5 0 0-.1-.1-.1-.2s-.1-.1-.1-.2c-.1-.1-.1-.2-.2-.3-3.8-6.9-7.3-13.4-10.1-20.1-6-14.4-8.7-29.6-3.3-50.1 3.4-12.9 7.8-24 12.8-33.6 4.3-8.2 9.1-15.3 14.4-21.4 10.6-12.5 22.9-21.2 36-27.6 3.4-1.7 6.8-3.2 10.3-4.5 10.6-4.2 21.5-7.1 32.3-9.5 3.2-.7 6.4-1.4 9.5-2l4.5-.9c40.8-8.1 94.9-2 130.4 3.9 23.1 3.8 45.4 11.1 66 21.6l1.8.9c2.7 1.4 5.4 2.9 8 4.4l1.5.9c.8.5 1.6 1 2.4 1.4 3.2 1.9 6.4 4 9.5 6.1 1.4.9 2.7 1.8 4.1 2.8.4.2.7.5 1.1.8.8.6 1.6 1.1 2.4 1.7 7.3 5.3 14.2 11.2 20.8 17.4 2.7 2.5 5.2 5.1 7.7 7.7 15.1 15.9 26.7 32.8 35.6 49.6 4.7 9.1 8.7 18.1 11.9 27l.3.9c.6 1.6 1.1 3.1 1.6 4.7.1.3.2.7.3 1 1.9 5.9 3.6 11.7 5 17.4.1.4.2.7.3 1.1.2.7.3 1.4.5 2.1.1.3.1.7.2 1 1.2 5.6 2.2 10.9 3 16.1.1.9.3 1.8.4 2.8 0 .3.1.6.1.8 2.2 14.7 2.3 27.9 1.5 38z" fill="#f2f5f6"/><path d="M194.2 194.3c6.1 44.9-3.1 84.3-22.4 82.2-18.2-2-25.8-37.7-20.3-82.2 4.9-39.9 18-72.3 21.4-72.8 3.3-.5 15.8 32.9 21.3 72.8zm57.1 42.4c3.7 23.4-1.9 44-13.6 42.9-11.1-1-15.7-19.7-12.4-42.9 3-20.8 11-37.7 13-38 2.1-.3 9.7 17.2 13 38zM80.9 198.5c-.3-2.3-.6-4.7-.9-7-3.8-26.3-10.1-49-14.3-59.3-5.3 6.2-10.1 13.3-14.4 21.4-3.3 12.3-6.5 27.9-8.4 44.9-1.5 14.1-1.9 27.3-1.2 38.8 2.8 6.7 6.3 13.3 10.1 20.1-.1.1-.1.2-.1.2l.3.1c0 .1.1.1.1.2l-.6 1.1-4.4 6.4c.5 1.4 1.1 2.7 1.7 3.9.3.7.7 1.3 1 1.9.4.7.8 1.3 1.2 1.9.4.5.7 1 1.1 1.5l.3.3c.8 1 1.6 1.8 2.5 2.5 1.8 1.5 3.9 2.3 6.1 2.6h1.4c.4 0 .7 0 1.1-.1.4 0 .8-.1 1.2-.2.3-.1.6-.2.8-.3 1.3-.5 2.5-1.2 3.7-2.1 6.1-5.1 10.3-17 12.2-32.7 1.6-13.2 1.5-29.3-.5-46.1zm-20.5 75.3l-1 .2-.3-1.1.5-.7c.3.5.6 1 .8 1.6zm-1.3 1.9l-.9-.5.7-.2.2.7zm-.4-1.6l-.6.1.5-.6.1.5zm-4-2.3c.5-.5 1.4 0 1.2.7l-.4 1.1-1.5-.9c.2-.4.5-.7.7-.9zm7.3 5.7l-1.9-1.1-.5-1.6 1.1-.3 1.5 3H62zm292.6-39.8c3.7 23.4-1.9 44-13.6 42.9-11.1-1-15.7-19.7-12.4-42.9 3-20.8 11-37.7 13-38 2.1-.2 9.7 17.2 13 38z" fill="#dddbde"/><path d="M473.2 281.6H56.3l-1.6-4.2h417.4l.6.6c.1.9.3 1.8.4 2.8.1.3.1.6.1.8z" fill="#dddbde"/><path d="M96.5 267s-8.3-31.3 22.4-32.3c0 0 3.7-13.3 13.3-9.7 0 0 .5-26.1 23-23.7s20.9 24.5 20.9 24.5 13.3-8.6 21.1.8c7.8 9.4 2.6 17.7 2.6 17.7s9.4-1.8 9.7 7.8c0 0 21.9-7.3 26.3 9.4s-8.6 17.7-8.6 17.7l-128.3-1-2.4-11.2z" fill="#98acb3"/><path d="M149.4 251.6c-.2 0-.4-.1-.5-.3-.1-.3 0-.5.3-.6 24.2-8.6 30.4-19.2 30.5-19.3.1-.2.4-.3.7-.2.2.1.3.4.2.7-.3.4-6.4 11-31 19.8-.1-.1-.1-.1-.2-.1zm-1.5-7.7c-.1 0-.1 0 0 0-13.1-1.8-19.7-13.6-19.8-13.8-.1-.2 0-.5.2-.7.2-.1.5 0 .7.2.1.1 6.5 11.5 19 13.2.3 0 .5.3.4.6-.1.4-.3.5-.5.5z" fill="#dddbde"/><path d="M137.1 239.4c-.2 0-.4-.2-.5-.4-1.6-7.4 1-8.8 1.3-9 .3-.1.5 0 .7.2.1.2 0 .5-.2.7-.1 0-2.1 1.3-.7 7.9.1.3-.1.5-.4.6h-.2zm35.3 7.4c-5.3 0-7.8-1.5-7.9-1.6-.2-.1-.3-.5-.2-.7.1-.2.5-.3.7-.2.1 0 6.1 3.5 19.4-.6.3-.1.5.1.6.3.1.3-.1.5-.3.6-5.2 1.7-9.2 2.2-12.3 2.2zm-20.2 20s-.1 0 0 0c-34.4-2.7-42-18.6-42.3-19.3-.1-.3 0-.5.2-.7.2-.1.5 0 .7.2.1.2 7.8 16 41.5 18.7.3 0 .5.3.5.5-.1.4-.4.6-.6.6z" fill="#dddbde"/><path d="M106.4 257.2c-2.1 0-2.9-.4-3-.4-.3-.1-.4-.4-.2-.7.1-.2.4-.4.7-.2.1 0 3.1 1.2 13.2-1.4.3-.1.5.1.6.4.1.3-.1.5-.4.6-5.3 1.3-8.7 1.7-10.9 1.7zm67.2 15.8c-6.2 0-12.7-.5-19.6-1.7-.2 0-.3-.1-.4-.3-.1-.3-11.7-27.1-1.2-54.4.1-.3.4-.4.6-.3.3.1.4.4.3.6-9.8 25.5-.1 50.6 1.1 53.4 38.2 6.4 67-8.6 67.3-8.8.2-.1.5 0 .7.2.1.2 0 .5-.2.7-.2.2-20 10.6-48.6 10.6z" fill="#dddbde"/><path d="M191.7 271.3c-.1 0-.3-.1-.4-.2-.2-.2-.2-.5 0-.7 7.6-6.8 7.1-15.7 7.1-15.8 0-.3.2-.5.5-.5s.5.2.5.5c0 .4.5 9.5-7.4 16.6-.1.1-.2.1-.3.1zm34.6-1.1c-7.7 0-14.9-2.4-14.9-2.4-.3-.1-.4-.4-.3-.6.1-.3.4-.4.6-.3.1 0 7.8 2.6 15.7 2.3.3 0 .5.2.5.5s-.2.5-.5.5h-1.1zm-61.7 2c-.1 0-.1 0 0 0-.3 0-.5-.3-.5-.6 0-.1 1.8-11.6 13.9-14.8.3-.1.5.1.6.4.1.3-.1.5-.4.6-11.5 3-13.2 13.8-13.2 13.9 0 .4-.2.5-.4.5zm308.5 8.6l-68-.5h-6.7l-16.3-.1-.5-2.6-1.8-8.6s-7.1-26.5 15.8-31.5c.6-.1 1.3-.3 2-.4 1.5-.2 3-.4 4.7-.4 0 0 .5-1.8 1.6-3.9 1.9-3.6 5.6-8 11.7-5.7 0 0 .5-26.1 23-23.7 4.6.5 8.3 1.8 11.1 3.6 4.7 9.1 8.7 18.1 11.9 27l.3.9c.6 1.6 1.1 3.1 1.6 4.7.1.3.2.7.3 1 1.9 5.9 3.6 11.7 5 17.4.1.4.2.7.3 1.1.2.7.3 1.4.5 2.1.1.3.1.7.2 1 1.2 5.6 2.2 10.9 3 16.1.1.7.2 1.6.3 2.5z" fill="#dddbde"/><path d="M441.6 276.7c-.1 0-.3-.1-.4-.2-14.9-17.2-5.2-59.2-4.8-61 .1-.3.3-.4.6-.4.3.1.4.3.4.6-.1.4-9.9 43.3 4.6 60.1.2.2.2.5-.1.7-.1.1-.2.2-.3.2z" fill="#fff"/><path d="M433.3 246.9c-.1 0-.1 0 0 0-16.4-2.4-20.1-12.4-20.3-12.9-.1-.3 0-.5.3-.6.3-.1.5 0 .6.3 0 .1 3.8 9.9 19.4 12.2.3 0 .5.3.4.6 0 .3-.2.4-.4.4zm4.4 25.3c-35.1-2.1-48.5-21.9-48.7-22.1-.2-.2-.1-.5.1-.7.2-.2.5-.1.7.1.1.2 13.3 19.6 47.9 21.7.3 0 .5.3.5.5 0 .3-.2.5-.5.5z" fill="#fff"/><path d="M400.1 259.7c-.2 0-.3-.1-.4-.2-3.8-5.9-.2-14.5 0-14.8.1-.3.4-.4.7-.3.3.1.4.4.3.7 0 .1-3.5 8.4 0 13.9.1.2.1.5-.2.7h-.4zm-6.5 11.8c-.2 0-.3-.1-.4-.2-.1-.2-.1-.5.2-.7.5-.3 12-7.1 18.4-5 .3.1.4.4.3.6-.1.3-.4.4-.6.3-6-2-17.5 4.8-17.6 4.9-.1 0-.2.1-.3.1zm68.2-36.8c-3.6 1.5-7.7 3.5-11.8 6.2-.5.3-1 .7-1.6 1-5.3 3.7-10.4 8.4-13.7 14.3 0 0 0 .1-.1.1-.1.1-.2.2-.4.2-.1 0-.2 0-.2-.1-.2-.1-.3-.4-.2-.7.2-.3.4-.7.6-1 6.6-10.8 18.5-17.4 27-21 .2.4.3.7.4 1zm7.9 27.3c-10.7 1.3-21.6 4.1-30.2 9.7-.1 0-.2.1-.3.1h-.1c-.1 0-.2-.1-.3-.2-.1-.1-.1-.3 0-.5 0-.1.1-.2.2-.2 7.4-4.8 16.4-7.5 25.5-9.1.5-.1 1.1-.2 1.6-.3 1.1-.2 2.3-.3 3.4-.5.1.3.1.6.2 1z" fill="#fff"/><path d="M469 258.9c-1 .8-1.9 1.6-2.9 2.6-.3.3-.6.6-.9 1-.1.1-.2.2-.4.2-.1 0-.3 0-.3-.1-.2-.2-.2-.5 0-.7 1.4-1.5 2.8-2.8 4.3-3.9 0 .2.1.5.2.9zm-5.2-18.5c-7.4-.2-14.6 1.8-14.7 1.8-.2.1-.5 0-.6-.2 0 0 0-.1-.1-.1-.1-.3.1-.6.4-.6.1 0 .5-.2 1.3-.3 2.4-.6 7.7-1.7 13.4-1.5 0 .3.1.6.3.9zm-28.7-14.1c-.1 0-.2 0-.2-.1-.2-.1-.3-.4-.2-.7 3.1-6.3 11.5-12.7 11.9-13 .2-.2.5-.1.7.1.2.2.1.5-.1.7-.1.1-8.6 6.5-11.6 12.6-.2.3-.3.4-.5.4z" fill="#fff"/><path d="M254.6 444c33.6 6.9 46.3 3.5 57.7 2.3 5.8-.6 14-.1 20.4-3.1 4.8-2.2 2.1-6.9-1-7.5-16.6-3.2-21.6 3.1-36.9-.9-16.9-4.4-33.1.4-34.5.8s-21.6 5.1-5.7 8.4zm2.3-59.4c-39.1 8.1-53.9 4.1-67.1 2.7-6.8-.7-16.3-.2-23.7-3.6-5.6-2.6-2.4-8.1 1.2-8.8 19.3-3.8 25.1 3.6 42.9-1 19.6-5.1 38.5.5 40.1.9 1.5.3 25.1 6 6.6 9.8zm170.6 18.9c-5.8 5.5-12.2 10.8-19 15.8-3.2.8-6.3 1.4-8.9 1.6-14.8 1.6-31.3 2.3-72.5-5.8-1.9-.4-3.8-.8-5.8-1.2h-.1c-1.8-.4-3.2-.8-4.4-1.2-4.4-1.5-4.4-3.2-2.5-4.8 1.7-1.4 5.1-2.7 8.2-3.7 1.7-.6 3.4-1 4.6-1.4 1-.3 1.7-.4 1.9-.5.9-.2 5.9-1.7 13.3-2.7 1.6-.2 3.3-.4 5.1-.5 6.7-.5 14.6-.5 22.9 1 .3.1.7.1 1 .2 1.3.3 2.6.5 3.9.9.1 0 .2.1.3.1 11.4 3 18.5 1.7 26.3.7.3 0 .7-.1 1-.1 1.8-.2 3.6-.4 5.5-.5 4.8-.3 10.2-.2 17.1 1.2.8.2 1.5.4 2.1.9z" fill="#dddbde"/><path d="M241.2 335.3c-17.4 0-30.2-3.3-30.5-3.4-.2-.1-.4-.3-.3-.6.1-.3.3-.4.6-.3.5.1 54.4 14.1 91.9-16 29-23.3 28.1-93.1 28.1-93.8 0-.3.2-.5.5-.5s.5.2.5.5c0 .7.9 71-28.4 94.6-19.7 15.7-43.7 19.5-62.4 19.5z" fill="#332f2f"/><path d="M321.6 384.1s15 28.4-3.3 52.3l-.5-14.1c-.1-.1 7.3-8.1 3.8-38.2z" fill="#905744"/><path d="M300.3 384.5s-3.8-1.2 7.6 15.5c11.4 16.7-15.5-1.1-15.5-1.1l7.9-14.4z" fill="#ff8144"/><path d="M319.1 435.6s5.4-15.2-8.2-32.4c-5.8-7.4-9.7-6.8-9.7-6.8l-20.3-7.3s-.8.8-1.8 2.7c-2.2 3.8-5.7 12-7.3 26.8-.1 1.2-.2 2.4-.3 3.7-2 25.2 47.6 13.3 47.6 13.3z" fill="#ff8144"/><path d="M280.9 360.7s-11.4 12.2-13.4 20.1c-2 7.9 7.3 10.9 12 6.9 4.6-3.9-2.2-15.1 1.4-27z" fill="#905744"/><ellipse cx="289" cy="377" rx="15.3" ry="19.1" fill="#ff8144"/><ellipse cx="290.1" cy="370.4" rx="1.4" ry="2.8" fill="#332f2f"/><ellipse cx="281.2" cy="370.4" rx="1.4" ry="2.8" fill="#332f2f"/><path d="M294.3 367.9c-.2 0-.4-.1-.5-.3 0 0-.6-1.6-2-2.2-.7-.3-1.5-.2-2.3.2-.3.1-.6 0-.7-.3-.1-.3 0-.6.3-.7 1.1-.5 2.2-.6 3.2-.2 1.8.7 2.5 2.7 2.6 2.8.1.3 0 .6-.3.7h-.3zm-17.1 1.2c-.3 0-.5-.2-.5-.5 0-1.3.4-2.2 1.2-3 1.4-1.3 3.5-1.1 3.6-1.1.3 0 .5.3.5.6s-.3.5-.6.5c0 0-1.7-.1-2.8.8-.6.5-.9 1.2-.9 2.2 0 .3-.2.5-.5.5zM291 380c-.2-.2-.6-.2-.7 0-.2.2-4.2 4.4-9.3 4.9-1.9.2-4-.2-6.1-1.5-.1-.1-.2-.1-.3-.2h-.1c3.8-2.3 2.3-7.9 2.3-8-.1-.2-.3-.4-.5-.4l-2.5-.1-3.6-.1h-.9c-.2 0-.3 0-.4.2-.1.1-.2.2-.2.4 0 .1 0 .7.2 1.7.4 2 1.6 5.3 5.3 7.5.2.2.5.3.7.4 1.7.9 3.4 1.3 5 1.3h.7c5.8-.4 10.3-5.2 10.3-5.2.3-.4.3-.7.1-.9zm-17.4 2.5c-2.9-2.4-3.5-5.6-3.7-6.8l3.8.1 2.2.1c.2 1.2.7 4.6-1.7 6.3-.1 0-.3.1-.6.3z" fill="#332f2f"/><path d="M273.3 382.7s-5.3-7.1-3.8-7.5c1.5-.4 6.7.1 6.7.1s1.7 5.5-2.9 7.4z" fill="#332f2f"/><path d="M271.5 421.5s-.8 4.8.1 14.1c0 0-6.1-.4-6 5.4 0 0 9.1 1.3 10.9-.7 3-3.2 4.6-16 4.6-16l-9.6-2.8zm35.5-4.3s-14 9.6 1.7 20.1c0 0-10.8-1.3-12.1 4.3 0 0 15.5 2.9 17.9 1.5 5.1-3 5.4-14.6 5.4-14.6L307 417.2z" fill="#ff8144"/><path d="M296.6 442.2h-.1c-.3-.1-.5-.3-.4-.6 1.1-4.6 7.5-5 10.8-4.9-4.1-3.1-6.1-6.4-6.1-9.9 0-5.8 5.7-9.8 6-10 .2-.2.6-.1.7.1.2.2.1.6-.1.7-.1 0-5.6 3.9-5.5 9.2 0 3.5 2.4 6.9 7.2 10.1.2.1.3.4.2.6-.1.2-.3.4-.6.3-.1 0-10.3-1.2-11.5 3.9-.2.3-.4.5-.6.5zm-19.5.1c-2.4 0-4.6-.3-5.1-.4-.3 0-.5-.3-.4-.6.5-5.3 4.2-6.1 5.8-6.3-1.4-8.3-.9-12-.9-12.1 0-.3.3-.5.6-.4.3 0 .5.3.4.6 0 0-.5 3.9 1 12.4 0 .2 0 .3-.1.4s-.3.2-.4.2c-.2 0-4.5-.3-5.2 4.8 3.1.4 8 .6 9.2-.7 2.8-3.1 4.3-14.3 4.3-14.5 0-.3.3-.5.6-.5s.5.3.5.6c-.1.5-1.5 11.7-4.6 15-1.2 1.2-3.5 1.5-5.7 1.5z" fill="#332f2f"/><path d="M278.6 422.4s-.8 4.8.1 14.1c0 0-6.1-.4-6 5.4 0 0 9.1 1.3 10.9-.7 3-3.2 4.6-16 4.6-16l-9.6-2.8z" fill="#ff8144"/><path d="M271.7 418.7c1.6 2.3 11.4-1.4 16.9-7.6 8.3-9.4 1.5-16.4 1.5-16.4-9 .3-10.9-2.9-10.9-2.9-.1 0-.2.1-.2.1-2.2 3.7-5.8 11.9-7.3 26.8z" fill="#fff"/><path d="M277.9 391.2s11.4 3.6 23.8-2.4l.5 2.8s-4.1 3.4-12.6 3.9c-6.1.4-11.8-1.3-11.8-1.3l.1-3z" fill="#f65727"/><path d="M297.4 361.1s7.8 5.7 13.9 20c3.2 7.5-7.7 10.9-12.7 6.9s2.6-15.1-1.2-26.9z" fill="#905744"/><path d="M232.6 380.1L237 365l11.5 1.5-13 13.9c-.8.6-3.1.7-2.9-.3zm-30.1-16.6l6.3 16.4c.4 1-2.4 2-3.2 1.3l-11.8-12 8.7-5.7zm-9.3-61.1s-5.4.8-7.4 2.5c-1.9 1.7-4.8 2.4-6.8 2.6-2 .2 7.6 3.8 7.6 3.8l6.6-8.9z" fill="#98acb3"/><path d="M184 380.3c-1.3 1-4.5 0-4.2-1.6 1-6.6 4.4-13.1 5.6-22.9.8-6.5-.3-18-.6-19.6-1.1-4.8-9.5-12.6-11.7-19.3-2.2-6.7 1.9-12.2 1.9-12.2s9.1 4.3 11.3 4.3 3.3-10 14.1-5.9 7.4 33 7.4 33 36.7-1.9 43 7.4c4.5 6.7 3.9 27 3.4 37.4-.1 2.1-2.4 1.7-3.4-.1l-6.3-10.5-45.3-3-15.2 13z" fill="#dddbde"/><path d="M180.4 375.2c-.3 1.2-.6 2.4-.8 3.6-.2 1.6 3 2.7 4.2 1.6l6.1-5.3s-4.3.8-5.3 0c-2.3-1.6-4.2.1-4.2.1zm67.4 1l2.8 4.7c1.1 1.8 3.2 2.2 3.4.1.7-6.1.2-21.9.2-21.9-3.7.2-1.3 7.7-4.5 10.2-3.5 2.7-1.9 6.9-1.9 6.9z" fill="#98acb3"/><path d="M244.4 342.1s15.8-2.6 17.1-10.9c.6-3.8-1.1-6.3-3.1-7.9-.9-.7-.1-2 .9-1.7 3.2 1.1 6.6 3.8 6.2 10.3-.7 12.3-15 17.3-15 17.3l-6.1-7.1z" fill="#dddbde"/><path d="M173.1 309.5s-1.9-6.4 1.4-6c3.3.4 6.9 2.3 5 4-2.8 2.5-6.4 2-6.4 2z" fill="#332f2f"/><path d="M200.9 337.3s-4.4 3.4-15.7 3.2l-.2-1.6c-.1.1 14.5-.6 15.9-1.6z" fill="#98acb3"/><ellipse transform="rotate(-67.567 196.44 311.494)" cx="196.4" cy="311.5" rx="2.5" ry="1" fill="#332f2f"/><path d="M203.5 332.6s-8.6 5.5-19.3 2.8l.7 3.6s10.3 2.3 18.8-3.2l-.2-3.2z" fill="#332f2f"/><ellipse transform="rotate(-67.567 192.22 308.944)" cx="192.2" cy="308.9" rx="2.5" ry="1" fill="#332f2f"/><path d="M203.6 305.3s6.7 4 8.4 9.5-1 6.5 1.6 10 5.6 6 2.7 10c-2.9 4-.9 7.2-.2 9.8.6 2.6-.7 7-5.6 7.6-4.9.6-15.4-1.5-9.3-14.1 4.5-9.2 1.2-9.2.2-11.7s3.2-8.5 3.2-12.1-1-9-1-9z" fill="#98acb3"/><path d="M179.3 320.4c-2.7 0-5.9-1.8-6-1.9-.3-.1-.3-.5-.2-.7.1-.3.5-.3.7-.2 0 0 4.1 2.3 6.5 1.6.6-.2 1-.5 1.3-1.1.1-.3.5-.4.7-.2.3.1.4.5.2.7-.4.8-1.1 1.3-2 1.6-.3.1-.8.2-1.2.2z" fill="#332f2f"/><path d="M307.8 395.4c-2.3 0-4.6-1.6-6.7-4.6-.1-.2-.1-.5.1-.6.2-.1.5-.1.6.1 1.5 2.2 4 4.8 7 4 7.8-1.9 14.6-22.2 18.2-54.3 2.8-25.3 6-117.3 6-118.3 0-.3.3-.4.5-.5.3 0 .5.2.5.5 0 .9-3.2 93-6 118.3-3.6 32.5-10.7 53.1-18.9 55.1-.4.2-.9.3-1.3.3z" fill="#f65727"/><path d="M67.8 300.2c-4.1 6.7-13.1 3.8-22.6-2s-16-12.4-12-19 15.1-7.4 24.6-1.5 14 15.8 10 22.5z" fill="#332f2f"/><path d="M51.6 271.9c-1.3-.7-2.9-.8-4.3-.3-2 .8-5.2 1.9-8.9 3.2-6.2 2.1 29.2 24.9 30.5 22.4 1.2-2.5-1.6-13-2-15.2-.3-1.6-10.8-7.5-15.3-10.1z" fill="#332f2f"/><path d="M69.4 283.2c-.2.3-.5.5-.9.5-.2 0-.4 0-.6-.2l-.8-.5-2.3-1.4-.9-.5-1.6-1-4.4-2.7-5.4-3.3-1.6-1-2.9-1.8-.6-.4c-.5-.3-.7-.9-.3-1.4.2-.3.6-.5.9-.5.2 0 .4 0 .5.1l.2.1 5.3 3.2 1.5.9 1.6 1 .5.3.6.3.9.5 1.1.7 1.9 1.1.3.2 3.2 1.9 3.3 2 .1.1c.5.6.7 1.3.4 1.8z" fill="#98acb3"/><circle cx="58.5" cy="270.9" r="1.1" fill="#98acb3"/><circle cx="62.6" cy="273.4" r="1.1" fill="#98acb3"/><path fill="#98acb3" d="M60.3 276.9l-1.1-.8-.1-.4-.2-.7-.2-.9-.2-.5-.4-1.7-.2-.7.8.1.1.6.3 1 .4 1.1.2.7.5 1.7z"/><path fill="#98acb3" d="M62.8 273.9l-1 .3-1 .3-1.1.2-.8.3-.7.1-.5.2-1.2-.7.5-.1h.1l1-.2.6-.2.8-.1.9-.2 1.1-.3.9-.2z"/><path d="M115.9 136.2s-8-.8-12.6 7.7-1.5 11.1-6.1 18.2 22-12.3 22-12.3l-.2-12.9-3.1-.7zm6.9 3.2l27.3-39s14.3 18.7-1.8 34.1c-8.7 8.3-25.5 4.9-25.5 4.9z" fill="#b86332"/><path fill="#fcc5a7" d="M119.396 121.586l23.94 1.713-2.113 29.526-23.94-1.713z"/><path d="M142 141.9v.6l-.1.5c-8.3 2.4-16.7-.8-21.6-7.3l-3.4-11.6 25.8-5.5-.7 23.3z" fill="#360000"/><path d="M130.7 141.9c11.1.1 20.2-8.7 20.4-19.8l.2-16c.1-11.1-8.7-20.2-19.8-20.4-11.1-.1-20.2 8.7-20.4 19.8l-.2 16c-.2 11.1 8.7 20.2 19.8 20.4z" fill="#fcc5a7"/><path d="M132.3 127.6c-.4 0-.7-.1-.9-.2-.5-.2-.7-.7-.5-1.2.2-.5.7-.7 1.2-.5.1 0 .8.2 1.4-.6.5-.8.8-6.5.7-11.4 0-.5.4-.9.9-.9s.9.4.9.9c0 2.5.1 10.9-1.1 12.5-.8 1.1-1.8 1.4-2.6 1.4z" fill="#e69880"/><ellipse transform="rotate(-23.804 110.42 112.687)" cx="110.4" cy="112.7" rx="4.5" ry="6.3" fill="#fcc5a7"/><path d="M112.6 113.9c-.3 0-.7-.2-.8-.5-.7-1.7-2-3-3.3-3.5-.5-.2-.7-.7-.5-1.2.2-.5.7-.7 1.2-.5 1.8.7 3.4 2.4 4.3 4.5.2.5 0 1-.5 1.2h-.4z" fill="#e69880"/><path d="M109.8 116.7c-.4 0-.7-.2-.9-.6-.6-1.8-.2-4.1.9-6.2.2-.4.8-.6 1.2-.4.4.2.6.8.4 1.2-.9 1.6-1.1 3.4-.7 4.8.1.5-.1 1-.6 1.1-.1 0-.2.1-.3.1z" fill="#e69880"/><ellipse transform="matrix(.01313 -.9999 .9999 .01313 11.755 240.564)" cx="127.7" cy="114.3" rx="2.7" ry="1.7" fill="#360000"/><path d="M122.7 110.3c-.3 0-.6-.2-.6-.5-.4-1.7.9-3.5 2.9-4 .9-.2 1.9-.1 2.8.2.9.4 1.5 1.1 1.7 2 .1.4-.1.7-.5.8-.4.1-.7-.1-.8-.5-.1-.5-.5-.9-1-1.1-.5-.3-1.2-.3-1.9-.2-1.3.3-2.2 1.4-1.9 2.4.1.4-.1.7-.5.8-.1.1-.2.1-.2.1zm24.9 1.4s-.1 0 0 0c-.4 0-.7-.4-.7-.7.1-1-.9-2-2.2-2.2-.7-.1-1.3.1-1.8.4-.5.3-.8.7-.8 1.2 0 .4-.4.6-.7.6-.4 0-.6-.4-.6-.7.1-.9.6-1.7 1.4-2.2.8-.5 1.7-.7 2.7-.6 2.1.2 3.6 1.9 3.3 3.7 0 .2-.3.5-.6.5z" fill="#332f2f"/><path d="M125.8 114.3c-.3 0-.5 0-.8-.1-.9-.2-1.6-.7-1.9-1.5-.2-.4 0-1 .4-1.2.4-.2 1 0 1.2.4.2.3.5.5.7.5.4.1.9 0 1.3-.2s1 0 1.2.4c.2.4 0 1-.4 1.2-.6.4-1.1.5-1.7.5zm18.4 1c-.2 0-.4 0-.6-.1-.7-.1-1.4-.5-1.8-1.1-.3-.4-.2-1 .2-1.2.4-.3 1-.2 1.2.2.2.2.4.3.6.4.5.1 1-.1 1.4-.4.4-.3 1-.2 1.2.2.3.4.2 1-.2 1.2-.5.6-1.3.8-2 .8zm-12 19.7c-.3 0-.6 0-.9-.1-2.8-.4-4.8-2.6-4.5-4.9.1-.4.4-.6.7-.6.4.1.6.4.6.7-.2 1.6 1.3 3.1 3.4 3.4 1 .1 2 0 2.9-.5.8-.4 1.2-1.1 1.3-1.8.1-.4.4-.6.7-.6.4.1.6.4.6.7-.2 1.1-.9 2.1-2 2.8-.8.7-1.8.9-2.8.9z" fill="#360000"/><ellipse transform="matrix(.01313 -.9999 .9999 .01313 25.1 256.732)" cx="142.6" cy="115.7" rx="2.7" ry="1.7" fill="#360000"/><ellipse transform="rotate(-85.908 114.284 167.744) scale(1.00005)" cx="114.3" cy="167.7" rx="1.7" ry="1.7" fill="#fff"/><ellipse transform="rotate(-85.908 112.505 179.939) scale(1.00005)" cx="112.5" cy="179.9" rx="1.7" ry="1.7" fill="#fff"/><path d="M117.2 150.7c-.1 1.7 5.1 3.5 11.7 4s12.2-.3 12.4-2.1c.1-1.7-5.3-3.7-11.9-4.2-6.6-.4-12.1.6-12.2 2.3zM225.6 201l-.3-.3c-.8-1-1.6-2-2.4-3.1-.2.1-.4.2-.6.1-.4.8-.8 1.4-1.3 1.8-.9.6-3.1 1.5-4.9 2.1-.7.2-1.3-.6-.7-1.1l3.1-3s2.8-.3 1.7-1.2c-1.1-.9-5.4.4-5.4.4l-10.6 5.8c-.3 1.6-.5 3.2-.4 4.8 0 2 .4 4.2 1.7 5.8 1 1.3 3.1 2.9 4.8 3l15-8.1c1.4-.7 4.2-1.6 3.8-6.8-.9-1.3-2.6 1.1-3.5-.2zM65 265.5c0 .1 0 .1 0 0l-.6.8-4.7 5.9-.5.7-.6.8-.5.6-.4.5v.1l-.6-.4-1.5-1 .4-1.1c.2-.7-.7-1.2-1.2-.7-.2.3-.5.5-.7.8l-.4.4c-.4.4-.7.8-1 1.2-.2.2-.3.4-.5.5 0 .1-.1.1-.1.2-.3.4-.5.7-.6 1-1 1.8.3 6-.1 7.4-.5 1.3-2.5-.1-2.5-.1-2.7 0-2-1.4-2-1.4-2.2.6-1.8-1.2-1.8-1.2-1 .8-1.3-.3-1.3-.3l-1-4.6c-.1-.6-.2-1.2-.2-1.8v-.5c.1-1.1.6-2.2 1.2-3.2l3.3-4.7 4.4-6.4.7-1 .1-.2 1.1-1.6c1.6-.8 4.1-.2 5.7.5 1.9.9 3.2 2.7 4.1 4.4.4.7.7 1.4 1 2.1 0 0 0 .1.1.1.2.8.4 1.5.7 2.2z" fill="#fcc5a7"/><path d="M210.7 216.7l-14.6 5.5-3 1.1-18.2 6.9-14.9-28.1-6-11.4.4 5 .3 5.4c.1 4.3-.1 8.6-.5 12.9l-2.6 22.3v.3h-3.3l-11 .1h-3.7l-26.4.2-7.2.1c-.1-.1-.1-.3-.1-.4-2.2-6-2.5-7.5-3.3-13.8 0-.2-.1-.4-.1-.5v.3l-.1.2-14.9 21.8-13.7 20.1-.5-.2-3-1.4-12-5.4-.3-.2-.3-.1s0-.1.1-.2c1.5-2.2 17.8-26.2 22-35.2 3.5-7.5 4.7-19.2 6.2-30.7 1.6-12.4 3.5-24.8 8.8-32 1.9-2.6 6.5-4.6 11.5-6.2 1.5-.5 3.1-.9 4.7-1.3 6.4-1.7 12.2-2.5 12.4-2.5l.4-5.3c.5.1.9.2 1.4.3 16.8 3.9 22.6.8 22.6.8l-.1 1.6-.3 4.2v.2l1.2.1s8.7 2 15.9 5.5c4.1 2 7.7 4.5 8.9 7.5 3.3 8.1 20.9 42.8 20.9 42.8l7-2.2 9.7-3.1v.1l2.4 6.5 2.1 5.6.7 1.9.2.4.1.2.2.3z" fill="#ff8144"/><path d="M131.9 234.7c-.1 0-.1 0 0 0-.4-.1-.6-.3-.5-.6.1-.3 5.8-33.7 5.3-41.9-.5-8.2-6.1-37-6.2-37.3v-.2l1-6.6c0-.3.3-.5.6-.4.3 0 .5.3.4.6l-1 6.5c.3 1.8 5.7 29.3 6.2 37.4.5 8.3-5.1 40.7-5.3 42.1-.1.2-.3.4-.5.4z" fill="#f65727"/><circle cx="137.5" cy="170.2" r="1.4" fill="#f65727"/><circle cx="139.3" cy="183" r="1.4" fill="#f65727"/><circle cx="140.4" cy="195" r="1.4" fill="#f65727"/><circle cx="139.4" cy="208.2" r="1.4" fill="#f65727"/><circle cx="138" cy="219.7" r="1.4" fill="#f65727"/><circle cx="135.9" cy="232" r="1.4" fill="#f65727"/><path d="M118.5 137.5c-9.3-9.5-5.1-24.4-4.9-27.5 6-2.9 11.6-13.7 11.6-13.7 8.8 13.4 24.7 12.8 24.7 12.8s9.8 1.9 9.1-12.6c-.5-10.4-30.3-24.3-49-9.1-12.1 9.9-14.4 43.8 8.2 50l.3.1z" fill="#b86332"/><path fill="#360000" d="M98.5 220.9l.3-30.9-2.5 33.2z"/><path fill="#fff" d="M207.2 200.8l5.9 14.6-2.6 1-5.4-14.4zM67.3 264.6l-.1.1-1.5 2.2-1.3-.6-10.4-4.7-3.2-1.4.6-1.1.6-1.2.1-.1h.2l11.9 5.4z"/><path d="M217.5 182.2s1.1 18.4-8.8 33.4l12.4 6.4s13.2-13.3 10.5-36.6l-14.1-3.2z" fill="#dddbde"/><path d="M218.5 197.4l-1 1c-.2.8-.4 1.5-.6 2.3.2-.1.5-.1.7-.2.1 0 .3-.1.4-.1h.1c.1-.5.3-1.1.4-1.6.1-.5.2-.9.3-1.3-.1-.1-.3-.1-.3-.1zm0 0l-1 1c-.2.8-.4 1.5-.6 2.3.2-.1.5-.1.7-.2.1 0 .3-.1.4-.1h.1c.1-.5.3-1.1.4-1.6.1-.5.2-.9.3-1.3-.1-.1-.3-.1-.3-.1zm0 0l-1 1c-.2.8-.4 1.5-.6 2.3.2-.1.5-.1.7-.2.1 0 .3-.1.4-.1h.1c.1-.5.3-1.1.4-1.6.1-.5.2-.9.3-1.3-.1-.1-.3-.1-.3-.1zm0 0l-1 1c-.2.8-.4 1.5-.6 2.3.2-.1.5-.1.7-.2.1 0 .3-.1.4-.1h.1c.1-.5.3-1.1.4-1.6.1-.5.2-.9.3-1.3-.1-.1-.3-.1-.3-.1zm0 0l-1 1c-.2.8-.4 1.5-.6 2.3.2-.1.5-.1.7-.2.1 0 .3-.1.4-.1h.1c.1-.5.3-1.1.4-1.6.1-.5.2-.9.3-1.3-.1-.1-.3-.1-.3-.1zm0 0l-1 1c-.2.8-.4 1.5-.6 2.3.2-.1.5-.1.7-.2.1 0 .3-.1.4-.1h.1c.1-.5.3-1.1.4-1.6.1-.5.2-.9.3-1.3-.1-.1-.3-.1-.3-.1zm11.8-10.2v-.4l-11.1-2.4v.7c0 2.3-.3 6.2-1.1 10.9v.1c-.1.8-.3 1.5-.5 2.4-.2.8-.4 1.5-.6 2.3-.1.2-.1.5-.2.7-1 3.8-2.5 7.8-4.7 11.8-.2.4-.5.9-.7 1.3l-.3.5.7.3.7.4 8.4 4.3.3-.3c1.5-1.9 5-6.7 7.3-14 .3-.9.5-1.9.8-2.8.9-4.8 1.5-10 1-15.8zm-1.8 13.6c-.1.3-.1.7-.2 1-.2.9-.4 1.7-.6 2.5-.3 1-.6 2-1 3-1.6 4.3-3.5 7.6-5 9.7-.4.6-.8 1.1-1.1 1.5l-1.6-.8-4.6-2.4-1.4-.7-.2-.1h-.1c.4-.6.7-1.2 1-1.9 1.8-3.6 3.2-7.2 4.1-10.6.1-.4.2-.7.3-1.1 0-.2.1-.3.1-.5.1-.5.3-1.1.4-1.6.1-.5.2-.9.3-1.3.1-.4.2-.9.2-1.3v-.2c.6-3.2.9-6.1 1-8.3 0-.7.1-1.4.1-1.9l1.8.4 5.4 1.2 1.8.4c.1.6.1 1.2.1 1.8.2 4-.2 7.8-.8 11.2zm-10-3.4l-1 1c-.2.8-.4 1.5-.6 2.3.2-.1.5-.1.7-.2.1 0 .3-.1.4-.1h.1c.1-.5.3-1.1.4-1.6.1-.5.2-.9.3-1.3-.1-.1-.3-.1-.3-.1zm0 0l-1 1c-.2.8-.4 1.5-.6 2.3.2-.1.5-.1.7-.2.1 0 .3-.1.4-.1h.1c.1-.5.3-1.1.4-1.6.1-.5.2-.9.3-1.3-.1-.1-.3-.1-.3-.1zm0 0l-1 1c-.2.8-.4 1.5-.6 2.3.2-.1.5-.1.7-.2.1 0 .3-.1.4-.1h.1c.1-.5.3-1.1.4-1.6.1-.5.2-.9.3-1.3-.1-.1-.3-.1-.3-.1zm0 0l-1 1c-.2.8-.4 1.5-.6 2.3.2-.1.5-.1.7-.2.1 0 .3-.1.4-.1h.1c.1-.5.3-1.1.4-1.6.1-.5.2-.9.3-1.3-.1-.1-.3-.1-.3-.1zm0 0l-1 1c-.2.8-.4 1.5-.6 2.3.2-.1.5-.1.7-.2.1 0 .3-.1.4-.1h.1c.1-.5.3-1.1.4-1.6.1-.5.2-.9.3-1.3-.1-.1-.3-.1-.3-.1zm0 0l-1 1c-.2.8-.4 1.5-.6 2.3.2-.1.5-.1.7-.2.1 0 .3-.1.4-.1h.1c.1-.5.3-1.1.4-1.6.1-.5.2-.9.3-1.3-.1-.1-.3-.1-.3-.1z" fill="#98acb3"/><ellipse transform="rotate(-71.772 222.987 201.681)" cx="223" cy="201.7" rx="4.2" ry="5.4" fill="#98acb3"/><ellipse transform="rotate(-4.41 220.594 186.215) scale(.99996)" cx="220.6" cy="186.2" rx="1.5" ry="1.5" fill="#98acb3"/><ellipse transform="rotate(-4.41 228.694 188.135) scale(.99996)" cx="228.7" cy="188.1" rx="1.5" ry="1.5" fill="#98acb3"/><ellipse transform="rotate(-4.41 213.578 214.046) scale(.99996)" cx="213.6" cy="214.1" rx="1.5" ry="1.5" fill="#98acb3"/><ellipse transform="rotate(-4.41 220.414 217.753) scale(.99996)" cx="220.4" cy="217.8" rx="1.5" ry="1.5" fill="#98acb3"/><path d="M214.3 196.9s4.8-2.7 10.4 1.3c1.3.9.3 2.8-.5 2.5-4.4-1.9-9.6 1-9.6 1l-.3-4.8z" fill="#fcc5a7"/><path d="M337.9 408.7h29.7c1.5 0 2.7-1.2 2.7-2.6v-6.3c0-1.3-1-2.4-2.4-2.6l-18.3-2c-.7-.1-1.4.1-1.9.5l-11.4 8.3c-.7.5-1.1 1.2-1.1 2.1 0 1.4 1.3 2.6 2.7 2.6zm37.1 8.6h29.7c1.5 0 2.7-1.2 2.7-2.6v-6.3c0-1.3-1-2.4-2.4-2.6l-18.3-2c-.7-.1-1.4.1-1.9.5l-11.4 8.3c-.7.5-1.1 1.2-1.1 2.1 0 1.4 1.2 2.6 2.7 2.6z" fill="#905744"/><path d="M384.2 129.7s27.5 2.8 29.6 19.9c1.1 8.8-1.7 46.2-1.7 46.2l-10.5 4.1 2 21.8-59.8-3.2-4.6-71.6c-.3-4.8 2.4-9.3 6.8-11.4l20.3-6.9 17.9 1.1z" fill="#98acb3"/><path d="M344.5 214.5l58.7-4 5.3 196.4c0 1.3-1.1 2.4-2.5 2.4l-28-.5c-1.3 0-2.3-1-2.4-2.2l-9.1-148-22-44.1z" fill="#332f2f"/><path d="M402.6 408.1c-.3 0-.5-.2-.5-.5l-4.8-169.7c-1.7-.5-8.3-2.7-8.5-8.7-.4-10.4 11.8-13.7 11.9-13.7.3-.1.5.1.6.4.1.3-.1.5-.4.6-.1 0-11.5 3.1-11.1 12.7.2 6 8.1 7.8 8.1 7.8l.4.1v.4l4.8 170.1c0 .3-.2.5-.5.5z" fill="#fff"/><path d="M374.6 254.4l-3.7 83.3 2.1 60.8c-.2 1.2-1.4 2.2-2.7 2.1l-29-1.7c-1.5-.1-2.6-1.3-2.4-2.6l2.4-86.9 3.4-99.5 29.9 44.5z" fill="#332f2f"/><path d="M367 220.6c-5 0-8.9-.5-12.5-1.3-5.8-1.3-9.6-2.4-9.7-2.5-.3-.1-.4-.4-.3-.6.1-.3.4-.4.6-.3 0 0 3.8 1.2 9.6 2.4 9 2 19.5 2.1 46.4-3 .3-.1.5.1.6.4.1.3-.1.5-.4.6-16.3 3.1-26.7 4.3-34.3 4.3z" fill="#fff"/><path fill="#fcc5a7" d="M366.1 130.3h20.8v-40L366 98z"/><path d="M366 93.1h13v12c0 7.9-5.5 14.5-13 16.4V93.1z" fill="#360000"/><path d="M369 118.9c10.1 0 17.8-9.5 17.8-19.8V83.5c0-10.3-8.2-18.7-18.2-18.7-10.1 0-18.2 8.4-18.2 18.7l-.1 10.8v.1c-.1 5.6.5 10.7 2.4 14.4 3.3 6.4 9.1 10.1 16.3 10.1zm-3 10.7c0-1.6 4.7-2.8 10.4-2.8s10.5 2.1 10.5 3.6-7.4 6-13.1 6c-5.7-.1-7.8-5.3-7.8-6.8z" fill="#fcc5a7"/><path d="M368.4 119.4c-9.9 0-18-8.1-18-18v-19c0-9.9 8.1-18 18-18s18 8.1 18 18v19c0 9.9-8.1 18-18 18z" fill="#fcc5a7"/><path d="M392.9 81c2.1-10.5 1-13.3-3.9-17.1-2-1.5-5.4-1.6-9-1.3-1.6-3.1-6.4-5.5-12.9-1.8-.7.4-1.4.7-2.1 1-3.2-3.6-9.8-8.5-18.5-3-8.9 5.7-8.1 18.9 1.7 21.4 10.3 2.7 17.8-4.9 23-4.4 10.2 1.1 7.3 6.2 7.3 6.2s-2.4 5 2.1 6c2 .4 2.9 5.5 2.6 7.4-.9 7.3 3.7 9.2 3.7 9.2 1.1-4.4 2.1-8.2 3-11.6.1-.1.1-.2.2-.3 4.2-1.5 6.6-9.1 2.8-11.7z" fill="#360000"/><ellipse transform="rotate(-39.282 381.973 91.957)" cx="382" cy="92" rx="4.9" ry="3.8" fill="#fcc5a7"/><path fill="#98acb3" d="M342.1 138L324 164.8l7 20.8 18.5-21.2z"/><path d="M317.6 171.4l-34.5-11.1-7.4 12.2 39 18.9c1.7.8 3.8.9 5.6.3l10.7-6.4-6.8-20.7-6.6 6.8z" fill="#fcc5a7"/><path fill="#332f2f" d="M341.1 175.4l-9.4 9.1 10.3-32.6z"/><path fill="#161616" d="M371.2 267.9l.1 66.3-3-10.1-2.7-56.2z"/><path d="M347.9 221.4l64.2-25.7-12.2-5.3-11.2-4.8-47.1 23.3-8.4 3.2c-1 .4-1.6 1.5-1.3 2.5l.5 1.6-2.6 1.1c-.7.3-1 1.1-.8 1.8.3.7 1.1 1 1.8.7l.1.1c-.4.4-.6 1-.4 1.5.3.7 1.1 1 1.8.7l.3-.1.1.1c-.4.4-.6 1-.3 1.5.2.6.9.9 1.5.7-.4.3-.6.7-.4 1.2.2.5.8.7 1.3.5l1.7-.7 10.8-3.7.6-.2z" fill="#fcc5a7"/><ellipse cx="352.5" cy="89.1" rx="1.5" ry="2.7" fill="#360000"/><ellipse cx="364.5" cy="90.2" rx="1.5" ry="2.7" fill="#360000"/><path d="M356.8 100.9c-.1 0-1.3 0-1.9-.8-.3-.3-.5-.9-.2-1.9.3-1.1 2.7-8.2 2.8-8.5.1-.4.6-.6 1-.5.4.1.6.6.5 1 0 .1-2.5 7.5-2.8 8.5-.1.2-.1.4 0 .5.1.2.5.2.6.2.4 0 .8.3.8.8s-.3.7-.8.7z" fill="#e69880"/><path d="M356.6 106c-1.8 0-3.5-.7-4.6-2-.2-.3-.2-.7.1-1 .3-.2.7-.2 1 .1 1.3 1.6 3.9 2 5.9.9.3-.2.8-.1 1 .2.2.3.1.8-.2 1-1 .5-2.1.8-3.2.8z" fill="#360000"/><path d="M345.9 235.5c-.2 0-.5-.2-.5-.4 0-.3.1-.5.4-.6 3.7-.6 6.3-2.1 7.8-4.6 2.7-4.6.6-10.9.6-11-.1-.3 0-.5.3-.6.3-.1.5 0 .6.3.1.3 2.3 6.8-.6 11.8-1.7 2.8-4.5 4.5-8.6 5.1z" fill="#fff"/><path d="M367.6 88.2h-.2c-.4-.1-.6-.5-.5-.9.3-1-.3-2-1.2-2.3-.5-.1-.9-.1-1.4.2-.4.2-.7.6-.9 1.1-.1.4-.5.6-.9.5-.4-.1-.6-.5-.5-.9.2-.8.8-1.5 1.5-2 .8-.4 1.6-.5 2.4-.3 1.7.5 2.7 2.3 2.2 4 .1.4-.2.6-.5.6zm-17.9-.9c-.3 0-.5-.2-.6-.4-.7-1.6 0-3.6 1.6-4.3.8-.4 1.7-.4 2.5-.1.8.3 1.4.9 1.8 1.7.2.4 0 .8-.4.9-.4.2-.8 0-.9-.4-.2-.4-.6-.8-1-1-.5-.2-.9-.2-1.4 0-.9.4-1.3 1.5-.9 2.4.2.4 0 .8-.4.9-.1.3-.2.3-.3.3z" fill="#360000"/><path d="M268.1 169.7l10.4 4.1s.9-.5.9-.6c1.3-.8 1.5-1.6 2.6-2.7 1.3-1.3 2.6-2.9 2.9-4.9.2-1.6 0-4-1.1-5.2l-15.1-5.1c-1.8-.6-3.6-.4-5.2.4l-3.9 2.1s-.9.5.1 1.3c0 0-1.7.1-.6 1.9 0 0-1.4-.2-.8 2.2 0 0-.7 2.2.6 2.3 1.3.1 4.8-2.2 6.6-1.8 1 .2 3 1.2 4.5 2 .6.3.4 1.3-.3 1.2l-2.6-.2h-1.6c-.9 0-1.1 1.2-.3 1.7l.8.4c.8.4 1.4.6 2.1.9z" fill="#fcc5a7"/><path fill="#332f2f" d="M397.2 201.8l4.5-1.9.4 5.1-16.7 1.5zm-8.5-16.2l1.4-29-4.7 30.6z"/><path fill="#fcc5a7" d="M154.6 343.2l-8.9 103.5 16.7 9.5-29-3.8-7.9-118.2zm-33.2 5.3l-10.6 100.4 16.2 12.8-29-4.4-5.5-118.4z"/><path d="M157.9 356.4s-31.7 5.4-59.7-1l-3.6-10-1 8.8c-1.2-.3-2.4-.7-3.5-1.1 0 0-11.4-57.7-4.7-83.3 6.7-25.6 14.4-33.1 14.4-33.1l51.3-.8s12.4 13.3 14.5 38.6c2.1 25.3-7.7 81.9-7.7 81.9zM133 444.9s5.7 13.3 24.3 9.3c0 0 7.5 2.8 10.3 7.3 2.1 3.4-11.6 2.3-11.6 2.3s-8.5-.1-17.1-7.4l-1.1 6.1-4.9.1s-2.1-15.7.1-17.7zm-35.4 4.2s5.4 13.5 24.1 9.8c0 0 7.4 2.9 10.2 7.5 2.1 3.4-11.6 2.1-11.6 2.1s-8.5-.3-17-7.8l-1.2 6.1h-4.9c-.1.1-1.8-15.7.4-17.7z" fill="#332f2f"/></svg>