<svg xmlns="http://www.w3.org/2000/svg" xmlns:xlink="http://www.w3.org/1999/xlink" viewBox="0 0 500 500"><path d="M474.3 320.1c-.2 2.3-.5 4.8-1 7.3 0 .1 0 .2-.1.3-1.5 7.5-4.2 15.8-8.1 24.3-.1.1-.1.3-.2.4-3 6.4-6.7 13-11.1 19.7 0 .1-.1.1-.1.2-3.3 4.9-6.9 9.8-11 14.7-2.9 3.5-5.9 6.9-9.2 10.2-3 3.2-6.2 6.3-9.6 9.3-1 .9-2 1.8-3.1 2.7-13.7 11.9-30.1 22.6-48.9 31.1-9.2 4.1-19 7.7-29.4 10.5-6.7 1.9-13.6 3.4-20.8 4.6-7.2 1.3-14.7 2.2-22.4 2.7-.5 0-1 .1-1.5.1-2.5.2-5 .3-7.6.4-116.5 3.9-221.2-9.2-213.4-84 1.1-10.6 1.5-20.3 1.3-29.2-2-83.9-56.1-98.1-40.1-158.2 11.6-43.7 33.6-66.9 59.1-80.5 2.5-1.3 4.9-2.5 7.4-3.7 17.2-7.8 35.6-11.9 53.3-15.4 15.9-3.1 33.8-4.1 51.8-3.8 28.3.5 56.9 4.1 78.6 7.7 42.8 7 82.8 26 114.7 55.2 1 .9 2 1.9 3 2.8 3.3 3.1 6.4 6.3 9.4 9.5.3.3.6.6.8.9 1.7 1.8 3.4 3.7 5 5.6 3.8 4.4 7.3 8.8 10.6 13.3 4.8 6.5 9.1 13.2 12.9 19.8 0 .1.1.1.1.2.1.3.3.5.4.8.6 1 1.2 2 1.7 3 1.3 2.3 2.5 4.6 3.7 6.9 5 9.9 9 19.7 12.3 29.3.1.2.2.5.2.7 3.5 10.6 6.1 20.8 7.9 30.5 0 .2.1.4.1.6 2.1 11.2 3.1 21.6 3.4 30.8v.6c.5 6.8.3 12.8-.1 18.1z" fill="#f2f5f6"/><path d="M209.7 83.8v256.8H97.2V106.7c2.5-1.3 4.9-2.5 7.4-3.7 17.2-7.8 35.6-11.9 53.3-15.4 15.9-3.1 33.8-4.1 51.8-3.8z" fill="#fff"/><path d="M104.6 103v255.4h-7.5V106.7c2.6-1.3 5-2.5 7.5-3.7z" fill="#98acb3"/><path fill="#98acb3" d="M209.496 315.125l.504 2.347-112.447 24.104-.504-2.347z"/><path d="M424 406.5c-1 .9-2 1.8-3.1 2.7-30.8 26.6-74.5 47.6-130.4 49.4-116.5 3.9-221.3-9.2-213.5-84 1.1-10.6 1.5-20.3 1.3-29.2l19-4.1.3-.1 2.8-.6 4.3-.9 105.1-22.8h.2l40.5-8.8 43.3 24.5 34.1 19.3 9.6 5.5 86.5 49.1z" fill="#dddbde"/><path d="M474.7 302c.2 6.7.1 12.8-.4 18-.2 2.3-.5 4.8-1 7.3 0 .1 0 .2-.1.3-1.5 7.5-4.2 15.8-8.1 24.3l1.5.9-.6.2-1.1-.6c-3 6.4-6.7 13-11.1 19.7 0 .1-.1.1-.1.2-3.3 4.9-6.9 9.8-11 14.7-2.9 3.5-5.9 6.9-9.2 10.2V209.6h17.2c5 9.9 9 19.7 12.3 29.3.1.2.2.5.2.7 3.5 10.6 6.1 20.8 7.9 30.5 0 .2.1.4.1.6 2.1 11.2 3.1 21.6 3.4 30.8.1.2.1.3.1.5z" fill="#98acb3"/><path d="M433.6 389.6v7.5c-3 3.2-6.2 6.3-9.6 9.3-1 .9-2 1.8-3.1 2.7L337.5 360l-9.4-5.5-34.5-20.3v-26.8l15.6 9.2 5.8 3.4 118.3 69.6h.3z" fill="#98acb3"/><path d="M453.8 372c0 .1-.1.1-.1.2-3.3 4.9-6.9 9.8-11 14.7l-9.2 2.5h-.2l-.7.2-139.1-81.8-.9-.5 21.1-5.3 5-1.3 9-2.3 14.9 8.7 3.6 2.1.5.3 2.4 1.4.2.1h.1l3.1 1.8 1.5.9 1.5.9h.1l2.2 1.3 55.4 32.3 20.4 11.9 20.2 11.9z" fill="#fff"/><path fill="#dddbde" d="M309.2 316.5l34.4-9.5 5.9 3.9-34.8 9.1z"/><path d="M466.7 352.8l-.7.2-1.1-.6c-3 6.4-6.7 13-11.1 19.7 0 .1-.1.1-.1.2l-20.1-11.9-20.4-12-55.2-32.6-2.2-1.3-.1-.1-.7-.4-2.3-1.4-3.1-1.8h-.1l-2-1.2-.7-.4-.4-.2-3.2-1.9-16.3-9.6v-26.8l15.6 9.2 5.8 3.4 4.7 2.8 4.8 2.9 12.2 7.2 63.5 37.3 31.6 18.6 1.6.7z" fill="#98acb3"/><path d="M433.6 304.1l39.8 23.2c0 .1 0 .2-.1.3-1.5 7.5-4.2 15.8-8.1 24.3l1.5.9-.7.2-1.1-.6-31.4-18.5-63.7-37.5-11.9-7-5-3-26-15.3-.8-.5 22.7-5.7 5-1.3 2.9-.7 4.4-1.1 1.5.9 13.4 7.8 6.5 3.8.8.5 36.7 21.4 13.6 7.9z" fill="#fff"/><path fill="#dddbde" d="M342.5 279.8l34.3-9.4 6 3.9-34.8 9z"/><path d="M474.7 302c.2 6.7.1 12.8-.4 18-.2 2.3-.5 4.8-1 7.3 0 .1 0 .2-.1.3l-39.7-23.4-13.6-8-36.6-21.6-.6-.4-6.4-3.8-13.6-8-2.1-1.2v-26.8l15.6 9.2.5.3 5.3 3.1 3.3 1.9 48.2 28.3 41.1 24.2c.1.3.1.4.1.6z" fill="#98acb3"/><path d="M474.6 301.5v.6l-41.1-24.2-48-28.2-4.1-2.4-9.1-5.3-11.8-6.9-.8-.5L378 230l4.7-1.2 5-1.3 7-1.8 14.9 8.7 6.5 3.8 17.4 10.1 37.5 21.9c0 .2.1.4.1.6 2.2 11.1 3.2 21.5 3.5 30.7z" fill="#fff"/><path fill="#dddbde" d="M376.2 243.6l34.4-9.5 5.9 3.9-34.7 9.1z"/><path d="M471.1 270.1c0 .2.1.4.1.6l-37.7-22.2-17.5-10.3-6.4-3.8-14.8-8.8-.8-.5v-26.8l15.6 9.2 5.8 3.4 18.2 10.7 29.4 17.3c.1.2.2.5.2.7 3.5 10.6 6.1 20.9 7.9 30.5z" fill="#98acb3"/><path d="M463 238.9c.1.2.2.5.2.7l-29.7-17.4-39.6-23.3-.8-.5 23.2-5.9 5-1.3 6.8-1.7 15 8.7 2.3 1.4c.6 1 1.2 2 1.7 3 1.3 2.3 2.5 4.6 3.7 6.9 4.9 10 8.9 19.8 12.2 29.4z" fill="#fff"/><path d="M447 202.6l-31.7 8.3-.3.1-5.5-3.5 33.5-9.2.6-.2.2-.1 1 .6 2.1 1.4-2-1.2c.1.3.3.5.4.8.6 1 1.2 2 1.7 3z" fill="#dddbde"/><path d="M444.8 198.6l2.1 1.4-2-1.2-1.3-.8-11.8-6.9v-12.3c4.9 6.5 9.2 13.2 13 19.8zM316.3 309.8c-1.4 0-2.5-1.1-2.5-2.5v-83.8c0-1.4 1.1-2.5 2.5-2.5s2.5 1.1 2.5 2.5v83.8c0 1.4-1.1 2.5-2.5 2.5zm35-39.3c-1.4 0-2.5-1.1-2.5-2.5v-73c0-1.4 1.1-2.5 2.5-2.5s2.5 1.1 2.5 2.5v73c0 1.4-1.1 2.5-2.5 2.5zm70-105v31.6c0 1.4-1.1 2.5-2.5 2.5s-2.5-1.1-2.5-2.5v-37.2c1.7 1.9 3.4 3.7 5 5.6zm-36 69.5c-1.4 0-2.5-1.1-2.5-2.5v-61.3c0-1.4 1.1-2.5 2.5-2.5s2.5 1.1 2.5 2.5v61.3c0 1.4-1.1 2.5-2.5 2.5z" fill="#98acb3"/><path d="M415.5 159l-27.7 21.3-5 3.8-18.9 14.5-10.1 7.8-5 3.8-30 23-5 3.8-8.5 6.5-13.2 10.1c-.5.4-1 .7-1.6.9-.1.1-.3.1-.4.2 0 0-.1 0-.1.1-1 .4-2.1.6-3.2.6-2.6 0-5.2-1.2-6.9-3.4-2.9-3.8-2.2-9.3 1.6-12.2l7.9-6.1 4.1-3.2 3.7-2.9 5.4-4.2 40.1-30.8 60.1-46.1c1 .9 2 1.9 3 2.8 3.5 3.3 6.7 6.5 9.7 9.7z" fill="#dddbde"/><path d="M384.4 246.1l4.5 13.6c.8 2.6.5 5.4-.9 7.6l-21.5 34.6-16.1-9.2 13.2-32.3-1.8-5.3s.3-18.5 9.6-13.8c9.2 4.8 13 4.8 13 4.8zm-31.1 69.2c.9.5 1.9.1 2.4-.7l2.3-4.3c.5-.9.1-1.9-.7-2.4-.9-.5-1.9-.1-2.4.7l-2.3 4.3c-.5.8-.2 1.9.7 2.4z" fill="#fcc5a7"/><path d="M356.1 316.3c.7.4 1.5.1 1.8-.5l2.6-4.8c.3-.6.1-1.4-.5-1.8h-.1c-.6-.3-1.4-.1-1.8.5l-2.6 4.8c-.3.7 0 1.5.6 1.8zm-6.5-1.7c.9.5 1.9.1 2.4-.7l2.9-5.5c.5-.9.1-1.9-.7-2.4-.9-.5-1.9-.1-2.4.7l-2.9 5.5c-.5.9-.1 1.9.7 2.4zm-3.5-1.2c.9.5 1.9.1 2.4-.7l2.9-5.5c.5-.9.1-1.9-.7-2.4-.9-.5-1.9-.1-2.4.7l-2.9 5.5c-.5.9-.1 2 .7 2.4z" fill="#fcc5a7"/><path d="M350.2 292.5l16.8 8.3-8.6 13.9-12-2.5.8-4.3-2-1.3c-1.2-.8-1.6-2.4-.9-3.6l5.9-10.5zm-31.9-111.9c9.1 0 16.4-7.4 16.4-16.4v-13.8c0-9.1-7.4-16.4-16.4-16.4-9.1 0-16.4 7.4-16.4 16.4l-2.4 10.1 2.4.1v3.6c0 9 7.3 16.4 16.4 16.4z" fill="#fcc5a7"/><defs><path id="a" d="M318.3 180.6c9.1 0 16.4-7.4 16.4-16.4v-13.8c0-9.1-7.4-16.4-16.4-16.4-9.1 0-16.4 7.4-16.4 16.4l-2.4 10.1 2.4.1v3.6c0 9 7.3 16.4 16.4 16.4z"/></defs><clipPath id="b"><use xlink:href="#a" overflow="visible"/></clipPath><g clip-path="url(#b)"><path d="M303.5 167.6c-1.6 0-3.1-.7-4.1-2.1-.2-.3-.1-.8.2-1 .3-.2.8-.1 1 .2 1.1 1.6 3.3 2 4.9.9.3-.2.8-.1 1 .2.2.3.1.8-.2 1-.8.5-1.8.8-2.8.8z" fill="#e69880"/></g><path d="M310.9 178c9.1 0 16.4-7.4 16.4-16.4v-13.8c0-5.8-3-10.9-7.6-13.8 8.4.7 15 7.8 15 16.4v13.8c0 9.1-7.4 16.4-16.4 16.4-3.3 0-6.3-1-8.9-2.6h1.5z" fill="#360000"/><path fill="#fcc5a7" d="M334.744 195.658h-18.1v-37.9h18.1z"/><path d="M334.7 171.4H331c-4 0-9.6-1.4-12.2-5.9l-.6-3.4.7-17.4c.2-2-1-4.2-2.9-3.4-3.8 1.5-7.6 3.6-14.1 2.8-3.3-.4-13.9-5.2-9.7-14.8 4.8-11.1 25.2-9 27.7-5.2s12.2-.7 16.6 3.4c6.2 5.8 12.8 16.2-1.8 43.9z" fill="#b86332"/><ellipse transform="rotate(-60 318.828 157.8)" cx="318.8" cy="157.8" rx="4.7" ry="3.5" fill="#fcc5a7"/><ellipse cx="305.9" cy="153.4" rx="1.3" ry="2.2" fill="#360000"/><path d="M309.5 151.5c-.1 0-.2 0-.3-.1-.4-.2-.5-.6-.4-1 .4-.9 0-2-.9-2.4-.4-.2-.9-.2-1.4 0-.4.2-.8.5-1 1-.2.4-.6.5-1 .4-.4-.2-.5-.6-.4-1 .4-.8 1-1.4 1.8-1.7.8-.3 1.7-.3 2.5.1 1.6.7 2.3 2.7 1.6 4.3 0 .2-.2.4-.5.4z" fill="#b86332"/><path d="M346.5 312.6c-.4 0-.7-.3-.7-.7 0-.4.2-.8.6-.8l16.4-1.7c.4 0 .8.2.8.6 0 .4-.2.8-.6.8l-16.5 1.8zm-37.4 2.8c-.4 0-.7-.3-.7-.7 0-.4.3-.8.7-.8l15.5-1.5c.4-.1.8.3.8.7 0 .4-.3.8-.7.8l-15.6 1.5c.1 0 .1 0 0 0zm-9.6-18v160.7c-.5 0-1 .1-1.5.1V297.4c0-.4.3-.7.7-.7h.2c.3.1.6.4.6.7z" fill="#fff"/><path d="M323.4 299.3c-7.7 0-16.1-.3-24.7-1.2l-7.7-1.2c-.4-.1-.7-.4-.6-.8s.4-.7.8-.6l7.7 1.1c31.1 3 59.4-.9 59.6-1 .4-.1.8.2.8.6.1.4-.2.8-.6.8-.2.2-15.2 2.3-35.3 2.3z" fill="#fff"/><path d="M371.9 440.3c-9.2 4.1-19 7.7-29.4 10.5l-14.1-92.4-6.6 97.1c-7.2 1.3-14.7 2.2-22.4 2.7-.5 0-1 .1-1.5.1-2.5.2-5 .3-7.6.4l.7-161.6v-4.5l6.8-.1-2.3-7.4 55.7 5.5 6.8.7.4 4.6.1.9v.7l1.1 11.8v.6l.1 1.4.1.8v.2l12.1 128z" fill="#332f2f"/><path d="M334.7 192.7s25-.7 29.4 6.2c6.2 9.8 20.3 47.2 20.3 47.2l-22.6 9.1-5.9-9.9 2.1 45.9-66.9 1.4-2.1-79.7c-.3-4.9-1.5-13.4 7-15.6l21.4-4.6h17.3z" fill="#ff8144"/><path d="M304.4 226.7l2.5 46.3c.4 6.9-6.4 11.9-12.9 9.5-1.9-.7-3.1-1.1-3.1-1.1 0 .7-.7-26.2-.7-26.2l3.9-27.1 10.3-1.4z" fill="#f65727"/><path fill="#ff8144" d="M290.1 201.7l-17.3 37.5 11.6 24.5 22.6-32.8z"/><path d="M270.2 243.3l-29.1-20-11.8 14.6 39.9 34.1c1.7 1.1 3.9 1.3 5.7.4l9.4-8.8L273 239l-2.8 4.3z" fill="#fcc5a7"/><g fill="#fcc5a7"><path d="M218.5 220.5c-.7.8-.6 2.1.2 2.8l4.1 3.5c.8.7 2.1.6 2.8-.2.7-.8.6-2.1-.2-2.8l-4.1-3.5c-.9-.8-2.1-.7-2.8.2z"/><path d="M216.7 223.3c-.6.7-.5 1.6.1 2.1l4.6 3.9c.6.5 1.5.4 2-.2v-.1c.5-.6.4-1.5-.2-2l-4.6-3.9c-.5-.5-1.4-.4-1.9.2zm3.2-6.4c-.7.9-.5 2.1.4 2.8l5.5 4.2c.9.7 2.1.5 2.8-.4.7-.9.5-2.1-.4-2.8l-5.5-4.2c-.9-.7-2.1-.5-2.8.4zm1.1-4.2c-.7 1.1-.3 2.4.7 3.1l8 5c1.1.7 2.4.3 3.1-.7.7-1.1.3-2.4-.7-3.1l-8-5c-1.1-.7-2.5-.3-3.1.7z"/><path d="M241.1 223.3l-11.8 14.6-5.9-5.8-5.8-5.6 5.1-11.2.7-3.4s3.4 1.6 4.7 2.4c1.1.7 2.3-3.2 3.2-5.1.3-.7.8-2.3 2.3-1.9 2.2.5.6 3.4 1.8 9.8l5.7 6.2z"/></g><path fill="#f65727" d="M355.9 245.2l-.6-21.1 2.7 13.2 3.8 17.8z"/><path fill="#141313" d="M326.9 346.1l9.7-2.3 6 106.3z"/><path fill="#fcc5a7" d="M205.1 131.9l18 25.5-25.8 12.3-6.1-21zm-94.7-21.1l-10.7 33.4c-2.2 6.8 1.9 14 8.8 15.7l5.8 1.4 17.2-41.9s-.9-1.6-10.3-5.1c-9.3-3.6-10.8-3.5-10.8-3.5z"/><path d="M200.5 373.4h-29.3c-1.5 0-2.7-1.2-2.7-2.7v-6.5c0-1.4 1-2.5 2.4-2.6l18.1-2c.7-.1 1.4.1 1.9.5l11.3 8.5c.7.5 1.1 1.3 1.1 2.1-.1 1.5-1.3 2.7-2.8 2.7zm-49.4 13.3h-29.3c-1.5 0-2.7-1.2-2.7-2.7v-6.5c0-1.4 1-2.5 2.4-2.6l18.1-2c.7-.1 1.4.1 1.9.5l11.3 8.5c.7.5 1.1 1.3 1.1 2.1-.1 1.5-1.3 2.7-2.8 2.7z" fill="#360000"/><path d="M140.8 90s-21.7 2-29.2 17.3C107.4 115.8 97 151 97 151l25.5 7.7 3.4 24.7 53.9-7 4.2-69.5c.3-4.7-2.3-9.2-6.5-11.3L158 88.8 140.8 90z" fill="#b86332"/><path d="M180 173.7s-10.7 4.5-26.9 6.1c-10.1 1-31.6-3.9-31.6-3.9l-3.6 200c0 1.4 1.1 2.5 2.5 2.5l27.7-.5c1.3 0 2.3-1 2.4-2.3l9-153.2 20.5-48.7z" fill="#98acb3"/><path d="M126.5 378c-.4 0-.7-.3-.7-.7l2.1-177.1.5-.1c.1 0 6.8-2.1 8-8.1 1.1-5.9-6.6-10-6.7-10-.3-.2-.5-.6-.3-.9.2-.3.6-.5.9-.3.4.2 8.8 4.6 7.5 11.5-1.1 5.9-6.7 8.3-8.4 9l-2.1 176.1c-.1.3-.4.6-.8.6z" fill="#fff"/><path d="M151.5 218.1l16.4 145.4c.2 1.3 1.3 2.2 2.6 2.2l27.6-1.8c1.4-.1 2.4-1.3 2.3-2.7L180 173.7l-28.5 44.4z" fill="#98acb3"/><path d="M150.9 185c-6.4 0-14.5-.8-25.4-2.9-.4-.1-.6-.4-.5-.8s.4-.6.8-.5c24.8 4.9 34.9 2.5 43.1.5.7-.2 1.5-.4 2.2-.5 5.7-1.3 9.4-2.5 9.5-2.5.4-.1.8.1.9.5.1.4-.1.8-.5.9 0 0-3.8 1.2-9.6 2.5-.7.2-1.5.3-2.2.5-4.7 1-10 2.3-18.3 2.3z" fill="#fff"/><path fill="#fcc5a7" d="M140.6 54H158v36.5h-17.4z"/><path d="M158 55.1h-10.8v10.2c0 6.7 4.6 12.3 10.8 13.9V55.1z" fill="#e69880"/><path d="M156.4 76c-8.7 0-15.8-7.1-15.8-15.8V46.9c0-8.7 7.1-15.8 15.8-15.8 8.7 0 15.8 7.1 15.8 15.8v13.3c0 8.7-7.1 15.8-15.8 15.8z" fill="#fcc5a7"/><ellipse transform="rotate(-29.896 145.16 55.15)" cx="145.1" cy="55.1" rx="3.4" ry="4.5" fill="#fcc5a7"/><ellipse cx="149.3" cy="90.5" rx="8.7" ry="2.2" fill="#fcc5a7"/><path d="M156.7 107.2c2.2-5.2 2.7-11 1.4-16.5l-.1-.3-17.3.3 3.6 5.8c1.9 3 4.4 5.6 7.4 7.5l5 3.2z" fill="#fcc5a7"/><path fill="#b86332" d="M179.1 96.7l26.6 33.7-14.8 24.5-15.6-14.7z"/><path fill="#905744" d="M124 151.1l6-29.2-3.4 55.1-5.1-1.1zm55-1.8l9.2 8.3-10.2-41z"/><path fill="#360000" d="M159.6 208.7l-2.6 52.4 3.4 26.3 4.8-78.7z"/><path d="M153.9 170.2c-.3.9-1.2 1.4-2.1 1.2l-4.6-1.3c-.9-.3-1.4-1.2-1.2-2.1.3-.9 1.2-1.4 2.1-1.2l4.6 1.3c.9.3 1.4 1.2 1.2 2.1z" fill="#fcc5a7"/><path d="M152.7 172.5c-.2.7-.9 1.1-1.5.9l-5-1.4c-.7-.2-1.1-.9-.9-1.5v-.1c.2-.7.9-1.1 1.5-.9l5 1.4c.7.2 1.1.9.9 1.6zm2.7-4.6c-.3.9-1.2 1.4-2.1 1.2l-5.8-1.6c-.9-.3-1.4-1.2-1.2-2.1.3-.9 1.2-1.4 2.1-1.2l5.8 1.6c.9.3 1.4 1.2 1.2 2.1z" fill="#fcc5a7"/><path d="M156.9 165.3c-.3.9-1.2 1.4-2.1 1.2l-5.8-1.6c-.9-.3-1.4-1.2-1.2-2.1.3-.9 1.2-1.4 2.1-1.2l5.8 1.6c1 .3 1.5 1.2 1.2 2.1z" fill="#fcc5a7"/><path d="M159.5 162.8c-.6 1-2 1.4-3 .8l-6.6-3.9c-1-.6-1.4-2-.8-3 .6-1 2-1.4 3-.8l6.6 3.9c1.1.6 1.5 2 .8 3z" fill="#fcc5a7"/><path d="M139.9 152.8l-5.2 17.1 15.4 3.1 6.2-10.1-3.6-2.3.4-2.2c.2-1.4-.6-2.7-2-3l-11.2-2.6z" fill="#fcc5a7"/><ellipse cx="168.6" cy="49.9" rx="1.3" ry="2.1" fill="#360000"/><ellipse cx="158.4" cy="50.4" rx="1.3" ry="2.1" fill="#360000"/><path d="M165.7 59.8c-.4 0-.7-.3-.7-.7s.3-.7.7-.7c.1 0 .3-.1.4-.2.1-.1.1-.3 0-.6-.3-1-2.3-8.3-2.3-8.4-.1-.4.1-.8.5-.9.4-.1.8.1.9.5.1.3 2.1 7.3 2.3 8.4.2.9 0 1.5-.3 1.8-.5.8-1.4.8-1.5.8zm.2 5c-1 0-1.9-.3-2.7-.9-.3-.2-.4-.7-.2-1 .2-.3.7-.4 1-.2.7.5 1.6.7 2.5.5.9-.2 1.7-.7 2.2-1.4.2-.3.7-.4 1-.2.3.2.4.7.2 1-.7 1-1.8 1.7-3.1 2-.4.2-.7.2-.9.2z" fill="#e69880"/><path d="M171.2 48.6h-.2c-.4-.1-.6-.5-.5-.9.3-.9-.3-1.9-1.2-2.2-.4-.1-.9-.1-1.3.2-.4.2-.7.6-.8 1.1-.1.4-.5.6-.9.5-.4-.1-.6-.5-.5-.9.2-.8.8-1.5 1.5-1.9.7-.4 1.6-.5 2.4-.3 1.6.5 2.6 2.2 2.1 3.9 0 .3-.3.5-.6.5zm-15.5 1.3c-.3 0-.5-.2-.6-.4-.7-1.6 0-3.4 1.5-4.1.8-.3 1.6-.4 2.4-.1.8.3 1.4.9 1.7 1.7.2.4 0 .8-.3.9-.4.2-.8 0-.9-.3-.2-.4-.5-.8-1-.9-.4-.2-.9-.2-1.3 0-.9.4-1.2 1.4-.8 2.3.2.4 0 .8-.3.9h-.4z" fill="#332f2f"/><path d="M182.9 199.6h-.1c-14-2.3-12.2-18.1-12.2-18.3 0-.4.4-.7.8-.6.4 0 .7.4.6.8-.1.6-1.6 14.6 11.1 16.7.4.1.6.4.6.8-.2.3-.5.6-.8.6z" fill="#fff"/><path d="M171.8 42.9s-.1-3.9 2-7c1.9-2.8 3.3-8.9-.2-11.6-5.2-4-11.3 2.3-14.9 1.8-3.6-.6-12.4-1-15.6 3.2-3.2 4.2-2.6 7.8-2.6 7.8s-4.6-.3-6.3 5.3c-1.9 6.3 4.6 15.1 6.5 19.5.4 1 1.5-2.4 1.5-2.4s-2.6-7.5 0-8.6c1.9-.8 2.8.8 2.8.8s-.6 13 5.1 21c3.6 5 15.6 7 18.7 4.7 6.8-5 3.6-20.4 3.6-20.4l-1.1 4.1s-5.5-.2-8.4 1.5-3.8 3.6-6.1 1.6-11.3-12.6-8.1-14.7c2.9-2 5.5-4.4 4-9.2 0 0 8.5 3.9 13.6.6 2.3-1.6 5.5 2 5.5 2z" fill="#332f2f"/><path d="M157.9 77.6v1.6c-5.2-1.3-9.3-5.4-10.4-10.7.6 1.5 1.4 3 2.3 4.3 1.6 2.2 4.8 3.9 8.1 4.8z" fill="#e69880"/><path d="M169.3 64c.2 1.3-1 2.6-2.5 2.8-1.6.2-3-.7-3.2-2.1l5.7-.7z" fill="#fff"/><path fill="#dddbde" d="M193.707 105.269l1.487-.2 4.599 34.193-1.487.2z"/><path d="M202.7 144.6c-.6-2.8-.4-5.1-.1-7 .4-2.8-3.4-2.1-4.2-2-.8 0-4.7.4-3.6 3 1.1 2.5 1.7 4.8 1.7 6.2-.1 2-.5 6.8-.2 9.2 1 7.8 2 14 6.3 13.4 3.9-.5 3.6-6.9 2.6-14.6-.2-3.2-1.6-5.9-2.5-8.2z" fill="#ff8144"/><path d="M199.3 150.4c-1 0-1.6-.1-1.7-.1-.2 0-.3-.2-.3-.4s.2-.3.4-.3c0 0 2.6.5 5-.5.2-.1.4 0 .5.2.1.2 0 .4-.2.5-1.3.5-2.7.6-3.7.6zm.4 3.4c-1.2 0-1.9-.3-2-.3-.2-.1-.3-.3-.2-.5.1-.2.3-.3.5-.2 0 0 2.2.8 5.3-.6.2-.1.4 0 .5.2.1.2 0 .4-.2.5-1.5.7-2.9.9-3.9.9zm.6 3c-1.4 0-2.2-.4-2.3-.5-.2-.1-.2-.3-.2-.5.1-.2.3-.2.5-.2.1 0 2.3 1.1 5.4-.6.2-.1.4 0 .5.1.1.2 0 .4-.1.5-1.5 1-2.8 1.2-3.8 1.2zm-5.2-18.9c-.1 0-.2 0-.3-.1-.1-.2-.1-.4 0-.5.1-.1 3-2.5 7.6-.8.2.1.3.3.2.5-.1.2-.3.3-.5.2-4.1-1.5-6.7.6-6.8.7 0-.1-.1 0-.2 0z" fill="#f65727"/><path d="M195.5 98.9c-.1-1-.2-1.4-.8-1.5-.3-.1-.7-.1-1.2 0h-.2c-.5.1-.9.2-1.2.3-.5.3-.6.7-.4 1.7.1.5.2 1.1.3 1.9.4 3 1.5 5.4 2.5 5.3h.2c1-.1 1.4-2.7 1-5.7 0-.9-.1-1.5-.2-2z" fill="#dddbde"/><path d="M195.5 99.1l-3.7.5-.2-1.5c0-.3.2-.6.5-.7l2.4-.3c.3 0 .6.2.7.5l.3 1.5z" fill="#98acb3"/><path fill="#ff8144" d="M208.44 173.94l-5.807-1.87 19.316-59.963 5.806 1.87z"/><path fill="#f65727" d="M207.17 173.418l18.641-57.87 1.237.399-18.64 57.87z"/><path d="M221 114.2s1.7-7.8-1-8.7c-5.4-1.8-13.1 5.9-13.8 5.7-.7-.2-1.1-2.1-1.1-2.1s8.2-8.6 14.1-9.4c5.9-.8 14.2 2.2 17.5 4.6 3.3 2.5 6.1 0 6.1 0l4.6 1.6s.2 6.5-3.4 8.8l-4.3-1.4s-2.8-4.4-6.2-3.5-5.8 6.4-5.8 6.4l-6.7-2z" fill="#dddbde"/><path d="M240.6 112.9c-.1 0-.2 0-.2-.1-.1-.1-.1-.3 0-.5 3-2.6 2.5-6.7 2.5-6.7 0-.2.1-.3.3-.4.2 0 .3.1.4.3 0 .2.6 4.5-2.7 7.3-.2.1-.2.1-.3.1zm-6.2-3.9c-.1 0-.2 0-.2-.1-.1-.1-.1-.3 0-.5 2.1-1.8 1-4 1-4-.1-.2 0-.4.1-.4.2-.1.4 0 .4.1 0 0 1.3 2.7-1.2 4.8 0 .1-.1.1-.1.1zm-12.3 4.3c-.1 0-.1 0 0 0-.2 0-.3-.2-.3-.4 0 0 .8-4.6.3-6.5-.4-1.7-2.2-1.9-2.2-1.9-.2 0-.3-.2-.3-.3 0-.2.2-.3.3-.3 0 0 2.2.2 2.8 2.4.5 2-.3 6.5-.3 6.7-.1.2-.2.3-.3.3zm10.01 3.975v8.8h-103.7v-8.8z" fill="#98acb3"/><path d="M186.2 114.2l.4 9.8c.1 1.6-1.2 3-2.8 3.1h-.5c-1.6.1-3-1.2-3.1-2.8l-.7-10.2s-9.3 8.6-5.1 15.7 6 7.7 7 12.9 3.1 32.3 3.1 32.3l7.4-.7-2.2-27.4c-.3-4 .3-8 1.9-11.7.8-2.1 1.7-4.4 2.1-6.4.6-2.6-2-12.4-7.5-14.6z" fill="#dddbde"/><path d="M184.9 160.6c-.1 0-.3-.1-.3-.2l-1.8-21c-.1-.6.1-1.2.5-1.6s.9-.7 1.5-.7c1.1 0 2.1.9 2.1 2l1.7 20.7c0 .1-.1.3-.2.3s-.3-.1-.3-.2l-1.7-20.7c-.1-.9-.8-1.5-1.6-1.5-.4 0-.9.2-1.2.5-.3.3-.4.8-.4 1.2l1.8 21c.2 0 .1.1-.1.2zm-4.5-31.2h-.1c-4.1-2.2-2.7-10.6-2.6-10.9 0-.1.2-.2.3-.2.1 0 .2.2.2.3 0 .1-1.4 8.3 2.4 10.4.1.1.2.2.1.4h-.3z" fill="#98acb3"/><path fill="#dddbde" d="M230.1 115.3h3.4v43.9h-3.4zm-102.8 0h3.4v43.9h-3.4z"/><path d="M134.2 137.2s-7.4 2-8.2 2.7c-.7.6-1.6 3.3.1 5.8.8 1.1 2.2 1.7 3.5 1.3 2-.5 5.1-1.3 6.5-1.6 2.2-.5-1.9-8.2-1.9-8.2z" fill="#360000"/><path d="M148.5 132.6s11.2-3.9 12.9-3.5c1.7.4 2.4.6 2.7 2.3.3 1.7-.5 2.9 1.4 4.9 1.9 2 8.6 11 10.4 18 1.8 7 2.7 9.5.5 10.3s-10.4 3.4-9.8 1.3c.6-2.1 1.7-6.3-.5-8.8-2.1-2.5-3.1-1.2-4.5-3.3s-1.4-5.9-2.3-5.9c-.9 0-2.9.4-3-.2s-10.8 3.6-13.1 2.5c-2.3-1.1-2.4-2.7-3.8-2.8-1.3 0-2.9 1.4-3.6.4-.6-1-3.6-10.4-2.8-11.6.7-1.2 8.8-3.5 9.9-2.8s1.2 1.9 4.5 1.3c3.2-.6 9.3-2.3 8.2-2.6-.8-.3-8.2 2.3-7.1.5z" fill="#98acb3"/><path d="M156.6 147.3s4.6-1.8 5.8-1.1c1.2.7 3.4 6.5 2.7 7.3s-2.6 1.7-3.2.9c-.6-.8-1.4-5.8-2.2-6.2s-3.7.7-3.1-.9z" fill="#ff8144"/><path fill="#360000" d="M127 142.8l-17.9 4.4.3 1.2 18-4.6z"/><path d="M139.4 147.3l-.9-2.8c-.3-.8-.2-1.6.2-2.4.4-.7 1.1-1.3 1.8-1.5l20.4-5.3.2.7-20.4 5.3c-.6.2-1.1.6-1.4 1.1-.3.6-.4 1.2-.2 1.8l.9 2.8-.6.3z" fill="#dddbde"/><path d="M144 140c-.4-.8-.7-2.6 1.3-3.8 2.2-1.3 16.1-4.3 16.7-4.4l.2.7c-.1 0-14.4 3.1-16.5 4.3-1.8 1.1-1.1 2.6-1 2.8l-.7.4zm22.2 17l-.3-.7s1.7-.7 1.9-2.1c.2-1.1-.5-2.4-1.2-3.8-.9-1.8-1.8-3.6-1.4-5.4.7-2.7 3.4-3 4.7-2.8l-.1.7c-.1 0-3.2-.5-3.9 2.3-.4 1.5.5 3.2 1.3 4.9.8 1.5 1.5 2.9 1.3 4.2-.3 1.9-2.2 2.6-2.3 2.7z" fill="#dddbde"/><path d="M132.5 146.7c-.1 0-.2-.1-.3-.1-3.8-5.1-1.6-8.7-1.5-8.9.1-.2.3-.2.5-.1s.2.3.1.5c-.1.1-2 3.4 1.5 8 .1.2.1.4-.1.5-.1 0-.1.1-.2.1zm-2.9.9c-.1 0-.2 0-.3-.1-4.2-4.3-1.7-8.9-1.7-9 .1-.2.3-.2.5-.1s.2.3.1.5-2.2 4.2 1.6 8.1c.1.1.1.4 0 .5 0 .1-.1.1-.2.1z" fill="#fff"/><path fill="#dddbde" d="M127.1 150.2h106.7v39.2H127.1z"/><path d="M233.5 180.9c-2.7 0-7-.4-8.7-2.8-.9-1.3-2.8-1.7-4.6-2-1.7-.3-3.2-.6-3.6-1.7-.3-.8 0-1.7 1-3 4.1-5.6 15.1-3.4 15.6-3.3l-.2.7c-.1 0-11-2.2-14.8 3-.8 1.1-1.1 1.8-.9 2.3.3.7 1.6.9 3 1.2 1.9.4 4 .8 5 2.3 2.1 3.2 10.2 2.4 10.3 2.4l.1.7c0 .1-.9.2-2.2.2z" fill="#fff"/><path d="M232.7 185.5c-4.7 0-14.9-.4-15.4-4.1-.2-1.5-2.3-2.5-4.4-3.5-2.2-1-4.4-2.1-4.8-4-.3-1.1.1-2.3 1.2-3.7 5.2-6.7 24.2-4.8 25-4.7l-.1.7c-.2 0-19.4-1.9-24.3 4.4-.9 1.2-1.3 2.2-1.1 3.1.4 1.5 2.4 2.5 4.4 3.5 2.2 1.1 4.5 2.2 4.8 4.1.4 3.3 12.3 3.6 16.8 3.4v.7c-.2 0-1 .1-2.1.1z" fill="#fff"/><path d="M204.1 191.1c-2.8-.8-3.3-2.4-3.9-4.2-.7-2.1-1.6-4.7-6.5-7.3-2.3-1.2-3.4-2.5-3.4-3.9-.1-2.8 4-5.4 7.9-7.9 1.7-1.1 3.3-2.1 4.6-3.2 5.8-4.6 29.7-3 30.7-3l-.1.7c-.2 0-24.6-1.7-30.2 2.8-1.3 1.1-3 2.1-4.7 3.2-3.8 2.4-7.7 4.9-7.6 7.2 0 1.1 1.1 2.2 3 3.3 5.2 2.7 6.1 5.5 6.8 7.7.6 1.8 1 3 3.4 3.7v.9zm-77.6-20.9l-.1-.7c2.2-.3 5.5-.3 9.4-.4 8.1-.1 18.3-.2 21.7-2.7 3.2-2.3 8.6-1.3 14.3-.3 3.8.7 7.7 1.4 10.8 1.1 4-.4 5.4-2.1 5.4-3.4 0-1.3-1.4-2.8-4.5-3-1.6-.1-3.1-.1-4.7 0-4.7.2-9.6.5-16.2-5-8.4-7-37.5-.3-37.8-.2l-.2-.7c1.2-.3 29.8-6.8 38.5.4 6.3 5.3 11.1 5 15.6 4.8 1.6-.1 3.2-.2 4.8 0 3.6.3 5.2 2.1 5.2 3.8 0 1.6-1.6 3.6-6 4.1-3.2.4-7.2-.4-11.1-1.1-5.6-1-10.8-2-13.7.1-3.6 2.6-13.9 2.8-22.1 2.9-3.8 0-7.1 0-9.3.3z" fill="#fff"/><path d="M143.6 163.5c-.1 0-7.1 0-7.6-1.5-.1-.2-.1-.5.3-.9.2-.1 5.2-3 8.1-3 2.9 0 7.9.8 9 2.1.2.2.2.4.1.7-.7 1.4-7.5 2.6-9.9 2.6zm-7-1.8c-.1.1-.1.2-.1.2.2.6 3.7 1.1 7.1 1.1 3.4 0 9.4-1.6 9.4-2.3-.9-1-5.5-1.9-8.6-1.9-2.6-.1-7.4 2.6-7.8 2.9z" fill="#fff"/><path d="M136 167.1c-5.9 0-10.8-.5-11.4-2.5-.4-1.3 1-2.8 4.4-4.8.5-.4 10.6-8 21.2-5.2 11.2 2.9 13 4.5 13.3 5.6.1.3.1.8-.4 1.3-1.6 1.6-11.6 5.3-15.9 5.3-.6 0-1.6 0-2.8.1-2.9.1-5.7.2-8.4.2zm9.4-12.4c-8.6 0-15.8 5.6-15.9 5.7-3.9 2.3-4.2 3.5-4 4 .8 2.5 14 2 18.9 1.7 1.3-.1 2.3-.1 2.8-.1 4.3 0 14-3.8 15.4-5.1.2-.2.2-.4.2-.5-.2-.9-2.6-2.4-12.7-5.1-1.7-.4-3.2-.6-4.7-.6zm37.6 34.9c-2.1-3-9.4-3.5-17.2-3.9-3.4-.2-6.9-.4-10.1-.8-10.2-1.4-29.8.3-30 .3l-.1-.7c.2 0 20-1.7 30.2-.3 3.1.4 6.7.6 10.1.8 7.9.4 15.4.9 17.7 4.2l-.6.4z" fill="#fff"/><path d="M188.7 191.7c0-.1-.6-5.9-4.4-8.9-2-1.5-5.7-1.3-9.7-1.1-3.8.2-8.2.4-11.7-.8-4-1.5-16.2-1.5-36-.1-1.3.1-1.9.1-2 .1v-.8c.1 0 .9-.1 2-.1 7.4-.5 30.1-2.1 36.3.1 3.4 1.2 7.7 1 11.4.8 4.1-.2 8-.4 10.2 1.3 4.1 3.2 4.7 9.2 4.7 9.4l-.8.1z" fill="#fff"/><path d="M127.1 189.3c-1.9 0-3.4-1.5-3.4-3.4v-38.7c0-1 .8-1.7 1.7-1.7 1 0 1.7.8 1.7 1.7v42.1zm106.7 0v-42.2c0-1 .8-1.7 1.7-1.7 1 0 1.7.8 1.7 1.7v38.7c0 2-1.5 3.5-3.4 3.5z" fill="#98acb3"/><path d="M119.8 161.6l1-3.6-22.5-6.8s.2-.6-2.9 8.9c-1.3 3.8-2.3 9.4-2.8 11-.5 1.5.4 3.1 1.9 3.5l44.2 9.2 10.1-15.7-9.3-2.3-19.7-4.2z" fill="#fcc5a7"/><g fill="#fcc5a7"><path d="M153.3 182.8c-.3.9-1.2 1.4-2.1 1.2l-4.5-1.3c-.9-.3-1.4-1.2-1.2-2.1.3-.9 1.2-1.4 2.1-1.2l4.5 1.3c.9.2 1.4 1.2 1.2 2.1z"/><path d="M152.1 185.4c-.2.7-.9 1.1-1.6.9l-5-1.4c-.7-.2-1.1-.9-.9-1.5v-.1c.2-.7.9-1 1.5-.9l5 1.4c.8.3 1.2 1 1 1.6zm3.1-5.6c-.3.9-1.2 1.4-2.1 1.2l-5.7-1.6c-.9-.3-1.4-1.2-1.2-2.1.3-.9 1.2-1.4 2.1-1.2l5.7 1.6c.9.2 1.5 1.2 1.2 2.1zm1.5-3.2c-.3.9-1.2 1.4-2.1 1.2l-5.7-1.6c-.9-.3-1.4-1.2-1.2-2.1.3-.9 1.2-1.4 2.1-1.2l5.7 1.6c.9.2 1.5 1.2 1.2 2.1z"/><path d="M139.4 165.9l-5.3 17 7.8 1.6 7.6 1.6 6.2-10.1.5-1s2.5-4.2-1.3-5.5c-2.6-.9-3.7-.9-4.3-1.1l-11.2-2.5z"/></g><g fill="#fcc5a7"><path d="M225.8 176.5c.1 1.1.9 1.8 1.9 1.7l4.7-.5c.9-.1 1.6-1.1 1.5-2.1-.1-1.1-.9-1.8-1.9-1.7l-4.7.5c-.9 0-1.6 1-1.5 2.1z"/><path d="M226.5 179.6c.1.9.7 1.4 1.4 1.3l5.2-.6c.7-.1 1.2-.8 1.1-1.5v-.1c-.1-.8-.7-1.3-1.4-1.3l-5.2.6c-.7.1-1.2.8-1.1 1.6zm-2.1-6.9c.1 1.1.9 1.8 1.9 1.7l5.9-.7c.9-.1 1.6-1.1 1.5-2.1-.1-1.1-.9-1.8-1.9-1.7l-5.9.7c-.9.1-1.6 1-1.5 2.1zm-.9-3.9c.1 1.1.9 1.8 1.9 1.7l5.9-.7c.9-.1 1.6-1.1 1.5-2.1-.1-1.1-.9-1.8-1.9-1.7l-5.9.7c-.9.1-1.6 1.1-1.5 2.1z"/><path d="M243.2 167.6l.4 3.7c.5 4.8-2.7 9.1-6.9 9.2l-7.8.3-4.4-12.5-.3-1.2s-1.8-5.2 2.2-5.9c2.7-.5 3.8-.3 4.4-.4l4.7-.4c3.8-.3 7.2 2.9 7.7 7.2z"/></g><path d="M224.1 167c-.4 0-.7-.3-.7-.7s.3-.7.7-.7c.1 0 5.3 0 7.2-.4.4-.1.7.2.8.6.1.4-.2.7-.6.8-2 .4-7.2.4-7.4.4zm1.2 4.3c-.4 0-.7-.3-.7-.7 0-.4.3-.7.7-.7 0 0 3.9-.2 5.8-.6.4-.1.8.1.8.5.1.4-.1.8-.5.8-2 .4-5.9.7-6.1.7.1 0 0 0 0 0zm1.6 3.8c-.3 0-.6-.3-.7-.6-.1-.4.2-.7.6-.8 2.2-.3 5.6-.8 6.1-.9.4-.1.7.2.8.5.1.4-.2.7-.5.8-.6.2-5.6.9-6.3 1 .1 0 .1 0 0 0zm.7 3.7c-.4 0-.7-.3-.7-.6 0-.4.3-.7.6-.8 1.1-.1 4.2-.5 5.5-.9.4-.1.8 0 .9.4.1.4 0 .8-.4.9-1.7.6-5.7 1-5.9 1zm-71.5-3.7h-.1c-.3-.1-7.6-1.6-9.3-2.1-.4-.1-.6-.5-.5-.9.1-.4.5-.6.9-.5 1.6.4 9.2 2 9.2 2 .4.1.6.4.5.8-.1.4-.4.7-.7.7zm-1.5 3.4h-.1c-.2 0-4.2-.9-6.4-1.7-.4-.1-.5-.5-.4-.9.1-.4.5-.5.9-.4 2.2.8 6.2 1.6 6.2 1.7.4.1.6.4.5.8-.1.2-.4.5-.7.5zm-1.7 3.1s-5.2-1.6-6-1.9c-.4-.1-.6-.5-.5-.9.1-.4.5-.6.9-.5.9.3 6.1 1.9 6.1 1.9l-.5 1.4zm-1.7 3.1h-.2l-6.3-2.2c-.4-.1-.6-.5-.4-.9.1-.4.5-.6.9-.4l6.3 2.2c.4.1.6.5.4.9-.2.2-.4.4-.7.4z" fill="#e69880"/></svg>