<svg xmlns="http://www.w3.org/2000/svg" xmlns:xlink="http://www.w3.org/1999/xlink" viewBox="0 0 500 500"><path d="M474.7 320.1c-1 12.5-6.1 27.6-15 43.2-25.5 44.3-82.6 92.5-168.8 95.3-12.6.4-25 .6-37.2.6h-.5c-10 0-19.7-.2-29.3-.6-12.6-.5-24.8-1.4-36.3-2.7-7.8-.9-15.3-1.9-22.5-3.2-7.7-1.4-15.1-3-22-4.9-7.2-2-13.9-4.2-20.1-6.8-6.2-2.5-11.8-5.4-16.9-8.6-2-1.2-3.8-2.5-5.6-3.9-2.5-1.9-4.8-3.9-6.9-6l-.9-.9c-2.9-3-5.5-6.2-7.7-9.7-2.2-3.5-4-7.3-5.3-11.4-1.5-4.7-2.5-9.8-2.7-15.3-.1-3.4 0-6.9.3-10.6.3-2.5.5-5 .7-7.4.3-4 .5-7.9.6-11.6.6-24.2-2.9-42.9-8.2-58.5-15-44.6-44.2-63.6-31.9-109.9 12.3-46.2 36.2-69.5 63.6-82.8 1.1-.6 2.3-1.1 3.5-1.6 1-.5 2.1-.9 3.1-1.4.9-.4 1.7-.7 2.6-1.1 3-1.2 6-2.3 9.1-3.3 6.7-2.3 13.5-4.1 20.4-5.7 2.2-.5 4.5-1 6.7-1.5l3-.6c2.7-.6 5.3-1.1 7.9-1.6 33.3-6.6 75.4-3.8 109.1.7 2.4.3 4.7.6 7 1 5 .7 9.8 1.5 14.4 2.2 24.9 4.1 48.9 12.2 70.8 24.1.7.4 1.4.8 2.1 1.1 2.5 1.4 5 2.8 7.4 4.3.7.4 1.3.8 2 1.2 1.5.9 2.9 1.8 4.3 2.8.4.3.9.6 1.3.8.9.6 1.9 1.3 2.8 1.9.2.1.3.2.5.3.2.1.4.2.5.4 3.9 2.7 7.8 5.6 11.5 8.6 2 1.5 3.9 3.2 5.9 4.8.7.6 1.5 1.3 2.2 1.9.4.3.8.7 1.1 1 .4.3.8.7 1.1 1 1.3 1.2 2.7 2.5 4 3.7 1 .9 1.9 1.8 2.8 2.7 2.1 2.1 4.2 4.2 6.2 6.4l.3.3c.3.4.7.7 1 1.1l5.4 6c2.1 2.5 4.1 4.9 6.1 7.4 42.3 54.2 49.1 115.6 46.5 146.8z" fill="#f2f5f6"/><path d="M402.9 395.8l-14.1 5-6.4 2.3-128 44.9-11.7 4.1-18.6 6.5c-12.6-.5-24.8-1.4-36.3-2.7-7.8-.9-15.3-1.9-22.5-3.2-7.7-1.4-15.1-3-22-4.9-7.2-2-13.9-4.2-20.1-6.8-6.2-2.5-11.8-5.4-16.9-8.6-2-1.2-3.8-2.5-5.6-3.9-2.5-1.9-4.8-3.9-6.9-6-3.3-3.3-6.2-6.8-8.6-10.6-2.2-3.5-4-7.3-5.3-11.4l15.3-4.8 19.1-6 17-5.3 17.3-5.4 15.5-4.9 35.5-11.2 13-4.1 3.2-1 11.4-3.6 28.3-8.9 72 24.6 75.4 25.9z" fill="#dddbde"/><path fill="none" stroke="#fff" stroke-width="2.482" stroke-linecap="round" stroke-linejoin="round" stroke-miterlimit="10" d="M82.1 402.2l12.3 6.3 19.8 10 5.7 2.9.5.3 12.8 6.5.6.3 5 2.6 5.6 2.8 43.2 22"/><path d="M165.1 452.6l-21.4-10.9-16.8-8.5-5.3-2.7-.1-.1-3.8-1.9-3.4-1.7L94 416.5l-8.9-4.5" fill="none" stroke="#fff" stroke-width="1.241" stroke-linecap="round" stroke-linejoin="round" stroke-miterlimit="10"/><path fill="none" stroke="#fff" stroke-width="2.482" stroke-linecap="round" stroke-linejoin="round" stroke-miterlimit="10" d="M236.9 351.1l145.6 52m-167-45.4l143.2 53.4"/><path fill="none" stroke="#fff" stroke-width="1.241" stroke-linecap="round" stroke-linejoin="round" stroke-miterlimit="10" d="M226 353.9l143.2 53.4"/><defs><path id="a" d="M229.8 429.4l-44-43.8 37.8-4.7 44 43.9z"/></defs><clipPath id="b"><use xlink:href="#a" overflow="visible"/></clipPath><g clip-path="url(#b)"><path d="M215.5 412.9l-23.4-26.1 45.2 10 24.2 26.5-46-10.4m-26.1-27.8c-.2 0-.3.1-.4.1-.2.1-.2.4 0 .6l24.8 27.6c.2.2.6.5 1 .5v-.6.6l48.9 11.1c.2.1.5.1.7 0 .1 0 .3-.1.4-.1.2-.1.2-.4 0-.6l-25.6-28.1c-.2-.2-.6-.4-1-.5l-48-10.6h-.8" fill="#fff"/></g><defs><path id="c" d="M231.2 438.1l-59.8-59.6 50.6-6.2 59.8 59.5z"/></defs><clipPath id="d"><use xlink:href="#c" overflow="visible"/></clipPath><g clip-path="url(#d)"><path d="M210.6 416.3L177.2 379l64.8 14.4 34.6 37.9-66-15m-35-38.3c-.1 0-.2 0-.2.1-.1.1-.1.2 0 .3l34.2 38.2c.1.1.3.3.6.3v-.3.3l67.5 15.4h.4c.1 0 .2 0 .2-.1.1-.1.1-.2 0-.4L242.9 393c-.1-.1-.4-.3-.6-.3L176 378h-.4" fill="#fff"/></g><path fill="none" stroke="#98acb3" stroke-width="1.182" stroke-linecap="round" stroke-linejoin="round" stroke-miterlimit="10" d="M353.7 282.9l-87.6 23.2-4.6 1.2-3.6.9-96.9 25.6-14.7 3.9-1.9.5-14.3 3.8-1.9.5-13.1 3.5-1.9.5-14.7 3.9-1.9.5-15.3 4-2 .5-.7.2"/><path fill="none" stroke="#98acb3" stroke-width="1.182" stroke-linecap="round" stroke-linejoin="round" stroke-miterlimit="10" d="M459.7 363.3l-98.1-27.7-100.1-28.3-.9-.3"/><path d="M361.7 333.2v3L258 308.6V118.2c0-11.3 3.5-21.6 9.5-29.9 2.4.3 4.7.6 7 1-5.2 8-8.3 17.7-8.3 28.2v190.4l95.5 25.3z" fill="#98acb3"/><path d="M361.7 118.2v215l-95.6-25.4V117.4c0-10.5 3.1-20.1 8.3-28.2 5 .7 9.8 1.5 14.4 2.2 24.9 4.1 48.9 12.2 70.8 24.1.6-.7 1.2-1.4 1.9-2.1.1 1.1.2 2.2.2 3.3-.1.5 0 1 0 1.5z" fill="#dddbde"/><circle cx="279.6" cy="200.9" r="6.5" fill="#98acb3"/><path d="M145.9 417.5l-.3 3.4-.7 7.6-.1 1.5-.4 3.9-.7 7.8-.6 6c-7.2-2-13.9-4.2-20.1-6.8l-1-6.9-.5-3.6-.3-2-1-6.8-.1-.8-.5-3.4h26.3z" fill="#fcc5a7"/><path fill="#360000" d="M119.8 420.9h26.1l-1.1 9.1-22.7 4.1z"/><path d="M166.9 428.5h-66.3c-2.5-1.9-4.8-3.9-6.9-6l-.9-.9c-2.9-3-5.5-6.2-7.7-9.7-2.2-3.5-4-7.3-5.3-11.4-1.5-4.7-2.5-9.8-2.7-15.3-.1-3.4 0-6.9.3-10.6.3-2.5.5-5 .7-7.4.3-4 .5-7.9.6-11.6.6-24.2-2.9-42.9-8.2-58.5.8-3.6 1.6-7.2 2.5-10.5 2.7-10.6 5.8-19.5 9.4-25.8.1-.1.1-.2.2-.3l.9-1.5c1.3-2 2.6-3.7 4-4.9l33.2 1.1h.9l23.1.7s1.8 2.7 3.9 7.3c.2.3.3.6.5 1 2.9 6.3 6.5 15.5 7.7 25.7 1.6 13.9 3.1 29.1 4.3 44 1.1 13.9 2.1 27.7 2.9 40.2 1.9 30.8 2.9 54.4 2.9 54.4z" fill="#905744"/><path d="M85.6 210.9l1.8 43.1 57.3 1.8 7.7-21.8 10.8 22.5 43.2-3.6 3.2-16.8-33.7-1.4s-11.3-51-15.5-59.3-27.1-11.8-27.1-11.8l-23.4-1.1s-20.1 4.4-27 9.9c-6.9 5.5.5 21.4.5 21.4l2.2 17.1z" fill="#ff8144"/><path d="M135.4 162.2c0 1.8-5.7 3.3-12.7 3.3-7 0-12.7-1.5-12.7-3.3 0 0-4.3 1-4.1 3.2.1 1.4 2.2 1 3.1 1.1 1.3.1 2.2.7 2.9 1.7.7 1 1.1 2.6 2.4 3.1 1.6.7 3.5 0 4.9-.8 1.6-.9 3.1-1.2 4.8-.2 4.5 2.7 8.1 1.6 9.9-2.7 1.3-3.1 3.3.6 5.2-1.6 3.3-3.6-3.7-3.8-3.7-3.8z" fill="#fff"/><path d="M121.5 255.2l-1.9-.2c.6-7.5 1.9-17.4 3.1-26.9 1.7-12.8 3.2-24.9 3.2-30.7 0-11.7-4.4-30.9-4.5-31.1l1.9-.4c.2.8 4.5 19.7 4.5 31.6 0 5.9-1.6 18.1-3.2 31-1.2 9.4-2.4 19.3-3.1 26.7z" fill="#fff"/><ellipse cx="120.3" cy="179.2" rx="1.8" ry="1.8" fill="#fff"/><ellipse cx="121.2" cy="192.2" rx="1.8" ry="1.8" fill="#fff"/><ellipse cx="121.2" cy="205.7" rx="1.8" ry="1.8" fill="#fff"/><ellipse cx="119.5" cy="219.1" rx="1.8" ry="1.8" fill="#fff"/><ellipse cx="117.7" cy="232.6" rx="1.8" ry="1.8" fill="#fff"/><ellipse cx="116" cy="246" rx="1.8" ry="1.8" fill="#fff"/><ellipse cx="122.5" cy="162.7" rx="12.7" ry="3.3" fill="#fcc5a7"/><path fill="#360000" d="M138.813 263.808l1.894-.142 12.384 164.737-1.895.143zm-14.345-.663l1.898-.09 7.868 165.318-1.898.09zM113.2 262.9h1.9v165.5h-1.9zM92.67 422.496l8.69-160.36 1.897.103-8.69 160.36zM91.5 261.8l-.1.9-1.7 15.3-.5 4.1-.1 1.2-.2 1.7-3 27.1-4.7 42.8-3.2 30.4-.9-.1H77c-.1-3.4 0-6.9.3-10.6.3-2.5.5-5 .7-7.4l1.3-11.8 4.8-44.5 2.9-26.3.1-.9.2-2.2.9-8 1.2-11 .1-1 2 .3z"/><path fill="#360000" d="M82.204 262.353l.077-1.899 66.746 2.706-.077 1.898zM154.9 239.5l4.9-24.6-7.1-22.7 3.4 22-3.8 19.8z"/><path d="M80.8 175.1l-23 54.9c-.7 2.1-.9 4.4-.6 6.6l16.1 51.3 17.9-5.3-14.6-43.9 16.7-46.5-12.5-17.1z" fill="#ff8144"/><path fill="#360000" d="M86.9 235.7l7.5-39.5-8.8 18.8z"/><path d="M73.4 287.9l8.2 19.5c.9 2.3 2.8 4 5.1 4.9l5.6 2.1s1.3.4 1.2-1.2c0 0 1.6 1.6 2.5-1 0 0 1 1.7 2.9-1.1 0 0 2.9-1.1 1.8-2.5-1.1-1.4-6.5-2.9-7.7-5.2-.7-1.3-1.6-4.4-2.1-6.8-.2-.8.8-1.2 1.3-.6l3.8 4.6s1.6 2.1 2.9.9c1.3-1.2-1.4-5.3-1.4-5.3l-6-13.8c-1.9-.6-3.9-1.1-5.9-1.3-2.5-.2-5.3-.2-7.5 1.1-2.1 1.4-4.5 3.6-4.7 5.7z" fill="#fcc5a7"/><path d="M73.4 287.9c.3-2.2 2.6-4.4 4.4-5.5 2.2-1.3 5.1-1.4 7.5-1.1 2 .2 4 .6 5.9 1.3l1.4 3.3c-1.9-.6-3.9-1-5.9-1.2-2.5-.2-5.3-.2-7.5 1.1-1.8 1.1-4.2 3.5-4.4 5.6l-1.4-3.5z" fill="#fff"/><path d="M205.2 253.3l19.7-2.1c2.3-.2 4.4-1.4 5.8-3.2l3.4-4.5s.7-1.1-.7-1.4c0 0 1.9-1-.2-2.5 0 0 1.8-.5-.2-2.9 0 0-.2-2.9-1.8-2.3-1.5.6-4.4 5-6.7 5.5-1.3.3-3.9.2-6.1.1-.9 0-1.1-1.2-.3-1.5l4.7-1.9s2.3-.9 1.6-2.4-5.1-.1-5.1-.1l-14 1.7c-1.1 1.6-2 3.2-2.7 5-.9 2.2-1.6 4.7-1 7.1.4 1.9 1.7 4.6 3.6 5.4z" fill="#fcc5a7"/><path d="M201.5 247.9c-.6-2.3.1-4.9 1-7.1.7-1.8 1.7-3.4 2.7-5l4.2-.5c-1.2 1.8-2.3 3.7-3.1 5.6-1.1 2.5-2 5.5-1.4 8.2.3 1.2.9 2.7 1.7 4l-1.4.1c-1.9-.7-3.2-3.4-3.7-5.3z" fill="#fff"/><path d="M106.5 428.5l-.4 3.9c-2-1.2-3.8-2.5-5.6-3.9h6z" fill="#fcc5a7"/><path d="M106.5 428.5l-.4 3.9c-2-1.2-3.8-2.5-5.6-3.9h6z" fill="#360000"/><path d="M107.4 96.2s-14.5 17.2-5.7 30.1c4.8 6.9 35 14.5 49.1 4.2 0 0 15.9-5.3-4.3-31.8l-39.1-2.5z" fill="#98acb3"/><path fill="#fcc5a7" d="M134.3 163.3l-23.4-.5-.5-38.8h25.4z"/><path d="M135.8 150.9c-.8.1-1.6.1-2.4.1-9.1 0-16.9-5.7-19.9-13.8v-12.8h22.3v26.5z" fill="#360000"/><path d="M128.8 141.2h1.3c12.9 0 23.4-10.5 23.4-23.4v-12.3c0-12.9-10.5-23.4-23.4-23.4h-1.3c-12.9 0-23.4 10.5-23.4 23.4v12.3c0 13 10.5 23.4 23.4 23.4z" fill="#98acb3"/><path d="M130.3 147.4c11.7 0 21.3-9.5 21.3-21.3v-16.3c0-11.7-9.5-21.3-21.3-21.3-11.7 0-21.3 9.5-21.3 21.3v16.3c.1 11.8 9.6 21.3 21.3 21.3z" fill="#fcc5a7"/><path fill="none" stroke="#e69880" stroke-width="1.913" stroke-linecap="round" stroke-miterlimit="10" d="M139.7 104.1h-18.9m19 3.2h-15.6"/><path d="M144.9 89.6c14.2-4.2 22.3 17.8 8.6 20.3-19.3 3.5-31.5-10.1-31.5-10.1s-4.9 12-16.1 16.3l4.4-22.7L125 86l19.9 3.6z" fill="#98acb3"/><path d="M136.3 119s.3 11.1-.8 12.6-2.6 1-2.6 1" fill="none" stroke="#e69880" stroke-width="1.913" stroke-linecap="round" stroke-miterlimit="10"/><ellipse transform="rotate(-24.556 108.502 117.419)" cx="108.5" cy="117.4" rx="4.7" ry="6.7" fill="#fcc5a7"/><path d="M110.8 117.8c-.9-2.1-2.5-3.6-4.1-4.2m2 1.3c-1.1 2-1.3 4.2-.8 5.8" fill="none" stroke="#e69880" stroke-width="1.913" stroke-linecap="round" stroke-miterlimit="10"/><ellipse cx="128.7" cy="119.7" rx="1.8" ry="2.8" fill="#360000"/><path d="M129.6 113.2c-.4-1.5-2.1-2.3-3.9-1.8-1.8.5-2.9 2-2.5 3.5m26.4 1c.2-1.5-1.2-2.9-3-3.1-1.8-.2-3.4.9-3.5 2.4" fill="none" stroke="#98acb3" stroke-width="1.961" stroke-linecap="round" stroke-linejoin="round" stroke-miterlimit="10"/><path d="M124.6 117.7c.5 1.1 2.1 1.4 3.4.7m16.3.4c.7 1 2.3 1.1 3.5.2" fill="none" stroke="#360000" stroke-width="1.913" stroke-linecap="round" stroke-miterlimit="10"/><path d="M127.4 136.1c-.3 2.2 2.1 4.3 5.2 4.7 3.2.4 6-1 6.3-3.3l-11.5-1.4z" fill="#fff"/><ellipse cx="144.4" cy="120.9" rx="1.8" ry="2.8" fill="#360000"/><path fill="none" stroke="#e69880" stroke-width="1.608" stroke-linecap="round" stroke-miterlimit="10" d="M119.7 119.4l-3-.6"/><path fill="none" stroke="#e69880" stroke-width="1.913" stroke-linecap="round" stroke-miterlimit="10" d="M152.1 121.5l-2.9 1.1"/><path d="M115.6 81.2c3.1 4.7 3.4 12.9-1 15.8-4.3 2.9-11.6-.7-14.7-5.4-3.1-4.7-2.1-10.8 2.2-13.7 4.3-2.8 10.4-1.4 13.5 3.3z" fill="#98acb3"/><path d="M459.6 106.9c.2 1.3.1 2.6 0 3.9-.2 2.3-.4 2.8.1 2.8.3 0 .6-1 .8-3.1.2-1.6.1-3.2.2-4 0 0 .2-.5.8-.5s.7.6.7.6c0 .9.1 2.4-.1 3.9-.3 2.1-.6 3-.3 2.8.4-.1.5-.5 1-2.2.4-1.4.1-2.9.6-3.7 0 0 .3-.5.8-.4.4.1.4.7.4.7s.1 2.2-.4 4.3c-.5 2-.5 2.8-.2 2.8.4 0 1.3-4.3 1.3-4.4 0 0 .1-1 .7-1 .5 0 .6.6.6.6l-.5 4.2c-.4 2.3-.3 2.9-1 4.5l-3.3 9.9c-1.2.9-5 .4-6.4 0-1.7-.4-3.2-1.8-4.3-3.2-.9-1.1-1-.1-1.6-1.3 0 0 0-2.1.1-2.1l2.1-7.3s1.4-3.5 2.6-3c1 .4.2 2.9.2 2.9l-.5 3c-.1.5 1 .8 1.3.3.9-1.4 1.1-3.5 1.4-4.5.3-1.1.3-1.5.6-3 .3-1.3.7-2.5.8-3.3 0 0 .1-.6.8-.6.7 0 .7.4.7.4zm-94.9 168.5l7.1 77.3-13.3 7.1 23.3-2.8 6.3-88.2zm26.6 4l8.5 74.9-12.9 9.6 23.2-3.3 4.4-88.3z" fill="#fcc5a7"/><path d="M390.7 116.5s-.6.7-1.7 1.9c-.3.4-.8.8-1.2 1.3l-1.5 1.5c-.5.5-1 1.1-1.6 1.6-1.2 1.2-2.5 2.4-3.9 3.7-.2.2-.4.3-.5.5-.2.2-.5.4-.7.6-2.5 2.3-5.3 4.7-8.1 6.7-3.4 2.5-6.8 4.6-9.7 5.6-3.2 1.1-5.8.9-7.4-1.3-1-1.3-1.6-2.7-2-4.1-1.7-6.4 2.5-13.3 7.4-19 .6-.7 1.2-1.4 1.9-2.1 1.3-1.4 2.6-2.7 3.8-3.9 5.4-5.4 6.9-19.2 7.3-26.4.2-2.8.2-4.6.2-4.6l2.9 6.2.2.5 5.9 12.4.8 1.7 6.4 13.5.1.2.4.8 1 2.7z" fill="#332f2f"/><path d="M327.5 156.7l13.1 5.2s16-26.7 19.1-33c3.1-6.3 20.5-8.9 20.5-8.9l17.7-.8s15.2 3.3 20.4 7.5c.8.6 1.4.9 1.8 1.9.7.6 1.3 1.8 1.9 2.4 4.7 5.2 15.2 29.7 15.2 29.7l13.4-22.3 7.3 2.9-22.9 32.5-19-17.3-3.2 27.6-2.4 18.6-1.6-.4-39.8.2-.9-41.7.8-10-24.4 23.5-22.2-6.1 5.2-11.5z" fill="#ff8144"/><path fill="#fcc5a7" d="M400.421 121.162h-19.2v-23.7h19.2z"/><path d="M362.5 288.5s25.4 4.3 47.7-.8l2.9-8 .8 7c1-.3 1.9-.5 2.8-.9 0 0 9.1-46.1 3.7-66.6-5.4-20.5-17-26.8-17-26.8H372s-14.1 10.3-15.7 30.5 6.2 65.6 6.2 65.6z" fill="#332f2f"/><path d="M400.5 112.9v.9c-6.5 2.4-13.4.3-17.7-4.6l-3.4-9.1 20.3-5.8.8 18.6z" fill="#360000"/><path d="M390.3 113c-8.9-.5-15.6-8.1-15.1-17l.7-12.8c.5-8.9 8.1-15.6 17-15.1s15.6 8.1 15.1 17l-.7 12.8c-.5 8.8-8.2 15.6-17 15.1z" fill="#fcc5a7"/><path d="M388.4 90.3s-.7 8.3 0 9.6c.8 1.2 1.9.9 1.9.9" fill="none" stroke="#e69880" stroke-width="1.432" stroke-linecap="round" stroke-miterlimit="10"/><ellipse transform="rotate(-62.102 408.106 90.855)" cx="408.1" cy="90.9" rx="5.1" ry="3.6" fill="#fcc5a7"/><path d="M406.3 91c.8-1.5 2.1-2.6 3.3-3m-1.5.9c.7 1.6.8 3.2.3 4.4" fill="none" stroke="#e69880" stroke-width="1.432" stroke-linecap="round" stroke-miterlimit="10"/><ellipse transform="rotate(-86.66 394.17 91.185)" cx="394.2" cy="91.2" rx="2.1" ry="1.3" fill="#360000"/><path d="M393.8 86.2c.4-1.1 1.7-1.6 3-1.2 1.3.4 2.1 1.6 1.7 2.7m-20-.3c-.1-1.1 1-2.1 2.4-2.2 1.4-.1 2.5.8 2.6 1.9" fill="none" stroke="#332f2f" stroke-width="1.058" stroke-linecap="round" stroke-miterlimit="10"/><path d="M397.4 89.8c-.4.8-1.6 1-2.6.4m-12.4-.4c-.6.7-1.8.7-2.6 0" fill="none" stroke="#360000" stroke-width="1.432" stroke-linecap="round" stroke-miterlimit="10"/><path d="M393.5 103.8c.1 1.6-1.4 3-3.4 3.1-2 .1-3.7-1-3.8-2.6" fill="none" stroke="#360000" stroke-width="1.058" stroke-linecap="round" stroke-linejoin="round" stroke-miterlimit="10"/><ellipse transform="rotate(-86.66 382.231 91.393)" cx="382.2" cy="91.4" rx="2.1" ry="1.3" fill="#360000"/><circle cx="401.9" cy="134.6" r="1.3" fill="#fff"/><circle cx="402.6" cy="144.4" r="1.3" fill="#fff"/><path d="M400.5 120.8c0 1.4-4.3 2.5-9.6 2.5s-9.8-1-9.8-2.4 4.5-2.7 9.8-2.7 9.6 1.3 9.6 2.6z" fill="#fcc5a7"/><path fill="#360000" d="M416.1 154.8l-6-14.5 7.4 6.7z"/><path d="M303 164l-11.2-9.3c-1.3-1.1-2.1-2.6-2.2-4.3l-.2-4s0-.9 1-.5c0 0-.7-1.4 1.2-1.4 0 0-.9-1 1.3-1.6 0 0 1.4-1.6 2.1-.6.7 1 .6 4.8 1.8 6.1.7.7 2.3 1.7 3.7 2.6.5.3 1.2-.3.8-.8l-2.1-3.1s-1.1-1.5 0-2.1 3.2 2 3.2 2l7.9 6.7c0 1.4-.1 2.7-.5 4.1-.4 1.6-1 3.5-2.4 4.6-.9.9-2.9 1.9-4.4 1.6z" fill="#fcc5a7"/><path d="M406.8 118.9s14.1 3.4 18.5 9.9c6 8.9 10.7 21.4 10.7 21.4s11.4-26.9 13.1-26.9c4.2-.2 11.6 4.1 13.1 6.3 0 0-13.2 47.1-21.7 48.7-7.8 1.5-23.9-14.8-23.9-14.8l-9.8-44.6z" fill="#98acb3"/><path d="M416.8 127.7s11.8 83.4 18.1 135.7c0 0-11.9 12.1-30.4 14.9 0 0-10-104.5-2.5-152.6l14.8 2zm-35.6-9.4s-19.2 3-23 7.7c-3.9 4.7-19.1 28.9-19.1 28.9s-31.7-6.5-32.3-5.1-1.7 12.5-5.3 14.7c-3.6 2.2 40.1 15.3 43.4 13.9 3.3-1.4 33.2-34.5 33.2-34.5l3.1-25.6z" fill="#98acb3"/><path d="M381.2 118.3s-9 142.2-15 161.7c0 0-21.8-4.9-25.1-21.5l24.8-115.2 15.3-25z" fill="#98acb3"/><path d="M396.7 185.7L411 191c1.8.7 3.8-.3 4.2-2.2.9-3.7 1.5-7.7 1.7-11.9.3-4.2.3-8.4.1-12.5-.5-12.5-2.5-23-2.5-23s-24.9-30.9-18.2-7.2c2.5 8.6 2.8 17.6 2.3 25.6-.3 4.2-.8 8.1-1.4 11.5-.8 4.5-1.7 8.2-2.4 10.5-.5 1.6.4 3.3 1.9 3.9z" fill="#f65727"/><path d="M382 112.1c-1-.1-2.9-.4-3.9-.4s-3.4 10.6-2.7 13.8c.8 3.2 26.1 6.6 35.3 1.6l-1.7-14.4c.1 0-9.2 1.1-27-.6z" fill="#f65727"/><path d="M415.9 111.4c-2.5 14.1 1.5 16.4 3.9 25 4.5 15.7-18.6 23.8-26.3 4.8-7.7-19 1.5-26.4 6.6-30.9 8-7 5.5-19.2 5.5-21.7-4.6-2.7-8.5-11.6-8.5-11.6-7.8 10.2-19.9 8.1-19.9 8.1s-10.2-2.2-7.1-9.9 25.6-17.7 39.6-4.4c9.1 8.6 9.3 23.2 6.2 40.6z" fill="#332f2f"/><path d="M407.3 217.6s0 10 12.2 14.8m-52.6-14.8s0 10-12.2 14.8" fill="none" stroke="#fff" stroke-width="1.058" stroke-linecap="round" stroke-miterlimit="10"/><path fill="#360000" d="M418.7 163.6l4.2 6.3 1.5 14z"/><path d="M382 350.4s-4.6 10.7-19.4 7.5c0 0-6 2.2-8.3 5.8-1.7 2.7 9.3 1.9 9.3 1.9s6.8-.1 13.7-5.9l.9 4.9 3.9.1c0-.1 1.7-12.7-.1-14.3zm28.3 3.4s-4.3 10.8-19.3 7.9c0 0-5.9 2.3-8.1 6-1.6 2.7 9.3 1.7 9.3 1.7s6.8-.2 13.6-6.2l1 4.9h3.9c.1-.1 1.4-12.7-.4-14.3z" fill="#332f2f"/><path d="M316.6 197.1c-1.9-8.5-5.3-19.4-8.5-28.6-.6-1.8-1.3-3.6-1.9-5.3-.6-1.5-1.1-2.9-1.6-4.2-1.5-3.7-2.8-6.6-3.7-8.1-.4-.7-.7-1-1-1.2-.3-.2-1.3-.4-1.8-.5h-.2l-3.8 7.4-2.1 4.1-1.2-7.1-.2-1-1.1-3.8-.1.1c-.9.8-11.1 10.2-12.3 14.4-1.7 5.8-5.2 21.4-8.8 27.4-.7 1.2-1.5 2.7-2.3 4.3-3.1 6.6-6.2 15.6-4.8 18.4.7 1.4 2.4 3.1 4.8 4.8 10.2 7.4 33.1 15.6 48.7 8.5.1.1 5.9-11.7 1.9-29.6zm-16.8-35.7l.2 5.9c-1.3-2.8-1.6-5.2-1.5-7 .1-2.7 1.1-4.1 1.1-4.1l.2 5.2zm-15.3 1.3l2.6-6.5.5 7.2c0 .5-.4.9-.9.7l-1.7-.5c-.5-.1-.7-.6-.5-.9z" fill="#fff"/><path d="M296.9 156.5s-2.3 2.8-2.9 11.8m-2-7.1s-16.5 17.3-22.5 32-4.9 20.3-4.9 20.3" fill="none" stroke="#dddbde" stroke-width="1.255" stroke-linecap="round" stroke-linejoin="round" stroke-miterlimit="10"/><path d="M291 208.9l2.5.6c1.1.2 2.1-.4 2.3-1.5l4.5-19.4c.2-1.1-.4-2.1-1.5-2.3l-2.5-.6c-1.1-.2-2.1.4-2.3 1.5l-4.5 19.4c-.2 1 .5 2.1 1.5 2.3z" fill="#ff8144"/><path d="M306.3 201.5l.6-2.5c.2-1.1-.4-2.1-1.5-2.3l-19.4-4.5c-1.1-.2-2.1.4-2.3 1.5l-.6 2.5c-.2 1.1.4 2.1 1.5 2.3L304 203c1 .3 2-.4 2.3-1.5z" fill="#ff8144"/></svg>