<svg width="49" height="49" viewBox="0 0 49 49" fill="none" xmlns="http://www.w3.org/2000/svg">
<path d="M49 24.5C49 19.6544 47.5631 14.9175 44.871 10.8885C42.1789 6.85954 38.3525 3.71931 33.8757 1.86496C29.399 0.0106148 24.4728 -0.474567 19.7203 0.47077C14.9678 1.41611 10.6023 3.74951 7.17588 7.17589C3.7495 10.6023 1.4161 14.9678 0.470759 19.7203C-0.474576 24.4728 0.0106036 29.399 1.86495 33.8758C3.7193 38.3525 6.85952 42.1789 10.8885 44.871C14.9175 47.5631 19.6544 49 24.5 49C30.9955 48.9927 37.2229 46.4091 41.816 41.816C46.409 37.223 48.9926 30.9956 49 24.5ZM1.63333 24.5C1.63333 19.9774 2.97444 15.5564 5.48706 11.796C7.99968 8.03557 11.571 5.10469 15.7493 3.37396C19.9276 1.64324 24.5254 1.1904 28.9611 2.07272C33.3968 2.95504 37.4712 5.13287 40.6692 8.33083C43.8671 11.5288 46.045 15.6032 46.9273 20.0389C47.8096 24.4746 47.3568 29.0724 45.626 33.2507C43.8953 37.429 40.9644 41.0003 37.204 43.513C33.4436 46.0256 29.0226 47.3667 24.5 47.3667C18.4375 47.3598 12.6253 44.9484 8.33846 40.6615C4.05163 36.3747 1.64025 30.5625 1.63333 24.5Z" fill="#FF8144"/>
<path d="M36.5605 25.0227C36.5758 24.9979 36.5897 24.9723 36.6022 24.9459C36.6268 24.9136 36.6489 24.8795 36.6683 24.8438C36.6782 24.8212 36.687 24.798 36.6945 24.7744C36.7068 24.7357 36.7163 24.6961 36.723 24.656C36.7328 24.6166 36.7393 24.5764 36.7426 24.5359C36.7426 24.5229 36.75 24.5131 36.75 24.5C36.75 24.4869 36.7435 24.4763 36.7426 24.4633C36.7392 24.4239 36.7329 24.3849 36.7239 24.3465C36.7174 24.3052 36.7075 24.2645 36.6945 24.2248C36.6855 24.2011 36.6789 24.1782 36.6683 24.1554C36.6487 24.1206 36.6269 24.087 36.603 24.0549C36.5858 24.0304 36.5801 24.001 36.5605 23.9773L28.3939 14.1773C28.3262 14.092 28.2421 14.0211 28.1466 13.9688C28.0511 13.9165 27.9461 13.8837 27.8378 13.8726C27.7295 13.8614 27.62 13.872 27.5159 13.9038C27.4117 13.9356 27.315 13.9879 27.2313 14.0576C27.1476 14.1273 27.0788 14.213 27.0287 14.3097C26.9787 14.4065 26.9485 14.5122 26.94 14.6208C26.9314 14.7293 26.9447 14.8385 26.9789 14.9419C27.0132 15.0452 27.0678 15.1407 27.1395 15.2227L34.1897 23.6833L13.0667 23.6833C12.8501 23.6833 12.6424 23.7694 12.4892 23.9225C12.336 24.0757 12.25 24.2834 12.25 24.5C12.25 24.7166 12.336 24.9243 12.4892 25.0775C12.6424 25.2306 12.8501 25.3167 13.0667 25.3167L34.1897 25.3167L27.1395 33.7773C27.0678 33.8593 27.0132 33.9548 26.9789 34.0581C26.9447 34.1615 26.9314 34.2707 26.94 34.3792C26.9485 34.4878 26.9787 34.5935 27.0287 34.6903C27.0788 34.787 27.1476 34.8727 27.2313 34.9424C27.315 35.0122 27.4117 35.0644 27.5159 35.0962C27.62 35.128 27.7295 35.1386 27.8378 35.1274C27.9461 35.1163 28.0511 35.0836 28.1466 35.0312C28.2421 34.9789 28.3262 34.908 28.3939 34.8227L36.5605 25.0227Z" fill="#FF8144"/>
</svg>
