<svg id="_1" data-name="1" xmlns="http://www.w3.org/2000/svg" viewBox="0 0 64 64"><defs><style>.cls-1{fill:none;stroke:#ff8042;stroke-linecap:round;stroke-miterlimit:10;stroke-width:3px;}</style></defs><title>icon_courier_02</title><path class="cls-1" d="M5.34,35.05A5.57,5.57,0,0,0,11,40.6h1.4l6.37,21.23,1-.26,3.25-.76,1-.26-2.62-20h5.11V38.24c6.75,1.08,18,3.95,25.82,11.41A2.39,2.39,0,0,0,55,51.94a2.49,2.49,0,0,0,2.17-2.55V35.05a8.33,8.33,0,0,0,0-15.56V5.34A2.49,2.49,0,0,0,55,2.79a2.39,2.39,0,0,0-2.74,2.29c-7.84,7.4-19,10.27-25.82,11.35v-2.3H10.89a5.61,5.61,0,0,0-5.61,5.55v2.49H3.62A1.85,1.85,0,0,0,1.77,24v7a1.85,1.85,0,0,0,1.85,1.85H5.34Z"/><line class="cls-1" x1="26.39" y1="15.93" x2="26.39" y2="39.39"/></svg>