<svg id="_1" data-name="1" xmlns="http://www.w3.org/2000/svg" viewBox="0 0 64 64"><defs><style>.cls-1{fill:#ff8042;}</style></defs><title>icon_courier_02</title><path class="cls-1" d="M35.1,3.3l.49,4.12.24,2,2,.53a22.78,22.78,0,0,1,5.62,2.37l1.74,1.05,1.62-1.24,3.45-2.63,4.42,4.43L52,17.27l-1.27,1.62,1.06,1.77a22.54,22.54,0,0,1,2.37,5.61l.52,1.91,2,.27,4.18.58v6.14l-4.18.58-2,.27-.52,1.91a22.78,22.78,0,0,1-2.37,5.62l-1,1.74L52,46.91l2.63,3.45-4.42,4.42-3.34-2.6-1.62-1.27L43.49,52a22.54,22.54,0,0,1-5.61,2.37L36,54.86l-.27,2L35.12,61H28.88l-.58-4.18-.27-2-1.91-.52A22.54,22.54,0,0,1,20.51,52l-1.77-1.06-1.62,1.27-3.34,2.6L9.37,50.37,12,47l1.27-1.62-1.06-1.76A22.78,22.78,0,0,1,9.81,38l-.52-1.91-2-.27-4.18-.58V29l4.18-.58,2-.27.52-1.91a22.54,22.54,0,0,1,2.37-5.61l1.06-1.77L12,17.27l-2.6-3.33,4.41-4.42,3.34,2.6,1.62,1.27,1.77-1.06A22.54,22.54,0,0,1,26.12,10L28,9.44l.27-2,.58-4.18H35.1M32,47.09A14.94,14.94,0,1,0,17.06,32.15,15,15,0,0,0,32,47.09M14.41,8.89h0M50.92,9h0M36,.3H28A2,2,0,0,0,26,2l-.7,5.08A25.39,25.39,0,0,0,19,9.76L14.88,6.57a2,2,0,0,0-1.17-.39,2,2,0,0,0-1.42.59L6.62,12.44A2,2,0,0,0,6.42,15l3.19,4.08a25.39,25.39,0,0,0-2.69,6.37l-5.08.7a2,2,0,0,0-1.69,2v8a2,2,0,0,0,1.69,2l5.08.7a25.39,25.39,0,0,0,2.69,6.37L6.42,49.27a2,2,0,0,0,.2,2.59l5.67,5.67a2,2,0,0,0,1.42.59,2,2,0,0,0,1.17-.39L19,54.54a25.39,25.39,0,0,0,6.37,2.69l.7,5.08A2,2,0,0,0,28,64h8a2,2,0,0,0,2-1.69l.7-5.08A25.39,25.39,0,0,0,45,54.54l4.08,3.19a2,2,0,0,0,1.17.39,2,2,0,0,0,1.42-.59l5.67-5.67a2,2,0,0,0,.2-2.59l-3.19-4.18a25.39,25.39,0,0,0,2.69-6.37l5.08-.7a2,2,0,0,0,1.69-2v-8a2,2,0,0,0-1.69-1.89l-5.08-.7a25.39,25.39,0,0,0-2.69-6.37L57.58,15a2,2,0,0,0-.2-2.59L51.71,6.77a2,2,0,0,0-1.42-.59,2,2,0,0,0-1.17.39L44.94,9.76a25.39,25.39,0,0,0-6.37-2.69L38,2A2,2,0,0,0,36,.3ZM32,44.09A11.94,11.94,0,1,1,43.94,32.15,12,12,0,0,1,32,44.09Z"/></svg>