<svg id="_1" data-name="1" xmlns="http://www.w3.org/2000/svg" viewBox="0 0 64 64"><defs><style>.cls-1,.cls-2{fill:none;stroke:#ff8042;stroke-linecap:round;stroke-width:3px;}.cls-1{stroke-linejoin:round;}.cls-2{stroke-miterlimit:10;}</style></defs><title>icon_courier_02</title><path class="cls-1" d="M11.44,27.17a9.62,9.62,0,0,0-9.6,9.59v.48a9.63,9.63,0,0,0,9.6,9.6h5.12V27.17Z"/><path class="cls-1" d="M52.84,27.17a9.62,9.62,0,0,1,9.59,9.59v.48a9.63,9.63,0,0,1-9.59,9.6H47.71V27.17Z"/><rect class="cls-2" x="27.64" y="56.49" width="9.51" height="5.47" rx="2.74" ry="2.74"/><path class="cls-2" d="M53.75,47.38A16.28,16.28,0,0,1,38.13,59.22"/><path class="cls-2" d="M10.05,27.28V23.06A21,21,0,0,1,31,2.15h2.48A21,21,0,0,1,54.35,23.06v3.19"/></svg>