<svg id="_1" data-name="1" xmlns="http://www.w3.org/2000/svg" viewBox="0 0 64 64"><defs><style>.cls-1{fill:none;stroke:#ff8042;stroke-linecap:round;stroke-miterlimit:10;stroke-width:3px;}.cls-2{fill:#ff8042;}</style></defs><title>icon_courier_02</title><path class="cls-1" d="M43.32,62.6H8.22S.61,34.84,4,29.26c3-5.1,12.74-6.5,12.83-6.5a2.9,2.9,0,0,1,2,.93,14.6,14.6,0,0,0,5.49,2.21,8.48,8.48,0,0,0,2.19.22,8.52,8.52,0,0,0,2.2-.22,14.46,14.46,0,0,0,5.49-2.22,2.89,2.89,0,0,1,2-.92c.67,0,7.33,1.48,11.24,4.95"/><path class="cls-2" d="M26.53,3.26A6,6,0,0,1,29,3.6,8.19,8.19,0,0,1,34.4,8.94a6.46,6.46,0,0,1,.37,2.58,7.06,7.06,0,0,1-.37,2.54A9.25,9.25,0,0,1,33,16.67a8.24,8.24,0,0,1-6.25,3.08h-.39c-.37,0-.63,0-.66,0a8.51,8.51,0,0,1-5.63-3.07,9.25,9.25,0,0,1-1.41-2.61,7.06,7.06,0,0,1-.37-2.54,6.64,6.64,0,0,1,.37-2.58A8.22,8.22,0,0,1,24,3.6a6,6,0,0,1,2.52-.34m0-3a8.76,8.76,0,0,0-3.45.49A11.22,11.22,0,0,0,15.8,8a9.69,9.69,0,0,0-.52,3.54A10.09,10.09,0,0,0,15.8,15a12.28,12.28,0,0,0,1.94,3.56,11.46,11.46,0,0,0,7.58,4.16c.18,0,.59,0,1,0h.47a11.22,11.22,0,0,0,8.5-4.19A12.25,12.25,0,0,0,37.25,15a10.09,10.09,0,0,0,.52-3.47A9.48,9.48,0,0,0,37.25,8,11.22,11.22,0,0,0,30,.75,8.73,8.73,0,0,0,26.53.26Z"/><line class="cls-1" x1="40.1" y1="44.68" x2="61.78" y2="44.68"/><line class="cls-1" x1="40.1" y1="36.03" x2="61.78" y2="36.03"/><line class="cls-1" x1="40.1" y1="53.33" x2="61.78" y2="53.33"/></svg>