<svg width="14" height="26" viewBox="0 0 14 26" fill="none" xmlns="http://www.w3.org/2000/svg">
<path d="M4.49316 18.3096V17.4131C4.49316 16.1182 4.69238 15.0557 5.09082 14.2256C5.48926 13.3844 6.23079 12.499 7.31543 11.5693C8.82064 10.2965 9.76693 9.33919 10.1543 8.69727C10.5527 8.05534 10.752 7.2806 10.752 6.37305C10.752 5.24414 10.3867 4.37533 9.65625 3.7666C8.93685 3.14681 7.89648 2.83691 6.53516 2.83691C5.66081 2.83691 4.80859 2.94206 3.97852 3.15234C3.14844 3.35156 2.19661 3.72233 1.12305 4.26465L0.143555 2.02344C2.23535 0.927734 4.42122 0.379883 6.70117 0.379883C8.8151 0.379883 10.4587 0.900065 11.6318 1.94043C12.805 2.98079 13.3916 4.44727 13.3916 6.33984C13.3916 7.14779 13.2809 7.86165 13.0596 8.48145C12.8493 9.09017 12.5339 9.67122 12.1133 10.2246C11.6927 10.7669 10.7852 11.6468 9.39062 12.8643C8.27279 13.8161 7.53125 14.6074 7.16602 15.2383C6.81185 15.8691 6.63477 16.7103 6.63477 17.7617V18.3096H4.49316ZM3.67969 23.2402C3.67969 21.735 4.34375 20.9824 5.67188 20.9824C6.3138 20.9824 6.80632 21.1761 7.14941 21.5635C7.50358 21.9508 7.68066 22.5098 7.68066 23.2402C7.68066 23.9486 7.50358 24.502 7.14941 24.9004C6.79525 25.2878 6.30273 25.4814 5.67188 25.4814C5.09635 25.4814 4.62044 25.3099 4.24414 24.9668C3.86784 24.6126 3.67969 24.0371 3.67969 23.2402Z" fill="#FF8144"/>
</svg>
