<svg xmlns="http://www.w3.org/2000/svg" width="800" height="600" viewBox="0 0 800 600"><g fill="#FF8144"><path d="M632.798 601.8c-1.587 0-3.187-.252-4.741-.77l-46.8-15.6a15 15 0 0 1-5.863-3.624l-165.6-165.601a14.992 14.992 0 0 1-3.624-5.863l-13.229-39.685-39.685-13.228a15.01 15.01 0 0 1-5.864-3.624l-8.4-8.4c-5.857-5.858-5.857-15.355 0-21.213l86.4-86.4c5.857-5.858 15.355-5.858 21.213 0l8.4 8.4a15.003 15.003 0 0 1 3.624 5.864l13.228 39.685 39.685 13.229a14.992 14.992 0 0 1 5.863 3.624l165.601 165.6a15 15 0 0 1 3.624 5.863l15.6 46.8a14.999 14.999 0 0 1-3.624 15.35l-55.2 55.2a14.996 14.996 0 0 1-10.608 4.393zm-38.695-43.71l34.646 11.548 42.09-42.09-11.548-34.646-160.594-160.591-43.44-14.48a15 15 0 0 1-9.487-9.487l-12.124-36.375-60.477 60.477 36.375 12.124a15 15 0 0 1 9.487 9.487l14.48 43.44L594.103 558.09zM605.2 519a14.95 14.95 0 0 1-10.606-4.394l-141.601-141.6c-5.858-5.857-5.858-15.355 0-21.213 5.857-5.857 15.355-5.857 21.213 0l141.601 141.6c5.858 5.857 5.858 15.355 0 21.213A14.954 14.954 0 0 1 605.2 519z"/><path d="M231.4 594.698c-32.306 0-64.612-12.297-89.207-36.892-49.188-49.188-49.188-129.225 0-178.413 15.751-15.752 35.655-27.065 57.559-32.718 18.213-4.699 37.085-5.344 55.091-1.932l55.35-55.351c5.857-5.858 15.355-5.858 21.213 0 5.858 5.858 5.858 15.356 0 21.213l-61.2 61.2a15 15 0 0 1-14.472 3.887c-32.33-8.62-68.572 1.157-92.329 24.913-37.491 37.492-37.491 98.495 0 135.987 18.061 18.061 42.208 28.007 67.994 28.007s49.933-9.946 67.994-28.007c24.259-24.259 33.561-58.817 24.882-92.445a14.998 14.998 0 0 1 3.917-14.354l43.2-43.2c5.857-5.857 15.355-5.857 21.213 0 5.858 5.857 5.858 15.355 0 21.213l-37.387 37.388c3.434 18.428 2.8 37.458-1.903 55.532-5.606 21.55-16.917 41.287-32.71 57.08-24.593 24.595-56.899 36.892-89.205 36.892zM377.2 322.2a14.95 14.95 0 0 1-10.606-4.394L206.586 157.8H164.8a15 15 0 0 1-13.636-8.75l-39.599-86.4a15 15 0 0 1 3.029-16.856l32.4-32.4a14.997 14.997 0 0 1 16.856-3.029l86.4 39.6A15 15 0 0 1 259 63.601v40.619l160.046 161.213c5.821 5.864 5.804 15.332-.039 21.174l-31.2 31.2A14.957 14.957 0 0 1 377.2 322.2zM174.425 127.8H212.8a15 15 0 0 1 10.606 4.394L377.2 285.987l10.025-10.025-153.87-154.994A14.997 14.997 0 0 1 229 110.4V73.226l-68.168-31.244-17.65 17.65 31.243 68.168zm323.975 168a14.946 14.946 0 0 1-10.606-4.394c-5.858-5.858-5.858-15.355 0-21.213l12-12a14.952 14.952 0 0 1 11.162-4.383l64.8 2.4c.171.006.342.016.513.028 12.373.881 23.698-3.419 32.725-12.445 24.513-24.512 38.562-56.961 39.901-91.878l-52.207 53.01a15.003 15.003 0 0 1-10.63 4.475H586c-3.978 0-7.793-1.58-10.606-4.394l-79.2-79.2a15 15 0 0 1 0-21.212l53.503-53.503c-34.937 1.241-67.427 15.198-92.001 39.628-5.336 6.008-13.803 18.044-12.733 33.013.013.171.021.342.027.514l2.401 64.8a15.005 15.005 0 0 1-4.384 11.162l-31.2 31.2c-5.858 5.856-15.354 5.857-21.213 0-5.857-5.858-5.857-15.355 0-21.213l26.575-26.574-2.149-58.024c-1.304-19.387 6.017-38.99 20.631-55.229.176-.196.356-.386.543-.572C467.658 38.329 509.78 21 554.8 21H586a15 15 0 0 1 10.606 25.607L528.013 115.2l57.906 57.905 67.394-68.431a15 15 0 1 1 25.688 10.526v31.2c0 45.021-17.329 87.143-48.794 118.607-15.079 15.079-34.895 22.589-55.805 21.174l-58.02-2.149-7.375 7.375A14.957 14.957 0 0 1 498.4 295.8z"/><path d="M254.799 539.4c-1.236 0-2.482-.152-3.71-.466l-56.4-14.4a15 15 0 0 1-10.823-10.823l-14.4-56.4a15 15 0 0 1 3.927-14.317l40.8-40.8a14.998 14.998 0 0 1 14.605-3.851l56.4 15.601a14.998 14.998 0 0 1 10.515 10.671l14.4 55.199a14.999 14.999 0 0 1-3.908 14.393l-40.8 40.801a14.999 14.999 0 0 1-10.606 4.392zm-44.067-41.732l39.501 10.085 28.683-28.683-10.048-38.518-39.643-10.966-28.579 28.579 10.086 39.503z"/></g></svg>