<svg xmlns="http://www.w3.org/2000/svg" width="602.4" height="456" viewBox="100.6 148.2 602.4 456"><g fill="#FF8144"><path d="M462.4 543h-138c-8.284 0-15-6.716-15-15s6.716-15 15-15h123V178.2H130.6V513h72.6c8.284 0 15 6.716 15 15s-6.716 15-15 15h-87.6c-8.284 0-15-6.716-15-15V163.2c0-8.284 6.716-15 15-15h346.8c8.284 0 15 6.716 15 15V528c0 8.284-6.715 15-15 15zM688 408.6H536.8c-8.284 0-15-6.716-15-15v-97.2c0-8.284 6.716-15 15-15h87.6c8.284 0 15 6.716 15 15 0 8.285-6.716 15-15 15h-72.6v67.2H688c8.284 0 15 6.716 15 15s-6.716 15-15 15z"/><path d="M688 543h-51.6c-8.284 0-15-6.716-15-15s6.716-15 15-15H673V384.347L579.864 264.6H477.4V513H514c8.284 0 15 6.716 15 15s-6.716 15-15 15h-51.6c-8.284 0-15-6.716-15-15V249.6c0-8.284 6.716-15 15-15h124.8c4.629 0 8.998 2.137 11.84 5.791l100.8 129.6A14.992 14.992 0 0 1 703 379.2V528c0 8.284-6.716 15-15 15z"/><path d="M575.2 604.2c-42.017 0-76.2-34.184-76.2-76.2s34.184-76.2 76.2-76.2 76.2 34.184 76.2 76.2-34.183 76.2-76.2 76.2zm0-122.4c-25.475 0-46.2 20.726-46.2 46.2s20.726 46.2 46.2 46.2 46.2-20.726 46.2-46.2-20.725-46.2-46.2-46.2zm-312 122.4c-42.017 0-76.2-34.184-76.2-76.2s34.183-76.2 76.2-76.2 76.2 34.184 76.2 76.2-34.183 76.2-76.2 76.2zm0-122.4c-25.475 0-46.2 20.726-46.2 46.2s20.725 46.2 46.2 46.2 46.2-20.726 46.2-46.2-20.725-46.2-46.2-46.2z"/></g></svg>