<svg xmlns="http://www.w3.org/2000/svg" viewBox="141.5 43.9 517 508.6"><g fill="#FF8144"><path d="M454 192.5H346c-6.903 0-12.5-5.597-12.5-12.5V60c0-6.903 5.597-12.5 12.5-12.5h108c6.903 0 12.5 5.597 12.5 12.5v120c0 6.903-5.597 12.5-12.5 12.5zm-95.5-25h83v-95h-83v95z"/><path d="M608.8 548.9H544c-6.903 0-12.5-5.597-12.5-12.5s5.597-12.5 12.5-12.5h64.8c13.389 0 24.7-11.312 24.7-24.7V93.6c0-13.389-11.312-24.7-24.7-24.7H191.832l182.4 259.919a12.499 12.499 0 0 1-.741 15.315l-72 84a12.5 12.5 0 0 1-16.748 2.043L166.5 345.865V499.2c0 13.389 11.311 24.7 24.7 24.7h116.4c6.903 0 12.5 5.597 12.5 12.5s-5.597 12.5-12.5 12.5H191.2c-27.405 0-49.7-22.296-49.7-49.7V321.6a12.499 12.499 0 0 1 19.757-10.177l128.692 91.764 58.243-67.95L161.768 69.58a12.5 12.5 0 0 1 3.8-17.899c5.567-3.34 14.281-7.781 25.631-7.781h417.6c27.404 0 49.7 22.295 49.7 49.7v405.6c.001 27.404-22.295 49.7-49.699 49.7z"/><path d="M496 552.5H364a12.498 12.498 0 0 1-11.18-6.91l-48-96a12.5 12.5 0 0 1 1.773-13.821l84-96c3.453-3.945 9-5.316 13.895-3.436l156 60A12.5 12.5 0 0 1 568.501 408v36c0 6.903-5.597 12.5-12.5 12.5h-47.5V540c-.001 6.903-5.598 12.5-12.501 12.5zm-124.274-25H483.5V444c0-6.903 5.597-12.5 12.5-12.5h47.5v-14.915L403.659 362.8l-72.726 83.116 40.793 81.584z"/></g></svg>