<svg width="256" height="188" viewBox="0 0 256 188" fill="none" xmlns="http://www.w3.org/2000/svg"><path d="M24.594 140.757c-32.186-24.37-29.69-64.88-9.163-90.853 15.538-19.687 50.407-9.271 74.585-6.266 30.745 3.829 74.733-19.164 104.604-17.68 66.651 3.317 79.993 87.173 35.255 119.669-46.317 33.646-158.323 30.686-205.281-4.87z" fill="#F2F5F6"/><path d="M76.106 48.316s-9.641 42.542-42.049 69.858l23.975 22.736S96.87 119.54 106.3 64.835l-30.193-16.52z" fill="#DDDBDE"/><path d="M41.77 118.194C64.6 96.681 75.291 68.748 79.215 56.102l21.345 11.68C92.37 108 67.407 128.313 58.743 134.293l-16.974-16.1z" stroke="#98ACB3" stroke-width="1.1" stroke-miterlimit="10"/><path d="M86.114 103.291c3.092-4.487.879-11.378-4.944-15.39-5.823-4.013-13.05-3.628-16.143.86s-.88 11.378 4.944 15.391c5.823 4.012 13.05 3.627 16.143-.861zm-2.232-43.187c.404-1.91-.793-3.779-2.673-4.176-1.88-.397-3.73.829-4.134 2.738-.403 1.909.794 3.778 2.674 4.175 1.88.398 3.73-.828 4.133-2.737zm17.09 9.74c.403-1.91-.794-3.779-2.674-4.176-1.88-.397-3.73.828-4.133 2.737-.404 1.91.793 3.779 2.673 4.176 1.88.397 3.73-.828 4.134-2.737zm-51.51 48.713c.403-1.909-.794-3.779-2.673-4.176-1.88-.397-3.73.828-4.134 2.737-.404 1.909.793 3.779 2.673 4.176 1.88.397 3.73-.828 4.134-2.737zm13.039 12.955c.403-1.909-.793-3.778-2.673-4.175-1.88-.397-3.73.828-4.134 2.737-.403 1.909.794 3.779 2.673 4.176 1.88.397 3.73-.829 4.134-2.738zm192.109-26.241c-.804 5.985-3.666 25.026-9.705 24.997l-25.347-10.436 10.741-50.684 24.597 8.798s1.179 16.47-.286 27.325z" fill="#98ACB3"/><path d="M162.262 57.306c1.377 3.523 6.02 10.525 9.523 13.89 7.046 6.72 8.65 5.437 7.539 6.72 0 0 .291.883-9.429-5.487-5.255-3.454-10.248-10.954-12.853-12.335a3.16 3.16 0 0 0-3.454.77c-1.515 1.613.212 4.085.212 4.085 1.268 2.364 7.401 10.199 12.118 13.747 4.999 3.77 7.895 5.348 7.041 5.205-9.01-1.455-15.454-12.977-19.001-13.361 0 0-1.564-.746-2.502 1.085-.666 1.298.494 3.424.494 3.424-.203 0 7.055 11.714 19.287 17.803.148.074 0 .266-.163.212-7.998-2.6-14.861-10.628-15.108-10.663 0 0-2.018-2.3-4.273-.66-1.702 1.233-.217 3.798-.217 3.798s6.094 8.956 12.508 13.066c7.579 4.86 11.206 6.414 17.585 8.112l37.994 13.11c5.649-1.54 12.902-14.423 15.088-19.594 2.704-6.414 1.757-13.958.173-20.491-1.283-5.305-.143-3.173-2.467-8.078 0 0 .765 1.762-.686-1.618l-30.962-13.569s-13.939-3.814-15.227.854c-1.154 4.184 8.591 7.357 8.591 7.357l10.233 5.393c1.791 1.08.207 4.875-1.87 4.682-6.528-.612-13.406-4.312-17.151-5.763-4.234-1.643-3.73-.987-8.546-4.525-4.372-3.187-7.52-7.189-10.066-10.12 0 0-2.023-2.032-3.878 0a2.732 2.732 0 0 0-.533 2.951z" fill="#FCC5A7"/><path d="M219.558 119.832c5.654-1.545 12.907-14.428 15.093-19.599 2.704-6.414 1.757-13.959.173-20.491-1.283-5.305-.888-5.551-3.222-10.456l-10.061-4.085c2.295 4.84 2.679 6.513 3.948 11.743 1.578 6.533 2.526 14.097-.178 20.492-2.186 5.166-9.868 18.256-15.548 19.805l9.795 2.591z" fill="#fff"/><path d="M59.79 87.602c.715-1.313 8.017-1.421 10.336-2.137l12.247-3.36s6.414-2.714 5.102-7.564c-.923-3.37-11.472-.987-11.472-.987l-27.888-.952S20.977 74.615 3.273 80.29c-3.108.986-2.556 35.96-.3 35.802 4.44-.316 10.854-1.219 14.802-1.48l21.148-.815s14.659-14.871 20.866-26.195zm39.734 2.136s-4.47-2.694-6.868.41c-2.398 3.103-1.214 6.064-1.214 6.064s-4.219.43-4.623 4.352l-.405 3.947s-4.13 1.407-3.854 5.531c.277 4.125 5.847 6.706 5.847 6.706s16.559-10.362 17.966-32.319c0 0-3.479-4.993-6.509-2.378-4.727 4.066-.34 7.687-.34 7.687z" fill="#FCC5A7"/><path d="M107.285 95.3s4.155 3.157 2.152 6.527c-2.004 3.37-5.191 3.37-5.191 3.37s1.155 4.076-2.344 5.921l-3.498 1.821s.212 4.357-3.725 5.62c-3.938 1.263-9.582-4.046-9.582-4.046s4.569-12.74 18.108-32.891c0 0 12.429 6.754 11.112 10.534-2.033 5.901-7.032 3.143-7.032 3.143z" fill="#FCC5A7"/><path d="M179.818 101.773a14.963 14.963 0 0 0-13.836 9.221 14.966 14.966 0 0 0 3.23 16.311 14.969 14.969 0 0 0 16.307 3.252 14.96 14.96 0 0 0 9.239-13.824 14.94 14.94 0 0 0-4.371-10.574 14.933 14.933 0 0 0-4.849-3.244 14.933 14.933 0 0 0-5.72-1.142zm0 23.995a9.04 9.04 0 1 1-.02-18.08 9.04 9.04 0 0 1 .02 18.08z" fill="#98ACB3"/><path d="M182.448 127.746h-6.706v23.27h6.706v-23.27z" fill="#98ACB3"/><path d="M188.862 151.016v-5.63h-13.12v5.63h13.12z" fill="#98ACB3"/><path d="M175.565 63.651c.932-2.66 2.037-4.194 3.222-4.194 3.375 0 6.108 12.503 6.108 27.923 0 15.419-2.733 27.922-6.108 27.922-1.402 0-3.01-2.886-4.042-6.493" stroke="#360000" stroke-miterlimit="10"/><path d="M98.794 89.3l8.506 6.019m-15.646.957l12.607 8.941m-18.316-.957l12.479 8.679" stroke="#E69880" stroke-width="2" stroke-linecap="round" stroke-linejoin="round"/><path d="M157.989 165.488l1.327-8.818-25.016 11.443 20.452 18.917 1.327-8.837c115.539 2.428 99.113-98.274 99.113-98.274l-1.258-8.388c.844 5.892 11.674 94.248-95.945 93.957zm95.945-93.972l-.044-.316.044.316z" fill="#F65727"/><path d="M98.868 21.78l-1.323 8.832 25.036-11.442L102.105.252l-1.328 8.832C-14.756 6.652 1.665 107.353 1.665 107.353l1.258 8.388c-.844-5.881-11.67-94.238 95.945-93.961zM2.923 115.766c.03.207.05.316.05.316l-.05-.316z" fill="#FF8144"/></svg>