<svg width="1107" height="332" viewBox="0 0 1107 332" fill="none" xmlns="http://www.w3.org/2000/svg"><path d="M1001.66 33.63c65.09 31.09 111.08 77.2 104.34 165.85-5.29 69.57-41.55 100.5-113.59 111.7-64.69 10.05-186.28-23.23-249-23.2-129.81.07-262.79-6-384 24-128.79 31.88-294 38.62-347.16-94.81C3.45 195-4.43 133.55 41 82.61c55.65-62.41 138.33-68.82 189.46-66.2C467.1 28.54 580.21 31.12 753 16.09c73.64-6.4 178.84-15.81 248.66 17.54z" fill="#F2F5F6"/><g opacity=".7" stroke="#98ACB3" stroke-miterlimit="10" stroke-dasharray="4 4"><g opacity=".75"><path opacity=".75" d="M637.15 138.81l196.63 83.87 139.45 67.22m89.09-75.56L937.66 320.5m-108.88-93.97l-91.74 56.03M190.08 137.31L53.21 243.19M723.03 88.57l110.75 134.11 228.54-8.34-81.79-81.37M456.89 240.84l-16.21-102.03h196.47M161.45 18.98L65.46 118.5"/><path opacity=".75" d="M1075.5 39.41l-94.97 93.56-93.08-72.19-164.42 27.79-381.42-21.79-60.93-50.09m181.73 224.15l366.93-18.16m277.32 12.67l-44.34-21.01M53.22 243.19l115.73 48.79 118.14-15.19 82.92 46.84m464.77-99.72l145.75-90.94M.45 97.05l65.01 21.45"/><path opacity=".75" d="M456.89 240.84L190.08 137.31l250.6 1.5-99.07-72.03L65.46 118.5 53.22 243.19l-36.94 25.07m956.95 21.64l-231.75-7.34"/></g><path opacity=".7" d="M435.76 305.98l22.21-60.7m259.93 65.19l18.32-27.43M637.15 13.79l85.88 74.93 85.42-81.97m176.52 7.04l-98.66 51.24"/></g><path d="M628.51 142.86l-159.5 91.61" stroke="#332F2F" stroke-miterlimit="10" stroke-dasharray="4 4"/><path d="M623.6 140.97l-.23.97 4.8 1.11-1.45 4.71.95.3 1.78-5.74-5.85-1.35zm-153.75 88.31l.96.29-1.46 4.71 4.8 1.11-.23.98-5.85-1.36 1.78-5.73z" fill="#332F2F"/><path d="M714.14 93.67l-69.54 39.95" stroke="#332F2F" stroke-miterlimit="10" stroke-dasharray="4 4"/><path d="M709.23 91.78l-.22.97 4.8 1.11-1.46 4.71.96.3 1.77-5.74-5.85-1.35zm-63.79 36.64l.96.29-1.46 4.71 4.8 1.11-.23.98-5.85-1.36 1.78-5.73z" fill="#332F2F"/><path d="M732.53 212.3l-7.34-115.15" stroke="#332F2F" stroke-miterlimit="10" stroke-dasharray="4 4"/><path d="M736.4 208.73l-.78-.63-3.12 3.82-3.58-3.39-.68.72 4.36 4.13 3.8-4.65zm-6.92-108.54l-.69.73-3.57-3.39-3.12 3.82-.78-.64 3.8-4.65 4.36 4.13z" fill="#332F2F"/><path d="M471.14 242.58l255.26 39.04" stroke="#332F2F" stroke-miterlimit="10" stroke-dasharray="4 4"/><path d="M473.8 247.13l.78-.63-3.06-3.86 4.08-2.77-.56-.83-4.97 3.38 3.73 4.71zm248.71 38.03l-.56-.83 4.07-2.77-3.06-3.87.79-.62 3.73 4.71-4.97 3.38z" fill="#332F2F"/><path d="M731.85 90.42l240.07 42.2" stroke="#332F2F" stroke-miterlimit="10" stroke-dasharray="4 4"/><path d="M734.4 95.02l.8-.6-2.97-3.94 4.14-2.68-.55-.84-5.04 3.27 3.62 4.79zm233.55 41.05l-.54-.84 4.14-2.68-2.98-3.93.8-.6 3.62 4.79-5.04 3.26z" fill="#332F2F"/><path d="M445.8 244.17l-148.31 31.24" stroke="#332F2F" stroke-miterlimit="10" stroke-dasharray="4 4"/><path d="M441.72 240.85l-.52.86 4.23 2.54-2.85 4.03.82.57 3.46-4.91-5.14-3.09zm-141.83 29.87l.82.58-2.84 4.03 4.22 2.54-.52.86-5.14-3.1 3.46-4.91z" fill="#332F2F"/><path d="M282.03 271.45L194.34 144.7" stroke="#332F2F" stroke-miterlimit="10" stroke-dasharray="4 4"/><path d="M283.51 266.4l-.99-.14-.7 4.88-4.82-1.07-.21.98 5.86 1.29.86-5.94zm-83.92-121.3l-.21.97-4.82-1.06-.7 4.88-.99-.14.86-5.94 5.86 1.29z" fill="#332F2F"/><path d="M73.85 120.44l107.24 15.62" stroke="#332F2F" stroke-miterlimit="10" stroke-dasharray="4 4"/><path d="M76.54 124.96l.78-.62-3.09-3.85 4.06-2.8-.57-.82-4.94 3.41 3.76 4.68zm100.68 14.67l-.57-.82 4.06-2.8-3.09-3.84.78-.63 3.76 4.68-4.94 3.41z" fill="#332F2F"/><path d="M196.72 133.69l137.4-60.32" stroke="#332F2F" stroke-miterlimit="10" stroke-dasharray="4 4"/><path d="M201.4 136.1l.33-.94-4.66-1.63 1.96-4.52-.92-.4-2.38 5.51 5.67 1.98zm131.33-57.66l-.92-.39 1.96-4.53-4.66-1.62.33-.94 5.68 1.97-2.39 5.51z" fill="#332F2F"/><path d="M352.5 70.97l275.89 64.79" stroke="#332F2F" stroke-miterlimit="10" stroke-dasharray="4 4"/><path d="M354.79 75.71l.84-.56-2.75-4.09 4.28-2.45-.5-.87-5.21 2.98 3.34 4.99zm269.44 63.27l-.49-.87 4.28-2.44-2.75-4.1.83-.55 3.35 4.98-5.22 2.98z" fill="#332F2F"/><path d="M886.31 69.47a4.44 4.44 0 1 0 0-8.88 4.44 4.44 0 0 0 0 8.88z" fill="#98ACB3" stroke="#fff" stroke-width="2" stroke-miterlimit="10"/><path d="M190.08 142.22a4.44 4.44 0 1 0 0-8.88 4.44 4.44 0 0 0 0 8.88zm152.1-68.5a4.44 4.44 0 1 0 0-8.88 4.44 4.44 0 0 0 0 8.88z" fill="#494747" stroke="#fff" stroke-width="2" stroke-miterlimit="10"/><path d="M440.68 143.25a4.44 4.44 0 1 0 0-8.88 4.44 4.44 0 0 0 0 8.88z" fill="#98ACB3" stroke="#fff" stroke-width="2" stroke-miterlimit="10"/><path d="M457.97 245.28a4.44 4.44 0 1 0 0-8.88 4.44 4.44 0 0 0 0 8.88zm179.18-102.03a4.44 4.44 0 1 0 0-8.88 4.44 4.44 0 0 0 0 8.88zm85.88-50.09a4.44 4.44 0 1 0 0-8.88 4.44 4.44 0 0 0 0 8.88z" fill="#494747" stroke="#fff" stroke-width="2" stroke-miterlimit="10"/><path d="M833.78 227.12a4.44 4.44 0 1 0 0-8.88 4.44 4.44 0 0 0 0 8.88zm139.21 67.12a4.44 4.44 0 1 0 0-8.88 4.44 4.44 0 0 0 0 8.88zm89.33-75.46c2.45 0 4.44-1.988 4.44-4.44 0-2.452-1.99-4.44-4.44-4.44a4.441 4.441 0 0 0-4.44 4.44c0 2.452 1.99 4.44 4.44 4.44z" fill="#98ACB3" stroke="#fff" stroke-width="2" stroke-miterlimit="10"/><path d="M980.53 137.41a4.44 4.44 0 1 0 0-8.88 4.44 4.44 0 0 0 0 8.88zM737.04 287a4.44 4.44 0 1 0 0-8.88 4.44 4.44 0 0 0 0 8.88zM65.46 122.94a4.44 4.44 0 1 0 0-8.88 4.44 4.44 0 0 0 0 8.88z" fill="#494747" stroke="#fff" stroke-width="2" stroke-miterlimit="10"/><path d="M53.21 250.14a4.44 4.44 0 1 0 0-8.88 4.44 4.44 0 0 0 0 8.88zm115.14 45.3a4.44 4.44 0 1 0 0-8.88 4.44 4.44 0 0 0 0 8.88z" fill="#98ACB3" stroke="#fff" stroke-width="2" stroke-miterlimit="10"/><path d="M287.09 281.22a4.44 4.44 0 1 0 0-8.88 4.44 4.44 0 0 0 0 8.88z" fill="#494747" stroke="#fff" stroke-width="2" stroke-miterlimit="10"/><path d="M86.59 73.76c0 11.67-21.13 38.74-21.13 38.74S44.33 85.43 44.33 73.76a21.13 21.13 0 0 1 42.26 0z" fill="#FF8144"/><path d="M52.29 84.89a8.24 8.24 0 0 1 .16-2.5c.52-1.52 3.9-2.62 5.44-3.31A13.085 13.085 0 0 0 60 78.2c.45-.35.52-1.09 1.1-1.62.23-.21.9 0 1-.36.09-.64-.59-1-.8-1.62-.21-.62-.06-.52-.22-1.25C59.72 73 59.14 70 60 70a13.529 13.529 0 0 1-.22-4.69c.31-2.09 2.75-3.71 5.72-3.71 2.97 0 5.2 1.49 5.67 3.45A12.4 12.4 0 0 1 71 70c.81.07.24 3-1 3.37a6.416 6.416 0 0 1-.24 1.26c-.22.59-.89 1-.81 1.62 0 .41.73.15 1 .36.58.53.64 1.27 1.1 1.62.66.354 1.349.648 2.06.88 1.53.69 4.92 1.79 5.43 3.31a7.93 7.93 0 0 1 .17 2.5v.07a17.29 17.29 0 1 0-26.3 0 .239.239 0 0 1 0-.08l-.12-.02z" fill="#fff"/><path d="M65.46 91.05c9.549 0 17.29-7.741 17.29-17.29s-7.741-17.29-17.29-17.29-17.29 7.741-17.29 17.29 7.741 17.29 17.29 17.29z" fill="#fff" stroke="#fff" stroke-width="2" stroke-miterlimit="10"/><path d="M65.46 91.05A17.23 17.23 0 0 0 78.61 85v-.07a7.93 7.93 0 0 0-.17-2.5c-.51-1.52-3.9-2.62-5.43-3.31A12.676 12.676 0 0 1 71 78.2c-.46-.35-.52-1.09-1.1-1.62-.23-.21-.91 0-1-.36-.08-.64.59-1 .81-1.62.139-.41.236-.831.29-1.26C71.21 73 71.78 70 71 70c.39-1.64.44-3.34.15-5-.47-2-2.83-3.45-5.67-3.45s-5.48 1.64-5.75 3.73A13.53 13.53 0 0 0 60 70c-.81.07-.23 3 1 3.38.16.73 0 .65.22 1.25s.89 1 .8 1.62c0 .41-.72.15-1 .36-.58.53-.65 1.27-1.1 1.62-.66.352-1.35.646-2.06.88-1.54.69-4.92 1.79-5.44 3.31a8.241 8.241 0 0 0-.16 2.5.239.239 0 0 0 0 .08 17.261 17.261 0 0 0 13.2 6.05z" fill="#F65727"/><path d="M190.11 245.7c0 11.67-21.13 38.74-21.13 38.74s-21.13-27.07-21.13-38.74a21.129 21.129 0 1 1 42.26 0z" fill="#FF8144"/><path d="M155.81 256.82a7.867 7.867 0 0 1 .17-2.49c.51-1.52 3.9-2.62 5.43-3.31.71-.236 1.399-.531 2.06-.88.46-.35.52-1.09 1.1-1.62.23-.21.9 0 1-.37.08-.63-.59-1-.81-1.61-.22-.61-.06-.52-.22-1.25-1.26-.36-1.84-3.31-1-3.38a13.522 13.522 0 0 1-.22-4.69c.31-2.09 2.75-3.72 5.72-3.72 2.97 0 5.21 1.5 5.67 3.45a12.265 12.265 0 0 1-.15 5c.81.07.25 3-1 3.37-.04.427-.12.849-.24 1.26-.21.59-.89 1-.81 1.61.06.42.73.16 1 .37.58.53.65 1.27 1.1 1.62.662.348 1.351.642 2.06.88 1.54.69 4.92 1.79 5.44 3.31a8.17 8.17 0 0 1 .16 2.49v.07a17.3 17.3 0 1 0-26.31 0v-.07l-.15-.04z" fill="#fff"/><path d="M168.98 262.99c9.549 0 17.29-7.741 17.29-17.29s-7.741-17.29-17.29-17.29-17.29 7.741-17.29 17.29 7.741 17.29 17.29 17.29z" fill="#fff" stroke="#fff" stroke-width="2" stroke-miterlimit="10"/><path d="M169 263a17.246 17.246 0 0 0 13.16-6.09v-.07a8.139 8.139 0 0 0-.16-2.49c-.52-1.52-3.9-2.62-5.44-3.31a14.006 14.006 0 0 1-2.06-.88c-.45-.35-.52-1.09-1.1-1.62-.23-.21-.9 0-1-.37-.08-.63.6-1 .81-1.61.12-.411.2-.833.24-1.26 1.26-.36 1.82-3.3 1-3.37.393-1.639.444-3.341.15-5-.46-1.95-2.82-3.45-5.67-3.45s-5.41 1.63-5.72 3.72a13.522 13.522 0 0 0 .22 4.69c-.81.07-.23 3 1 3.38.16.73 0 .64.22 1.25s.89 1 .81 1.61c-.06.42-.73.16-1 .37-.58.53-.64 1.27-1.1 1.62-.661.349-1.35.644-2.06.88-1.53.69-4.92 1.79-5.43 3.31a7.867 7.867 0 0 0-.17 2.49v.07A17.232 17.232 0 0 0 169 263z" fill="#F65727"/><path d="M744.17 45.82c0 11.68-21.17 38.75-21.17 38.75s-21.1-27.07-21.1-38.75a21.141 21.141 0 0 1 42.27 0z" fill="#FF8144"/><path d="M709.87 57a8.267 8.267 0 0 1 .16-2.5c.52-1.51 3.9-2.62 5.44-3.31a12.064 12.064 0 0 0 2-.88c.46-.34.52-1.09 1.1-1.61.23-.21.91 0 1-.37.08-.63-.59-1-.81-1.62-.22-.62-.06-.51-.22-1.25-1.25-.36-1.84-3.3-1-3.38a13.464 13.464 0 0 1-.22-4.68c.31-2.09 2.76-3.72 5.73-3.72 2.97 0 5.2 1.49 5.67 3.45.287 1.66.232 3.361-.16 5 .81.08.25 3-1 3.38a7.28 7.28 0 0 1-.24 1.25c-.22.59-.89 1-.81 1.62 0 .41.72.16 1 .37.58.52.65 1.27 1.1 1.61.658.356 1.348.65 2.06.88 1.54.69 4.92 1.8 5.44 3.31.18.82.234 1.663.16 2.5v.07a17.286 17.286 0 0 0 2.544-18.464 17.291 17.291 0 0 0-25.018-7.32 17.291 17.291 0 0 0-3.836 25.784v-.07l-.09-.05z" fill="#fff"/><path d="M723.03 63.11c9.549 0 17.29-7.741 17.29-17.29s-7.741-17.29-17.29-17.29-17.29 7.741-17.29 17.29 7.741 17.29 17.29 17.29z" fill="#fff" stroke="#fff" stroke-width="2" stroke-miterlimit="10"/><path d="M723 63.11A17.23 17.23 0 0 0 736.19 57v-.07c.074-.837.02-1.68-.16-2.5-.52-1.51-3.9-2.62-5.44-3.31a12.211 12.211 0 0 1-2.06-.88c-.45-.34-.52-1.09-1.1-1.61-.23-.21-.9 0-1-.37-.08-.63.59-1 .81-1.62a7.28 7.28 0 0 0 .24-1.25c1.25-.36 1.81-3.3 1-3.38.392-1.638.447-3.34.16-5-.47-2-2.83-3.45-5.67-3.45s-5.42 1.63-5.73 3.72a13.465 13.465 0 0 0 .22 4.68c-.81.08-.22 3 1 3.38.16.74 0 .65.22 1.25s.89 1 .81 1.62c-.05.41-.73.16-1 .37-.58.52-.64 1.27-1.1 1.61a12.08 12.08 0 0 1-2 .88c-1.54.69-4.92 1.8-5.44 3.31a8.266 8.266 0 0 0-.16 2.5v.07A17.226 17.226 0 0 0 723 63.11z" fill="#F65727"/><path d="M1083.45 171.6c0 11.67-21.13 38.74-21.13 38.74s-21.14-27.07-21.14-38.74a21.14 21.14 0 0 1 42.27 0z" fill="#FF8144"/><path d="M1049.15 182.73c-.07-.837-.02-1.68.16-2.5.52-1.52 3.9-2.62 5.44-3.31.69-.236 1.36-.531 2-.88.46-.34.53-1.09 1.11-1.62.23-.2.9.05.95-.36.08-.63-.59-1-.81-1.62-.22-.62-.06-.51-.22-1.25-1.25-.36-1.83-3.3-1-3.38-.34-1.536-.41-3.12-.21-4.68.3-2.09 2.75-3.72 5.72-3.72 2.97 0 5.2 1.49 5.67 3.45.28 1.644.23 3.326-.15 4.95.81.08.24 3-1 3.37-.04.427-.12.849-.24 1.26-.22.59-.89 1-.81 1.62 0 .41.72.16 1 .36.58.53.65 1.28 1.11 1.62.66.352 1.34.646 2.05.88 1.54.69 4.92 1.79 5.44 3.31.18.82.23 1.663.16 2.5v.07a17.2 17.2 0 0 0 3.96-8.854c.45-3.27-.04-6.6-1.43-9.596a17.27 17.27 0 0 0-15.68-10.035c-3.31 0-6.54.945-9.32 2.724a17.238 17.238 0 0 0-6.37 7.311 17.215 17.215 0 0 0-1.43 9.596 17.2 17.2 0 0 0 3.96 8.854v-.08l-.06.01z" fill="#fff"/><path d="M1062.32 188.89c9.55 0 17.29-7.741 17.29-17.29s-7.74-17.29-17.29-17.29c-9.55 0-17.29 7.741-17.29 17.29s7.74 17.29 17.29 17.29z" fill="#fff" stroke="#fff" stroke-width="2" stroke-miterlimit="10"/><path d="M1062.32 188.89c2.5.001 4.98-.543 7.25-1.595a17.25 17.25 0 0 0 5.9-4.495v-.07c.07-.836.02-1.68-.16-2.5-.52-1.52-3.9-2.62-5.44-3.31a12.97 12.97 0 0 1-2.05-.88c-.46-.34-.53-1.09-1.11-1.62-.23-.2-.9.05-1-.36-.08-.63.59-1 .81-1.62.12-.411.2-.833.24-1.26 1.25-.35 1.82-3.29 1-3.37.38-1.624.43-3.306.15-4.95-.47-2-2.83-3.45-5.67-3.45s-5.42 1.63-5.72 3.72c-.2 1.56-.13 3.144.21 4.68-.8.08-.22 3 1 3.38.16.74 0 .65.22 1.25s.89 1 .81 1.62c0 .41-.72.16-.95.36-.58.53-.65 1.28-1.11 1.62-.64.349-1.31.644-2 .88-1.54.69-4.92 1.79-5.44 3.31-.18.82-.23 1.664-.16 2.5v.08a17.22 17.22 0 0 0 5.94 4.501 17.242 17.242 0 0 0 7.28 1.579z" fill="#F65727"/><path d="M994.12 250.3C994.12 262 973 289 973 289s-21.14-27-21.14-38.7a21.127 21.127 0 0 1 21.13-21.13 21.127 21.127 0 0 1 21.13 21.13z" fill="#FF8144"/><path d="M959.82 261.42a7.838 7.838 0 0 1 .17-2.49c.51-1.52 3.9-2.62 5.43-3.31.71-.236 1.399-.531 2.06-.88.46-.35.52-1.09 1.1-1.62.23-.21.9.05 1-.37.08-.63-.59-1-.81-1.61-.22-.61-.06-.52-.22-1.25-1.25-.36-1.84-3.31-1-3.38a13.521 13.521 0 0 1-.22-4.69c.31-2.09 2.75-3.72 5.72-3.72 2.97 0 5.21 1.49 5.68 3.45.286 1.66.231 3.361-.16 5 .81.07.25 3-1 3.37-.04.427-.12.849-.24 1.26-.21.59-.89 1-.8 1.61 0 .42.72.16.95.37.58.53.65 1.27 1.1 1.62.662.348 1.351.642 2.06.88 1.54.69 4.92 1.79 5.44 3.31.181.817.235 1.657.16 2.49v.07a17.3 17.3 0 1 0-26.31 0v-.07l-.11-.04z" fill="#fff"/><path d="M972.99 267.59c9.549 0 17.29-7.741 17.29-17.29s-7.741-17.29-17.29-17.29-17.29 7.741-17.29 17.29 7.741 17.29 17.29 17.29z" fill="#fff" stroke="#fff" stroke-width="2" stroke-miterlimit="10"/><path d="M973 267.59a17.246 17.246 0 0 0 13.16-6.09v-.07a8.139 8.139 0 0 0-.16-2.49c-.52-1.52-3.9-2.62-5.44-3.31a14.006 14.006 0 0 1-2.06-.88c-.45-.35-.52-1.09-1.1-1.62-.23-.21-.9.05-.95-.37-.09-.63.59-1 .8-1.61.12-.411.2-.833.24-1.26 1.26-.36 1.82-3.3 1-3.37.391-1.639.446-3.34.16-5-.47-2-2.83-3.45-5.68-3.45-2.85 0-5.41 1.63-5.72 3.72a13.522 13.522 0 0 0 .22 4.69c-.81.07-.22 3 1 3.38.16.73 0 .64.22 1.25s.89 1 .81 1.61c-.06.42-.73.16-1 .37-.58.53-.64 1.27-1.1 1.62-.661.349-1.35.644-2.06.88-1.53.69-4.92 1.79-5.43 3.31a7.838 7.838 0 0 0-.17 2.49v.07a17.224 17.224 0 0 0 13.26 6.13z" fill="#F65727"/><path d="M758.17 238.81c0 11.68-21.13 38.75-21.13 38.75s-21.13-27.07-21.13-38.75a21.127 21.127 0 0 1 21.13-21.13 21.129 21.129 0 0 1 21.13 21.13z" fill="#FF8144"/><path d="M723.87 249.94a8.267 8.267 0 0 1 .16-2.5c.52-1.51 3.9-2.62 5.44-3.3a12.99 12.99 0 0 0 2.06-.89c.45-.34.52-1.09 1.1-1.61.23-.21.9 0 1-.37.08-.63-.59-1-.8-1.62-.21-.62-.06-.51-.23-1.25-1.25-.36-1.83-3.3-1-3.38a13.225 13.225 0 0 1-.22-4.68c.3-2.09 2.75-3.72 5.72-3.72 2.97 0 5.2 1.49 5.67 3.45.285 1.66.234 3.36-.15 5 .81.08.24 3-1 3.38a6.48 6.48 0 0 1-.24 1.25c-.22.59-.89 1-.81 1.62 0 .41.73.16 1 .37.58.52.64 1.27 1.1 1.61.659.357 1.348.655 2.06.89 1.53.68 4.92 1.79 5.43 3.3a7.93 7.93 0 0 1 .17 2.5.817.817 0 0 0 0 .07 17.29 17.29 0 1 0-26.3 0 .273.273 0 0 1 0-.07l-.16-.05z" fill="#fff"/><path d="M737.04 256.1c9.549 0 17.29-7.741 17.29-17.29s-7.741-17.29-17.29-17.29-17.29 7.741-17.29 17.29 7.741 17.29 17.29 17.29z" fill="#fff" stroke="#fff" stroke-width="2" stroke-miterlimit="10"/><path d="M737 256.1a17.235 17.235 0 0 0 13.19-6.1.817.817 0 0 1 0-.07 7.93 7.93 0 0 0-.17-2.5c-.51-1.51-3.9-2.62-5.43-3.3a12.644 12.644 0 0 1-2.06-.89c-.46-.34-.52-1.09-1.1-1.61-.23-.21-.91 0-1-.37-.08-.63.59-1 .81-1.62a6.48 6.48 0 0 0 .24-1.25c1.25-.36 1.82-3.3 1-3.38.384-1.64.435-3.34.15-5-.47-2-2.83-3.45-5.67-3.45s-5.42 1.63-5.72 3.72a13.225 13.225 0 0 0 .22 4.68c-.81.08-.23 3 1 3.38.17.74 0 .65.23 1.25s.88 1 .8 1.62c-.05.41-.72.16-1 .37-.58.52-.65 1.27-1.1 1.61a12.99 12.99 0 0 1-2.06.89c-1.54.68-4.92 1.79-5.44 3.3a8.265 8.265 0 0 0-.16 2.5.273.273 0 0 0 0 .07A17.227 17.227 0 0 0 737 256.1z" fill="#F65727"/><path d="M478 196.09c0 11.68-21.13 38.75-21.13 38.75s-21.13-27.07-21.13-38.75a21.127 21.127 0 0 1 21.13-21.13A21.127 21.127 0 0 1 478 196.09z" fill="#FF8144"/><path d="M443.72 207.22a8.267 8.267 0 0 1 .16-2.5c.52-1.51 3.9-2.62 5.44-3.3a12.99 12.99 0 0 0 2.06-.89c.45-.34.52-1.09 1.1-1.61.23-.21.9 0 .95-.37.09-.63-.59-1-.8-1.62-.21-.62-.06-.51-.22-1.25-1.26-.36-1.84-3.3-1-3.38a13.464 13.464 0 0 1-.22-4.68c.31-2.09 2.75-3.72 5.72-3.72 2.97 0 5.2 1.49 5.67 3.45.29 1.66.239 3.361-.15 5 .81.08.24 3-1 3.38a6.48 6.48 0 0 1-.24 1.25c-.22.59-.89 1-.81 1.62.05.41.73.16 1 .37.58.52.64 1.27 1.1 1.61.659.357 1.348.655 2.06.89 1.53.68 4.92 1.79 5.43 3.3a7.93 7.93 0 0 1 .17 2.5.817.817 0 0 0 0 .07 17.29 17.29 0 1 0-26.3 0 .273.273 0 0 1 0-.07l-.12-.05z" fill="#fff"/><path d="M456.89 213.38c9.549 0 17.29-7.741 17.29-17.29s-7.741-17.29-17.29-17.29-17.29 7.741-17.29 17.29 7.741 17.29 17.29 17.29z" fill="#fff" stroke="#fff" stroke-width="2" stroke-miterlimit="10"/><path d="M456.89 213.38A17.228 17.228 0 0 0 470 207.3a.817.817 0 0 1 0-.07 7.93 7.93 0 0 0-.17-2.5c-.51-1.51-3.9-2.62-5.43-3.3a12.644 12.644 0 0 1-2.06-.89c-.46-.34-.52-1.09-1.1-1.61-.23-.21-.91 0-1-.37-.08-.63.59-1 .81-1.62a6.48 6.48 0 0 0 .24-1.25c1.25-.36 1.82-3.3 1-3.38.389-1.639.44-3.34.15-5-.47-2-2.83-3.45-5.67-3.45s-5.41 1.63-5.72 3.72a13.464 13.464 0 0 0 .22 4.68c-.81.08-.23 3 1 3.38.16.74 0 .65.22 1.25s.89 1 .8 1.62c-.05.41-.72.16-.95.37-.58.52-.65 1.27-1.1 1.61a12.99 12.99 0 0 1-2.06.89c-1.54.68-4.92 1.79-5.44 3.3a8.265 8.265 0 0 0-.16 2.5.273.273 0 0 0 0 .07 17.239 17.239 0 0 0 13.31 6.13z" fill="#F65727"/><path d="M658.28 96.06c0 11.68-21.13 38.75-21.13 38.75S616 107.74 616 96.06a21.128 21.128 0 0 1 36.071-14.941 21.128 21.128 0 0 1 6.189 14.94h.02z" fill="#FF8144"/><path d="M637.15 113.35c9.549 0 17.29-7.741 17.29-17.29s-7.741-17.29-17.29-17.29-17.29 7.741-17.29 17.29 7.741 17.29 17.29 17.29z" fill="#fff" stroke="#fff" stroke-width="2" stroke-miterlimit="10"/><path d="M624.63 107.67a2.767 2.767 0 0 1 1.19-2.71c2.39-1.25 4.77-2.4 7.16-3.55h1v-1.28a13.16 13.16 0 0 1-3.06-.8h-.07v-.31c-.06-2.27-1.13-4.74-1.07-7-.13-3.35 3.17-6.89 6.69-7.27h1.24c3.52.38 6.82 3.91 6.7 7.27 0 2.27-1 4.74-1.08 7v.3h-.06c-.988.387-2.019.656-3.07.8v1.28h1.05c1.8.84 3.6 1.78 5.41 2.61.81.346 1.568.803 2.25 1.36a3.271 3.271 0 0 1 .69 2.58 17.285 17.285 0 0 0 3.398-18.743A17.29 17.29 0 1 0 624.6 107.95l.03-.28z" fill="#fff"/><path d="M637.15 113.35a17.21 17.21 0 0 0 12.53-5.35 3.271 3.271 0 0 0-.69-2.58 9.35 9.35 0 0 0-2.25-1.36c-1.68-.78-3.4-.78-5.08-1.57-.12-.06-.21-1-.33-1h-1.05v-1.28a2.482 2.482 0 0 1 1 .07 3.51 3.51 0 0 0 3.23-.82h.06l-.49-.59a2.619 2.619 0 0 1-.58-2.14c.3-1.57 1-2.76.94-4.58.12-3.36-2.29-7.47-6.7-7.27h-1.24c-4.47-.38-6.82 3.92-6.69 7.27-.05 1.81.63 3 .93 4.57a2.619 2.619 0 0 1-.58 2.14l-.48.6a3.519 3.519 0 0 0 3.23.82 2.5 2.5 0 0 1 1-.07v1.28h-1c-.1 0-.24 1-.34 1-2.28 1.1-4.53 1.34-6.82 2.54a2.766 2.766 0 0 0-1.19 2.71v.3a17.23 17.23 0 0 0 12.59 5.31z" fill="#F65727"/><path d="M308.22 232c0 11.67-21.13 38.74-21.13 38.74S266 243.71 266 232a21.129 21.129 0 1 1 42.26 0h-.04z" fill="#FF8144"/><path d="M287.09 249.33c9.549 0 17.29-7.741 17.29-17.29s-7.741-17.29-17.29-17.29-17.29 7.741-17.29 17.29 7.741 17.29 17.29 17.29z" fill="#fff" stroke="#fff" stroke-width="2" stroke-miterlimit="10"/><path d="M274.57 243.65a2.767 2.767 0 0 1 1.19-2.71c2.39-1.25 4.77-2.4 7.16-3.55h1v-1.28a12.751 12.751 0 0 1-3.06-.81h-.07v-.3c-.07-2.27-1.14-4.74-1.08-7-.13-3.36 3.17-6.89 6.69-7.27h1.24c3.52.38 6.82 3.91 6.7 7.27.05 2.27-1 4.74-1.08 7v.29h-.06c-.986.396-2.017.668-3.07.81v1.28h1c1.8.84 3.6 1.78 5.41 2.61.81.346 1.568.803 2.25 1.36a3.255 3.255 0 0 1 .69 2.58 17.307 17.307 0 0 0 3.377-18.747 17.303 17.303 0 0 0-25.426-7.629 17.303 17.303 0 0 0-7.502 17.509 17.292 17.292 0 0 0 4.501 8.867 1.41 1.41 0 0 0 .14-.28z" fill="#fff"/><path d="M287.09 249.33a17.243 17.243 0 0 0 12.53-5.39 3.254 3.254 0 0 0-.69-2.58 9.382 9.382 0 0 0-2.25-1.36c-1.68-.78-3.4-.78-5.08-1.57-.12-.06-.21-1-.33-1h-1v-1.28a2.675 2.675 0 0 1 1 .06 3.482 3.482 0 0 0 3.23-.81l.06-.06-.49-.58a2.68 2.68 0 0 1-.58-2.14c.31-1.57 1-2.76.94-4.58.12-3.36-2.28-7.48-6.7-7.27h-1.24c-4.47-.38-6.82 3.91-6.69 7.27 0 1.81.63 3 .93 4.57a2.615 2.615 0 0 1-.58 2.14l-.48.59v.06a3.482 3.482 0 0 0 3.23.81 2.675 2.675 0 0 1 1-.06v1.28h-1c-.1.05-.24 1-.34 1-2.28 1.1-4.53 1.34-6.82 2.54a2.766 2.766 0 0 0-1.19 2.71c.01.097.01.194 0 .29a17.207 17.207 0 0 0 12.54 5.36z" fill="#F65727"/><path d="M461.81 94.06c0 11.68-21.13 38.75-21.13 38.75s-21.13-27.07-21.13-38.75a21.128 21.128 0 0 1 36.071-14.941 21.128 21.128 0 0 1 6.189 14.94z" fill="#FF8144"/><path d="M440.68 111.35c9.549 0 17.29-7.741 17.29-17.29s-7.741-17.29-17.29-17.29-17.29 7.741-17.29 17.29 7.741 17.29 17.29 17.29z" fill="#fff" stroke="#fff" stroke-width="2" stroke-miterlimit="10"/><path d="M428.16 105.67a2.767 2.767 0 0 1 1.19-2.71c2.39-1.25 4.77-2.4 7.16-3.55h1v-1.28a13.31 13.31 0 0 1-3.06-.8h-.07v-.31c-.07-2.27-1.14-4.74-1.08-7-.13-3.35 3.17-6.89 6.69-7.27h1.24c3.52.38 6.82 3.91 6.7 7.27.05 2.27-1 4.74-1.08 7v.3h-.06c-.988.387-2.019.656-3.07.8v1.28h1.05c1.8.84 3.6 1.78 5.41 2.61.81.346 1.568.803 2.25 1.36a3.273 3.273 0 0 1 .69 2.58 17.285 17.285 0 0 0 3.398-18.743 17.29 17.29 0 1 0-28.398 18.743c.022-.092.036-.186.04-.28z" fill="#fff"/><path d="M440.68 111.35a17.21 17.21 0 0 0 12.53-5.35 3.271 3.271 0 0 0-.69-2.58 9.35 9.35 0 0 0-2.25-1.36c-1.68-.78-3.4-.78-5.08-1.57-.12-.06-.21-1-.33-1h-1.05v-1.28a2.478 2.478 0 0 1 1 .07 3.512 3.512 0 0 0 3.23-.82h.06l-.49-.59a2.646 2.646 0 0 1-.58-2.14c.3-1.57 1-2.76.94-4.58.12-3.36-2.28-7.47-6.7-7.27h-1.24c-4.47-.38-6.82 3.92-6.69 7.27-.05 1.81.63 3 .93 4.57a2.619 2.619 0 0 1-.58 2.14l-.48.6h.05a3.52 3.52 0 0 0 3.23.82 2.5 2.5 0 0 1 1-.07v1.28h-1c-.1 0-.24 1-.34 1-2.28 1.1-4.53 1.34-6.82 2.54a2.766 2.766 0 0 0-1.19 2.71c.01.1.01.2 0 .3a17.227 17.227 0 0 0 12.54 5.31z" fill="#F65727"/><path d="M74.35 201.11c0 11.67-21.14 38.74-21.14 38.74s-21.13-27.07-21.13-38.74a21.142 21.142 0 0 1 21.135-21.6 21.147 21.147 0 0 1 19.66 13.37 21.142 21.142 0 0 1 1.475 8.23z" fill="#FF8144"/><path d="M53.21 218.4c9.549 0 17.29-7.741 17.29-17.29s-7.741-17.29-17.29-17.29-17.29 7.741-17.29 17.29 7.741 17.29 17.29 17.29z" fill="#fff" stroke="#fff" stroke-width="2" stroke-miterlimit="10"/><path d="M40.69 212.72a2.759 2.759 0 0 1 1.2-2.72c2.38-1.25 4.77-2.4 7.15-3.55h1.05v-1.28a13.406 13.406 0 0 1-3.07-.8H47v-.31c-.07-2.27-1.13-4.73-1.08-7-.12-3.35 3.17-6.89 6.7-7.26h1.24c3.53.38 6.83 3.92 6.7 7.27 0 2.27-1 4.74-1.08 7v.3h-.07c-.985.386-2.012.655-3.06.8v1.28h1c1.8.84 3.61 1.78 5.41 2.61.81.346 1.568.803 2.25 1.36a3.238 3.238 0 0 1 .69 2.58 17.288 17.288 0 0 0-12.5-29.235 17.292 17.292 0 0 0-15.898 10.492A17.292 17.292 0 0 0 40.7 213a2.701 2.701 0 0 0-.01-.28z" fill="#fff"/><path d="M53.22 218.4c2.345 0 4.665-.479 6.818-1.407A17.223 17.223 0 0 0 65.74 213a3.237 3.237 0 0 0-.69-2.58 9.354 9.354 0 0 0-2.25-1.36c-1.68-.77-3.39-.78-5.07-1.57-.13-.06-.22-1-.34-1h-1v-1.28c.335-.04.674-.016 1 .07a3.497 3.497 0 0 0 3.23-.82h.05l-.48-.59a2.606 2.606 0 0 1-.58-2.14c.3-1.57 1-2.76.93-4.58.13-3.35-2.28-7.47-6.7-7.27H52.6c-4.47-.38-6.82 3.91-6.7 7.26 0 1.82.63 3 .94 4.58a2.63 2.63 0 0 1-.58 2.13l-.49.6h.06a3.468 3.468 0 0 0 3.22.82 2.718 2.718 0 0 1 1-.07v1.28H49c-.1.05-.23 1-.33 1-2.29 1.1-4.54 1.34-6.82 2.54a2.763 2.763 0 0 0-1.2 2.72c.005.097.005.193 0 .29a17.23 17.23 0 0 0 12.57 5.37z" fill="#F65727"/><path d="M211.21 92.57c0 11.67-21.13 38.74-21.13 38.74S169 104.24 169 92.57a21.128 21.128 0 0 1 36.071-14.941 21.128 21.128 0 0 1 6.189 14.94h-.05z" fill="#FF8144"/><path d="M190.08 109.86c9.549 0 17.29-7.741 17.29-17.29s-7.741-17.29-17.29-17.29-17.29 7.741-17.29 17.29 7.741 17.29 17.29 17.29z" fill="#fff" stroke="#fff" stroke-width="2" stroke-miterlimit="10"/><path d="M177.56 104.18a2.775 2.775 0 0 1 1.19-2.72c2.39-1.25 4.77-2.4 7.16-3.55h1v-1.28a13.166 13.166 0 0 1-3.06-.8h-.07v-.31c-.06-2.27-1.13-4.73-1.07-7-.13-3.35 3.17-6.89 6.69-7.27h1.24c3.52.38 6.82 3.92 6.7 7.27.05 2.27-1 4.74-1.08 7v.3h-.06c-.988.387-2.019.656-3.07.8v1.28h1c1.8.84 3.6 1.78 5.41 2.61a9.35 9.35 0 0 1 2.25 1.36 3.282 3.282 0 0 1 .69 2.58 17.295 17.295 0 0 0-3.008-26.355 17.293 17.293 0 0 0-25.408 7.622 17.295 17.295 0 0 0 3.366 18.733c.048-.088.092-.178.13-.27z" fill="#fff"/><path d="M190.08 109.85a17.207 17.207 0 0 0 12.53-5.39 3.282 3.282 0 0 0-.69-2.58 9.35 9.35 0 0 0-2.25-1.36c-1.68-.77-3.4-.78-5.08-1.57-.12-.06-.21-1-.33-1h-1v-1.28c.335-.04.674-.016 1 .07a3.512 3.512 0 0 0 3.23-.82h.06l-.49-.59a2.619 2.619 0 0 1-.529-1.005 2.62 2.62 0 0 1-.051-1.135c.3-1.57 1-2.76.94-4.58.12-3.35-2.29-7.47-6.7-7.27h-1.24c-4.47-.37-6.82 3.92-6.69 7.27-.05 1.82.63 3 .93 4.58a2.596 2.596 0 0 1-.58 2.13l-.48.6a3.49 3.49 0 0 0 3.23.82c.326-.086.665-.11 1-.07v1.28h-1c-.1 0-.24 1-.34 1-2.28 1.1-4.53 1.34-6.82 2.54a2.775 2.775 0 0 0-1.19 2.72c.005.097.005.193 0 .29a17.227 17.227 0 0 0 12.54 5.35z" fill="#F65727"/><path d="M907.38 20.73c0 11.67-21.13 38.74-21.13 38.74s-21.14-27.07-21.14-38.74a21.141 21.141 0 0 1 42.27 0z" fill="#FF8144"/><path d="M886.24 38.02c9.549 0 17.29-7.741 17.29-17.29 0-9.55-7.741-17.29-17.29-17.29s-17.29 7.74-17.29 17.29c0 9.549 7.741 17.29 17.29 17.29z" fill="#fff" stroke="#fff" stroke-width="2" stroke-miterlimit="10"/><path d="M873.72 32.34a2.79 2.79 0 0 1 1.2-2.71c2.38-1.25 4.77-2.4 7.15-3.55h1v-1.29a13.401 13.401 0 0 1-3.07-.8v-.3c-.07-2.27-1.13-4.74-1.08-7-.12-3.36 3.17-6.9 6.7-7.27h1.24c3.53.37 6.83 3.91 6.7 7.27.05 2.26-1 4.73-1.07 7v.29h-.07c-.985.386-2.012.655-3.06.8v1.29h1c1.8.83 3.61 1.77 5.41 2.61a9.291 9.291 0 0 1 2.31 1.32 3.243 3.243 0 0 1 .69 2.59 17.287 17.287 0 0 0-2.976-26.376A17.29 17.29 0 0 0 873.77 32.59a2.657 2.657 0 0 0-.05-.25z" fill="#fff"/><path d="M886.25 38a17.237 17.237 0 0 0 12.52-5.39 3.246 3.246 0 0 0-.69-2.59 9.276 9.276 0 0 0-2.25-1.35c-1.68-.78-3.39-.79-5.07-1.58-.13 0-.21-1-.34-1h-1v-1.3c.335-.04.674-.016 1 .07a3.49 3.49 0 0 0 3.23-.82v-.05l-.48-.59a2.578 2.578 0 0 1-.58-2.13c.3-1.57 1-2.77.93-4.58.13-3.36-2.28-7.48-6.7-7.27h-1.24c-4.47-.38-6.82 3.91-6.7 7.27 0 1.81.63 3 .94 4.57a2.578 2.578 0 0 1-.58 2.13l-.49.6.06.05a3.467 3.467 0 0 0 3.22.82 2.718 2.718 0 0 1 1-.07v1.29h-1c-.1.05-.23 1-.33 1-2.29 1.1-4.54 1.35-6.82 2.55a2.79 2.79 0 0 0-1.2 2.71c.005.097.005.194 0 .29A17.233 17.233 0 0 0 886.25 38z" fill="#F65727"/><path d="M854.91 179.94c0 11.67-21.13 38.74-21.13 38.74s-21.13-27.07-21.13-38.74a21.129 21.129 0 1 1 42.26 0z" fill="#FF8144"/><path d="M833.78 197.23c9.549 0 17.29-7.741 17.29-17.29s-7.741-17.29-17.29-17.29-17.29 7.741-17.29 17.29 7.741 17.29 17.29 17.29z" fill="#fff" stroke="#fff" stroke-width="2" stroke-miterlimit="10"/><path d="M821.26 191.55a2.767 2.767 0 0 1 1.19-2.71c2.38-1.25 4.77-2.4 7.16-3.55h1V184a13.927 13.927 0 0 1-3.07-.81h-.06v-.3c-.06-2.27-1.13-4.74-1.07-7-.13-3.36 3.17-6.9 6.69-7.27h1.24c3.52.37 6.82 3.91 6.69 7.27.06 2.26-1 4.73-1.07 7v.29h.04c-.989.386-2.019.658-3.07.81v1.28h1c1.81.83 3.61 1.77 5.42 2.61a9.35 9.35 0 0 1 2.25 1.36 3.255 3.255 0 0 1 .69 2.58 17.301 17.301 0 1 0-25 0l-.03-.27z" fill="#fff"/><path d="M833.78 197.23a17.243 17.243 0 0 0 12.53-5.39 3.254 3.254 0 0 0-.69-2.58 9.35 9.35 0 0 0-2.25-1.36c-1.68-.78-3.4-.78-5.08-1.57-.12-.06-.21-1-.34-1h-1V184a2.499 2.499 0 0 1 1 .06 3.48 3.48 0 0 0 3.23-.81l.06-.06-.49-.59a2.574 2.574 0 0 1-.58-2.13c.3-1.57 1-2.77.93-4.58.13-3.36-2.28-7.48-6.69-7.27h-1.24c-4.47-.38-6.82 3.91-6.69 7.27-.05 1.81.63 3 .93 4.57a2.615 2.615 0 0 1-.58 2.14l-.49.59.06.06a3.48 3.48 0 0 0 3.23.81 2.499 2.499 0 0 1 1-.06v1.28h-1c-.1.05-.24 1-.34 1-2.28 1.1-4.53 1.35-6.82 2.55a2.766 2.766 0 0 0-1.19 2.71v.29a17.23 17.23 0 0 0 12.5 5.4z" fill="#F65727"/><path d="M1001.66 90.23c0 11.67-21.13 38.74-21.13 38.74S959.4 101.9 959.4 90.23a21.129 21.129 0 1 1 42.26 0z" fill="#FF8144"/><path d="M980.53 107.52c9.549 0 17.29-7.741 17.29-17.29 0-9.55-7.741-17.29-17.29-17.29s-17.29 7.74-17.29 17.29c0 9.549 7.741 17.29 17.29 17.29z" fill="#fff" stroke="#fff" stroke-width="2" stroke-miterlimit="10"/><path d="M968 101.84a2.767 2.767 0 0 1 1.19-2.71c2.38-1.26 4.77-2.4 7.15-3.55h1v-1.29a13.396 13.396 0 0 1-3.07-.8h-.06v-.3c-.07-2.27-1.13-4.74-1.08-7-.12-3.36 3.18-6.9 6.7-7.27h1.24c3.52.37 6.82 3.91 6.69 7.27.06 2.26-1 4.73-1.07 7v.29h-.07a13.31 13.31 0 0 1-3.06.8v1.29h1c1.81.83 3.61 1.77 5.41 2.61.812.338 1.57.792 2.25 1.35a3.237 3.237 0 0 1 .69 2.58 17.287 17.287 0 0 0-2.976-26.376 17.29 17.29 0 0 0-22.024 26.376l.09-.27z" fill="#fff"/><path d="M980.53 107.52a17.207 17.207 0 0 0 12.52-5.4 3.237 3.237 0 0 0-.69-2.58 9 9 0 0 0-2.25-1.35c-1.67-.78-3.39-.79-5.07-1.58-.13 0-.21-1-.34-1h-1v-1.29a2.68 2.68 0 0 1 1 .07 3.49 3.49 0 0 0 3.23-.82l.05-.05-.48-.59a2.581 2.581 0 0 1-.58-2.13c.3-1.57 1-2.77.93-4.58.13-3.36-2.28-7.48-6.69-7.27h-1.24c-4.47-.38-6.82 3.91-6.7 7.27 0 1.81.64 3 .94 4.57a2.579 2.579 0 0 1-.58 2.13l-.49.6.06.05a3.49 3.49 0 0 0 3.23.82 2.67 2.67 0 0 1 1-.07v1.29h-1c-.09 0-.23 1-.33 1-2.29 1.1-4.54 1.35-6.82 2.55a2.767 2.767 0 0 0-1.19 2.71v.29a17.25 17.25 0 0 0 12.49 5.36z" fill="#F65727"/><path d="M363.31 24c0 11.67-21.13 38.74-21.13 38.74S321.05 35.71 321.05 24a21.129 21.129 0 0 1 36.071-14.94A21.129 21.129 0 0 1 363.31 24z" fill="#FF8144"/><path d="M342.18 41.33c9.549 0 17.29-7.741 17.29-17.29s-7.741-17.29-17.29-17.29-17.29 7.741-17.29 17.29 7.741 17.29 17.29 17.29z" fill="#fff" stroke="#fff" stroke-width="2" stroke-miterlimit="10"/><path d="M329.66 35.65a2.769 2.769 0 0 1 1.19-2.71c2.39-1.25 4.77-2.4 7.16-3.55h1v-1.28a13.8 13.8 0 0 1-3.01-.81h-.07V27c-.06-2.27-1.13-4.74-1.07-7-.13-3.36 3.17-6.9 6.69-7.27h1.24c3.52.37 6.82 3.91 6.7 7.27.05 2.26-1 4.73-1.08 7v.29h-.06c-.988.387-2.019.656-3.07.8v1.29h1.05c1.8.83 3.6 1.77 5.41 2.61a9.387 9.387 0 0 1 2.26 1.37 3.253 3.253 0 0 1 .69 2.58 17.3 17.3 0 1 0-25 0 2.821 2.821 0 0 0-.03-.29z" fill="#fff"/><path d="M342.18 41.33a17.244 17.244 0 0 0 12.53-5.39 3.254 3.254 0 0 0-.69-2.58 9.376 9.376 0 0 0-2.25-1.36c-1.68-.78-3.4-.78-5.08-1.57-.12-.06-.21-1-.33-1h-1.05V28.1c.335-.04.674-.016 1 .07a3.488 3.488 0 0 0 3.23-.82l.06-.05-.49-.59a2.579 2.579 0 0 1-.58-2.13c.3-1.57 1-2.77.94-4.58.12-3.36-2.29-7.48-6.7-7.27h-1.24c-4.47-.38-6.82 3.91-6.69 7.27-.05 1.81.63 3 .93 4.57a2.579 2.579 0 0 1-.58 2.13l-.48.6.05.06a3.488 3.488 0 0 0 3.23.81 2.503 2.503 0 0 1 1-.06v1.28h-1c-.1 0-.24 1-.34 1-2.28 1.1-4.53 1.35-6.82 2.55a2.767 2.767 0 0 0-1.19 2.71c.005.097.005.194 0 .29a17.24 17.24 0 0 0 12.54 5.39z" fill="#F65727"/></svg>