<svg width="1121" height="400" viewBox="0 0 1121 400" fill="none" xmlns="http://www.w3.org/2000/svg"><path d="M286.07 369.68l-22.08 3.4-18.12 21.42c40.39-1.54 86.06-3.2 130.63-4.67l-53.79-52.44-36.64 32.29z" fill="#F2F5F6"/><path d="M283.17 363.97l36.14-31.05-115.25-108.85-29.37 20.89-143.87 79 83.34 75.72h2.35s51.48-2.19 120.49-4.84l24.08-27.46 22.09-3.41zM118.42 162.54l19.15-2.26-6.78-7.9-17.47 1.09-23.06-8.37-88.08 13 4.37 142.17 20.38 19.18 143.89-79.61L124 200.31l-5.58-37.77zM0 97.68l.45 14.48c.282-5.441.95-10.854 2-16.2L0 97.68z" fill="#F2F5F6"/><path d="M91.96 138.81l23.54 9.1 11.39-1.23-76.67-66-3.39-8.37-7.53-2.33-36.86 26a115.094 115.094 0 0 0-2 16.2l1.24 39.62 90.28-12.99z" fill="#F2F5F6"/><path d="M49.49 67.23l25-27.69-20.77-19.13A117 117 0 0 0 4.13 88.55L39.3 63.83l10.19 3.4zm556.38 238.61l-20.38 21.48-39.3-40.64-58.72-2.8-102.1 103.26 2.33 2.33c66.83-2.15 129.93-3.79 167.41-3.79 24.18 0 58.78.65 98.18 1.67l14.77-19.41-62.19-62.1zm-183.44-59.82l-42.22-40.65-11.39-31.05-26.95 20.41-20.36-20.91-93.18 63.24 151.88 146.08 55.82-55.83-41.74-38.45 28.14-42.84zM193.87 138.31l-13.34 1.08-67.7-60.88-25.48 28.13 49.02 41.74 12.37 16.37-23.05 2.91 3.39 25.37 48.54 41.74 27.17-20.27 19.17 17.47 34.94-23.66-65.03-70z" fill="#F2F5F6"/><path d="M196.29 131.52l68.19 72.17 51.92-34.93L198.47 56.42 181 62.71l-36.62 36.04 39.54 33.36 12.37-.59zm171.56 35.54L329.99 63.21 301.11 81.3l-63.08-62.02-33.24 31.53 138.06 134.94 25-18.69zM54.11 74.49l29.35 24.87 28.65-30.43 28.38 25.92 37.61-38.43 17.46-5.6 37.37-36.14-7.33-8.81c-39.74-1.4-72.56-2.63-91.5-3.35L82.75 41.83 54.11 74.49zm67.08-72.46l-4.68-.18a115.24 115.24 0 0 0-56.36 14.69l19.22 17.32 41.82-31.83zM388.71 202.6l42.66 42.36-28.15 43.41 36.65 33.86 44.64-46.26 59.94 3.93 39.3-24.28-30.29-39.44-8.49 7.31-48.53-41.13-17.47-50.25 12.4-8.43-40.86-110.74c-8.84-.22-17.857-.457-27.05-.71L336.79 59.8l51.92 142.8z" fill="#F2F5F6"/><path d="M365.37 36.15L347.78 9.98c-39.06-1.23-77.79-2.55-112.07-3.75l66.66 66.09 63-36.17zm41.66-24.39c-15.28-.43-30.84-.9-46.42-1.38l13.3 19.58 33.12-18.2zm338.86 259.63l-6.33-51.31 17.5-26.94-130.8 21.36 7.26 23.03-2.16 7.9-19.89 3.4-57.04 34.45 31.06 31.52 20.38-20.24 66.48 66.6 25-19.14 57.03-2.95 34.2 12.53 28.89-7.9 5.08 12.37 11.16 2.79-21.35-100.43-66.47 12.96z" fill="#F2F5F6"/><path d="M608.78 241.55l17.48-2.3-9.69-30.94 59.92-10.79-22.08-94.27-152.87 24.86-11.41 6.8 15.28 42.81 39.08 33.87 10.66-8.37 35.45 48.52 18.18-10.19zM653.2 95.36l-17.35-81.52c-29.12.63-54.55 1-73.48 1-25.11 0-61.54-.66-102.91-1.68l40.38 106.52L653.2 95.36zm106.74 89.77L745.89 52.55l-88.6 14.68 27.69 129.21 74.96-11.31zM745.89 44.04V10.88c-35.52 1.09-70.45 2.06-101.62 2.8l11.34 46.15 90.28-15.79zm241.9 64.31l-43.93 37.22-49.73 14.71 2.43 41.23-11.89 22.56-65.05 32.17 21.62 104.31 28.64 8.5 28.86-13.57 22.59-25.96 68.9-.5 28.14-27.06 1.7-16.35 13.58-8.52-21.59-171.54-24.27 2.8z" fill="#F2F5F6"/><path d="M768.93 188.53l-20.89 33.25 4.63 40.65 61.9-12.37 63.32-31.07 10.66-19.18-5.09-95.36-121.81 19.65 7.28 64.43zm114.02-91.96l-2.38-58.12h-62.62l-63.1 14.1 6.08 63.67 122.02-19.65zm-65-66.61h62.62l-1-23.5c-38.7 1.36-82.57 2.85-125.92 4.22v33.36l64.3-14.08zm122.06 108.85l40.5-33.87-8.96-32.62V28.27l-83 9.59 5.09 114.52 46.37-13.57zm98.01-120.13l-40.03 4.49-3.43-8.98-12.34 1.7-3.88 10.07v44.65l7.75 29.84 30.57-2.79 2.21 17.01 15.75-12.51-5.09-12.4 28.38-2.77-13.1-10.78-6.79-57.53z" fill="#F2F5F6"/><path d="M972 19.28l5.13-10.79 23-3.4 2.44 8.49 35.42-4.49-.31-2.24a115.027 115.027 0 0 0-33.62-5S954.37 3.8 887.02 6.19l1.06 23.17L972 19.28zm110.67 73.27l-8.96 7.29-11.43-7.87-23.53 2.29 4.39 10.19-22.59 16.88 19.9 154.09 34.9-14.08 20.16-19.79-3.86-18.06-23.79-15.8 5.85-10.17 29.34-1.7 2.65-12.37 14.6-7.61v-39.58l-4.88-12.63-32.75-31.08zm-8.96-1.09l15-14.66 17.54-13.91a117.285 117.285 0 0 0-61.88-53.8l7.71 63.7 21.63 18.67zm20.09-11.86l25.59 24a114.924 114.924 0 0 0-10.58-35.74L1093.8 79.6z" fill="#F2F5F6"/><path opacity=".65" d="M1.82 0v399.68M113.48 0v399.68M225.15 0v399.68M336.82 0v399.68M448.48 0v399.68M560.15 0v399.68M671.82 0v399.68M783.48 0v399.68M895.15 0v399.68M1006.82 0v399.68M1118.48 0v399.68m1.89-366.54H1.82M1120.37 144.8H1.82m1118.55 111.67H1.82m1118.55 111.67H1.82" stroke="#98ACB3" stroke-miterlimit="10" stroke-dasharray="4 4"/><path d="M808.98 309.86c0 11.67-21.13 38.75-21.13 38.75s-21.13-27.08-21.13-38.75a21.127 21.127 0 0 1 21.13-21.13 21.129 21.129 0 0 1 21.13 21.13z" fill="#DDDBDE"/><path d="M774.68 320.99a8.265 8.265 0 0 1 .16-2.5c.52-1.51 3.9-2.62 5.44-3.31.712-.23 1.402-.524 2.06-.88.45-.34.52-1.09 1.1-1.61.23-.21.9 0 .95-.37.09-.63-.59-1-.8-1.62-.21-.62-.06-.51-.22-1.25-1.26-.36-1.84-3.3-1-3.38a13.464 13.464 0 0 1-.22-4.68c.31-2.09 2.75-3.72 5.72-3.72 2.97 0 5.2 1.49 5.67 3.45a12.412 12.412 0 0 1-.15 4.95c.81.08.24 3-1 3.38a6.494 6.494 0 0 1-.24 1.25c-.22.59-.89 1-.81 1.62.05.41.73.16 1 .37.58.52.64 1.27 1.1 1.61.657.358 1.347.652 2.06.88 1.53.69 4.92 1.8 5.43 3.31a7.93 7.93 0 0 1 .17 2.5.273.273 0 0 1 0 .07 17.29 17.29 0 1 0-26.3 0 .273.273 0 0 1 0-.07h-.12z" fill="#fff"/><path d="M787.85 327.15c9.549 0 17.29-7.741 17.29-17.29s-7.741-17.29-17.29-17.29-17.29 7.741-17.29 17.29 7.741 17.29 17.29 17.29z" fill="#fff" stroke="#fff" stroke-width="2" stroke-miterlimit="10"/><path d="M787.85 327.15a17.23 17.23 0 0 0 13.15-6.08.273.273 0 0 0 0-.07 7.93 7.93 0 0 0-.17-2.5c-.51-1.51-3.9-2.62-5.43-3.31a11.767 11.767 0 0 1-2.06-.88c-.46-.34-.52-1.09-1.1-1.61-.23-.21-.91 0-1-.37-.08-.63.59-1 .81-1.62a6.48 6.48 0 0 0 .24-1.25c1.25-.36 1.82-3.3 1-3.38.382-1.623.433-3.307.15-4.95-.47-2-2.83-3.45-5.67-3.45s-5.41 1.63-5.72 3.72a13.464 13.464 0 0 0 .22 4.68c-.81.08-.23 3 1 3.38.16.74 0 .65.22 1.25s.89 1 .8 1.62c0 .41-.72.16-.95.37-.58.52-.65 1.27-1.1 1.61-.658.356-1.348.651-2.06.88-1.54.69-4.92 1.8-5.44 3.31a8.267 8.267 0 0 0-.16 2.5.273.273 0 0 0 0 .07 17.233 17.233 0 0 0 13.27 6.08z" fill="#98ACB3"/><path d="M455.56 262.73c20.015 0 36.24-16.225 36.24-36.24s-16.225-36.24-36.24-36.24-36.24 16.225-36.24 36.24 16.225 36.24 36.24 36.24z" fill="#F65727"/><path d="M1083.28 105.68c0 11.67-21.13 38.74-21.13 38.74s-21.14-27.07-21.14-38.74a21.14 21.14 0 0 1 42.27 0z" fill="#DDDBDE"/><path d="M1048.98 116.82a8.4 8.4 0 0 1 .16-2.5c.52-1.52 3.9-2.62 5.44-3.31.69-.236 1.36-.531 2-.88.46-.35.53-1.09 1.11-1.62.23-.21.9 0 1-.36.08-.64-.59-1-.81-1.62-.22-.62-.06-.52-.22-1.25-1.25-.36-1.83-3.31-1-3.38a13.447 13.447 0 0 1-.22-4.69c.31-2.09 2.76-3.71 5.73-3.71 2.97 0 5.2 1.49 5.67 3.45.29 1.66.23 3.36-.15 5 .8.07.24 3-1 3.37-.04.427-.12.849-.24 1.26-.22.59-.89 1-.81 1.62 0 .41.72.15 1 .36.58.53.65 1.27 1.11 1.62.64.35 1.31.644 2 .88 1.54.69 4.92 1.79 5.44 3.31a8.4 8.4 0 0 1 .16 2.5v.07a17.2 17.2 0 0 0 3.96-8.854c.45-3.27-.04-6.599-1.43-9.596a17.24 17.24 0 0 0-6.37-7.311 17.284 17.284 0 0 0-9.32-2.723c-3.3 0-6.53.945-9.31 2.723a17.24 17.24 0 0 0-6.37 7.311 17.214 17.214 0 0 0-1.43 9.596 17.2 17.2 0 0 0 3.96 8.854v-.08l-.06-.04z" fill="#fff"/><path d="M1062.15 122.98c9.55 0 17.29-7.741 17.29-17.29 0-9.55-7.74-17.29-17.29-17.29-9.55 0-17.29 7.74-17.29 17.29 0 9.549 7.74 17.29 17.29 17.29z" fill="#fff" stroke="#fff" stroke-width="2" stroke-miterlimit="10"/><path d="M1062.15 122.98c2.5.001 4.98-.543 7.25-1.595a17.25 17.25 0 0 0 5.9-4.495v-.07a8.4 8.4 0 0 0-.16-2.5c-.52-1.52-3.9-2.62-5.44-3.31-.69-.236-1.36-.531-2-.88-.46-.35-.53-1.09-1.11-1.62-.23-.21-.9 0-1-.36-.08-.64.59-1 .81-1.62.12-.411.2-.833.24-1.26 1.25-.36 1.81-3.3 1-3.37.38-1.64.44-3.34.15-5-.47-2-2.83-3.45-5.67-3.45s-5.42 1.62-5.73 3.71c-.2 1.564-.13 3.152.22 4.69-.8.07-.22 3 1 3.38.16.73 0 .65.22 1.25s.89 1 .81 1.62c0 .41-.72.15-1 .36-.58.53-.65 1.27-1.11 1.62-.64.349-1.31.644-2 .88-1.54.69-4.92 1.79-5.44 3.31a8.4 8.4 0 0 0-.16 2.5v.08a17.268 17.268 0 0 0 13.22 6.13z" fill="#98ACB3"/><path d="M166.55 316.12c0 11.67-21.13 38.74-21.13 38.74s-21.13-27.07-21.13-38.74a21.129 21.129 0 1 1 42.26 0z" fill="#DDDBDE"/><path d="M132.25 327.25a8.267 8.267 0 0 1 .16-2.5c.52-1.52 3.9-2.62 5.44-3.31.711-.234 1.4-.528 2.06-.88.45-.35.52-1.09 1.1-1.62.23-.2.9.05 1-.36.08-.64-.6-1-.81-1.62-.21-.62-.06-.52-.22-1.25-1.26-.36-1.84-3.31-1-3.38a13.521 13.521 0 0 1-.22-4.69c.31-2.08 2.75-3.71 5.72-3.71 2.97 0 5.2 1.49 5.67 3.45a12.412 12.412 0 0 1-.15 4.95c.81.07.25 3-1 3.37a6.43 6.43 0 0 1-.24 1.26c-.22.59-.89 1-.81 1.62.06.41.73.16 1 .36.58.53.65 1.27 1.1 1.62.659.354 1.349.648 2.06.88 1.54.69 4.92 1.79 5.43 3.31a7.93 7.93 0 0 1 .17 2.5.206.206 0 0 1 0 .07 17.29 17.29 0 1 0-26.3 0v-.08l-.16.01z" fill="#fff"/><path d="M145.42 333.41c9.549 0 17.29-7.741 17.29-17.29s-7.741-17.29-17.29-17.29-17.29 7.741-17.29 17.29 7.741 17.29 17.29 17.29z" fill="#fff" stroke="#fff" stroke-width="2" stroke-miterlimit="10"/><path d="M145.42 333.41a17.22 17.22 0 0 0 13.15-6.09.206.206 0 0 0 0-.07 7.93 7.93 0 0 0-.17-2.5c-.51-1.52-3.89-2.62-5.43-3.31a12.637 12.637 0 0 1-2.06-.88c-.45-.35-.52-1.09-1.1-1.62-.23-.2-.9.05-1-.36-.08-.64.59-1 .81-1.62a6.43 6.43 0 0 0 .24-1.26c1.26-.36 1.82-3.3 1-3.37.382-1.623.433-3.307.15-4.95-.47-2-2.83-3.45-5.67-3.45s-5.41 1.63-5.72 3.71a13.521 13.521 0 0 0 .22 4.69c-.81.07-.23 3 1 3.38.16.73 0 .65.22 1.25s.89 1 .81 1.62c-.06.41-.73.16-1 .36-.58.53-.65 1.27-1.1 1.62-.66.352-1.349.646-2.06.88-1.54.69-4.92 1.79-5.44 3.31a8.267 8.267 0 0 0-.16 2.5v.08a17.219 17.219 0 0 0 13.31 6.08z" fill="#98ACB3"/><path d="M77.95 194.87c0 11.67-21.13 38.74-21.13 38.74s-21.13-27.07-21.13-38.74a21.13 21.13 0 0 1 42.26 0z" fill="#DDDBDE"/><path d="M43.65 205.99a8.24 8.24 0 0 1 .16-2.5c.52-1.51 3.9-2.62 5.44-3.3a13.07 13.07 0 0 0 2.06-.89c.45-.34.52-1.09 1.1-1.61.23-.21.9.05 1-.37.09-.63-.59-1-.8-1.62-.21-.62-.06-.51-.22-1.25-1.26-.35-1.84-3.3-1-3.38a13.469 13.469 0 0 1-.22-4.68c.31-2.09 2.75-3.72 5.72-3.72 2.97 0 5.2 1.49 5.67 3.45a12.401 12.401 0 0 1-.15 4.95c.81.08.24 3-1 3.38a6.471 6.471 0 0 1-.24 1.25c-.22.59-.89 1-.81 1.62.05.42.73.16 1 .37.58.52.64 1.27 1.1 1.61.659.357 1.348.655 2.06.89 1.53.68 4.92 1.79 5.43 3.3a7.93 7.93 0 0 1 .17 2.5.249.249 0 0 1 0 .07 17.29 17.29 0 1 0-26.3 0 .249.249 0 0 1 0-.07h-.17z" fill="#fff"/><path d="M56.82 212.16c9.549 0 17.29-7.741 17.29-17.29s-7.741-17.29-17.29-17.29-17.29 7.741-17.29 17.29 7.741 17.29 17.29 17.29z" fill="#fff" stroke="#fff" stroke-width="2" stroke-miterlimit="10"/><path d="M56.82 212.15a17.23 17.23 0 0 0 13.15-6.08.249.249 0 0 0 0-.07 7.93 7.93 0 0 0-.17-2.5c-.51-1.51-3.9-2.62-5.43-3.3a12.652 12.652 0 0 1-2.06-.89c-.46-.34-.52-1.09-1.1-1.61-.23-.21-.91.05-1-.37-.08-.63.59-1 .81-1.62a6.48 6.48 0 0 0 .24-1.25c1.25-.36 1.82-3.3 1-3.38a12.4 12.4 0 0 0 .15-4.95c-.47-2-2.83-3.45-5.67-3.45s-5.41 1.63-5.72 3.72c-.2 1.561-.126 3.145.22 4.68-.81.08-.23 3 1 3.38.16.74 0 .65.22 1.25s.89 1 .8 1.62c-.05.42-.72.16-1 .37-.58.52-.65 1.27-1.1 1.61a12.99 12.99 0 0 1-2.06.89c-1.54.68-4.92 1.79-5.44 3.3a8.242 8.242 0 0 0-.16 2.5.249.249 0 0 0 0 .07 17.227 17.227 0 0 0 13.32 6.08z" fill="#98ACB3"/><path d="M179.73 95.94c0 11.67-21.13 38.75-21.13 38.75s-21.13-27.08-21.13-38.75A21.129 21.129 0 0 1 173.541 81a21.129 21.129 0 0 1 6.189 14.941z" fill="#DDDBDE"/><path d="M145.43 107.07a7.93 7.93 0 0 1 .17-2.5c.51-1.51 3.9-2.62 5.43-3.31a12.725 12.725 0 0 0 2.06-.88c.46-.34.52-1.09 1.1-1.61.23-.21.9 0 1-.37.08-.63-.59-1-.81-1.62-.22-.62-.06-.51-.22-1.25-1.26-.36-1.84-3.3-1-3.38a13.464 13.464 0 0 1-.22-4.68c.31-2.09 2.75-3.72 5.72-3.72 2.97 0 5.21 1.49 5.67 3.45a12.23 12.23 0 0 1-.15 5c.81.08.25 3-1 3.38a6.484 6.484 0 0 1-.24 1.25c-.21.59-.89 1-.81 1.62.06.41.73.16 1 .37.58.52.65 1.27 1.1 1.61.66.351 1.349.646 2.06.88 1.54.69 4.92 1.8 5.44 3.31.18.82.234 1.663.16 2.5v.07a17.304 17.304 0 0 0 2.556-18.478 17.303 17.303 0 0 0-25.038-7.328 17.303 17.303 0 0 0-3.828 25.806.817.817 0 0 0 0-.07l-.15-.05z" fill="#fff"/><path d="M158.6 113.23c9.549 0 17.29-7.741 17.29-17.29 0-9.55-7.741-17.29-17.29-17.29s-17.29 7.74-17.29 17.29c0 9.549 7.741 17.29 17.29 17.29z" fill="#fff" stroke="#fff" stroke-width="2" stroke-miterlimit="10"/><path d="M158.6 113.23a17.256 17.256 0 0 0 13.16-6.08v-.07c.074-.837.02-1.68-.16-2.5-.52-1.51-3.9-2.62-5.44-3.31-.711-.234-1.4-.528-2.06-.88-.45-.34-.52-1.09-1.1-1.61-.23-.21-.9 0-1-.37-.08-.63.6-1 .81-1.62.121-.408.201-.827.24-1.25 1.26-.36 1.82-3.3 1-3.38a12.23 12.23 0 0 0 .15-5c-.46-2-2.82-3.45-5.67-3.45s-5.41 1.63-5.72 3.72a13.465 13.465 0 0 0 .22 4.68c-.81.08-.23 3 1 3.38.16.74 0 .65.22 1.25s.89 1 .81 1.62c-.06.41-.73.16-1 .37-.58.52-.64 1.27-1.1 1.61-.659.353-1.349.648-2.06.88-1.53.69-4.92 1.8-5.43 3.31a7.93 7.93 0 0 0-.17 2.5.817.817 0 0 1 0 .07 17.232 17.232 0 0 0 13.3 6.13z" fill="#98ACB3"/><path d="M924.19 252.18a4.44 4.44 0 1 0 0-8.88 4.44 4.44 0 0 0 0 8.88zM787.85 357.49a4.44 4.44 0 1 0 0-8.88 4.44 4.44 0 0 0 0 8.88zM158.6 145.1a4.44 4.44 0 1 0 0-8.88 4.44 4.44 0 0 0 0 8.88zM56.82 243.77a4.44 4.44 0 1 0 0-8.88 4.44 4.44 0 0 0 0 8.88zm88.6 122.6a4.44 4.44 0 1 0 0-8.88 4.44 4.44 0 0 0 0 8.88zm916.73-212.25c2.45 0 4.44-1.988 4.44-4.44 0-2.452-1.99-4.44-4.44-4.44a4.441 4.441 0 0 0-4.44 4.44c0 2.452 1.99 4.44 4.44 4.44z" fill="#98ACB3" stroke="#fff" stroke-width="2" stroke-miterlimit="10"/><path opacity=".15" d="M416.05 368.13c94.794 0 171.64-76.846 171.64-171.64 0-94.794-76.846-171.64-171.64-171.64-94.794 0-171.64 76.846-171.64 171.64 0 94.794 76.846 171.64 171.64 171.64z" fill="#FF8144"/><path opacity=".4" d="M416.05 343.66c81.28 0 147.17-65.89 147.17-147.17 0-81.279-65.89-147.17-147.17-147.17-81.28 0-147.17 65.891-147.17 147.17 0 81.28 65.89 147.17 147.17 147.17z" fill="#FF8144"/><path opacity=".6" d="M415.76 315.41c65.678 0 118.92-53.242 118.92-118.92 0-65.677-53.242-118.92-118.92-118.92s-118.92 53.243-118.92 118.92c0 65.678 53.242 118.92 118.92 118.92z" fill="#FF8144"/><path d="M415.76 287.35c50.181 0 90.86-40.68 90.86-90.86 0-50.181-40.679-90.86-90.86-90.86s-90.86 40.679-90.86 90.86c0 50.18 40.679 90.86 90.86 90.86z" fill="#FF8144"/><path opacity=".4" d="M416.05 262.89c36.672 0 66.4-29.728 66.4-66.4 0-36.672-29.728-66.4-66.4-66.4-36.672 0-66.4 29.728-66.4 66.4 0 36.672 29.728 66.4 66.4 66.4z" fill="#F65727"/><path opacity=".8" d="M416.05 237.1c22.428 0 40.61-18.182 40.61-40.61s-18.182-40.61-40.61-40.61-40.61 18.182-40.61 40.61 18.182 40.61 40.61 40.61z" fill="#F65727"/><path opacity=".15" d="M927.74 315.39c34.91 0 63.21-28.3 63.21-63.21s-28.3-63.21-63.21-63.21-63.21 28.3-63.21 63.21 28.3 63.21 63.21 63.21z" fill="#FF8144"/><path opacity=".4" d="M927.74 306.38c29.934 0 54.2-24.266 54.2-54.2 0-29.934-24.266-54.2-54.2-54.2-29.934 0-54.2 24.266-54.2 54.2 0 29.934 24.266 54.2 54.2 54.2z" fill="#FF8144"/><path opacity=".6" d="M927.63 295.98c24.19 0 43.8-19.61 43.8-43.8 0-24.19-19.61-43.8-43.8-43.8-24.19 0-43.8 19.61-43.8 43.8 0 24.19 19.61 43.8 43.8 43.8z" fill="#FF8144"/><path d="M927.63 285.64c18.479 0 33.46-14.98 33.46-33.46 0-18.479-14.981-33.46-33.46-33.46s-33.46 14.981-33.46 33.46c0 18.48 14.981 33.46 33.46 33.46z" fill="#FF8144"/><path opacity=".4" d="M927.74 276.64c13.509 0 24.46-10.951 24.46-24.46s-10.951-24.46-24.46-24.46-24.46 10.951-24.46 24.46 10.951 24.46 24.46 24.46z" fill="#F65727"/><path opacity=".8" d="M927.74 267.14c8.262 0 14.96-6.698 14.96-14.96s-6.698-14.96-14.96-14.96-14.96 6.698-14.96 14.96 6.698 14.96 14.96 14.96z" fill="#F65727"/><path opacity=".15" d="M773.75 226.14c47.381 0 85.79-38.409 85.79-85.79 0-47.38-38.409-85.79-85.79-85.79-47.381 0-85.79 38.41-85.79 85.79 0 47.381 38.409 85.79 85.79 85.79z" fill="#FF8144"/><path opacity=".4" d="M773.75 213.91c40.626 0 73.56-32.934 73.56-73.56 0-40.626-32.934-73.56-73.56-73.56-40.626 0-73.56 32.934-73.56 73.56 0 40.626 32.934 73.56 73.56 73.56z" fill="#FF8144"/><path opacity=".6" d="M773.61 199.79c32.828 0 59.44-26.612 59.44-59.44s-26.612-59.44-59.44-59.44-59.44 26.612-59.44 59.44 26.612 59.44 59.44 59.44z" fill="#FF8144"/><path d="M773.61 185.76c25.079 0 45.41-20.331 45.41-45.41 0-25.079-20.331-45.41-45.41-45.41-25.079 0-45.41 20.331-45.41 45.41 0 25.079 20.331 45.41 45.41 45.41z" fill="#FF8144"/><path opacity=".4" d="M773.75 173.54c18.33 0 33.19-14.86 33.19-33.19s-14.86-33.19-33.19-33.19-33.19 14.86-33.19 33.19 14.86 33.19 33.19 33.19z" fill="#F65727"/><path opacity=".8" d="M773.75 160.65c11.211 0 20.3-9.088 20.3-20.3 0-11.211-9.089-20.3-20.3-20.3s-20.3 9.089-20.3 20.3c0 11.212 9.089 20.3 20.3 20.3z" fill="#F65727"/><path opacity=".1" d="M89.1 145.4l23.06 8.37 17.48-1.09 6.78 7.9-19.15 2.26 5.57 37.77 46.83 39.53-143.89 79.61 3.88 4.48 143.88-79 29.37-20.89 115.25 108.88-36.15 31-22.09 3.46-24 27.38 8.86-.34 18-21.34 22.09-3.4 36.69-32.3 53.7 52.36 11.16-.36-2.26-2.25L486.37 284.2l58.72 2.79 39.28 40.62 20.38-21.47 62.14 62.09 4.34-6.78-66.48-66.59-20.38 20.24-31.09-31.52 57-34.45 19.9-3.4 2.16-7.9-7.27-23 130.81-21.36-17.51 26.9 6.37 51.31 66.46-13 21.36 100.43 7.53 1.69-21.62-104.26 65-32.17 11.9-22.56-2.4-41.23 49.74-14.71 43.93-37.19 24.27-2.8 21.58 171.54 6.81-1.68-19.93-154.06 22.59-16.88-4.38-10.19 23.53-2.3 11.42 7.87 9-7.28 11.14-13 15-11.78c-.8-1.66-1.65-3.3-2.53-4.92l-17.53 13.91-15 14.66-21.64-18.67-7.72-63.7c-2.18-.82-4.39-1.56-6.63-2.24l.3 2.24-35.41 4.49-2.44-8.49-23 3.4-5.22 10.78-83.92 10.1-1.06-23.19-7.5.27 1 23.5h-62.58L752.5 44.33V10.95l-7.76.23v33.15L654.46 60.1l-11.34-46.15-8.42.19 17.35 81.54-153.36 24.25L458.3 13.47l-8.93-.23 40.85 110.69-12.38 8.48 17.45 50.27 48.53 41.13 8.49-7.31 30.32 39.44-39.26 24.26-60-3.93-44.63 46.26-36.63-33.85 28.15-43.41-42.7-42.36L335.63 60.1l86.68-47.58-16.43-.46-33.13 18.2-13.29-19.58-12.83-.4 17.63 26.17-63.08 36.16-66.62-66.08-10.12-.36 7.33 8.81-37.4 36.13-17.42 5.57-37.58 38.47-28.41-25.92-28.65 30.45-29.36-24.89 28.64-32.66 51.36-39.31-12.92-.49-41.85 31.83-19.19-17.32c-2.18 1.22-4.33 2.51-6.42 3.86l20.8 19.13-25 27.7-10.19-3.4-35.2 24.72c-.61 2.43-1.21 4.9-1.7 7.39l36.87-25.95 7.52 2.32 3.4 8.37 76.67 66-11.37 1.23-23.53-9.1-90.3 12.95 1.69 6.16L89.1 145.4zM977.18 26.26l3.89-10.08 12.3-1.69 3.42 9 40-4.49 6.8 57.53 13.1 10.78-28.32 2.75 5.09 12.4-15.75 12.51-2.21-17-30.57 2.8-7.76-29.84.01-44.67zm-6.81 2.31v44l9 32.63-40.51 33.87-46.37 13.61-5.12-114.52 83-9.59zm-83 171.54l-10.63 19.17-63.37 31.08-61.89 12.37-4.63-40.65 20.88-33.25-7.28-64.43 121.82-19.65 5.1 95.36zM816.79 38.74h62.63l2.37 58.13-122 19.65-6.08-63.67 63.08-14.11zm-72 14.11l14 132.58-75 11.31-27.66-129.21 88.66-14.68zM554 203.52l-10.63 8.37-39.07-33.87-15.28-42.81 11.41-6.8 152.86-24.87 22.08 94.27-60 10.8 9.69 30.94-17.47 2.29-18.19 10.2-35.4-48.52zm-174.94 2.16l42.21 40.65-28.13 42.84 41.73 38.45-55.81 55.83-151.89-146.09 93.2-63.24 20.37 20.91 26.95-20.41 11.37 31.06zM236.88 19.58l63.08 62 28.88-18.09 37.85 103.85-25 18.69-138-134.94 33.19-31.51zm-57 43.43l17.49-6.33 117.88 112.38-51.88 34.93-68.18-72.17-12.37.59-39.6-33.37 36.66-36.03zm-93.69 43.93l25.49-28.13 67.69 60.87 13.35-1.09 65 70-34.95 23.66-19.16-17.47-27.18 20.27-48.53-41.74-3.4-25.37 23.05-2.91-12.34-16.35-49.02-41.74z" fill="#fff"/><path d="M416.54 202.31a7.51 7.51 0 0 0 7.51-7.51 7.51 7.51 0 0 0-7.51-7.51 7.51 7.51 0 0 0-7.51 7.51 7.51 7.51 0 0 0 7.51 7.51z" fill="#494747" stroke="#fff" stroke-width="2" stroke-miterlimit="10"/><path d="M459.59 106.04c0 24-43.54 79.84-43.54 79.84s-43.55-55.79-43.55-79.84a43.547 43.547 0 0 1 43.545-42.89 43.548 43.548 0 0 1 43.545 42.89z" fill="#F2F5F6"/><path d="M388.91 128.97c.08-2-.27-3.38.34-5.15 1.06-3.12 8-5.4 11.2-6.81 1.55-.7 3.31-1.11 4.24-1.82.93-.71 1.08-2.25 2.27-3.33.48-.43 1.86.1 2-.76.17-1.3-1.22-2.11-1.66-3.33-.44-1.22-.13-1.06-.46-2.57-2.58-.74-3.78-6.82-2.12-7-.53-2.92-1.05-6.83-.45-9.66.63-4.3 5.67-7.66 11.79-7.66 5.86 0 10.72 3.08 11.69 7.11.81 2.85.25 7.1-.32 10.21 1.67.15.51 6.21-2.07 7a14.523 14.523 0 0 1-.5 2.59c-.45 1.22-1.83 2-1.67 3.33.11.86 1.5.33 2 .76 1.2 1.08 1.34 2.62 2.27 3.33.93.71 2.69 1.12 4.24 1.82 3.17 1.41 10.14 3.69 11.21 6.81.6 1.77.25 3.19.33 5.15v.15a35.646 35.646 0 0 0 5.26-38.065 35.647 35.647 0 0 0-32.365-20.717 35.643 35.643 0 0 0-35.305 40.519 35.646 35.646 0 0 0 8.2 18.263.752.752 0 0 1 0-.15l-.12-.02z" fill="#fff"/><path d="M416.05 143.17a37.127 37.127 0 0 1-34.304-22.921 37.131 37.131 0 1 1 71.434-14.209 37.174 37.174 0 0 1-10.89 26.24 37.176 37.176 0 0 1-26.24 10.89z" fill="#fff"/><path d="M416.05 70.42a35.631 35.631 0 0 1 6.945 70.577 35.638 35.638 0 0 1-36.575-15.159 35.632 35.632 0 0 1 29.63-55.418zm0-3a38.631 38.631 0 1 0 38.63 38.62 38.67 38.67 0 0 0-38.63-38.62z" fill="#DDDBDE"/><path d="M416.05 141.68a35.547 35.547 0 0 0 14.935-3.286 35.553 35.553 0 0 0 12.175-9.254v-.15c-.08-2 .27-3.38-.33-5.15-1.07-3.12-8-5.4-11.21-6.81-1.55-.7-3.31-1.11-4.24-1.82-.93-.71-1.07-2.25-2.27-3.33-.47-.43-1.86.1-2-.76-.16-1.3 1.22-2.11 1.67-3.33a14.54 14.54 0 0 0 .5-2.59c2.58-.74 3.74-6.8 2.07-7 .57-3.11 1.13-7.36.32-10.21-1-4-5.83-7.11-11.69-7.11-6.12 0-11.16 3.36-11.79 7.66-.6 2.83-.08 6.74.45 9.66-1.66.15-.46 6.23 2.12 7 .33 1.51 0 1.33.46 2.57.46 1.24 1.83 2 1.66 3.33-.11.86-1.49.33-2 .76-1.19 1.08-1.33 2.62-2.27 3.33s-2.69 1.12-4.24 1.82c-3.17 1.41-10.14 3.69-11.2 6.81-.61 1.77-.26 3.19-.34 5.15a.752.752 0 0 0 0 .15 35.484 35.484 0 0 0 27.22 12.56z" fill="#657C7F"/><path d="M794.8 95.13c0 11.67-21.13 38.74-21.13 38.74s-21.14-27.07-21.14-38.74a21.141 21.141 0 0 1 42.27 0z" fill="#DDDBDE"/><path d="M760.5 106.26a8.267 8.267 0 0 1 .16-2.5c.52-1.52 3.9-2.62 5.44-3.31.71-.236 1.399-.53 2.06-.88.45-.34.52-1.09 1.1-1.62.23-.2.9 0 1-.36.08-.63-.59-1-.81-1.62-.22-.62-.06-.51-.22-1.25-1.25-.36-1.83-3.3-1-3.38a13.25 13.25 0 0 1-.22-4.68c.3-2.09 2.75-3.72 5.72-3.72 2.97 0 5.2 1.49 5.67 3.45.285 1.66.234 3.36-.15 5 .81.08.24 3-1 3.37a6.43 6.43 0 0 1-.24 1.26c-.22.59-.89 1-.81 1.62 0 .41.73.16 1 .36.58.53.65 1.28 1.11 1.62a12.97 12.97 0 0 0 2.05.88c1.54.69 4.92 1.79 5.44 3.31.18.82.234 1.664.16 2.5v.07a17.284 17.284 0 0 0-3.844-25.761 17.279 17.279 0 0 0-22.466 25.761v-.08l-.15-.04z" fill="#fff"/><path d="M773.67 112.42c9.549 0 17.29-7.741 17.29-17.29 0-9.55-7.741-17.29-17.29-17.29s-17.29 7.74-17.29 17.29c0 9.549 7.741 17.29 17.29 17.29z" fill="#fff" stroke="#fff" stroke-width="2" stroke-miterlimit="10"/><path d="M773.67 112.42a17.235 17.235 0 0 0 13.15-6.09v-.07c.074-.837.02-1.68-.16-2.5-.52-1.52-3.9-2.62-5.44-3.31a12.979 12.979 0 0 1-2.05-.88c-.46-.34-.53-1.09-1.11-1.62-.22-.2-.9 0-1-.36-.08-.63.59-1 .81-1.62.144-.419.245-.85.3-1.29 1.25-.35 1.82-3.29 1-3.37.384-1.64.435-3.34.15-5-.47-2-2.83-3.45-5.67-3.45s-5.42 1.63-5.72 3.72a13.25 13.25 0 0 0 .22 4.68c-.81.08-.23 3 1 3.38.16.74 0 .65.22 1.25s.89 1 .81 1.62c-.05.41-.72.16-1 .36-.58.53-.65 1.28-1.1 1.62-.661.35-1.35.644-2.06.88-1.54.69-4.92 1.79-5.44 3.31a8.265 8.265 0 0 0-.16 2.5v.08a17.266 17.266 0 0 0 13.25 6.16z" fill="#98ACB3"/><path d="M774 142.76a4.44 4.44 0 1 0 0-8.88 4.44 4.44 0 0 0 0 8.88z" fill="#494747" stroke="#fff" stroke-width="2" stroke-miterlimit="10"/><path d="M949.76 200.11c0 11.67-21.13 38.75-21.13 38.75s-21.14-27.08-21.14-38.75a21.14 21.14 0 0 1 42.27 0z" fill="#DDDBDE"/><path d="M915.46 211.24a8.265 8.265 0 0 1 .16-2.5c.52-1.51 3.9-2.62 5.44-3.31.71-.236 1.399-.53 2.06-.88.45-.34.52-1.09 1.1-1.61.23-.21.9 0 .95-.37.08-.63-.59-1-.81-1.62-.22-.62 0-.51-.22-1.25-1.25-.36-1.83-3.3-1-3.38a13.227 13.227 0 0 1-.22-4.68c.3-2.09 2.75-3.72 5.72-3.72 2.97 0 5.2 1.49 5.67 3.45a12.598 12.598 0 0 1-.15 4.95c.81.08.24 3-1 3.38a6.494 6.494 0 0 1-.24 1.25c-.22.59-.89 1-.81 1.62 0 .41.73.16.95.37.58.52.65 1.27 1.11 1.61a12.97 12.97 0 0 0 2.05.88c1.54.69 4.92 1.8 5.44 3.31.184.82.241 1.663.17 2.5a.817.817 0 0 0 0 .07 17.287 17.287 0 0 0 2.544-18.464 17.291 17.291 0 1 0-28.854 18.464v-.07h-.06z" fill="#fff"/><path d="M928.63 217.4c9.549 0 17.29-7.741 17.29-17.29s-7.741-17.29-17.29-17.29-17.29 7.741-17.29 17.29 7.741 17.29 17.29 17.29z" fill="#fff" stroke="#fff" stroke-width="2" stroke-miterlimit="10"/><path d="M928.63 217.4a17.23 17.23 0 0 0 13.15-6.08.817.817 0 0 1 0-.07 8.237 8.237 0 0 0-.17-2.5c-.52-1.51-3.9-2.62-5.44-3.31a12.97 12.97 0 0 1-2.05-.88c-.46-.34-.53-1.09-1.11-1.61-.22-.21-.9 0-.95-.37-.08-.63.59-1 .81-1.62a6.48 6.48 0 0 0 .24-1.25c1.25-.36 1.82-3.3 1-3.38a12.58 12.58 0 0 0 .15-4.95c-.47-2-2.83-3.45-5.67-3.45s-5.42 1.63-5.72 3.72a13.225 13.225 0 0 0 .22 4.68c-.81.08-.23 3 1 3.38.17.74 0 .65.22 1.25s.89 1 .81 1.62c0 .41-.72.16-.95.37-.58.52-.65 1.27-1.1 1.61-.661.35-1.35.644-2.06.88-1.54.69-4.92 1.8-5.44 3.31a8.267 8.267 0 0 0-.16 2.5v.07a17.26 17.26 0 0 0 13.22 6.08z" fill="#98ACB3"/><path d="M928.96 247.74a4.44 4.44 0 1 0 0-8.88 4.44 4.44 0 0 0 0 8.88z" fill="#494747" stroke="#fff" stroke-width="2" stroke-miterlimit="10"/></svg>