<svg width="538" height="209" viewBox="0 0 538 209" fill="none" xmlns="http://www.w3.org/2000/svg"><path d="M57.554 162.481C27 150.293-3.554 112.506.43 82.401 12.015-5.917 112.763 28.029 165.542 28.414c103.139.758 302.032-73.766 356.644 19.366 53.137 90.592-45.287 151.864-137.201 158.071-164.792 11.125-258.619-9.636-327.431-43.369z" fill="#F2F5F6"/><path d="M525.321 104.013H9.478l-.479-3.668.24-13.278H524.39l.93 12.706v4.24zm-79.533 6.128H363.85a3.348 3.348 0 0 0-3.348 3.349v57.75a3.348 3.348 0 0 0 3.348 3.349h81.938a3.348 3.348 0 0 0 3.347-3.349v-57.75a3.348 3.348 0 0 0-3.347-3.349z" fill="#DDDBDE"/><path d="M370.917 112.254h73.197a2.989 2.989 0 0 1 2.989 2.99v48.021" stroke="#F2F5F6" stroke-miterlimit="10"/><path d="M434.775 120.76h-60.656a2.353 2.353 0 0 0-2.352 2.353v38.491a2.352 2.352 0 0 0 2.352 2.352h60.656a2.351 2.351 0 0 0 2.351-2.352v-38.491a2.352 2.352 0 0 0-2.351-2.353z" fill="#F2F5F6" stroke="#fff" stroke-miterlimit="17"/><path d="M44.92 92.33l36.585-22.329 25.134 14.46 105.145 1.57 97.242 1.448 27.604-15.046-5.951 4.227h43.666l16.406-17.212 46.84-6.473 14.533 19.352L477.63 92.33H44.92zm435.101 111.38V13.514l3.786-.173 13.736.093v189.931l-13.151.345h-4.371z" fill="#DDDBDE"/><path d="M36.272 203.71V34.168l3.786-.16 13.736.08v169.316l-13.151.306h-4.37z" fill="#DDDBDE"/><path d="M525.321 87.067H9.239v10.54H525.32v-10.54z" fill="#fff"/><path d="M508.025 191.987H26.468l-.451-3.788.226-13.743h480.905l.877 13.145v4.386z" fill="#DDDBDE"/><path d="M126.446 178.178l36.067-1.648 35.775-25.041 31.776-7.801 66.381 1.182 21.122 22.808 27.034-5.941 9.352 16.707-227.507-.266z" fill="#DDDBDE"/><path d="M508.025 174.456H26.243v10.912h481.782v-10.912z" fill="#fff"/><path d="M497.543 203.71V13.434h-10.906V203.71h10.906zm-443.749-.013V34.089H42.888v169.608h10.906z" fill="#fff"/><path d="M446.917 156.527c4.336 0 7.851-5.32 7.851-11.883 0-6.562-3.515-11.882-7.851-11.882s-7.851 5.32-7.851 11.882c0 6.563 3.515 11.883 7.851 11.883z" fill="#98ACB3"/><path d="M457.127 138.033c1.617-2.006 1.821-4.524.456-5.626-1.365-1.101-3.782-.368-5.398 1.637-1.617 2.006-1.821 4.524-.457 5.626 1.365 1.101 3.782.368 5.399-1.637zm5.634 13.19c.432-2.54-.618-4.838-2.347-5.132-1.728-.295-3.48 1.525-3.913 4.065-.432 2.54.618 4.838 2.347 5.132 1.728.295 3.48-1.525 3.913-4.065zm-25.595 4.798l4.716 17.93c2.968.477 5.963.775 8.967.891 2.844 0 5.68-.299 8.462-.891l4.716-17.93h-26.861z" fill="#98ACB3"/><path d="M465.435 151.648h-29.69c-.727 0-1.315.59-1.315 1.316v2.007c0 .727.588 1.316 1.315 1.316h29.69c.726 0 1.315-.589 1.315-1.316v-2.007c0-.726-.589-1.316-1.315-1.316zm-21.799-14.925a.914.914 0 0 1-.422-.107.912.912 0 0 1-.322-.292l-2.126-3.296a.866.866 0 0 1 .266-1.209.89.89 0 0 1 1.222.252l2.099 3.296a.861.861 0 0 1-.266 1.21.768.768 0 0 1-.451.146zm4.45-2.153h-.199a.89.89 0 0 1-.665-1.064l.851-3.602a.881.881 0 0 1 1.368-.516.866.866 0 0 1 .356.572.88.88 0 0 1-.011.343l-.85 3.602a.863.863 0 0 1-.85.665zm9.551 1.09a.865.865 0 0 1-.863-.705.885.885 0 0 1 .129-.662.882.882 0 0 1 .562-.375l2.656-.531a.88.88 0 1 1 .346 1.728l-2.657.531-.173.014zm-3.613-.745a.874.874 0 0 1-.877-.744l-.425-2.871a.881.881 0 0 1 1.087-.979.875.875 0 0 1 .653.726l.425 2.858a.886.886 0 0 1-.154.658.88.88 0 0 1-.576.352h-.133zm2.285 5.623a.714.714 0 0 1-.226 0l-2.298-.652a.866.866 0 0 1-.64-.735.873.873 0 0 1 .029-.341.888.888 0 0 1 1.076-.625l2.338.638a.869.869 0 0 1 .533.417.885.885 0 0 1 .078.673.866.866 0 0 1-.89.625zm-7.479 1.063a.875.875 0 0 1-.744-.399.89.89 0 0 1 .252-1.223l2.445-1.582a.889.889 0 0 1 .661-.122.867.867 0 0 1 .554.382.878.878 0 0 1-.259 1.216l-2.431 1.595a.908.908 0 0 1-.478.133zm-4.251 2.551a.862.862 0 0 1-.691-.345l-1.7-2.233a.879.879 0 0 1 .814-1.401c.231.031.44.153.58.338l1.701 2.219a.892.892 0 0 1 .178.652.88.88 0 0 1-.338.584.923.923 0 0 1-.544.186zm-4.769.426a.876.876 0 0 1-.465-.147l-2.657-1.688a.883.883 0 0 1-.266-1.222.875.875 0 0 1 .549-.389.875.875 0 0 1 .66.123l2.657 1.701a.859.859 0 0 1 .388.549.861.861 0 0 1-.122.661.894.894 0 0 1-.744.412zm2.444 6.366a.69.69 0 0 1-.279 0l-3.6-1.156a.884.884 0 0 1-.565-1.11.884.884 0 0 1 1.11-.565l3.6 1.156a.89.89 0 0 1 .571 1.117.88.88 0 0 1-.837.558zm4.875-2.02h-.239a.891.891 0 0 1-.611-1.09l.744-2.658a.88.88 0 0 1 1.089-.611.88.88 0 0 1 .611 1.09l-.743 2.658a.88.88 0 0 1-.851.611zm4.344.744a.858.858 0 0 1-.823-.584.89.89 0 0 1 .531-1.13l2.962-1.063a.88.88 0 0 1 1.181.872.888.888 0 0 1-.583.789l-2.962 1.063a.819.819 0 0 1-.306.053zm1.382-5.303a.876.876 0 0 1-.837-.611.892.892 0 0 1 .571-1.117l2.657-.837a.888.888 0 0 1 1.116.558.902.902 0 0 1-.571 1.117l-2.657.85a.91.91 0 0 1-.279.04zm5.619 4.665a.88.88 0 0 1-.81-.531l-.744-1.688a.892.892 0 0 1 .484-1.098.894.894 0 0 1 1.137.38l.744 1.701a.9.9 0 0 1-.393 1.127.889.889 0 0 1-.418.109zm3.388 2.02a.862.862 0 0 1-.718-.385.885.885 0 0 1-.141-.658.876.876 0 0 1 .367-.565l2.019-1.329a.892.892 0 0 1 .675-.172.87.87 0 0 1 .723.702.867.867 0 0 1-.152.679.874.874 0 0 1-.263.24l-2.006 1.329a.899.899 0 0 1-.504.159zm-1.435-4.08h-.133a.877.877 0 0 1-.77-.983l.279-2.3a.912.912 0 0 1 1.003-.817.916.916 0 0 1 .817 1.003l-.279 2.3a.857.857 0 0 1-.291.591.841.841 0 0 1-.626.206zm-2.059 4.612a.737.737 0 0 1-.239 0l-1.86-.531a.886.886 0 0 1-.193-1.622.878.878 0 0 1 .671-.08l1.86.545a.9.9 0 0 1 .309.155.89.89 0 0 1 .302.935.886.886 0 0 1-.85.598z" fill="#DDDBDE"/><path d="M87.576 147.462c6.324 0 11.451-7.765 11.451-17.345 0-9.579-5.127-17.345-11.45-17.345-6.325 0-11.452 7.766-11.452 17.345 0 9.58 5.127 17.345 11.451 17.345z" fill="#98ACB3"/><path d="M80.548 122.884c2-1.613 1.704-5.296-.66-8.227-2.362-2.931-5.898-4-7.897-2.387-1.998 1.613-1.703 5.297.66 8.228s5.899 3.999 7.897 2.386zm-10.414 22.79c2.531-.432 4.07-3.791 3.439-7.503-.633-3.712-3.197-6.372-5.729-5.94-2.531.431-4.07 3.791-3.438 7.503.632 3.712 3.196 6.371 5.728 5.94zm31.683 1.057l-6.841 26.171a107.96 107.96 0 0 1-13.099 1.329 57.93 57.93 0 0 1-12.341-1.329l-6.895-26.171h39.176z" fill="#98ACB3"/><path d="M60.516 147.117h43.36a1.914 1.914 0 0 0 1.913-1.914v-2.938a1.913 1.913 0 0 0-1.913-1.913h-43.36a1.913 1.913 0 0 0-1.913 1.913v2.938c0 1.057.856 1.914 1.913 1.914zm31.803-28.496a1.337 1.337 0 0 0 1.076-.599l3.095-4.798a1.33 1.33 0 0 0-.385-1.781 1.33 1.33 0 0 0-1.767.386l-3.095 4.798a1.329 1.329 0 0 0 .372 1.781c.21.136.454.209.704.213zm-6.457-3.164c.102.013.205.013.306 0a1.33 1.33 0 0 0 .956-1.542l-1.248-5.316a1.242 1.242 0 0 0-.564-.796 1.242 1.242 0 0 0-.964-.148 1.33 1.33 0 0 0-.956 1.542l1.235 5.316a1.326 1.326 0 0 0 1.236.944zm-13.922 1.542a1.33 1.33 0 0 0 1.25-1.037 1.328 1.328 0 0 0-1.01-1.502l-3.866-.784a1.327 1.327 0 0 0-1.514 1.01 1.33 1.33 0 0 0 1.01 1.515l3.878.771a.768.768 0 0 0 .252.027zm5.261-1.037a1.327 1.327 0 0 0 1.329-1.103l.504-4.213a1.332 1.332 0 0 0-1.025-1.845 1.321 1.321 0 0 0-1.12.363 1.321 1.321 0 0 0-.392 1.11l-.624 4.186a1.331 1.331 0 0 0 1.076 1.462l.252.04zm-3.414 8.161c.115.013.23.013.345 0l3.401-.93a1.33 1.33 0 0 0-.677-2.486l-3.401.931a1.332 1.332 0 0 0-.774 1.386 1.328 1.328 0 0 0 1.106 1.139v-.04zm10.999 1.555a1.326 1.326 0 0 0 1.076-.585 1.329 1.329 0 0 0-.371-1.781l-3.56-2.326a1.325 1.325 0 0 0-2.301.731 1.33 1.33 0 0 0 .892 1.423l3.56 2.326c.208.14.454.214.704.212zm6.204 3.708a1.334 1.334 0 0 0 1.023-.505l2.471-3.243a1.33 1.33 0 1 0-2.032-1.568l-2.485 3.256a1.33 1.33 0 0 0 .24 1.808c.227.165.502.253.783.252zm6.961.625a1.33 1.33 0 0 0 .691-.2l3.866-2.485a1.335 1.335 0 0 0 .12-1.561 1.335 1.335 0 0 0-1.449-.592l-3.879 2.472a1.331 1.331 0 0 0-.017 2.071c.206.168.457.271.721.295h-.053zm-3.573 9.29c.132.02.266.02.398 0l5.314-1.714a1.332 1.332 0 0 0 .837-1.609 1.326 1.326 0 0 0-1.62-.837l-5.314 1.715a1.325 1.325 0 0 0-.837 1.608 1.33 1.33 0 0 0 1.222.837zm-7.121-2.937c.115.02.231.02.346 0a1.324 1.324 0 0 0 .89-1.581l-1.076-3.868a1.328 1.328 0 0 0-2.484.691l1.089 3.868a1.33 1.33 0 0 0 1.235.89zm-6.35 1.09a1.333 1.333 0 0 0 1.223-.864 1.33 1.33 0 0 0-.784-1.635l-4.33-1.555a1.329 1.329 0 0 0-.878 2.419l4.344 1.555c.137.05.28.077.425.08zm-2.006-7.749a1.323 1.323 0 0 0 1.121-1.113 1.332 1.332 0 0 0-.735-1.399l-3.866-1.236a1.33 1.33 0 0 0-1.607.824 1.33 1.33 0 0 0 .823 1.622l3.866 1.236c.129.042.263.065.398.066zm-8.209 6.819a1.328 1.328 0 0 0 1.182-.771l1.076-2.486a1.33 1.33 0 0 0-.65-1.688 1.329 1.329 0 0 0-1.701.665l-1.076 2.472a1.33 1.33 0 0 0 .65 1.688c.162.077.34.118.519.12zm-4.942 2.937a1.327 1.327 0 0 0 1.063-.558 1.33 1.33 0 0 0-.332-1.781l-2.936-2.02a1.328 1.328 0 0 0-2.26 1.28 1.332 1.332 0 0 0 .799.846l2.949 2.007c.208.152.46.231.717.226zm2.099-5.941h.16a1.33 1.33 0 0 0 1.116-1.422l-.4-3.363a1.333 1.333 0 0 0-1.398-.826 1.332 1.332 0 0 0-1.152 1.145l.399 3.349a1.325 1.325 0 0 0 1.275 1.117zm3.002 6.712c.12.013.24.013.359 0l2.657-.785a1.319 1.319 0 0 0 1.041-.538 1.333 1.333 0 0 0-.082-1.681 1.326 1.326 0 0 0-1.663-.253l-2.657.785a1.326 1.326 0 0 0-.744 1.388 1.334 1.334 0 0 0 1.103 1.124l-.014-.04z" fill="#DDDBDE"/><path d="M351.323 73.112c18.298 0 33.131-14.841 33.131-33.148 0-18.308-14.833-33.149-33.131-33.149-18.298 0-33.131 14.841-33.131 33.149 0 18.307 14.833 33.148 33.131 33.148z" fill="#F2F5F6" stroke="#fff" stroke-miterlimit="17"/><path opacity=".3" d="M374.012 16.69a32.547 32.547 0 0 1-13.902 37.254 32.506 32.506 0 0 1-39.54-4.026 32.521 32.521 0 0 0 34.292 22.758 32.51 32.51 0 0 0 24.36-15.145 32.544 32.544 0 0 0 2.903-28.549 32.53 32.53 0 0 0-8.113-12.292z" fill="#98ACB3"/><path d="M340.576 32.852a7.322 7.322 0 0 0 7.32-7.323 7.322 7.322 0 0 0-7.32-7.323 7.322 7.322 0 0 0-7.32 7.323 7.322 7.322 0 0 0 7.32 7.323zm23.394-.492a1.276 1.276 0 1 0-.001-2.55 1.276 1.276 0 0 0 .001 2.55zm-7.798-7.721a1.276 1.276 0 1 0-.001-2.551 1.276 1.276 0 0 0 .001 2.55zm9.79-4.652a1.276 1.276 0 1 0 0-2.552 1.276 1.276 0 0 0 0 2.552zm-14.679 14.926a1.276 1.276 0 1 0-.001-2.551 1.276 1.276 0 0 0 .001 2.55zm-18.651 3.761a1.276 1.276 0 1 0-.001-2.551 1.276 1.276 0 0 0 .001 2.551zm-8.05-5.037a1.276 1.276 0 1 0-.001-2.551 1.276 1.276 0 0 0 .001 2.55zm24.15-19.02a1.276 1.276 0 1 0 0-2.551 1.276 1.276 0 0 0 0 2.551z" fill="#fff"/><path opacity=".3" d="M352.545 70.52c8.789 0 15.915-7.129 15.915-15.923s-7.126-15.923-15.915-15.923c-8.789 0-15.915 7.13-15.915 15.923 0 8.794 7.126 15.923 15.915 15.923z" fill="#98ACB3"/><path d="M368.42 69.19h-34.194a2.87 2.87 0 0 0-2.869 2.871v.545a2.87 2.87 0 0 0 2.869 2.871h34.194a2.87 2.87 0 0 0 2.869-2.87v-.546a2.87 2.87 0 0 0-2.869-2.87z" fill="#98ACB3"/><path d="M373.056 72.34h-43.453a4.664 4.664 0 0 0-4.663 4.665v3.23a4.664 4.664 0 0 0 4.663 4.665h43.453a4.664 4.664 0 0 0 4.663-4.665v-3.23a4.664 4.664 0 0 0-4.663-4.665z" fill="#F2F5F6"/><path d="M372.91 73.736h-43.161a4.81 4.81 0 0 0-4.809 4.812v3.708a4.81 4.81 0 0 0 4.809 4.811h43.161a4.81 4.81 0 0 0 4.809-4.811v-3.708a4.81 4.81 0 0 0-4.809-4.812z" fill="#98ACB3"/><path d="M390.18 65.709h-1.967a2.87 2.87 0 0 0-2.869 2.87v15.325a2.87 2.87 0 0 0 2.869 2.871h1.967a2.87 2.87 0 0 0 2.869-2.87V68.578a2.87 2.87 0 0 0-2.869-2.87z" fill="#905744"/><path d="M387.895 84.608h68.414a1.106 1.106 0 0 0 0-.2V68.314a.892.892 0 0 0 0-.146h-68.414v16.441z" fill="#DDDBDE"/><path d="M409.721 65.655h-2.71v2.38h2.71v-2.38zm44.662 0h-23.832v2.38h25.824a2.284 2.284 0 0 0-1.992-2.38zm-50.587 0h-13.909a2.288 2.288 0 0 0-1.992 2.38h15.941l-.04-2.38z" fill="#905744"/><path d="M406.997 65.655h-3.201v2.38h3.201v-2.38zm23.54 0h-20.83v2.38h20.83v-2.38zm.014 21.146h23.832a2.287 2.287 0 0 0 1.992-2.34h-25.824v2.34zm-40.664 0h13.909v-2.34h-15.941a2.27 2.27 0 0 0 2.032 2.34zm19.834-2.339h-2.71v2.34h2.71v-2.34zm-2.724 0h-3.201v2.34h3.201v-2.34z" fill="#905744"/><path d="M430.537 84.462h-20.83v2.34h20.83v-2.34z" fill="#905744"/><path d="M387.895 68.726h68.48m-68.48 15.085h68.48" stroke="#774436" stroke-miterlimit="10"/><path d="M387.895 78.64h68.48m-68.48-2.472h68.48m-68.48-2.458h68.48" stroke="#fff" stroke-width=".5" stroke-miterlimit="10"/><path d="M385.809 45.267h-2.471a2.764 2.764 0 0 0-2.763 2.764v13.225a2.764 2.764 0 0 0 2.763 2.764h2.471a2.764 2.764 0 0 0 2.763-2.764V48.03a2.764 2.764 0 0 0-2.763-2.764z" fill="#FF8144"/><path d="M382.953 62.08h59.779V47.632a.4.4 0 0 0 0-.12h-59.779V62.08z" fill="#DDDBDE"/><path d="M402.016 45.267h-2.365v2.113h2.365v-2.113zm39.016 0h-20.817v2.113h22.584a2.023 2.023 0 0 0-1.767-2.113zm-44.184 0h-12.155a2.017 2.017 0 0 0-1.74 2.113h13.895v-2.113zm2.803 0h-2.803v2.113h2.803v-2.113z" fill="#FF8144"/><path d="M420.215 45.267h-18.199v2.113h18.199v-2.113zm0 18.767h20.817a2.006 2.006 0 0 0 1.74-2.074h-22.583l.026 2.074zm-35.522 0h12.155V61.96h-13.895a2.008 2.008 0 0 0 1.74 2.074zm17.323-2.074h-2.365v2.074h2.365V61.96zm-2.365 0h-2.803v2.074h2.803V61.96z" fill="#FF8144"/><path d="M420.215 61.96h-18.199v2.074h18.199V61.96z" fill="#FF8144"/><path d="M442.772 48.004h-59.819m0 13.372h59.819" stroke="#F65727" stroke-miterlimit="10"/><path d="M382.953 56.79h59.819m-59.819-2.18h59.819m-59.819-2.193h59.819" stroke="#fff" stroke-width=".5" stroke-miterlimit="10"/><path d="M435.107 44.177h1.328a2.431 2.431 0 0 0 2.431-2.432v-13.89a2.431 2.431 0 0 0-2.431-2.432h-1.328a2.431 2.431 0 0 0-2.431 2.432v13.89a2.431 2.431 0 0 0 2.431 2.432z" fill="#FF8144"/><path d="M437.02 42.236h-46.256V27.775a.4.4 0 0 1 0-.12h46.256v14.581z" fill="#DDDBDE"/><path d="M424.108 25.41h-1.834v2.113h1.834V25.41zm-32.016 0h16.101v2.126h-17.442c.04-1.183.624-2.126 1.341-2.126zm34.181 0h9.405c.718 0 1.329.943 1.329 2.126H426.26l.013-2.126z" fill="#FF8144"/><path d="M426.273 25.41h-2.165v2.113h2.165V25.41zm-3.999 0h-14.081v2.113h14.081V25.41zm-14.081 18.78h-16.101c-.704 0-1.328-.917-1.328-2.073h17.442l-.013 2.073zm27.485 0h-9.405v-2.087h10.747c-.053 1.156-.638 2.087-1.342 2.087zm-11.57-2.087h-1.834v2.073h1.834v-2.073zm2.165 0h-2.165v2.073h2.165v-2.073z" fill="#FF8144"/><path d="M422.274 42.103h-14.081v2.073h14.081v-2.073z" fill="#FF8144"/><path d="M390.751 28.148h46.269m0 13.384h-46.269" stroke="#F65727" stroke-miterlimit="10"/><path d="M437.02 36.933h-46.269m46.269-2.18h-46.269m46.269-2.193h-46.269" stroke="#fff" stroke-width=".5" stroke-miterlimit="10"/><path d="M481.69 77.914l-.94-1.305a1.979 1.979 0 0 0-2.763-.448l-7.587 5.47a1.981 1.981 0 0 0-.448 2.765l.94 1.305a1.979 1.979 0 0 0 2.763.449l7.587-5.471a1.98 1.98 0 0 0 .448-2.765z" fill="#FF8144"/><path d="M440.461 39.963l31.55 44.911h.119l8.29-5.821.066-.08-31.563-44.924-8.462 5.914z" fill="#DDDBDE"/><path d="M459.037 45.635l-1.228.864 1.245 1.772 1.228-.864-1.245-1.772zm21.835 31.092l-10.987-15.644-1.235.864 11.956 16.946a1.594 1.594 0 0 0 .266-2.166zm-23.314-33.188l-6.417-9.132a1.595 1.595 0 0 0-2.139-.438l7.307 10.434 1.249-.864z" fill="#FF8144"/><path d="M457.551 43.528l-1.228.864 1.474 2.098 1.229-.863-1.475-2.099zm2.726 3.877l-1.228.864 9.602 13.669 1.228-.864-9.602-13.669zm-1.311 21.347l10.986 15.63a1.594 1.594 0 0 0 2.112.466L460.108 67.9l-1.142.851zm-18.718-26.689l6.416 9.131 1.209-.837-7.333-10.434a1.595 1.595 0 0 0-.292 2.14zm9.094 10.386l-1.207.848 1.245 1.772 1.207-.848-1.245-1.772z" fill="#FF8144"/><path d="M447.867 50.347l-1.207.849 1.475 2.099 1.206-.849-1.474-2.099zm2.715 3.873l-1.207.847 9.602 13.67 1.207-.85-9.602-13.668z" fill="#FF8144"/><path d="M443.543 37.81l31.55 44.924M444.805 36.92l31.563 44.924M446.08 36.03l31.55 44.923" stroke="#fff" stroke-width=".5" stroke-miterlimit="10"/><path d="M195.48 147.157l-1.542 2.213 11.889 8.292 1.542-2.213-11.889-8.292zm-3.37 4.837l-9.086 13.039.093.079 11.65 8.135.146.079L204 160.288l-11.89-8.294zm27.154-13.637l14.745-21.159-.119-.106-11.651-8.121h-.106l-14.759 21.106 11.89 8.28z" fill="#FF8144"/><path d="M193.944 149.38l-1.831 2.627 11.889 8.293 1.831-2.628-11.889-8.292zm13.439-19.294l-11.897 17.075 11.89 8.292 11.897-17.075-11.89-8.292zm-13.437 16l-1.542 2.213 1.536 1.072 1.543-2.213-1.537-1.072zm25.504-36.623L205.846 129l1.528 1.077 14.759-21.173a2.005 2.005 0 0 0-2.683.559zm-28.827 41.455l-7.971 11.417a1.993 1.993 0 0 0 .399 2.658l9.086-13.038-1.514-1.037z" fill="#F65727"/><path d="M192.399 148.301l-1.831 2.628 1.537 1.072 1.83-2.628-1.536-1.072zm13.447-19.291l-11.897 17.075 1.537 1.072 11.897-17.075-1.537-1.072z" fill="#E04527"/><path d="M220.778 139.421l13.603-19.472a1.992 1.992 0 0 0-.372-2.658l-14.745 21.16 1.514.97zm-23.221 33.321l7.971-11.404-1.502-1.05-9.086 13.039a2.009 2.009 0 0 0 2.617-.585zm9.818-17.291l-1.542 2.214 1.504 1.048 1.542-2.213-1.504-1.049z" fill="#F65727"/><path d="M205.383 157.443l-1.825 2.627 1.504 1.045 1.824-2.626-1.503-1.046zm13.412-19.265l-11.858 17.068 1.503 1.045 11.858-17.067-1.503-1.046z" fill="#E04527"/><path d="M295.144 174.47h2.577a2.565 2.565 0 0 0 2.564-2.565v-11.67a2.564 2.564 0 0 0-2.564-2.565h-2.577a2.564 2.564 0 0 0-2.564 2.565v11.67a2.565 2.565 0 0 0 2.564 2.565z" fill="#905744"/><path d="M297.734 172.742H229.28a.722.722 0 0 1 0-.147v-12.879h68.467l-.013 13.026z" fill="#DDDBDE"/><path d="M278.618 157.643h-2.71v1.901h2.71v-1.901zm-47.372 0h23.832v1.887h-25.825a2.008 2.008 0 0 1 1.993-1.887zm50.573 0h13.922a2.007 2.007 0 0 1 1.993 1.887h-15.941l.026-1.887z" fill="#905744"/><path d="M281.819 157.643h-3.201v1.901h3.201v-1.901zm-5.911 0h-20.83v1.901h20.83v-1.901zm-20.83 16.8h-23.832a2.018 2.018 0 0 1-1.993-1.86h25.825v1.86zm40.663 0h-13.922v-1.86h15.942a2.02 2.02 0 0 1-2.02 1.86zm-17.123-1.808h-2.71v1.861h2.71v-1.861z" fill="#905744"/><path d="M281.819 172.635h-3.201v1.861h3.201v-1.861zm-5.911 0h-20.83v1.861h20.83v-1.861z" fill="#905744"/><path d="M297.734 160.088h-68.481m68.481 12.016h-68.481" stroke="#774436" stroke-miterlimit="10"/><path d="M297.734 167.983h-68.481m68.481-1.966h-68.481m68.481-1.955h-68.481" stroke="#fff" stroke-width=".5" stroke-miterlimit="10"/><path d="M291.158 157.032h2.909a2.378 2.378 0 0 0 2.378-2.379v-9.796a2.378 2.378 0 0 0-2.378-2.379h-2.909a2.379 2.379 0 0 0-2.378 2.379v9.796a2.379 2.379 0 0 0 2.378 2.379z" fill="#FF8144"/><path d="M294.161 155.529h-57.322a.366.366 0 0 1 0-.132v-11.178h57.335l-.013 11.31z" fill="#DDDBDE"/><path d="M278.153 142.491h-2.258v1.635h2.258v-1.635zm-39.707.053h19.927v1.635h-21.561a1.718 1.718 0 0 1 1.634-1.635zm42.39 0H292.5a1.715 1.715 0 0 1 1.66 1.635h-13.284l-.04-1.635zm0-.053h-2.683v1.635h2.683v-1.635zm-4.955 0h-17.442v1.635h17.442v-1.635zm-17.442 14.554h-19.993a1.726 1.726 0 0 1-1.674-1.608h21.627l.04 1.608zm34.061 0h-11.664v-1.608h13.285a1.7 1.7 0 0 1-1.621 1.608zm-14.347-1.608h-2.258v1.608h2.258v-1.608zm2.683 0h-2.683v1.608h2.683v-1.608z" fill="#FF8144"/><path d="M275.881 155.437h-17.442v1.608h17.442v-1.608z" fill="#FF8144"/><path d="M294.16 144.604h-57.348m57.348 10.381h-57.348" stroke="#F65727" stroke-miterlimit="10"/><path d="M294.16 151.423h-57.348m57.348-1.688h-57.348m57.348-1.701h-57.348" stroke="#fff" stroke-width=".5" stroke-miterlimit="10"/><path d="M213.968 173.261l.94-1.304a1.982 1.982 0 0 0-.449-2.765l-7.587-5.471a1.98 1.98 0 0 0-2.763.449l-.94 1.305a1.98 1.98 0 0 0 .449 2.764l7.587 5.471c.887.64 2.124.439 2.763-.449z" fill="#FF8144"/><path d="M244.397 127.525l-31.55 44.911h-.119l-8.29-5.821a.268.268 0 0 1 0-.08l31.55-44.924 8.409 5.914z" fill="#DDDBDE"/><path d="M225.825 133.201l-1.245 1.772 1.228.864 1.245-1.773-1.228-.863zm-21.838 31.088l10.986-15.644 1.235.864-11.956 16.946a1.609 1.609 0 0 1-.265-2.166zm23.314-33.188l6.416-9.131a1.609 1.609 0 0 1 2.152-.439l-7.346 10.38-1.222-.81z" fill="#FF8144"/><path d="M226.39 130.014l-1.462 2.103 1.231.856 1.462-2.103-1.231-.856zm-1.817 4.97l-9.602 13.669 1.228.863 9.602-13.668-1.228-.864zm1.293 21.33l-10.986 15.63a1.594 1.594 0 0 1-2.112.466l11.955-16.947 1.143.851zm18.744-26.689l-6.416 9.131-1.196-.837 7.32-10.447a1.606 1.606 0 0 1 .292 2.153zm-9.096 10.399l-1.245 1.772 1.206.849 1.245-1.773-1.206-.848zm1.48-2.107l-1.475 2.099 1.207.848 1.474-2.098-1.206-.849z" fill="#FF8144"/><path d="M233.341 140.604l-9.518 13.7 1.21.841 9.518-13.7-1.21-.841z" fill="#FF8144"/><path d="M241.316 125.372l-31.551 44.924m30.288-45.815l-31.563 44.925m30.301-45.828l-31.563 44.937" stroke="#fff" stroke-width=".5" stroke-miterlimit="10"/><g opacity=".65" fill="#DDDBDE"><path opacity=".65" d="M390.937 145.083a.959.959 0 0 1 .385-.08c.598 0 1.328.332 3.095 4.466a2.4 2.4 0 0 0 1.329 1.329 6.16 6.16 0 0 1 1.328.678c3.427-.279 6.257-3.868 7.054-8.201a14.618 14.618 0 0 1-.797-4.745c.002-.725.06-1.449.173-2.166a7.494 7.494 0 0 0-6.868-4.971c-4.265 0-7.718 3.854-7.718 9.41a13.4 13.4 0 0 0 1.487 6.141c-.079-1.582.186-1.741.532-1.861zm3.786 13.41a4.583 4.583 0 0 0-.571-1.648 9.008 9.008 0 0 0-1.422-.93 4.84 4.84 0 0 1-2.046-3.283 127.095 127.095 0 0 1-.491-3.788v-.08a81.08 81.08 0 0 0-3.667 2.579c-1.74 1.329-1.62 2.445-1.554 2.738a29.97 29.97 0 0 0 3.866 9.117h5.685c.231-1.557.297-3.134.2-4.705z"/><path opacity=".65" d="M398.761 156.327a5.691 5.691 0 0 0-3.64-4.865 3.207 3.207 0 0 1-1.793-1.688c-.691-1.621-1.926-4.24-2.458-3.987-.531.253.146 4.28.505 6.646a3.992 3.992 0 0 0 1.714 2.764 8.258 8.258 0 0 1 1.66 1.13 5.32 5.32 0 0 1 .744 2.033 23.2 23.2 0 0 1-.305 4.745h4.091l-.518-6.778z"/><path opacity=".65" d="M403.079 153.895c.571-1.329 2.882-3.203 4.357-4.373l.252-.798a8.616 8.616 0 0 1-1.222-1.01 26.876 26.876 0 0 0-1.807-.478 10.677 10.677 0 0 0-1.474-.093 8.802 8.802 0 0 1-5.726 4.918 6.484 6.484 0 0 1 2.059 4.213l.518 6.885h3.136c-.319-4.333-.519-8.347-.093-9.264z"/><path opacity=".65" d="M428.598 147.953c-1.435-1.834-4.411-2.445-4.411-2.591l-3.254-.253a6.228 6.228 0 0 1-2.232-.943c-1.488 3.402-4.224 5.768-7.306 5.768a6.45 6.45 0 0 1-2.538-.545c-.558.412-4.397 3.336-5.088 4.825-.372.797-.159 4.691.2 8.945h17.495c2.737-.492 9.166-12.64 7.134-15.206zm-45.632-11.802l1.94-1.701 2.51.624-1.023-2.365 1.369-2.193-2.577.239-1.648-1.981-.571 2.526-2.391.957 2.218 1.316.173 2.578zm-1.249 7.456l.545-1.821 1.807-.598-1.568-1.076v-1.901l-1.514 1.156-1.807-.585.638 1.795-1.129 1.542 1.913-.054 1.115 1.542zm18.399-13.424l1.568-.81 1.554.837-.292-1.741 1.275-1.236-1.74-.266-.771-1.582-.797 1.582-1.753.239 1.262 1.236-.306 1.741zm20.777 3.39l1.567-.811 1.568.837-.292-1.741 1.275-1.236-1.754-.266-.77-1.582-.784 1.582-1.753.239 1.262 1.25-.319 1.728z"/><path opacity=".65" d="M405.828 145.123l.426.691a6.934 6.934 0 0 0 5.526 3.362c4.277 0 7.731-5.143 7.731-10.632 0-5.49-3.454-9.424-7.718-9.424-4.264 0-7.731 3.868-7.731 9.424a13.294 13.294 0 0 0 1.766 6.579z"/></g><path opacity=".5" d="M395.161 120.76l42.43 30.889v-25.466l-.465-3.057-.558-1.502-1.793-.864h-39.614z" fill="#fff"/><path d="M259.09 115.75c.81 0 1.461 1.116 1.461 2.512 0 1.395-.651 2.512-1.461 2.512s-1.461-1.13-1.461-2.512c0-1.383.651-2.512 1.461-2.512zm6.602 13.264c-3.666 4.811-.73 7.124 4.517 7.124a8.09 8.09 0 0 0 6.111-2.233.898.898 0 0 1 1.328 1.21 9.818 9.818 0 0 1-7.399 2.791c-6.815 0-10.468-3.988-5.912-9.969a.88.88 0 0 1 1.449.48.874.874 0 0 1-.094.597z" fill="#F65727"/><path d="M250.721 123.937s-1.103 1.701 1.527 1.701a44.73 44.73 0 0 0 4.796-.372 8.37 8.37 0 0 0 1.926 1.196c-5.034 5.715-3.427 16.082 4.61 16.082h12.753c9.91 0 11.531-15.949 6.297-21.478 0 0-3.096 5.968-5.859 5.968h-7.904c-5.141 0 2.219-2.034 2.219-7.324 0-4.187-3.76-7.563-8.383-7.563-4.623 0-8.754 3.39-8.369 8.121-3.494 1.967-5.314 1.409-5.314 1.409s.253 1.861 1.701 2.26zm6.908-5.662c0-1.329.651-2.512 1.461-2.512s1.461 1.116 1.461 2.512c0 1.395-.651 2.512-1.461 2.512s-1.461-1.143-1.461-2.526v.014z" fill="#FF8144"/><path d="M265.772 128.083s-3.095 2.393-2.564 4.666a5.787 5.787 0 0 0 2.613 3.818 5.778 5.778 0 0 0 4.574.687 17.515 17.515 0 0 0 7.253-3.283" stroke="#F65727" stroke-miterlimit="10" stroke-linecap="round"/><path d="M127.668 154.506c-.598 0-1.089.824-1.089 1.861s.491 1.861 1.089 1.861 1.076-.837 1.076-1.861c0-1.023-.478-1.861-1.076-1.861zm-4.902 9.809c2.657 3.562.545 5.317-3.334 5.317a6.059 6.059 0 0 1-4.53-1.688.653.653 0 1 0-.956.89 7.333 7.333 0 0 0 5.499 2.074c5.035 0 7.745-2.964 4.371-7.39a.672.672 0 0 0-.436-.255.67.67 0 0 0-.488.129.666.666 0 0 0-.254.435.655.655 0 0 0 .128.488z" fill="#98ACB3"/><path d="M135.107 158.892s-1.328.412-3.985-1.05c.292-3.495-2.869-6.021-6.19-6.021a5.937 5.937 0 0 0-6.217 5.609c0 3.988 5.459 5.436 1.647 5.436h-5.779c-2.046 0-4.344-4.426-4.344-4.426-3.879 4.094-2.657 15.95 4.663 15.95h9.458c5.939 0 7.147-7.682 3.414-11.962a6.765 6.765 0 0 0 1.422-.891c1.172.148 2.352.232 3.534.253 1.939 0 1.129-1.25 1.129-1.25 1.076-.279 1.248-1.648 1.248-1.648zm-7.439-.678c-.598 0-1.089-.837-1.089-1.86 0-1.024.491-1.861 1.089-1.861s1.076.824 1.076 1.861c0 1.036-.478 1.86-1.076 1.86z" fill="#DDDBDE"/><path d="M123.138 163.81s2.219 1.715 1.847 3.336a4.152 4.152 0 0 1-3.453 3.324 4.144 4.144 0 0 1-1.688-.094 12.354 12.354 0 0 1-5.194-2.353" stroke="#98ACB3" stroke-miterlimit="10" stroke-linecap="round"/><path d="M97.792 158.653c-.465 0-.85.665-.85 1.476 0 .81.385 1.475.85 1.475.465 0 .863-.665.863-1.475 0-.811-.385-1.476-.863-1.476zm-3.866 7.816c2.152 2.804.438 4.16-2.657 4.16a4.735 4.735 0 0 1-3.587-1.329.518.518 0 0 0-.757.704 5.755 5.755 0 0 0 4.344 1.635c3.985 0 6.124-2.339 3.454-5.835a.52.52 0 0 0-.73-.067.522.522 0 0 0-.067.732z" fill="#98ACB3"/><path d="M103.677 162.136a4.334 4.334 0 0 1-3.096-.824 4.916 4.916 0 0 0-8.15-3.547 4.922 4.922 0 0 0-1.653 3.214c0 3.11 4.304 4.293 1.328 4.293h-4.65c-1.607 0-3.427-3.495-3.427-3.495-3.055 3.243-2.112 12.573 3.693 12.573h7.466c4.69 0 5.646-6.061 2.657-9.41a4.794 4.794 0 0 0 1.116-.704c.93.115 1.866.182 2.803.199 1.527 0 .89-.984.89-.984.877-.226 1.023-1.315 1.023-1.315zm-5.885-.532c-.465 0-.85-.665-.85-1.475 0-.811.385-1.476.85-1.476.465 0 .863.665.863 1.476 0 .81-.385 1.475-.863 1.475z" fill="#DDDBDE"/><path d="M94.444 165.977s1.754 1.329 1.448 2.658a3.257 3.257 0 0 1-3.985 2.552 9.95 9.95 0 0 1-4.105-1.861" stroke="#98ACB3" stroke-miterlimit="10" stroke-linecap="round"/><path d="M260.139 87.067h-98.835c-3.201 0-2.79-2.273-2.79-5.037v-.758c0-2.778 2.657-5.037 5.832-5.037h91.237c3.201 0 5.818 2.26 5.818 5.037v.758c0 2.764 1.94 5.037-1.262 5.037z" fill="#E04527"/><path d="M238.273 46.848h-69.702c-2.431 0-5.739-2.352-4.424-4.373.199-.305 1.328-.61 1.328-.61 0-2.407.665-4.387 3.096-4.387h69.702c2.431 0 3.202 1.9 3.202 4.306.435.179.845.41 1.222.691 2.391 2.659-1.993 4.373-4.424 4.373zm9.193 29.932h-81.911c-3.64 0-8.077-2.658-5.925-5.423.319-.412 1.329-1.409 1.329-1.409l-1.993-2.02c0-3.416 2.896-5.184 6.536-5.184h81.911a6.445 6.445 0 0 1 6.642 6.207v1.609a6.458 6.458 0 0 1-6.589 6.22z" fill="#F65727"/><path d="M238.805 62.797H168.85a6.401 6.401 0 0 1-6.403-6.366v-3.283a6.394 6.394 0 0 1 6.403-6.3h69.955c3.52 0 8.435 3.496 6.403 6.353-.412.572-2.657.93-2.657.93s2.298 1.503 2.657 2.3c1.461 3.137-2.883 6.367-6.403 6.367z" fill="#FF8144"/><path d="M160.507 64.406a3.767 3.767 0 0 0-1.569 3.057 3.761 3.761 0 0 0 1.569 3.057c1.674 1.329 4.078 1.329 6.084 1.25 3.202 0 6.403-.24 9.605-.373 13.417-.545 26.861-1.063 40.211.625.851.12.837-1.223 0-1.33a183.126 183.126 0 0 0-28.056-1.063c-4.689.12-9.379.333-14.081.519a506.02 506.02 0 0 1-6.39.252c-1.089 0-2.232.12-3.308 0-2.019-.16-6.642-2.658-3.441-4.878.691-.491 0-1.634-.677-1.156l.053.04z" fill="#E04527"/><path d="M162.725 76.686c9.087 1.861 18.24.851 27.419.44 9.18-.413 18.2-.267 27.286-.333 8.476-.067 16.938 0 25.413.146 2.657 0 5.845.585 8.117-1.103 1.514-1.13 3.268-3.496 2.564-5.463-.279-.81-1.554-.465-1.329.346.97 2.751-3.148 4.811-5.061 4.957-1.621.12-3.308 0-4.928-.08a564.47 564.47 0 0 0-10.296-.145c-7.147 0-14.28 0-21.414.08-7.625.066-15.277 0-22.902.398-8.223.452-16.433 1.143-24.576-.518-.824-.173-1.183 1.116-.346 1.329l.053-.053z" fill="#E04527"/><path d="M207.812 56.737c-12.659.837-25.412 1.581-37.926-1.104v1.33c11.464-4.32 24.562-3.403 36.598-3.19 12.501.226 24.988.797 37.475.704a.666.666 0 0 0 .47-1.134.666.666 0 0 0-.47-.195c-12.912.106-25.825-.518-38.737-.718-11.77-.186-24.483-.983-35.682 3.257-.571.212-.704 1.13 0 1.329 12.62 2.658 25.48 2.007 38.272 1.156.851 0 .851-1.329 0-1.329v-.106z" fill="#F65727"/><path d="M306.542 67.263c.531-3.655 1.66-7.974 1.66-7.974-9.219-.705-18.093-6.646-26.569-15.538 1.076.213 1.555-2.113 2.657-1.953.412-3.988 1.408-5.317 1.807-9.132-8.808-3.389-17.575-8.918-26.303-14.354a64.996 64.996 0 0 0-8.954 2.18l-19.926 10.991a83.285 83.285 0 0 0-9.538 9.304 5504.387 5504.387 0 0 1-3.986 30.304c-.172.425-.252.731-.106.744a42.107 42.107 0 0 0 19.369-4.133l1.036-3.137c8.342 9.158 13.43 14.767 22.464 22.29 0 0 12.567 1.448 18.691.97a130.54 130.54 0 0 0 17.761-2.659c.398 0 .624-.093.637-.225 4.145-3.695 6.842-5.104 10.894-9.504 0 0-2.113-4.532-1.594-8.174zm1.66 7.816s-.013.027 0 0z" fill="#332F2F"/><path d="M296.897 80.993H279.88l-17.522 2.99 3.547 4.64s11.956.757 18.199 0c15.291-1.901 14.281-3.23 14.281-3.23l12.474-12.653s-2.378-4.652-2.126-8.52c.141-2.332.629-4.63 1.448-6.819a1.096 1.096 0 0 0-.009-1.014 1.096 1.096 0 0 0-.841-.567l-10.973-.186-1.461 25.36z" fill="#98ACB3"/><path d="M229.147 32.454l3.56-5.636 20.086-11.51 30.992 15.657-2.205 8.094 5.181 6.646 13.603 9.118 5.128 2.658 1.607 2.924-3.985 3.854 2.351 13.93-5.127 5.316-11.956 1.502-12.607-1.103-9.299 2.246-27.525-27.42-.385 5.995a41.246 41.246 0 0 1-19.568 4.32c-.532 0 1.634-3.67 1.235-3.842-1.607-.744 2.192-7.603 2.538-10.354 1.262-10.327 6.376-22.395 6.376-22.395z" fill="#98ACB3"/><path d="M218.998 69.044a48.372 48.372 0 0 1 19.568-4.32c.345-1.102.704-2.206 1.049-3.295 8.436 9.61 17.27 19.298 26.343 27.193.491-.345-1.329-.85 1.328-2.658 11.093-7.749 29.558 2.02 31.112-.532a175.752 175.752 0 0 0 12.474-12.653c-.106.691-11.092-8.347-2.457-16.321a1.79 1.79 0 0 1 .903-.452s.531-.12 0-.186c-8.768-1.25-17.27-7.244-25.4-16.11 1.09.213 2.179.413 3.268.586.416-4.13.824-8.197 1.222-12.202-8.9-3.535-17.761-9.303-26.568-15.045a64.531 64.531 0 0 0-9.047 2.3c4.278 7.043 3.467 13.53-2.099 16.135a15.44 15.44 0 0 1-17.987-4.626 84.312 84.312 0 0 0-9.644 9.703 362617.31 362617.31 0 0 1-4.065 32.483zm74.073-11.762a5.312 5.312 0 0 0-1.488-2.46 5.02 5.02 0 0 1 .811 2.66c-6.828-2.274-2.657-6.912-2.657-6.766 8.21 3.203 3.361 6.38 3.334 6.566zm2.179 2.22c8.754-3.284 10.229-.28 10.242-.134a26.963 26.963 0 0 0-4.052.532c1.256-.1 2.517-.1 3.773 0-6.988 4.227-9.976-.452-9.963-.399zm-24.842-24.43c9.14 2.791 8.343 7.603 8.343 7.682-1-1.06-2.135-1.985-3.375-2.75a16.936 16.936 0 0 1 2.923 3.043 9.192 9.192 0 0 1-7.891-7.975zm-27.126 20.694a8.443 8.443 0 0 0-1.329-3.8c.443 1.28.632 2.634.558 3.987-6.642-3.35-2.032-10.288-2.059-10.221 8.09 5.104 2.856 9.968 2.83 10.035zm8.874 10.408a8.104 8.104 0 0 0-1.329-3.616c.456 1.2.66 2.48.598 3.762-6.775-3.443-2.179-9.77-2.205-9.69 8.196 5.118 2.949 9.464 2.936 9.544zM260.83 49.4a9.546 9.546 0 0 0-1.328-3.668 9.305 9.305 0 0 1 .624 3.668c-6.642-4.572-2.232-9.663-2.245-9.57 8.024 6.394 2.976 9.477 2.949 9.57zm31.883 19.937c8.94-3.735 10.401-.558 10.401-.425a28.479 28.479 0 0 0-4.118.624 22.678 22.678 0 0 1 3.839-.106c-7.054 4.638-10.122-.08-10.096.013l-.026-.106zm-11.545-7.43c8.874-1.754 10.203 2.658 10.216 2.658a17.26 17.26 0 0 0-4.052-.664 18.29 18.29 0 0 1 3.773 1.143c-7.001 2.698-9.923-3.084-9.91-3.07l-.027-.067zM269.08 49.055c8.754-.346 9.963 5.157 9.976 5.143a15.754 15.754 0 0 0-3.985-1.728 18.415 18.415 0 0 1 3.666 2.18c-6.894 1.21-9.644-5.49-9.631-5.529l-.026-.067zM296.977 76.9c9.711-2.194 6.496 2.525 6.483 2.804a5.835 5.835 0 0 0-2.657-.758c.812.2 1.533.668 2.045 1.33-7.864 2.71-5.765-3.51-5.778-3.31l-.093-.066zm-17.19-6.128c9.007-2.379 10.348 2.034 10.362 2.087a17.117 17.117 0 0 0-4.105-.452c1.302.172 2.58.489 3.812.944-7.04 3.15-9.989-2.579-9.976-2.512l-.093-.067zM264.404 58.81c8.927-1.143 10.109 4.625 10.122 4.599a14.124 14.124 0 0 0-3.985-1.555 17.03 17.03 0 0 1 3.773 2.113c-7.068 1.622-9.831-5.037-9.817-5.077l-.093-.08zm16.645 21.651c9.153-3.242 10.521.957 10.534 1.01a18.273 18.273 0 0 0-4.171 0c1.305.036 2.602.22 3.866.545-5.553 2.885-10.149-1.488-10.136-1.475l-.093-.08zM259.236 68.62c9.087-2.02 10.229 4.054 10.242 3.987a12.667 12.667 0 0 0-4.065-1.329 15.172 15.172 0 0 1 3.76 1.861 7.968 7.968 0 0 1-9.844-4.44l-.093-.079zm2.033 10.832c9.219-2.658 10.414 3.15 10.414 3.084a13.363 13.363 0 0 0-4.131-.97c1.344.316 2.634.83 3.826 1.528-7.227 2.805-10.03-3.509-10.016-3.562l-.093-.08z" fill="#DDDBDE"/><path d="M240.877 18.1l13.59.784-1.023-2.659s-3.985-.292-3.985-.279l-8.529-.385-1.155-1.94a5.422 5.422 0 0 0 1.515-5.56 5.421 5.421 0 0 0-7.314-3.417 5.424 5.424 0 0 0-2.597 7.647 1.27 1.27 0 1 0 2.165-1.329 2.937 2.937 0 0 1 4.807-3.325 2.937 2.937 0 0 1-.822 4.468 1.239 1.239 0 0 0-.478 1.688l1.674 3.004-5.593 10.314 1.86 1.807 5.885-10.819z" fill="#98ACB3"/><path d="M328.58 164.062l-10.641 10.594 26.33-.054-15.689-10.54z" fill="#332F2F"/><path d="M145.722 64.406h-39.269a1.951 1.951 0 0 0-1.966 1.954v17.703a1.954 1.954 0 0 0 1.966 1.954h8.834a1.952 1.952 0 0 0 1.953-1.954 8.85 8.85 0 0 1 15.217-6.48 8.849 8.849 0 0 1 2.464 6.48 1.954 1.954 0 0 0 1.967 1.954h8.834a1.952 1.952 0 0 0 1.952-1.954V66.36a1.95 1.95 0 0 0-1.952-1.954z" fill="#DDDBDE"/><path d="M347.258 174.071c17.08 0 30.926-13.853 30.926-30.942 0-17.088-13.846-30.941-30.926-30.941s-30.926 13.853-30.926 30.941c0 17.089 13.846 30.942 30.926 30.942z" fill="#332F2F"/><path d="M356.836 127.565a67.074 67.074 0 0 0-6.084-15.165 30.696 30.696 0 0 0-12.617 1.169 30.7 30.7 0 0 0-11.069 6.168 65.595 65.595 0 0 1 27.897 8.971 5.153 5.153 0 0 1 1.873-1.143zm-19.196 44.964c14.865-9.184 18.598-27.18 19.555-35.474a4.978 4.978 0 0 1-2.023-1.126 4.981 4.981 0 0 1-1.298-1.917c-8.476 1.701-26.848 6.938-35.058 21.266a31.077 31.077 0 0 0 18.824 17.251zm20.71-37.295h.093a3.347 3.347 0 0 0 3.301-3.372 3.346 3.346 0 0 0-5.706-2.354 3.354 3.354 0 0 0-.033 4.721 3.35 3.35 0 0 0 2.345 1.005z" fill="#B86332"/><path d="M317.913 152.858c8.98-13.969 27.153-19.112 35.628-20.814a6.411 6.411 0 0 1 .372-1.674 64.104 64.104 0 0 0-28.84-8.746 30.826 30.826 0 0 0-7.16 31.234zm45.578-21.119a53.265 53.265 0 0 1 13.723 3.695 31.006 31.006 0 0 0-24.005-22.595 65.82 65.82 0 0 1 5.633 14.487 5.089 5.089 0 0 1 4.649 4.413zm7.599 31.088l.518-.651c-1.116-7.975-3.786-18.701-10.189-25.865a4.96 4.96 0 0 1-2.232.891c-.93 8.28-4.596 26.13-18.983 36.045a30.862 30.862 0 0 0 30.886-10.42z" fill="#B86332"/><path d="M377.732 137.866a50.485 50.485 0 0 0-14.413-4.134 5.7 5.7 0 0 1-.505 1.117c6.27 6.938 9.166 16.946 10.494 25.001a30.85 30.85 0 0 0 4.424-21.984z" fill="#B86332"/><path d="M317.939 174.656c7.462 0 13.511-6.052 13.511-13.517 0-7.466-6.049-13.517-13.511-13.517-7.461 0-13.51 6.051-13.51 13.517 0 7.465 6.049 13.517 13.51 13.517z" fill="#FF8144"/><path d="M322.137 154.334a28.786 28.786 0 0 0-2.657-6.646 13.465 13.465 0 0 0-10.348 3.203 28.785 28.785 0 0 1 12.208 3.988c.222-.239.494-.425.797-.545zm-8.409 19.657c6.51-3.987 8.144-11.882 8.555-15.511a2.129 2.129 0 0 1-1.448-1.329c-3.706.745-11.743 3.031-15.33 9.304a13.62 13.62 0 0 0 8.223 7.536z" fill="#FF8144"/><path d="M322.815 157.284a.9.9 0 0 0 .853-.539.897.897 0 0 0 .062-.524.9.9 0 0 0-1.228-.678.91.91 0 0 0-.564.837.904.904 0 0 0 .903.904h-.026zm-17.695 8.108c3.919-6.114 11.863-8.36 15.569-9.105.013-.251.067-.498.16-.731a27.882 27.882 0 0 0-12.607-3.814 13.443 13.443 0 0 0-3.122 13.65zm19.913-9.238c2.064.275 4.083.82 6.005 1.622a13.552 13.552 0 0 0-10.495-9.902 29.424 29.424 0 0 1 2.458 6.327 2.218 2.218 0 0 1 2.032 1.953zm3.321 13.598c.081-.094.156-.192.226-.293-.491-3.495-1.647-8.174-4.45-11.297a2.401 2.401 0 0 1-.97.385c-.412 3.615-2.019 11.417-8.303 15.75a13.49 13.49 0 0 0 13.497-4.545z" fill="#F65727"/><path d="M331.264 158.839a22.204 22.204 0 0 0-6.324-1.807 2.355 2.355 0 0 1-.226.492c2.75 3.03 3.986 7.403 4.597 10.925a13.527 13.527 0 0 0 1.953-9.61z" fill="#FF8144"/><path d="M153.108 47.366h-12.315a2.06 2.06 0 0 0-2.059 2.06v12.321a2.06 2.06 0 0 0 2.059 2.06h12.315a2.06 2.06 0 0 0 2.059-2.06v-12.32a2.06 2.06 0 0 0-2.059-2.06z" fill="#DDDBDE"/><path d="M190.224 124.521l-1.581-1.515-1.461-.85-1.116-1.369-1.408-6.566.199-1.648-2.418-1.303-2.404-4.705-2.484-.266-5.912 5.224-5.592 4.665-.691 7.802.691 3.708-1.82 1.116-1.355 1.476-2.737 3.987-7.745 1.223-5.406-1.834-1.741-.612-4.755-1.887-1.037-1.648-1.501-.97-5.699.265 4.49 4.107 2.803 3.31 1.634 9.543 1.953 3.947 1.993 1.728-4.636 9.61-2.405 4.067.664 5.569 2.989 1.582 3.388-.878 1.86-2.14-.545-4.133 1.567.611.651-2.047 1.01-8.958h1.448l1.382.864 4.583-2.259 7.027 2.166 3.109-.771.797 8.945 1.673 5.463 1.82 3.137h3.972l2.817-3.403v-3.748l-3.932-.798 2.749-1.063-.929-2.206-3.72-10.261 1.9-2.858 1.115-10.805-5.247-4.546-2.152-2.658 5.141-10.673 6.217 4.652 4.557 3.722 1.488.85 3.148-.053 1.594-3.908z" fill="#905744"/><path d="M168.039 168.263a5.902 5.902 0 0 0 7.049 5.787 5.893 5.893 0 0 0 4.634-4.636 5.906 5.906 0 0 0-2.508-6.058 5.891 5.891 0 0 0-3.277-.995 5.916 5.916 0 0 0-5.898 5.902zm2.777 0a3.138 3.138 0 0 1 3.751-3.076 3.132 3.132 0 0 1 2.46 2.472 3.134 3.134 0 0 1-3.09 3.74 3.137 3.137 0 0 1-3.082-3.136h-.039z" fill="#FF8144"/><path d="M173.977 166.761a1.501 1.501 0 1 1 .029 3.003 1.501 1.501 0 0 1-.029-3.003z" fill="#B86332"/><path d="M181.47 111.297a11.101 11.101 0 0 1-.904-1.861c-.571-1.329-1.023-2.446-1.966-2.565-.943-.12-1.514.957-1.886 1.834a3.891 3.891 0 0 1-.598 1.116l-.691.412c-1.767 1.037-5.938 3.456-7.439 7.151-.226.545-.452 1.183-.704 1.887a45.595 45.595 0 0 1-1.9 4.666 14.358 14.358 0 0 1-.584-3.988c0-7.549 5.739-13.69 12.779-13.69a12.345 12.345 0 0 1 9.539 4.599l-2.232 1.675a4.834 4.834 0 0 1-3.414-1.236z" fill="#FF8144"/><path d="M154.901 140.697a8.32 8.32 0 0 1-7.971-7.031c1.609.479 3.278.721 4.955.718a18.113 18.113 0 0 0 3.295-.293 14.262 14.262 0 0 0 7.638-3.801c.09.514.139 1.034.147 1.555a8.514 8.514 0 0 1-8.064 8.852z" fill="#905744"/><path d="M191.778 126.449a3.48 3.48 0 0 1-6.296 2.033 13.06 13.06 0 0 1 3.161-5.476 3.47 3.47 0 0 1 3.135 3.443z" fill="#B86332"/><path d="M136.781 168.263a5.902 5.902 0 0 0 7.049 5.787 5.893 5.893 0 0 0 4.634-4.636 5.906 5.906 0 0 0-2.508-6.058 5.891 5.891 0 0 0-7.447.734 5.901 5.901 0 0 0-1.728 4.173zm2.763 0a3.134 3.134 0 1 1 6.032 1.2 3.136 3.136 0 0 1-6.032-1.2zm-12.168-38.079a9.906 9.906 0 0 1 10.627-1.635 21.58 21.58 0 0 0-1.208 4.373c-7.798 3.721-7.28 10.154-6.616 13.61a11.423 11.423 0 0 1-8.582-6.646c.372-1.17 2.152-6.645 5.779-9.702z" fill="#FF8144"/><path d="M142.679 166.761a1.498 1.498 0 0 1 1.387.927 1.499 1.499 0 0 1-1.094 2.048 1.496 1.496 0 0 1-1.541-.639 1.5 1.5 0 0 1 1.248-2.336zm0-6.035a7.5 7.5 0 0 0-2.191.333l3.374-8.453 1.66-4.546a3.672 3.672 0 0 1 3.282-2.286 3.584 3.584 0 0 1 3.586 3.575 66.688 66.688 0 0 1-1.753 7.045l-1.98 7.296a7.549 7.549 0 0 0-5.978-2.964z" fill="#B86332"/><path d="M154.024 149.363a60.382 60.382 0 0 1-1.527 6.233 20.194 20.194 0 0 0 11.61-.093l-1.249-4.678a5.496 5.496 0 0 1-.212-1.476 5.222 5.222 0 0 1 10.043-1.98l.664 1.821a19.58 19.58 0 0 0 4.596-12.773 30.19 30.19 0 0 0-.823-5.21c-.492-2.658-.2-6.061 1.328-6.513a1.337 1.337 0 0 1 1.103.226 13.574 13.574 0 0 0 4.41 2.659 14.728 14.728 0 0 1 3.202-5.476 44.367 44.367 0 0 1-1.462-4.466c-.345-1.183-.81-2.658-1.076-3.469a6.173 6.173 0 0 1-4.543-1.994 12.594 12.594 0 0 1-1.063-2.153 11.639 11.639 0 0 0-.584-1.329c-.08.186-.173.412-.253.571a4.127 4.127 0 0 1-1.115 1.781 7.03 7.03 0 0 1-.851.519c-1.634.957-5.459 3.19-6.748 6.366-.213.519-.438 1.143-.691 1.821a29.538 29.538 0 0 1-4.583 8.985c.281.985.425 2.005.425 3.03a10.15 10.15 0 0 1-9.751 10.487 10.025 10.025 0 0 1-6.61-2.8 10.039 10.039 0 0 1-3.047-6.504 24.338 24.338 0 0 1-5.792-3.535l-.093-.08a19.942 19.942 0 0 0 3.773 20.282l.717-1.98c.042-.127.091-.251.146-.372a5.223 5.223 0 0 1 5.826-3.09 5.218 5.218 0 0 1 4.204 5.083l.026.107zm25.971-30.105a1.53 1.53 0 0 1 1.272-1.525 1.526 1.526 0 0 1 1.704 1.02 1.046 1.046 0 0 0-1.837.764 1.052 1.052 0 0 0 1.04.977c.106.013.213.013.319 0a1.526 1.526 0 0 1-2.498-1.182v-.054z" fill="#B86332"/><path d="M167.853 145.774a3.574 3.574 0 0 1 3.308 2.193l.106.279 1.528 4.187 3.388 8.612a7.506 7.506 0 0 0-8.17 2.659l-3.561-13.185a3.866 3.866 0 0 1-.172-1.13 3.589 3.589 0 0 1 3.573-3.615z" fill="#B86332"/><path d="M147.781 82.163l-4.65-8.294 2.325-8.36 2.139-6.845 4.304-4.08 11.318-7.178 7.731-1.462h4.318l1.66 3.084.372 3.429v2.406l-2.032 2.964-4.264 5.702-1.076 2.618-3.84 5.33-5.486 5.728-6.058 4.958h-6.761z" fill="#98ACB3"/><path d="M160.374 65.363a.745.745 0 0 1-.385-.306 8.346 8.346 0 0 1-2.086-1.887 20.16 20.16 0 0 1-2.138-3.602c-.784-1.608-1.236-2.446-2.126-2.658a3.041 3.041 0 0 0-2.657.77 3.403 3.403 0 0 0-1.009 2.805c.225 2.366 2.431 5.037 5.619 6.792a15.649 15.649 0 0 0 3.799 1.435h.12c2.492.561 5.046.798 7.598.705a55.09 55.09 0 0 1 1.475-1.968 20.713 20.713 0 0 1-7.997-1.993.593.593 0 0 1-.213-.093zm-5.221-3.775h-1.501l-.876 1.21a.15.15 0 0 1-.127.072.145.145 0 0 1-.072-.02.143.143 0 0 1-.054-.052l-.425-1.502-1.421-.465a.141.141 0 0 1-.053-.054.144.144 0 0 1 .053-.199l1.235-.85v-1.503a.156.156 0 0 1 .026-.069.148.148 0 0 1 .13-.06c.025.001.049.01.07.023l1.182.904 1.435-.452a.133.133 0 0 1 .173.173l-.545 1.395.89 1.223c.021.02.035.046.039.075a.128.128 0 0 1-.014.083.133.133 0 0 1-.145.068z" fill="#fff"/><path d="M176.355 46.688a8.072 8.072 0 0 0-5.938-2.232 14.797 14.797 0 0 0-4.424.73c-6.642 2.114-21.082 14.488-23.712 20.39-3.202 7.203-1.156 14.7 4.968 18.235 5.62 3.243 9.857-.838 11.465-2.393a69.766 69.766 0 0 0 4.769-6.353 20.926 20.926 0 0 1 2.657-3.588 34.02 34.02 0 0 1-6.231-.851 21.293 21.293 0 0 1-3.161 6.645 6.362 6.362 0 0 1-4.849 2.446 6.285 6.285 0 0 1-3.574-1.21 8.247 8.247 0 0 1-3.108-7.522 10.629 10.629 0 0 1 4.822-6.646 7.648 7.648 0 0 1-1.435-3.655 4.937 4.937 0 0 1 1.475-3.987 4.515 4.515 0 0 1 3.852-1.143c1.687.265 2.391 1.714 3.215 3.389.12.253.239.505.372.758a3.07 3.07 0 0 0 1.328-2.792v-.85a6.053 6.053 0 0 1 .133-2.42c.771-2.538 5.407-6.193 9.299-7.363a6.362 6.362 0 0 1 8.469 6.089 6.367 6.367 0 0 1-1.308 3.787c-1.847 2.897-5.753 7.363-8.449 7.044a13.816 13.816 0 0 0-2.232-.093 3.986 3.986 0 0 0-3.082 1.156 21.726 21.726 0 0 0 8.276 1.848c2.391-2.579 6.974-8.68 7.971-12.069a7.699 7.699 0 0 0-1.568-7.35z" fill="#fff"/><path d="M150.902 65.456c-1.926 1.329-3.985 3.469-4.264 5.715a6.747 6.747 0 0 0 2.498 6.114c.797.571 3.626 2.18 6.443-1.05a19.948 19.948 0 0 0 2.829-6.247 17.77 17.77 0 0 1-3.48-1.396 15.505 15.505 0 0 1-4.026-3.136zm7.294-4.493c.263.462.556.906.876 1.33.378.48.826.901 1.329 1.249a5.014 5.014 0 0 1 3.892-1.821c.518-1.05 1.328-3.123.372-4.147-.956-1.023-2.484-1.21-4.291-.345a4.586 4.586 0 0 1-2.178 3.734z" fill="#98ACB3"/><path d="M167.162 61.76c1.462.16 4.743-2.804 7.028-6.366a4.894 4.894 0 0 0-2.306-7.848 4.885 4.885 0 0 0-3.167.113c-3.733 1.103-7.772 4.492-8.356 6.38a4.381 4.381 0 0 0-.093 1.568 4.553 4.553 0 0 1 5.473.97c1.328 1.476.704 3.748.159 5.09.399.014.811.04 1.262.094z" fill="#332F2F"/><path d="M172.994 37.212l-2.843-2.432-.624-2.26 1.568-2.233 2.205-1.794 1.421-.558 4.783-.837 3.108-2.26 1.236-.824 3.161-1.488.332-1.941 1.236-1.98 3.56-4.054 2.949.239.704 2.246 6.35 3.868 3.999 6.552 12.221 5.157-.226 1.476-4.011 1.635-13.776.877-7.918 2.512-9.379.12-4.45-.226-5.606-1.795z" fill="#98ACB3"/><path d="M190.33 19.083c1.515-2.539 2.232-3.748 4.756-4.293a3.99 3.99 0 0 0-.903-3.07 3.534 3.534 0 0 0-2.272-1.33h-.173c-.823 0-1.82 3.682-2.245 5.317a26.22 26.22 0 0 1-.916 2.924c-.12.255-.253.503-.399.744.462.327.941.628 1.435.904.266-.438.505-.837.717-1.196z" fill="#98ACB3"/><path d="M192.921 29.862a6.719 6.719 0 0 0 5.234-.571 2.662 2.662 0 0 0 1.102-1.848 3.36 3.36 0 0 0-.664-2.392 4.236 4.236 0 0 0-3.082-1.33 17.653 17.653 0 0 1-8.17-3.15 19.42 19.42 0 0 1-3.493 3.43 18.036 18.036 0 0 0 9.073 5.861zm-.346-4.505l1.488.172.97-1.143a.135.135 0 0 1 .12-.075.133.133 0 0 1 .119.075l.306 1.462 1.328.585a.148.148 0 0 1 .073.126.149.149 0 0 1-.073.126l-1.328.745-.12 1.489a.145.145 0 0 1-.092.117.145.145 0 0 1-.147-.024l-1.116-1.01-1.448.345a.145.145 0 0 1-.138-.053.152.152 0 0 1-.031-.07.153.153 0 0 1 .01-.076l.611-1.33-.784-1.329a.146.146 0 0 1 .252-.132z" fill="#DDDBDE"/><path d="M204.531 34.966a128.68 128.68 0 0 1-17.469 3.482h-.172c-1.766.18-3.541.237-5.314.173a22.232 22.232 0 0 1-11.438-3.855c.08.16.319 1.33.399 1.41 1.023 1.834 6.11 4.359 9.923 4.572a49.887 49.887 0 0 0 15.729-1.742 52.14 52.14 0 0 1 19.395-1.249 2.018 2.018 0 0 0 2.152-1.409c.133-.505.292-1.754.385-2.273a49.675 49.675 0 0 0-13.59.89z" fill="#332F2F"/><path d="M216.275 17.967a15.62 15.62 0 0 1-7.333 2.1 13.466 13.466 0 0 1-6.204-2.207c-1.913-1.063-3.72-2.06-5.872-1.847-3.175.319-3.533.93-5.314 3.828a29.33 29.33 0 0 1-.65 1.09 13.609 13.609 0 0 0 4.689 1.329 5.67 5.67 0 0 1 4.105 1.86 4.797 4.797 0 0 1 .996 3.51 3.978 3.978 0 0 1-.536 1.621c-.293.496-.69.922-1.164 1.25a6.96 6.96 0 0 1-4.464 1.089 13.228 13.228 0 0 1-1.953-.266 17.885 17.885 0 0 1-7.213-3.721c-1.554 1.329-4.092 3.216-6.403 3.322a5.883 5.883 0 0 1-.97 0 5.612 5.612 0 0 1-4.636-2.432 12.74 12.74 0 0 0-2.126 1.037 3.307 3.307 0 0 0-1.647 2.99c6.974 5.317 13.152 4.798 17.27 4.466h.172a128.409 128.409 0 0 0 17.27-3.442 50.602 50.602 0 0 1 14.201-.917 35.903 35.903 0 0 0-2.218-14.66z" fill="#DDDBDE"/><path d="M178.932 29.437a10.25 10.25 0 0 0 5.314-2.831 17.766 17.766 0 0 1-1.594-1.768c-.306.173-.598.332-.89.465a43.447 43.447 0 0 1-4.849 1.86l-2.152.772a4.747 4.747 0 0 0 4.171 1.502z" fill="#98ACB3"/><path d="M108.924 46.848h45.698a2.178 2.178 0 0 0 2.218-2.767 2.181 2.181 0 0 0-.757-1.127l-22.849-19.605a2.19 2.19 0 0 0-2.829 0l-22.889 19.605a2.166 2.166 0 0 0 1.408 3.894zm-8.914 21.638H88.798a1.874 1.874 0 0 0-1.873 1.874v11.218c0 1.035.839 1.874 1.873 1.874h11.212c1.035 0 1.873-.84 1.873-1.874V70.36a1.873 1.873 0 0 0-1.873-1.874zm23.965-21.12h-12.314a2.059 2.059 0 0 0-2.059 2.06v12.321a2.06 2.06 0 0 0 2.059 2.06h12.314a2.06 2.06 0 0 0 2.059-2.06v-12.32a2.06 2.06 0 0 0-2.059-2.06z" fill="#DDDBDE"/><path d="M81.89 57.68l-.61.97 4.277 3.868 4.184.744.479-1.05-1.515-2.113-6.814-2.419zm-18 5.064l-1.54.266-.346.625-1.023.452-.505 1.063 3.095 3.429 13.896 8.852 11.942 5.582 4.743 1.608 1.408-.345.624-.997.173-1.741-.611-1.436-11.106-6.539-20.75-10.819z" fill="#FF8144"/><path d="M60.436 65.163a4.574 4.574 0 0 0 1.554 3.788 118.35 118.35 0 0 0 8.808 7.975 4.69 4.69 0 0 1 2.032 4.2 30.482 30.482 0 0 1-.903 4.067.28.28 0 0 0 .492.252 15.201 15.201 0 0 1 3.029-2.977 5.311 5.311 0 0 1 4.61-.532 118.053 118.053 0 0 0 11.49 3.07 4.58 4.58 0 0 0 3.985-.73 124.742 124.742 0 0 1-18.266-8.188 125.732 125.732 0 0 1-16.83-10.925z" fill="#E04527"/><path d="M95.746 80.076a14.085 14.085 0 0 0-.584-.691 30.304 30.304 0 0 1-5.726-7.829 10.16 10.16 0 0 1 .305-8.32 148.662 148.662 0 0 1-4.264-2.193c-1.421-.77-2.83-1.595-4.198-2.419a10.167 10.167 0 0 1-6.828 4.771c-3.233.328-6.497.14-9.67-.558 0 0-.678-.04-.89-.04a121.025 121.025 0 0 0 31.855 17.279z" fill="#FF8144"/><path d="M90.22 62.212c1.102-2.512.664-4.332-1.608-5.781l2.963-5.45c1.98-.81 3.67-2.2 4.849-3.987a2.915 2.915 0 0 0-1.15-3.954 2.91 2.91 0 0 0-3.952 1.15 10.639 10.639 0 0 0-.69 6.22l-2.963 5.45c-2.444-1.144-4.238-.532-5.778 1.767 2.696 1.688 5.5 3.203 8.329 4.585z" fill="#98ACB3"/><path d="M96.184 83.28a3.35 3.35 0 0 0 .12-1.742 121.174 121.174 0 0 1-17.735-7.882 122.802 122.802 0 0 1-16.273-10.633 3.23 3.23 0 0 0-1.328 1.077 124.08 124.08 0 0 0 35.216 19.18z" fill="#F65727"/><path d="M299.554 175.028c18.12.292 36.24.279 54.359.093a.665.665 0 0 0 0-1.329c-18.119.186-36.239.199-54.359-.093a.668.668 0 0 0-.47.194.668.668 0 0 0 0 .94.665.665 0 0 0 .47.195zm-117.34-54.6a1.102 1.102 0 1 0 0-2.205 1.102 1.102 0 0 0 0 2.205z" fill="#332F2F"/></svg>