<svg width="545" height="537" viewBox="0 0 545 537" fill="none" xmlns="http://www.w3.org/2000/svg"><path d="M172.84 535.47c-38.32-.33-61-36.36-30.67-78.09 34.13-46.95 215.71-282.22 246.32-322.9 23.92-31.79 74.16-75.9 109.78-40.85 57.63 56.71-6.49 57.92 27.59 159.37 42.45 126.37-19.58 226.07-76.44 251.13-89.77 39.59-215.77 31.87-276.58 31.34z" fill="#F2F5F6"/><path d="M417.73 456.79s-18.11 7.77-45.74 10.45c-17.16 1.67-53.45-7-53.45-7l-1.62 73.42c-.06 2.43 47.09-4.69 49.11-5.28l28.71-5 22.99-66.59z" fill="#494747"/><path d="M330.78 534.33a.513.513 0 0 0 .36-.143.492.492 0 0 0 .15-.357l-.5-28.29c2.05-.72 12.42-4.88 14.37-15.2 2.18-11.48-11.6-19-12.19-19.35a.505.505 0 0 0-.716.594c.04.127.128.234.246.296.13.07 13.71 7.52 11.68 18.27-2.03 10.75-13.91 14.51-14 14.55l-.35.11-.52 29c0 .27 1.22.5 1.5.51l-.03.01z" fill="#fff"/><path d="M369.01 523.14l25.73.27c2.38-.14 29-7 28.75-9.41l-5.76-57.21-48.72 66.35z" fill="#494747"/><path d="M422.37 501.3a.507.507 0 0 0 .496-.606.5.5 0 0 0-.406-.384c-22.15-3.91-19.33-29-19.2-30.08a.498.498 0 0 0-.807-.451.521.521 0 0 0-.193.331c0 .27-3.07 27.11 20 31.19h.11z" fill="#fff"/><path d="M351.89 316.14s-32.53 2.89-49.64 26c-8.29 11.22-30 47.76-41.18 66.16l3.91 2.42 49.32 19.25 4.23 31.64s16.74 6 42.32 6.12c20 .09 57.81-5 57.81-5L425 345.12a19.899 19.899 0 0 0-11-19.14l-33-11.75-29.11 1.91z" fill="#98ACB3"/><path d="M368.25 475.01c14 .07 23-2.06 30.88-3.94l3.74-.87c9.81-2.21 16.13-4.2 16.19-4.22a.522.522 0 0 0 .33-.64.5.5 0 0 0-.63-.32c-.07 0-6.35 2-16.11 4.2l-3.75.87c-13.9 3.3-31.2 7.39-73.28-1.22a.522.522 0 0 0-.6.39.502.502 0 0 0 .4.59c18.39 3.77 32.08 5.12 42.83 5.16z" fill="#fff"/><path d="M381.261 255.273l-29.48-.134-.28 61.83 29.479.133.281-61.829z" fill="#FCC5A7"/><path d="M381.26 257.22l-18.38-.08-.08 17.27a24.209 24.209 0 0 0 18.28 23.57l.18-40.76z" fill="#E69880"/><path d="M378.37 292.55a26.773 26.773 0 0 1-26.63-26.9l.11-22.47a26.753 26.753 0 0 1 26.87-26.63 26.75 26.75 0 0 1 26.63 26.87l-.09 20.09v2.38a26.766 26.766 0 0 1-2.075 10.242 26.765 26.765 0 0 1-24.815 16.418z" fill="#FCC5A7"/><path d="M363.285 263.75c2.746-1.562 3.28-5.801 1.193-9.469-2.087-3.667-6.004-5.374-8.75-3.811-2.745 1.562-3.28 5.802-1.193 9.469 2.087 3.667 6.004 5.374 8.75 3.811zm17.72 53.366c.009-2.087-6.582-3.81-14.723-3.847-8.141-.037-14.748 1.626-14.757 3.713-.01 2.088 6.582 3.81 14.723 3.847 8.14.037 14.747-1.625 14.757-3.713z" fill="#FCC5A7"/><path d="M378.65 345.41a44.411 44.411 0 0 0 2.47-27.88l-.1-.43-29.37.32 6.1 9.93a39.65 39.65 0 0 0 12.56 12.76l8.34 5.3zm100.73-13.44l31 2.46-1.49-31.45-19.67-6.46-2.49 7.72-4.34.38a5 5 0 0 0-4.58 5.1l1.57 22.25z" fill="#FCC5A7"/><path d="M449.85 240.14s0-14.65.91-16.51c.75-1.51 5.18-4.65 10.72-2.76a6.26 6.26 0 0 1 4.21 5.8c.09 3.93.25 10.11.38 12.88.2 4.24-16.22.59-16.22.59z" fill="#360000"/><path d="M448.59 268.85s-1.55 22.64 0 25.5c1.55 2.86 2.39 4.2 5.71 3.87 3.32-.33 5.14-2.36 9.68.09 4.54 2.45 24.67 10.39 38.44 10.14 13.77-.25 19 .27 19.29-4.21.29-4.48 1.11-20.84-2.46-18.67-3.57 2.17-10.86 6.28-16.48 3.57-5.62-2.71-3.7-5.09-8.28-6.59-4.58-1.5-11.51.41-12.06-1.25-.55-1.66-.74-5.5-1.9-5.41-1.16.09 1.15-21.78-2-25.4-3.15-3.62-6.29-3.06-7-5.52-.71-2.46 1.12-6.1-1.11-6.74-2.23-.64-21-1.33-22.89.67-1.89 2-2.11 17.93-.27 19.72 1.84 1.79 4.16 1.3 4.61 7.59.45 6.29.36 18.35-.61 16.5-.97-1.85.14-16.81-2.67-13.86z" fill="#98ACB3"/><path d="M479.92 276.34s-1 9.45.86 11.33c1.86 1.88 13.81 3 14.81 1.28s1.82-5.69 0-6.42c-1.82-.73-11.36.36-12.55-.86-1.19-1.22-.56-7.35-3.12-5.33z" fill="#FF8144"/><path d="M456.56 224.02l-.77-35.28 2.28-.01.71 35.55-2.22-.26z" fill="#360000"/><path d="M471.21 244.72l-.05 1.17-5.57-.21a4.52 4.52 0 0 0-3.288 1.23 4.533 4.533 0 0 0-1.422 3.21l.46 40.28h-1.17l-.47-40.25a5.81 5.81 0 0 1 1.78-4.09 5.666 5.666 0 0 1 4.16-1.56l5.57.22z" fill="#DDDBDE"/><path d="M459.99 256.85l-.28 1.13c-.15 0-3.68-.82-4.77 3.29-1.22 4.58.32 32.42.33 32.7l-1.16.07c-.07-1.16-1.57-28.31-.3-33.07a5.138 5.138 0 0 1 6.18-4.12zm42.42 32.31c0 .17-.48 4.1-3.58 5.57-2.24 1.06-5.21.45-8.35-.21-3.46-.71-7-1.45-9.74 0-4.84 2.66-2.39 8.19-2.28 8.42l-1.07.49c0-.07-3-6.75 2.78-9.93 3.09-1.7 6.88-.91 10.54-.15 2.95.61 5.74 1.18 7.62.29 2.51-1.19 2.91-4.6 2.92-4.64l1.16.16z" fill="#DDDBDE"/><path d="M466.41 232.37a.45.45 0 0 1 0 .2.578.578 0 0 1-.75.34c-10.49-4.08-15.65 1.33-15.7 1.38a.592.592 0 0 1-.959-.187.573.573 0 0 1 .129-.633c.23-.25 5.75-6 17-1.69a.575.575 0 0 1 .28.59zm.29-5.83a.697.697 0 0 1-.08.27.59.59 0 0 1-.79.23c-9.2-5.08-15.61.9-15.88 1.16a.588.588 0 0 1-.79-.059.59.59 0 0 1-.02-.791c.07-.07 7.28-6.84 17.25-1.34a.6.6 0 0 1 .31.53z" fill="#fff"/><path d="M477.71 364.95l-41.69-22.1-1 51.35s29.16 9.73 55.8 14.56c7.57 1.37 13.84.28 17.06.33a5.23 5.23 0 0 0 5.3-5.59l-3.68-88.65-30.6-6.46-1.19 56.56zm26.888-66.132l1.23.009a3.17 3.17 0 0 0 3.193-3.147l.066-9.23a3.17 3.17 0 0 0-3.147-3.193l-1.23-.008a3.17 3.17 0 0 0-3.193 3.147l-.066 9.23a3.17 3.17 0 0 0 3.147 3.192z" fill="#FCC5A7"/><path d="M510.376 299.02l.7.005a2.479 2.479 0 0 0 2.497-2.462l.071-9.819a2.48 2.48 0 0 0-2.462-2.498l-.7-.005a2.48 2.48 0 0 0-2.498 2.462l-.07 9.82a2.479 2.479 0 0 0 2.462 2.497zm-12.419.554l2.85.02a2.36 2.36 0 0 0 2.376-2.343l.095-13.24a2.36 2.36 0 0 0-2.343-2.376l-2.85-.021a2.361 2.361 0 0 0-2.377 2.343l-.094 13.24a2.36 2.36 0 0 0 2.343 2.377zM485.46 276.62l4.57 1.27a1.998 1.998 0 0 1 1.2 2.55l-.41 1.63a2 2 0 0 1-2.35 1.57l-4.56-1.26a1.988 1.988 0 0 1-1.136-1.029 1.993 1.993 0 0 1-.074-1.531l.41-1.62a2 2 0 0 1 2.35-1.58zm-20.89 21.33l17.44 7.51c2.38.93 3.87 2.8 3.34 4.18l-.69 2c-.53 1.38-2.9 1.75-5.28.82l-17.44-7.51c-2.38-.93-3.87-2.8-3.34-4.18l.69-2c.53-1.38 2.9-1.75 5.28-.82z" fill="#FCC5A7"/><path d="M503.14 283.78c0 .19-.39 12.26-.43 14.23 0 .71-.3 1.27-.64 1.25-.34-.02-.6-.6-.59-1.3 0-2 .41-13.75.43-14.25 0-.71.31-1.26.65-1.22.34.04.58.61.58 1.29zm5.4 1.35c0 .06-.22 12-.22 12 0 .57-.25 1-.55 1-.3 0-.53-.51-.51-1.08l.21-11.92c0-.57.26-1 .56-1 .3 0 .51.46.51 1z" fill="#E69880"/><path d="M416.82 327.86l52.74 28.83-18.93 44.72-35.97-3.01 2.16-70.54z" fill="#98ACB3"/><path d="M314.3 430.02l18.97-59.81-14.74 91.45-4.23-31.64zm107.22-30.35l9.7.11-11.62-23.85 1.92 23.74z" fill="#332F2F"/><path d="M401.495 248.398c.009-1.938-.964-3.514-2.174-3.52-1.209-.005-2.197 1.562-2.206 3.5-.008 1.939.965 3.515 2.175 3.52 1.209.006 2.197-1.561 2.205-3.5zm-17.248.733c.009-1.938-.964-3.514-2.174-3.52-1.209-.005-2.197 1.562-2.206 3.5-.009 1.939.965 3.515 2.174 3.52 1.21.006 2.197-1.561 2.206-3.5z" fill="#360000"/><path d="M394.26 264.48a2.51 2.51 0 0 0 1.229-.25 2.509 2.509 0 0 0 1.389-1.991 2.493 2.493 0 0 0-.188-1.239c-.45-1.77-3.85-14.09-3.88-14.22a.513.513 0 0 0-.242-.314.522.522 0 0 0-.393-.051.513.513 0 0 0-.314.242.522.522 0 0 0-.051.393c0 .13 3.43 12.44 3.87 14.2a1.525 1.525 0 0 1-.065 1.538 1.526 1.526 0 0 1-1.375.692.504.504 0 0 0-.354.146.504.504 0 0 0 0 .707.5.5 0 0 0 .354.147h.02z" fill="#E69880"/><path d="M404.24 245.11a4.599 4.599 0 0 0-3.09-5.7 4.46 4.46 0 0 0-3.5.44 4.621 4.621 0 0 0-2.18 2.77l.9.26a3.65 3.65 0 0 1 .65-1.278c.298-.38.669-.696 1.09-.932a3.52 3.52 0 0 1 1.336-.446 3.523 3.523 0 0 1 1.404.116 3.66 3.66 0 0 1 2.45 4.54l.94.23zm-27.16 2.24l.85-.38a3.662 3.662 0 0 1 1.8-4.84 3.526 3.526 0 0 1 2.76-.05 3.702 3.702 0 0 1 2 2l.86-.38a4.67 4.67 0 0 0-2.54-2.44 4.451 4.451 0 0 0-3.49.07 4.58 4.58 0 0 0-2.24 6.02z" fill="#B86332"/><path d="M404.71 236.61a5.676 5.676 0 0 0 2.169 1.01 5.699 5.699 0 0 0 6.191-2.7c3.16-4.66 5.65-15.07-.25-19.7-8.76-6.88-24.17-6.23-30.31-7.24-6.14-1.01-21.08-1.79-26.52 5.31-5.44 7.1-4.41 13.16-4.41 13.16s-7.87-.57-10.76 9c-3.24 10.68 7.72 25.63 10.8 33.16.71 1.75 2.52-4 2.52-4s-4.3-12.7.07-14.52a3.508 3.508 0 0 1 4.66 1.38s.88 0 6.22-3.66c4.85-3.29 9.33-7.48 6.86-15.58 0 0 14.45 6.63 23.1 1.09 4.37-2.83 9.66 3.29 9.66 3.29z" fill="#B86332"/><path d="M381.03 295.26v2.71a24.125 24.125 0 0 1-17.62-18.2 34.576 34.576 0 0 0 3.92 7.36c2.63 3.72 8.03 6.55 13.7 8.13zm13.52-22.24a7.374 7.374 0 0 0 6.1-3.17.504.504 0 0 0-.83-.57 6.371 6.371 0 0 1-8.89 1.57.5.5 0 0 0-.785.495.504.504 0 0 0 .205.325 7.318 7.318 0 0 0 4.2 1.35z" fill="#E69880"/><path d="M411.24 464.83l4.41-77.02-63.78-.29-5.52 79.71 35.61 4.3 29.28-6.7z" fill="#494747"/><path d="M403.43 464.49L406.7 403l-46.99-.21-4.1 63.47" stroke="#fff" stroke-width=".8" stroke-miterlimit="10"/><path d="M300.34 424.38l-37.17-14.73-16.89 29.7 36.38 10.68 17.68-25.65z" fill="#FCC5A7"/><path d="M424.1 210.74l-2 2.2a3.656 3.656 0 0 1-2 1.09l-27.26 3.36c-.61.25-1.23.49-1.87.73l-.25.1c-.58.21-1.18.43-1.8.64l-.51.18-1.65.55-.93.31-.7.22c-3.58 1.15-7.49 2.32-11.46 3.61-3.97 1.29-7.81 2.66-11.39 3.84l-.7.23-.93.31-1.65.52-.54.16c-.61.19-1.22.36-1.8.53l-.31.08c-.64.18-1.26.34-1.87.49l-.25.06-.8.18-.29.07-.74.15-.31.05-.68.12h-.32l-.63.08h-3.28l-.33-.05-.36-.07-.33-.08a2.812 2.812 0 0 1-.31-.09 3 3 0 0 1-.32-.12l-.25-.11-.33-.16-.18-.12a3.488 3.488 0 0 1-.32-.22.683.683 0 0 1-.13-.11 2.928 2.928 0 0 1-.32-.3l-.05-.06a4.188 4.188 0 0 1-.88-1.55c-4.49-13.78 5.89-29.52 20.67-34.34a32.337 32.337 0 0 1 10.51-1.56c11.74.17 23 6.52 26.44 17.12.144.436.218.891.22 1.35l22.53-.74c.79.07 1.21.79.66 1.35z" fill="#98ACB3"/><path d="M368.57 396.85c.11-2.28 2.15-49.31-21.56-76.75-.93-1.08-1.94-2.08-2.9-3.13-1.83-2-14.59 4.19-14.59 4.19a7.7 7.7 0 0 1 1.23.9c27.44 20.85 25.21 73.61 25.18 74.16l12.64.63zm45.44.17c.11-2.33 2.26-51.79-23.47-78.86-.54-.56-1.08-1.11-1.64-1.65-2.61-2.54-7.36-2.25-7.95-2.58l1.33 13.92c21 23.4 19.11 68 19.09 68.51l12.64.66z" fill="#494747"/><path d="M408.03 395.06l-48.05-.22" stroke="#fff" stroke-width=".8" stroke-miterlimit="10"/><path d="M291.95 437.24l3.47-5.73-32.25-21.86s-17 30.24-18.7 32.73c-1.7 2.49-.45 7.13 2 8.56l71.51 36.64 12.78-23-38.81-27.34zm50.489 50.209a3.38 3.38 0 1 0-3.502 5.782l13.027 7.89a3.38 3.38 0 0 0 3.502-5.782l-13.027-7.89z" fill="#FCC5A7"/><path d="M338.332 492.607a2.528 2.528 0 0 0-3.472.849 2.529 2.529 0 0 0 .856 3.471l13.524 8.19a2.528 2.528 0 0 0 3.472-.849 2.529 2.529 0 0 0-.856-3.471l-13.524-8.19zm7.19-11.198a3.38 3.38 0 0 0-3.502 5.782l15.91 9.636a3.38 3.38 0 0 0 3.502-5.783l-15.91-9.635zm.405-4.057l-.218.359a3.17 3.17 0 0 0 1.069 4.354l13.532 8.195a3.17 3.17 0 0 0 4.354-1.069l.217-.359a3.17 3.17 0 0 0-1.069-4.354l-13.532-8.195a3.17 3.17 0 0 0-4.353 1.069zm-7.091-16.902l-.305-1.184a2.776 2.776 0 0 0-3.38-1.994l-10.864 2.8a2.774 2.774 0 0 0-1.994 3.379l.305 1.184a2.773 2.773 0 0 0 3.379 1.994l10.864-2.8a2.775 2.775 0 0 0 1.995-3.379z" fill="#FCC5A7"/><path d="M324.76 460.93l-17.24 21.28 32.75 17.51 7.08-14.94 1.24-1.2s5.85-4.83.2-8.19c-3.86-2.3-24.03-14.46-24.03-14.46z" fill="#FCC5A7"/><path d="M351.86 501.4l-.3-.15c-.08 0-18.86-11.23-20.19-12-.51-.28-.72-.68-.46-.88a1.556 1.556 0 0 1 1.4.15c1.35.75 19.89 11.8 20.23 12 .5.29.7.68.43.87a1.33 1.33 0 0 1-1.11.01zm4.79-4.98c-.11 0-10.89-6.7-11-6.76-.11-.06-8.17-4.61-9.5-5.34-.51-.29-.72-.68-.46-.88a1.518 1.518 0 0 1 1.4.15c1.35.74 19.89 11.8 20.22 12 .51.28.7.67.43.87a1.323 1.323 0 0 1-1.09-.04zm4.16-5.57c-.1 0-10.36-6.41-10.46-6.47l-9.51-5.35c-.51-.28-.71-.67-.46-.87a1.518 1.518 0 0 1 1.4.15c1.35.74 19.37 11.51 19.71 11.7.5.28.7.68.43.87a1.292 1.292 0 0 1-1.11-.03z" fill="#E69880"/><path d="M300.57 1.03c73.2 2.82 125.08 52.63 78.61 108.51-34.36 41.35-195 254.44-225.72 295.07-24 31.74-61.28 51.38-93.84 38.77-78.61-30.45 10.76-98.46-37.39-257.14C-32.47 5.98 233.25-1.58 300.57 1.03z" fill="#F2F5F6"/><path d="M257.2 266.06l-73.94 96.35c1.2-17.41 2.6-33.5 4.23-49.68 2.48-24.69 15.36-45.48 15.36-45.48l47.16-2.28 7.19 1.09z" fill="#905744"/><path d="M279.65 228.36l1.84 7.22-41.49 53-2.07-12-.22 15.33-63.93 84 18.37-137.61-13.86 30.25-54.87 16.3-8.51-23.41 46.06-21.46s14-68.24 19.32-79.34c5.32-11.1 35.88-16.32 35.88-16.32l31.13-2s26.88 5.4 36.17 12.59c9.29 7.19-.14 28.52-.14 28.52l-3.68 44.93z" fill="#98ACB3"/><path d="M248.25 43.01s34.29 37.61 19.87 63c-7.77 13.65-58.32 29.12-82.23 9.6 0 0-26.92-9.79 6.24-62l56.12-10.6z" fill="#360000"/><path d="M213.71 143.51l33.51-.79-.67-59.37-33.81.56.97 59.6z" fill="#FCC5A7"/><path d="M213.32 119.76a28.92 28.92 0 0 0 3.25.15 28.342 28.342 0 0 0 26.21-18.82l-.28-17-29.75.49.57 35.18z" fill="#360000"/><path d="M221.094 28.006l-1.78.029c-17.213.282-30.937 14.464-30.655 31.677l.269 16.358c.282 17.212 14.464 30.937 31.677 30.654l1.78-.029c17.212-.282 30.936-14.465 30.654-31.677l-.268-16.358c-.283-17.212-14.465-30.937-31.677-30.654z" fill="#360000"/><path d="M248.035 64.436c-.257-15.644-13.145-28.118-28.786-27.861-15.641.256-28.113 13.146-27.856 28.79l.357 21.758c.256 15.644 13.144 28.118 28.786 27.861 15.641-.257 28.113-13.147 27.856-28.79l-.357-21.758z" fill="#FCC5A7"/><path d="M199.83 38.2c-19-5.3-29.34 24.22-11.08 27.25 25.84 4.3 41.78-14.15 41.78-14.15s6.86 16 21.86 21.35l-6.3-30.12-19.88-9.55-26.38 5.22z" fill="#360000"/><path d="M214.28 76.14s-.21 14.76 1.3 16.79a3 3 0 0 0 3.44 1.29" stroke="#E69880" stroke-width=".68" stroke-miterlimit="10" stroke-linecap="round"/><path d="M254.687 77.041c1.978-4.523 1.005-9.317-2.172-10.707-3.178-1.39-7.358 1.151-9.336 5.675-1.978 4.524-1.006 9.317 2.172 10.707 3.178 1.39 7.357-1.15 9.336-5.675z" fill="#FCC5A7"/><path d="M245.82 75.04a10.4 10.4 0 0 1 5.4-5.63m-2.57 1.71a10.461 10.461 0 0 1 1.17 7.73" stroke="#E69880" stroke-width=".68" stroke-miterlimit="10" stroke-linecap="round"/><path d="M224.587 80.673c1.303-.022 2.332-1.731 2.298-3.819-.035-2.087-1.119-3.762-2.422-3.74-1.303.021-2.332 1.73-2.298 3.818.035 2.087 1.119 3.762 2.422 3.74z" fill="#360000"/><path d="M223.17 68.26c.48-2 2.77-3.06 5.11-2.49 2.34.57 3.86 2.62 3.38 4.57m-35.13 2.02c-.25-2 1.49-3.84 3.89-4.14 2.4-.3 4.53 1.07 4.78 3.06" stroke="#360000" stroke-miterlimit="10"/><path d="M229.95 74.12c-.68 1.44-2.71 1.93-4.54 1.07m-21.76.83c-.9 1.32-3 1.46-4.64.32" stroke="#360000" stroke-width=".68" stroke-miterlimit="10" stroke-linecap="round"/><path d="M226.65 98.73c.42 2.93-2.66 5.8-6.89 6.42-4.23.62-8-1.26-8.42-4.2" fill="#fff"/><path d="M203.652 82.616c1.303-.021 2.332-1.73 2.297-3.818-.034-2.088-1.118-3.762-2.421-3.741-1.304.021-2.332 1.73-2.298 3.818.034 2.088 1.118 3.762 2.422 3.741z" fill="#360000"/><path d="M213.22 123.7c0 2.45 7.64 4.31 17 4.16 9.36-.15 16.86-2.26 16.82-4.71 0 0-.73 15.7 5.71 20.24 1.55 1.08-26.35 59.41-26.35 59.41s-22.25-54.25-19.06-56.53c6.85-4.92 5.88-22.57 5.88-22.57z" fill="#fff"/><path d="M230.46 147.06s-5.55 26-5.29 41.86c.22 13.76 10.45 64.69 12.78 87.66" stroke="#fff" stroke-width=".68" stroke-miterlimit="10"/><path d="M233.71 166.871a2.35 2.35 0 1 0-.077-4.7 2.35 2.35 0 0 0 .077 4.7zm1.942 53.191a2.349 2.349 0 1 0-.077-4.699 2.35 2.35 0 0 0 .077 4.699zm2.654 17.904a2.35 2.35 0 1 0-.077-4.7 2.35 2.35 0 0 0 .077 4.7zm2.643 17.895a2.35 2.35 0 1 0-.079-4.7 2.35 2.35 0 0 0 .079 4.7z" fill="#fff"/><path d="M188.84 245.59l-7.12-32.56 9.03-30.46-4.03 29.38 5.45 26.37-3.33 7.27z" fill="#332F2F"/><path d="M286.13 158.24l26.24 36.93-17.15 22.42-25.36-36.31 16.27-23.04z" fill="#98ACB3"/><path d="M281.81 236.76l-13.82-53.63 14.87 16.76-1.05 36.87z" fill="#332F2F"/><path d="M123.42 284.85l-27.38 6.73a11.927 11.927 0 0 1-9.29-1.55l-6.71-4.32s-1.48-1.08.31-2.2c0 0-3.07-.46-.91-3.42 0 0-2.58.21-1.17-3.94 0 0-1.1-4.05 1.26-4 2.36.05 8.29 4.61 11.69 4.18a42.884 42.884 0 0 0 8.26-2.83 1.14 1.14 0 0 0-.39-2.19l-7.21-.33s-3.55 0-3.27-2.4c.28-2.4 6.79-2.65 6.79-2.65l19.51-4.54a38.687 38.687 0 0 1 6.06 5.38c2.24 2.48 4.44 5.56 4.77 9 .3 2.81-.21 7.08-2.32 9.08z" fill="#FCC5A7"/><path d="M125.77 275.85c-.33-3.43-2.53-6.51-4.77-9a38.687 38.687 0 0 0-6.06-5.38l-5.8 1.35a48.791 48.791 0 0 1 6.87 6.06c2.67 2.88 5.33 6.43 5.84 10.32a17.313 17.313 0 0 1-.32 6.15l1.92-.47c2.08-2.03 2.59-6.3 2.32-9.03z" fill="#fff"/><path d="M253.85 143.84l4.53 11-8.06 8.7 5.15 8.38-28.99 31.78-26.41-31.24 8.34-7.59-7.33-7.3 3.88-10.68" stroke="#fff" stroke-width=".68" stroke-miterlimit="10"/><path d="M81.84 264.08s-1.69-9.64.37-12.25l2-2.61s65.07-4.27 69.13-.45c4.06 3.82 7.46 67.13 6.55 72.95-.91 5.82-70 5.41-70 5.41l-8.05-63.05z" fill="#F65727"/><path d="M150.7 304.27l-4.59 37.35-52.28-.54-9.18-44.79L66.9 306.6s4.33-30.74 6.94-35.59c5.75-10.67 29.93-13.83 29.93-13.83l23.23-.93s19.93 4.48 26.73 10c6.8 5.52-.58 21.24-.58 21.24l-2.45 16.78z" fill="#905744"/><path d="M127.36 225.561l-25.199-.154-.19 31.13 25.199.154.19-31.13z" fill="#FCC5A7"/><path d="M127.28 243.79v1.15a21 21 0 0 1-23.05-6.48l-4.18-12 26.74-7.18.49 24.51z" fill="#360000"/><path d="M119.913 237.139l1.246-.435c12.114-4.223 18.511-17.468 14.288-29.582l-4.013-11.511c-4.223-12.114-17.468-18.511-29.582-14.288l-1.247.435c-12.114 4.223-18.511 17.468-14.288 29.582l4.013 11.511c4.224 12.114 17.468 18.511 29.583 14.288z" fill="#FF8144"/><path d="M130.962 200.277c-3.838-11.009-15.874-16.822-26.883-12.984-11.01 3.838-16.822 15.874-12.984 26.883l5.34 15.316c3.837 11.009 15.873 16.822 26.882 12.984 11.009-3.838 16.822-15.874 12.984-26.883l-5.339-15.316z" fill="#FCC5A7"/><path d="M113 185.94c15-18.19 31.82 6.89 19.83 13.71-17 9.64-32.87.83-32.87.83s-.7 12.92-9.81 20.55l-3.33-22.69 11.46-11.79 14.72-.61z" fill="#FF8144"/><path d="M117.71 213.68s3.94 10.27 3.4 12.08a2.242 2.242 0 0 1-2.07 1.78" stroke="#E69880" stroke-width=".51" stroke-miterlimit="10" stroke-linecap="round"/><path d="M97.67 226.249c1.867-1.789 1.316-5.391-1.229-8.047-2.545-2.656-6.12-3.359-7.987-1.57-1.866 1.788-1.316 5.39 1.23 8.046 2.544 2.656 6.12 3.359 7.986 1.571z" fill="#FCC5A7"/><path d="M95.36 221.01a7.749 7.749 0 0 0-5.22-2.55m2.21.55a7.77 7.77 0 0 0 1.2 5.69" stroke="#E69880" stroke-width=".51" stroke-miterlimit="10" stroke-linecap="round"/><path d="M111.669 219.519c.918-.32 1.246-1.772.734-3.242-.513-1.471-1.673-2.404-2.59-2.084-.918.32-1.247 1.772-.734 3.242.513 1.471 1.672 2.404 2.59 2.084z" fill="#360000"/><path d="M109.46 210.45a3.31 3.31 0 0 0-5.4 3.64m25.1-7.61a3.323 3.323 0 0 0-3.781-1.882 3.318 3.318 0 0 0-2.569 3.352" stroke="#FF8144" stroke-width=".48" stroke-linecap="round" stroke-linejoin="round"/><path d="M106.23 216.29a2.49 2.49 0 0 0 3.42-.44m15.46-5a2.491 2.491 0 0 0 3.33-1" stroke="#360000" stroke-width=".51" stroke-miterlimit="10" stroke-linecap="round"/><path d="M114.89 232.65c.45 2.16 3.35 3.38 6.46 2.72 3.11-.66 5.27-2.94 4.82-5.1m.642-14.771c.918-.32 1.246-1.772.734-3.242-.513-1.471-1.673-2.404-2.591-2.084-.918.32-1.246 1.772-.733 3.242.512 1.471 1.672 2.404 2.59 2.084z" fill="#360000"/><path d="M101.51 255.57c0 1.82 5.62 3.34 12.58 3.38 6.96.04 12.6-1.4 12.61-3.23 0 0 4.29 1.06 4.08 3.24-.13 1.4-2.18 1-3.12 1a3.668 3.668 0 0 0-2.93 1.67c-.72 1-1.12 2.54-2.37 3-1.61.64-3.45 0-4.88-.79-1.43-.79-3-1.23-4.72-.25-4.47 2.63-8.09 1.59-9.82-2.73-1.26-3.14-3.27.54-5.21-1.65-3.18-3.51 3.78-3.64 3.78-3.64z" fill="#fff"/><path d="M108.54 258.56s-4.57 19.26-4.64 31.1c-.07 10.25 4.62 40.21 6 57.36" stroke="#fff" stroke-width=".51" stroke-miterlimit="10"/><path d="M124.16 262.12s6.15 18.81 7.74 30.44c1.38 10.07 1.52 39.62 2.67 56.5" stroke="#fff" stroke-width=".45" stroke-miterlimit="10"/><path d="M102.073 275.22a1.75 1.75 0 1 0-3.5-.034 1.75 1.75 0 0 0 3.5.034zm-1.426 11.796a1.75 1.75 0 1 0-3.5-.022 1.75 1.75 0 0 0 3.5.022zm-.081 13.371a1.75 1.75 0 1 0-3.5-.02 1.75 1.75 0 0 0 3.5.02zm1.66 13.382a1.75 1.75 0 1 0-3.498-.022 1.75 1.75 0 0 0 3.498.022zm1.68 13.382a1.75 1.75 0 1 0-3.501-.02 1.75 1.75 0 0 0 3.501.02zm1.67 13.372a1.75 1.75 0 1 0-3.5-.022 1.75 1.75 0 0 0 3.5.022z" fill="#fff"/><path d="M126.972 256.224c.011-1.823-5.617-3.335-12.57-3.377-6.953-.043-12.599 1.4-12.61 3.223-.011 1.822 5.617 3.334 12.57 3.377 6.953.042 12.599-1.401 12.61-3.223z" fill="#FCC5A7"/><path d="M142.58 307.27l.12-18.22 8.64 18.04-8.76.18z" fill="#360000"/><path d="M88.04 194.74s-5.88-20.68-24.21-11.12c-17.49 9.11-.86 29.46-6.6 37.21-5.74 7.75-11.23-.3-14.43.43-3.2.73 8.18 17.34 21.2 13.5 15-4.42 23.35-15.6 24.15-32 .8-16.4-.11-8.02-.11-8.02z" fill="#FF8144"/><path d="M108.65 261.91s-6.23 18.34-4 37c2.23 18.66 4.66 49.31 4.66 49.31l24.77 2.49s0-53.66-2.53-63c-2.53-9.34-7.71-26.59-7.71-26.59l-15.19.79z" fill="#fff"/><path d="M135.46 258.65s7-1.05 9.1 2.9c0 0-7.72 22.7-3.42 34.68s9.26 10.85 9.26 10.85 1.42 7-.64 10.21c-2.06 3.21-16.5-7.19-17.34-26.07a127.723 127.723 0 0 1 3.04-32.57z" fill="#F65727"/><path d="M145.47 339.28c8.21 6.62 17.69 48.39 17.69 48.39s-31.51 42.18-44.83 48.32c-6.25 2.9-9.21 6.6-23.69 9.67a72.27 72.27 0 0 1-23.52.77s3.34-43.26 10.8-85.38c2.35-13.28 10.84-23.37 10.84-23.37l52.71 1.6z" fill="#FF8144"/><path d="M97.7 347.53L84.88 447.4m25.86-99.41l-8.78 95.66m18.91-95.12l-2.54 87.46m13.28-87.26l3.05 73.16m7.67-72.78l6.38 56.65" stroke="#F65727" stroke-width=".66" stroke-miterlimit="10"/><path d="M86.17 348.66l66.4.52" stroke="#F65727" stroke-width=".69" stroke-miterlimit="10"/><path d="M72.57 274.03L59.86 335.5a10.8 10.8 0 0 0-.36 5.74l3.82 35.82 18.81 3.35-3.37-38.56 4.71-31.62s2.46-13.19 1.76-17.55c-.94-5.83-12.66-18.65-12.66-18.65z" fill="#905744"/><path d="M63.32 377.06l3.48 17.89a7.411 7.411 0 0 0 3.8 5l4.92 2.75a.934.934 0 0 0 .93.006.938.938 0 0 0 .48-.796s1.22 1.67 2.6-.4c0 0 .62 1.57 3-.4 0 0 3.08-.47 2.32-1.82-.76-1.35-5.59-3.6-6.3-5.7a26.366 26.366 0 0 1-.51-6.11.756.756 0 0 1 .584-.625.765.765 0 0 1 .796.315l2.59 4.56s1 2.08 2.6 1.26c1.6-.82-.2-4.71-.2-4.71l-2.65-12.68a30.873 30.873 0 0 0-5.46-2.07 14.004 14.004 0 0 0-7.54-.33c-1.95.65-4.69 2.07-5.44 3.86z" fill="#FCC5A7"/><path d="M63.32 377.06c.75-1.79 3.49-3.26 5.47-3.86a14.004 14.004 0 0 1 7.54.33 30.873 30.873 0 0 1 5.46 2.07l.63 3a30.094 30.094 0 0 0-5.39-2 14.004 14.004 0 0 0-7.54-.33c-2 .6-4.81 2.21-5.56 4l-.61-3.21z" fill="#fff"/><path d="M154.93 267.52l24.57 48.15c1.38 2.32-.72 8.45-.73 8.46-.38.36-29.37 40.53-29.37 40.53l-16.75-9.21 24.63-36.08-15.63-30.33 13.28-21.52z" fill="#905744"/><path d="M85.24 262.39s1.52 7.26.23 26.79-2.34 21-2.34 21 2.42 5.91 4.81.4c7.84-18.12 7.33-24.73 5.71-52.12a14.66 14.66 0 0 0-8.41 3.93z" fill="#F65727"/><path d="M149.4 364.66l-13.95 11.74a7.44 7.44 0 0 1-2.887 1.436 7.442 7.442 0 0 1-3.223.084l-5.56-1a.944.944 0 0 1-.726-.579.937.937 0 0 1 .126-.921s-2 .54-1.77-1.95c0 0-1.47.84-2.11-2.21 0 0-2.11-2.3-.66-2.87 1.45-.57 6.61.71 8.48-.49a26.055 26.055 0 0 0 4.23-4.43c.42-.52-.24-1.35-.87-1.1l-4.83 1.95s-2.13 1-2.82-.65 3.11-3.54 3.11-3.54l10-8.2a30.519 30.519 0 0 1 5.55 1.82 14.082 14.082 0 0 1 6.08 4.48c1.15 1.7 2.36 4.56 1.83 6.43z" fill="#FCC5A7"/><path d="M149.4 364.66c.53-1.87-.68-4.73-1.83-6.44a14.082 14.082 0 0 0-6.08-4.48 30.519 30.519 0 0 0-5.55-1.82l-2.39 1.93a30.669 30.669 0 0 1 5.47 1.79 14.082 14.082 0 0 1 6.08 4.48c1.15 1.71 2.35 4.74 1.81 6.61l2.49-2.07z" fill="#fff"/><path d="M542.13 8.17l-59.13.1-339.86 443.79" stroke="#DDDBDE" stroke-width="2" stroke-miterlimit="17" stroke-linecap="round" stroke-dasharray="8 8"/><path d="M535.49 0l-1.36 1.47 7.24 6.7-7.22 6.73 1.37 1.46 8.78-8.19L535.49 0z" fill="#DDDBDE"/><path d="M388.04 99.33L59.44 528.41H2.17" stroke="#DDDBDE" stroke-width="2" stroke-miterlimit="17" stroke-linecap="round" stroke-dasharray="8 8"/><path d="M8.79 520.23l1.37 1.46-7.23 6.72 7.23 6.71-1.37 1.47L0 528.41l8.79-8.18z" fill="#DDDBDE"/></svg>