<svg width="51" height="52" viewBox="0 0 51 52" fill="none" xmlns="http://www.w3.org/2000/svg"><path d="M48.258 21.937a9.201 9.201 0 0 0-.851-.915c-.284-.274-.733-.824-1.145-.842a.75.75 0 0 0-.668.357c-.485.915.916 2.014 1.392 2.746a2.643 2.643 0 0 1 .32 2.206c-.494.833-.916 1.675-1.355 2.517-.586 1.016-2.573 4.229-2.948 4.576a1.2 1.2 0 0 1-1.181.357l-2.646 4.083c1.465 2.06 4.028 3.377 4.825 3.23.302-.045 2.975-4.31 4.44-7.24a13.8 13.8 0 0 0 1.428-6.754 8.858 8.858 0 0 0-1.61-4.32z" fill="#360000"/><path d="M43.919 40.793c-1.227 0-3.727-1.52-5.11-3.46l-.191-.275 3.02-4.659.349.083a.659.659 0 0 0 .705-.23c.311-.301 2.206-3.34 2.865-4.484.211-.366.412-.75.605-1.126.192-.375.476-.915.76-1.4a2.334 2.334 0 0 0-.348-1.63 8.602 8.602 0 0 0-.485-.622c-.65-.769-1.456-1.73-.916-2.673a1.264 1.264 0 0 1 1.135-.613c.52.106.985.395 1.31.814l.155.165c.326.31.631.64.916.989a9.4 9.4 0 0 1 1.72 4.576 14.14 14.14 0 0 1-1.473 7.048c-.66 1.337-1.666 3.112-2.674 4.742-1.657 2.69-1.895 2.745-2.114 2.745l-.23.01zm-4.102-3.753a7.736 7.736 0 0 0 4.028 2.746 53.307 53.307 0 0 0 4.184-6.975v-.055a13.46 13.46 0 0 0 1.383-6.398 8.621 8.621 0 0 0-1.52-4.064c-.25-.32-.52-.626-.806-.915l-.183-.183c-.137-.137-.494-.513-.64-.522a.31.31 0 0 0-.22.1c-.193.358.393 1.053.824 1.566.198.226.382.464.549.714a3.066 3.066 0 0 1 .339 2.746c-.266.44-.495.915-.733 1.345-.238.43-.402.77-.622 1.163a54.689 54.689 0 0 1-3.03 4.705 1.684 1.684 0 0 1-1.282.53l-2.271 3.497zm.769-17.318a6.93 6.93 0 0 0 .449-.732c.11-.192 0-.384-.23-.458a.916.916 0 0 0-.713 0 .77.77 0 0 0-.23 1.218c.285.32.523.201.724-.028z" fill="#360000"/><path d="M40.257 20.455a.917.917 0 0 1-.715-.348 1.227 1.227 0 0 1-.366-1.071 1.29 1.29 0 0 1 .696-.916 1.373 1.373 0 0 1 1.108 0 .915.915 0 0 1 .54.522.75.75 0 0 1 0 .641 6.724 6.724 0 0 1-.485.787.915.915 0 0 1-.724.44l-.054-.055zm.247-1.492a.358.358 0 0 0-.165 0 .275.275 0 0 0-.147.201.256.256 0 0 0 0 .201c.092-.137.184-.265.284-.439l.028.037z" fill="#360000"/><path d="M38.901 21.36a4.28 4.28 0 0 0 1.19.413c.578 0 .962-.962.413-1.291-.55-.33-1.053-.604-1.474-.44a.714.714 0 0 0-.129 1.319z" fill="#360000"/><path d="M40.11 22.267a3.37 3.37 0 0 1-1.181-.366l-.21-.12a1.172 1.172 0 0 1-.623-1.125 1.254 1.254 0 0 1 .815-1.071 2.124 2.124 0 0 1 1.913.467 1.117 1.117 0 0 1 .348 1.309 1.2 1.2 0 0 1-1.062.906zm-.98-1.355l.183.082c.25.136.518.231.797.284a.313.313 0 0 0 .146-.201v-.174c-.631-.384-.851-.467-1.034-.394a.276.276 0 0 0-.193.22c-.018.073.019.137.101.183z" fill="#360000"/><path d="M39.945 22.13a2.353 2.353 0 0 0-1.675-.55.804.804 0 0 0-.138 1.437c.396.208.835.32 1.282.33a.779.779 0 0 0 .531-1.218z" fill="#360000"/><path d="M39.259 23.85a2.875 2.875 0 0 1-1.026-.238l-.256-.1h-.046a1.236 1.236 0 0 1-.632-1.154 1.391 1.391 0 0 1 .824-1.171 2.748 2.748 0 0 1 2.134.595 1.089 1.089 0 0 1 .256 1.107 1.355 1.355 0 0 1-1.026.916 1.207 1.207 0 0 1-.228.045zm-.916-1.281l.256.1c.22.111.46.177.705.193a.375.375 0 0 0 .257-.202.274.274 0 0 0 0-.174 2.257 2.257 0 0 0-1.136-.439.384.384 0 0 0-.201.302.266.266 0 0 0 .128.22h-.009z" fill="#360000"/><path d="M38.023 23.255a.86.86 0 0 0-.998.778v.312a.439.439 0 0 0 .796.256c.403-.55.778-1.135.202-1.346z" fill="#360000"/><path d="M37.51 25.278a1.035 1.035 0 0 1-.293 0 .915.915 0 0 1-.65-.915 2.74 2.74 0 0 1 0-.385 1.437 1.437 0 0 1 .659-1.043 1.163 1.163 0 0 1 .998-.146.917.917 0 0 1 .595.585 1.885 1.885 0 0 1-.577 1.529.915.915 0 0 1-.732.375zm.32-1.538a.259.259 0 0 0-.082 0 .431.431 0 0 0-.183.293v.092a2.66 2.66 0 0 0 .22-.385h.045z" fill="#360000"/><path d="M46.152 19.85c.414.054.792.26 1.063.577.173.192.915.97 1.007 1.08.054-2.133-1.722-6.956-4.34-9.867-.55-.604-4.312 1.309-4.926 2.938 0 0 2.106 3.332 2.335 3.872.08.21.08.44 0 .65-.053.12-.114.236-.183.348l-.494.768a1.062 1.062 0 0 1-.467 1.831.915.915 0 0 1-.303 1.437 1.355 1.355 0 0 1-1.053.128s-.375.687-.677 1.108a5.723 5.723 0 0 0-.778 1.272c-.083.293 0 1.245.458 1.2.21 0 .622-.632 1.016-1.127.137-.165.32-.1.165.12-.156.219-.32.466-.394.567-.366.558-1.218 1.419-.485 2.014.732.594.915.183 1.117-.12.201-.302.521-.713.75-1.015.23-.303.394-.147.156.173-.238.32-.916 1.2-.989 1.383-.073.183-.247.668.257 1.116.97.915 1.327.183 2.37-1.025.22-.247.312-.119.175.119-.138.238-.412.66-.65 1.034-.412.65-.916 1.273-.1 1.886 1.345 1.053 1.95-.394 2.91-1.83.962-1.438 1.832-3.113 2.683-4.678a1.601 1.601 0 0 0 .284-1.281c-.174-1.19-1.19-2.005-1.749-3.012a1.071 1.071 0 0 1 .842-1.666z" fill="#360000"/><path d="M42.032 33.14a1.913 1.913 0 0 1-1.153-.457 1.327 1.327 0 0 1-.55-1.529h-.073a1.66 1.66 0 0 1-1.18-.512 1.391 1.391 0 0 1-.55-1.172 1.529 1.529 0 0 1-.742-.366 1.199 1.199 0 0 1-.338-1.528.833.833 0 0 1-.312-.23 1.985 1.985 0 0 1-.274-1.528c.19-.468.453-.903.778-1.29l.073-.11c.236-.337.45-.689.641-1.053l.201-.375.403.146a.916.916 0 0 0 .678-.045.514.514 0 0 0 .247-.376.33.33 0 0 0-.073-.302l-.623-.686.916-.137a.559.559 0 0 0 .412-.449.466.466 0 0 0-.147-.494l-.403-.275.76-1.171.064-.129.083-.146a.815.815 0 0 0 0-.265c-.156-.376-1.493-2.527-2.298-3.799l-.147-.22.083-.238c.549-1.455 3.186-3.057 4.623-3.331a1.172 1.172 0 0 1 1.135.238c2.591 2.874 4.578 7.853 4.468 10.214v1.071l-.796-.723c-.083-.073-.312-.32-.76-.805l-.284-.302a1.154 1.154 0 0 0-.705-.412.44.44 0 0 0-.421.201.778.778 0 0 0 0 .75c.196.32.413.626.65.916a4.75 4.75 0 0 1 1.163 2.307 2.096 2.096 0 0 1-.34 1.528c-.292.513-.585 1.053-.915 1.565-.567 1.044-1.153 2.124-1.83 3.14l-.358.567c-.577.916-1.08 1.703-1.886 1.831a.916.916 0 0 1-.22-.018zm-.082-4.52a.549.549 0 0 1 .48.292.642.642 0 0 1-.059.723c-.138.253-.29.497-.458.732l-.21.339-.064.091c-.495.76-.476.916-.147 1.126a.83.83 0 0 0 .605.247c.366-.064.796-.74 1.208-1.39.119-.193.247-.385.375-.577.65-.989 1.227-2.05 1.831-3.076.284-.522.577-1.052.916-1.583a1.116 1.116 0 0 0 .22-.916 4.036 4.036 0 0 0-.916-1.83c-.319-.32-.619-.66-.897-1.016a1.83 1.83 0 0 1 0-1.74 1.428 1.428 0 0 1 1.29-.695 2.1 2.1 0 0 1 1.402.723 19.494 19.494 0 0 0-4.01-8.055 4.835 4.835 0 0 0-2.079.806 5.676 5.676 0 0 0-1.959 1.72c.513.797 2.023 3.213 2.234 3.717.128.33.128.695 0 1.025l-.082.165-.12.21-.283.44a1.512 1.512 0 0 1 .21 1.19 1.688 1.688 0 0 1-.631.97 1.38 1.38 0 0 1 0 .549 1.52 1.52 0 0 1-.751 1.08c-.33.171-.702.242-1.071.201-.16.29-.334.57-.522.842l-.073.11a4.94 4.94 0 0 0-.632 1.007 1.15 1.15 0 0 0 0 .394c.11-.128.229-.284.32-.412l.284-.357a.63.63 0 0 1 .916-.165.614.614 0 0 1 .082.915l-.247.357-.147.202-.21.302c-.54.732-.55.915-.376 1.052.174.138.248.138.257.138.057-.053.109-.112.155-.174.174-.22.32-.421.458-.623l.293-.393a.652.652 0 0 1 .916-.23c.183.138.393.504 0 .999-.22.293-.86 1.19-.916 1.354-.055.165-.137.21.165.485.302.275.403.266.449.266.045 0 .53-.43.87-.833l.347-.412a.778.778 0 0 1 .577-.293zm-2.206-1.182l-2.124-.732 2.124.732z" fill="#360000"/><path d="M48.258 21.937a9.201 9.201 0 0 0-.851-.915c-.284-.274-.733-.824-1.145-.842a.75.75 0 0 0-.668.357c-.485.915.916 2.014 1.392 2.746a2.643 2.643 0 0 1 .32 2.206c-.494.833-.916 1.675-1.355 2.517-.586 1.016-2.573 4.229-2.948 4.576a1.2 1.2 0 0 1-1.181.357l-2.646 4.083c1.465 2.06 4.028 3.377 4.825 3.23.302-.045 2.975-4.31 4.44-7.24a13.8 13.8 0 0 0 1.428-6.754 8.858 8.858 0 0 0-1.61-4.32z" fill="#fff"/><path d="M43.919 40.363c-.998 0-3.406-1.383-4.752-3.277l2.747-4.165a1.116 1.116 0 0 0 1.09-.357c.356-.357 2.306-3.487 2.938-4.576.21-.376.412-.76.604-1.135.193-.376.476-.916.75-1.383a2.598 2.598 0 0 0-.32-2.132c-.128-.192-.32-.421-.512-.66-.595-.704-1.264-1.5-.916-2.196a.833.833 0 0 1 .742-.384c.357 0 .723.384 1.016.686l.174.165c.3.29.584.595.852.915a9.152 9.152 0 0 1 1.638 4.348 13.883 13.883 0 0 1-1.474 6.828c-1.4 2.792-4.12 7.222-4.486 7.323h-.091zm-4.578-3.314c1.483 2.06 3.992 3.304 4.733 3.167.302-.119 2.92-4.274 4.386-7.203a13.617 13.617 0 0 0 1.41-6.71 9.014 9.014 0 0 0-1.603-4.283 10.011 10.011 0 0 0-.851-.916l-.22-.238c-.265-.265-.622-.631-.915-.64a.688.688 0 0 0-.614.31c-.338.614.302 1.374.916 2.051.188.212.362.435.522.668a2.746 2.746 0 0 1 .33 2.28c-.275.448-.513.915-.742 1.363-.23.449-.403.77-.623 1.154-.53.915-2.554 4.21-2.948 4.576a1.273 1.273 0 0 1-1.2.385l-2.581 4.036z" fill="#360000"/><path d="M40.586 19.722a6.93 6.93 0 0 0 .449-.732c.11-.192 0-.384-.23-.458a.916.916 0 0 0-.713 0 .77.77 0 0 0-.23 1.218c.285.32.523.201.724-.028z" fill="#fff"/><path d="M40.257 20.024a.53.53 0 0 1-.403-.21.806.806 0 0 1-.22-.714.86.86 0 0 1 .467-.613.97.97 0 0 1 .769 0 .46.46 0 0 1 .315.407.34.34 0 0 1-.031.142 5.953 5.953 0 0 1-.458.741.578.578 0 0 1-.403.266l-.036-.019zm.247-1.492a.779.779 0 0 0-.348.083.676.676 0 0 0-.385.503.669.669 0 0 0 .174.604.348.348 0 0 0 .623 0 7.13 7.13 0 0 0 .448-.732.229.229 0 0 0 0-.174.385.385 0 0 0-.21-.183.834.834 0 0 0-.339-.1h.037z" fill="#360000"/><path d="M38.901 21.36a4.28 4.28 0 0 0 1.19.413c.578 0 .962-.962.413-1.291-.55-.33-1.053-.604-1.474-.44a.714.714 0 0 0-.129 1.319z" fill="#fff"/><path d="M40.11 21.837a2.747 2.747 0 0 1-1.007-.33l-.192-.091a.76.76 0 0 1-.422-.723.842.842 0 0 1 .55-.705c.467-.183.915 0 1.538.43a.695.695 0 0 1 .256.824.77.77 0 0 1-.723.595zm-1.172-.54l.192.091c.286.153.596.259.916.311a.632.632 0 0 0 .577-.503.558.558 0 0 0-.202-.659c-.668-.403-1.025-.577-1.41-.43a.714.714 0 0 0-.467.595.631.631 0 0 0 .394.595z" fill="#360000"/><path d="M39.945 22.13a2.353 2.353 0 0 0-1.675-.55.804.804 0 0 0-.138 1.437c.396.208.835.32 1.282.33a.779.779 0 0 0 .531-1.218z" fill="#fff"/><path d="M39.259 23.43a2.574 2.574 0 0 1-.916-.239l-.275-.11a.806.806 0 0 1-.412-.75.915.915 0 0 1 .559-.805 2.363 2.363 0 0 1 1.749.567.66.66 0 0 1 .137.686.915.915 0 0 1-.705.641l-.137.01zm-1.1-.477l.285.11c.28.151.597.224.915.21a.76.76 0 0 0 .605-.548.549.549 0 0 0-.101-.54 2.28 2.28 0 0 0-1.602-.54.795.795 0 0 0-.476.677.667.667 0 0 0 .375.631z" fill="#360000"/><path d="M38.023 23.255a.86.86 0 0 0-.998.778v.312a.439.439 0 0 0 .796.256c.403-.55.778-1.135.202-1.346z" fill="#fff"/><path d="M37.455 24.848h-.156a.504.504 0 0 1-.357-.467v-.33a1.017 1.017 0 0 1 .458-.731.741.741 0 0 1 .623-.101.521.521 0 0 1 .33.302c.09.32-.212.76-.514 1.153a.495.495 0 0 1-.384.174zm.394-1.547a.677.677 0 0 0-.357.11.916.916 0 0 0-.403.622v.312a.366.366 0 0 0 .265.348.367.367 0 0 0 .412-.129c.293-.393.559-.787.485-1.025-.073-.238-.11-.165-.247-.22l-.155-.018z" fill="#360000"/><path d="M46.152 19.85c.414.054.792.26 1.063.577.173.192.915.97 1.007 1.08.054-2.133-1.722-6.956-4.34-9.867-.55-.604-4.312 1.309-4.926 2.938 0 0 2.106 3.332 2.335 3.872.08.21.08.44 0 .65-.053.12-.114.236-.183.348l-.494.768a1.062 1.062 0 0 1-.467 1.831.915.915 0 0 1-.303 1.437 1.355 1.355 0 0 1-1.053.128s-.375.687-.677 1.108a5.723 5.723 0 0 0-.778 1.272c-.083.293 0 1.245.458 1.2.21 0 .622-.632 1.016-1.127.137-.165.32-.1.165.12-.156.219-.32.466-.394.567-.366.558-1.218 1.419-.485 2.014.732.594.915.183 1.117-.12.201-.302.521-.713.75-1.015.23-.303.394-.147.156.173-.238.32-.916 1.2-.989 1.383-.073.183-.247.668.257 1.116.97.915 1.327.183 2.37-1.025.22-.247.312-.119.175.119-.138.238-.412.66-.65 1.034-.412.65-.916 1.273-.1 1.886 1.345 1.053 1.95-.394 2.91-1.83.962-1.438 1.832-3.113 2.683-4.678a1.601 1.601 0 0 0 .284-1.281c-.174-1.19-1.19-2.005-1.749-3.012a1.071 1.071 0 0 1 .842-1.666z" fill="#fff"/><path d="M42.032 32.766a1.501 1.501 0 0 1-.915-.376c-.796-.622-.375-1.263 0-1.83l.064-.101.266-.44c.155-.237.31-.466.43-.686a.495.495 0 0 0 .055-.146.403.403 0 0 0-.12.1l-.347.412c-.513.604-.842.998-1.264 1.035a1.273 1.273 0 0 1-.86-.412c-.55-.494-.449-.916-.266-1.209.183-.292.797-1.125.99-1.382.191-.256.1-.21.09-.22-.008-.008-.063 0-.137.12l-.284.384c-.146.201-.292.412-.466.632a.915.915 0 0 1-.55.402.915.915 0 0 1-.668-.274c-.668-.54-.12-1.272.275-1.83.073-.101.146-.193.201-.285l.156-.22.238-.347c.055-.073.055-.11 0-.11a.174.174 0 0 0-.101.073l-.275.348c-.366.485-.604.778-.787.797a.366.366 0 0 1-.339-.147 1.51 1.51 0 0 1-.192-1.135c.184-.427.424-.827.714-1.19l.073-.1c.247-.355.47-.725.669-1.108h.055a1.292 1.292 0 0 0 1.025-.073.99.99 0 0 0 .476-.678.796.796 0 0 0-.183-.659l-.082-.1h.119a.98.98 0 0 0 .769-.778.915.915 0 0 0-.33-.916h-.055l.531-.823c.036-.052.066-.107.092-.165l.091-.174a.915.915 0 0 0 0-.595c-.22-.53-2.307-3.826-2.325-3.863.494-1.318 2.994-2.819 4.294-3.066.375-.064.622 0 .741.1 2.527 2.81 4.422 7.635 4.367 9.914v.146l-.11-.091-.732-.788-.284-.302a1.593 1.593 0 0 0-1.007-.549.86.86 0 0 0-.796.412 1.226 1.226 0 0 0 0 1.18c.209.344.438.674.686.99.513.53.89 1.177 1.099 1.885.073.439-.029.889-.284 1.254-.302.521-.595 1.052-.915 1.574-.559 1.034-1.145 2.105-1.831 3.112-.129.183-.248.375-.367.568-.522.823-.97 1.537-1.593 1.647l-.1.083zm-.082-3.662h.064c.073.055.064.183 0 .339a7.79 7.79 0 0 1-.44.696c-.063.11-.146.229-.219.338l-.055.101c-.403.613-.75 1.153-.055 1.693a1.18 1.18 0 0 0 .916.33c.558-.092.998-.787 1.501-1.584.12-.192.238-.384.366-.576.66-.989 1.245-2.06 1.831-3.094.284-.522.577-1.062.916-1.574a1.566 1.566 0 0 0 .21-1.245 4.385 4.385 0 0 0-1.034-1.977 9.463 9.463 0 0 1-.705-1.007 1.353 1.353 0 0 1 0-1.309 1.008 1.008 0 0 1 .916-.485c.427.054.82.266 1.098.595l.284.302c.202.22.458.503.614.659 0-2.078-1.676-6.718-4.331-9.657-.082-.091-.302-.119-.613-.054-1.264.237-3.663 1.675-4.184 2.947.22.348 2.105 3.322 2.316 3.844.085.227.085.478 0 .705l-.092.183a.913.913 0 0 1-.1.174l-.458.714a1.017 1.017 0 0 1 .33 1.043 1.125 1.125 0 0 1-.76.86.915.915 0 0 1 .137.696 1.1 1.1 0 0 1-.54.77c-.333.174-.721.21-1.08.1-.198.365-.415.72-.65 1.062l-.074.11a4.79 4.79 0 0 0-.696 1.143 1.4 1.4 0 0 0 .165 1.016.256.256 0 0 0 .229.101c.128 0 .44-.42.687-.75l.274-.357c.092-.11.22-.147.293-.092.073.055.092.147 0 .293l-.247.357-.156.21c-.054.092-.128.193-.201.293-.384.522-.915 1.172-.293 1.63a.778.778 0 0 0 .568.238.734.734 0 0 0 .448-.348c.174-.22.32-.421.467-.622l.284-.394c.128-.174.266-.192.33-.137.064.055.091.183-.064.402-.156.22-.916 1.19-.99 1.364-.219.348-.137.696.248 1.044.194.22.467.355.76.375.366 0 .687-.412 1.172-.989.1-.128.22-.265.348-.402.128-.138.21-.129.265-.129v.055zm-39.588.787c.266.322.55.628.852.916.293.274.741.824 1.144.842a.78.78 0 0 0 .678-.357c.485-.916-.916-2.014-1.401-2.746a2.682 2.682 0 0 1-.32-2.188c.503-.833.915-1.675 1.364-2.517a54.521 54.521 0 0 1 2.939-4.576 1.218 1.218 0 0 1 1.18-.357l2.646-4.083c-1.464-2.06-4.019-3.377-4.824-3.23-.302.045-2.976 4.31-4.432 7.24A13.882 13.882 0 0 0 .77 25.588a8.84 8.84 0 0 0 1.593 4.302z" fill="#360000"/><path d="M4.386 32.17H4.34a2.216 2.216 0 0 1-1.31-.814l-.155-.165a8.393 8.393 0 0 1-2.628-5.556 14.148 14.148 0 0 1 1.484-7.048c.668-1.336 1.666-3.112 2.673-4.741C6.07 11.155 6.299 11.1 6.528 11.1c1.117-.201 3.845 1.382 5.31 3.442l.202.274-3.03 4.66-.34-.083a.678.678 0 0 0-.714.229c-.311.302-2.197 3.34-2.865 4.485-.211.366-.403.75-.596 1.125-.192.376-.485.916-.769 1.4a2.352 2.352 0 0 0 .32 1.676c.15.217.312.425.486.622.641.77 1.447 1.73.916 2.673a1.254 1.254 0 0 1-1.062.567zm2.426-20.136a55.472 55.472 0 0 0-4.184 7.002v.055a13.333 13.333 0 0 0-1.364 6.407 8.484 8.484 0 0 0 1.455 4.082c.251.32.52.626.806.916l.183.183c.137.137.504.512.65.521a.292.292 0 0 0 .21-.1c.202-.357-.384-1.053-.814-1.566a6.983 6.983 0 0 1-.559-.714 3.029 3.029 0 0 1-.33-2.745c.266-.44.486-.916.724-1.346.238-.43.403-.769.632-1.162.944-1.62 1.97-3.19 3.076-4.705a1.703 1.703 0 0 1 1.282-.531l2.289-3.533a7.662 7.662 0 0 0-4.056-2.764zm3.232 20.072a5.681 5.681 0 0 0-.458.733.33.33 0 0 0 .229.457.916.916 0 0 0 .723 0 .77.77 0 0 0 .229-1.217.411.411 0 0 0-.723.027z" fill="#360000"/><path d="M10.163 33.864a1.51 1.51 0 0 1-.522-.1.916.916 0 0 1-.54-.523.787.787 0 0 1 .055-.64 6.74 6.74 0 0 1 .485-.787.916.916 0 0 1 .714-.44.962.962 0 0 1 .77.348 1.246 1.246 0 0 1 .32 1.09 1.272 1.272 0 0 1-.696.915c-.182.09-.383.137-.586.137zm0-.998a.284.284 0 0 0 .174 0 .266.266 0 0 0 .155-.201.256.256 0 0 0 0-.202c-.123.128-.24.262-.348.403h.019z" fill="#360000"/><path d="M11.72 30.468a4.22 4.22 0 0 0-1.182-.448c-.577 0-.97.96-.412 1.29.559.33 1.053.604 1.465.44a.714.714 0 0 0 .128-1.282z" fill="#360000"/><path d="M11.289 32.335a2.866 2.866 0 0 1-1.42-.558 1.089 1.089 0 0 1-.448-1.309 1.2 1.2 0 0 1 1.135-.915c.41.05.807.173 1.172.366l.147.1a1.182 1.182 0 0 1 .632 1.126 1.272 1.272 0 0 1-.825 1.071c-.124.06-.256.1-.393.12zm-.77-1.83s-.11.073-.155.201c-.046.128 0 .137 0 .174.623.384.852.467 1.035.393a.301.301 0 0 0 .192-.22.21.21 0 0 0-.12-.182l-.182-.083a2.747 2.747 0 0 0-.787-.283h.018z" fill="#360000"/><path d="M10.685 29.7c.462.394 1.06.59 1.666.549a.806.806 0 0 0 .137-1.438 2.894 2.894 0 0 0-1.272-.33.78.78 0 0 0-.531 1.218z" fill="#360000"/><path d="M12.15 30.77a3.15 3.15 0 0 1-1.832-.714 1.108 1.108 0 0 1-.274-1.107 1.356 1.356 0 0 1 1.034-.916c.442-.04.887.045 1.282.247l.256.101a1.227 1.227 0 0 1 .632 1.153 1.363 1.363 0 0 1-.815 1.172 1.063 1.063 0 0 1-.284.064zm-1.117-1.428c.332.25.729.403 1.144.44a.375.375 0 0 0 .201-.302.23.23 0 0 0-.1-.22l-.257-.1a1.814 1.814 0 0 0-.705-.193.339.339 0 0 0-.256.201.22.22 0 0 0-.027.174z" fill="#360000"/><path d="M12.607 28.573a.852.852 0 0 0 .99-.778 2.005 2.005 0 0 0 0-.31.439.439 0 0 0-.807-.211c-.393.503-.769 1.089-.183 1.3z" fill="#360000"/><path d="M12.79 29.104c-.115 0-.23-.018-.338-.055a.916.916 0 0 1-.595-.585c-.156-.513.2-1.035.576-1.529a.915.915 0 0 1 1.685.54 2.77 2.77 0 0 1 0 .384 1.41 1.41 0 0 1-.66 1.044c-.198.13-.43.2-.668.201zm.33-1.437c-.102.137-.194.28-.275.43h.092a.457.457 0 0 0 .183-.292v-.138z" fill="#360000"/><path d="M4.468 31.978a1.657 1.657 0 0 1-1.053-.576c-.183-.193-.915-.97-1.016-1.08-.055 2.132 1.721 6.956 4.349 9.867.55.604 4.312-1.31 4.925-2.938 0 0-2.115-3.332-2.334-3.872a.915.915 0 0 1 0-.65c.11-.21.11-.229.183-.348.192-.284.311-.476.494-.769a1.062 1.062 0 0 1 .467-1.83.915.915 0 0 1 .311-1.438 1.356 1.356 0 0 1 1.08-.1c.204-.38.427-.75.67-1.108.316-.388.58-.816.786-1.272.074-.293 0-1.245-.466-1.199-.202 0-.614.632-1.008 1.126-.137.165-.33.1-.174-.12.156-.219.33-.466.394-.567.375-.558 1.227-1.418.485-2.013-.595-.486-.915-.183-1.117.119l-.75 1.016c-.193.256-.394.146-.147-.174.247-.32.916-1.2.989-1.382.073-.184.238-.669-.265-1.117-.971-.915-1.328-.183-2.372 1.025-.22.247-.311.119-.174-.119.138-.238.412-.659.66-1.034.411-.65.87-1.273.091-1.886-1.337-1.052-1.95.394-2.911 1.83-.962 1.438-1.786 3.113-2.683 4.678a1.6 1.6 0 0 0-.275 1.208c.174 1.19 1.181 2.005 1.75 3.012a1.08 1.08 0 0 1-.889 1.711z" fill="#360000"/><path d="M7.114 40.793a.916.916 0 0 1-.732-.275c-2.6-2.874-4.578-7.853-4.477-10.215v-1.07l.805.722c.083.074.312.32.76.806l.275.302c.178.217.428.363.705.412a.43.43 0 0 0 .42-.202.777.777 0 0 0 0-.75 8.404 8.404 0 0 0-.658-.915 4.832 4.832 0 0 1-1.154-2.234 2.142 2.142 0 0 1 .339-1.528c.302-.513.586-1.053.87-1.566.567-1.043 1.162-2.123 1.83-3.14l.367-.567c.577-.915 1.071-1.702 1.831-1.83a1.76 1.76 0 0 1 1.392.44 1.328 1.328 0 0 1 .54 1.528h.1a1.655 1.655 0 0 1 1.181.512 1.42 1.42 0 0 1 .55 1.172c.267.056.516.178.723.357a1.208 1.208 0 0 1 .339 1.529.913.913 0 0 1 .311.228 1.985 1.985 0 0 1 .275 1.529 5.09 5.09 0 0 1-.778 1.327l-.083.11c-.23.339-.44.69-.632 1.052l-.21.376-.403-.147a.916.916 0 0 0-.668 0 .56.56 0 0 0-.257.376.392.392 0 0 0 .074.302l.622.686-.915.137a.54.54 0 0 0-.403.449.467.467 0 0 0 .146.494l.394.275-.75 1.171-.074.129-.073.146a.503.503 0 0 0 0 .265c.146.376 1.483 2.527 2.289 3.799l.137.201-.092.238c-.549 1.456-3.186 3.057-4.577 3.332a2.19 2.19 0 0 1-.34.037zm-.046-.989A4.89 4.89 0 0 0 9.128 39a5.63 5.63 0 0 0 1.95-1.721c-.503-.797-2.023-3.213-2.225-3.716a1.382 1.382 0 0 1 0-1.025l.092-.165a.988.988 0 0 1 .119-.21l.275-.44a1.51 1.51 0 0 1-.202-1.19c.083-.39.308-.737.632-.97a1.382 1.382 0 0 1 0-.55 1.555 1.555 0 0 1 .76-1.08 1.776 1.776 0 0 1 1.062-.2c.16-.29.333-.571.522-.843l.082-.11c.248-.309.457-.647.623-1.007.023-.13.023-.263 0-.393l-.33.412-.274.357a.641.641 0 0 1-1.087-.029.613.613 0 0 1 .089-.722l.247-.357.146-.201c.082-.11.17-.213.266-.311.53-.733.55-.916.366-1.053-.183-.137-.247-.137-.247-.137s-.055 0-.165.174l-.458.622-.284.394a.669.669 0 0 1-.915.228c-.183-.137-.385-.503 0-.997.247-.33.915-1.2.97-1.355.055-.155.138-.21-.174-.485-.31-.275-.402-.275-.44-.265-.182 0-.53.43-.915.832l-.357.412c-.42.486-.796.266-.87.21a.633.633 0 0 1-.11-.914c.129-.248.284-.476.45-.733l.219-.338.064-.092c.485-.76.467-.915.147-1.126a.842.842 0 0 0-.605-.247c-.375.064-.805.741-1.217 1.391-.12.193-.238.385-.367.577-.659.989-1.236 2.05-1.83 3.075a25.969 25.969 0 0 1-.916 1.584A1.153 1.153 0 0 0 4 27.2c.171.664.501 1.277.961 1.785.27.332.515.684.733 1.053a1.738 1.738 0 0 1 0 1.739 1.419 1.419 0 0 1-1.291.695c-.54-.05-1.04-.31-1.392-.723a19.357 19.357 0 0 0 4.056 8.055z" fill="#360000"/><path d="M2.362 29.891c.266.322.55.628.852.916.293.274.741.824 1.144.842a.78.78 0 0 0 .678-.357c.485-.916-.916-2.014-1.401-2.746a2.682 2.682 0 0 1-.32-2.188c.503-.833.915-1.675 1.364-2.517a54.521 54.521 0 0 1 2.939-4.576 1.218 1.218 0 0 1 1.18-.357l2.646-4.083c-1.464-2.06-4.019-3.377-4.824-3.23-.302.045-2.976 4.31-4.432 7.24A13.882 13.882 0 0 0 .77 25.588a8.84 8.84 0 0 0 1.593 4.302z" fill="#fff"/><path d="M4.386 31.74c-.366 0-.733-.384-1.026-.686a1.396 1.396 0 0 0-.164-.165c-.303-.29-.59-.595-.861-.915a9.152 9.152 0 0 1-1.63-4.348 13.882 13.882 0 0 1 1.429-6.8c1.391-2.792 4.12-7.223 4.486-7.323.915-.156 3.479 1.272 4.889 3.268l-2.683 4.173H8.78a1.126 1.126 0 0 0-1.117.339c-.357.357-2.298 3.487-2.93 4.576-.219.376-.42.76-.613 1.135-.192.376-.476.916-.75 1.383a2.635 2.635 0 0 0 .33 2.132c.158.229.33.449.512.66.595.704 1.263 1.5.915 2.196a.832.832 0 0 1-.741.375zm2.371-20.136h-.128c-.302.119-2.92 4.274-4.386 7.203v.046a13.727 13.727 0 0 0-1.419 6.709 9.05 9.05 0 0 0 1.612 4.284c.264.32.545.625.842.915l.174.174c.256.265.623.631.915.64a.687.687 0 0 0 .614-.31c.339-.614-.302-1.374-.86-2.051a8.836 8.836 0 0 1-.532-.668 2.746 2.746 0 0 1-.32-2.28c.265-.448.513-.915.741-1.363.23-.449.394-.769.614-1.153.53-.916 2.554-4.21 2.957-4.577a1.273 1.273 0 0 1 1.2-.384l2.59-4.01c-1.419-1.958-3.753-3.175-4.614-3.175z" fill="#360000"/><path d="M10.044 32.106a5.681 5.681 0 0 0-.458.733.33.33 0 0 0 .229.457.916.916 0 0 0 .723 0 .77.77 0 0 0 .229-1.217.411.411 0 0 0-.723.027z" fill="#fff"/><path d="M10.163 33.434a1.045 1.045 0 0 1-.367-.073.476.476 0 0 1-.327-.408c0-.05.012-.098.034-.142a5.96 5.96 0 0 1 .458-.741.556.556 0 0 1 .394-.266.541.541 0 0 1 .43.211.796.796 0 0 1 .21.714.85.85 0 0 1-.457.613 1.035 1.035 0 0 1-.375.092zm-.064-1.29a6.6 6.6 0 0 0-.449.731.192.192 0 0 0 0 .174.356.356 0 0 0 .21.183.806.806 0 0 0 .669 0 .723.723 0 0 0 .384-.503.705.705 0 0 0-.183-.604.457.457 0 0 0-.32-.174.44.44 0 0 0-.293.21l-.018-.018z" fill="#360000"/><path d="M11.72 30.468a4.22 4.22 0 0 0-1.182-.448c-.577 0-.97.96-.412 1.29.559.33 1.053.604 1.465.44a.714.714 0 0 0 .128-1.282z" fill="#fff"/><path d="M11.289 31.905a2.563 2.563 0 0 1-1.2-.494.695.695 0 0 1-.265-.824.778.778 0 0 1 .714-.595 2.74 2.74 0 0 1 1.007.33l.202.091a.75.75 0 0 1 .412.723.824.824 0 0 1-.55.705.843.843 0 0 1-.32.064zm-.77-1.776a.641.641 0 0 0-.558.504.54.54 0 0 0 .202.659c.659.403 1.016.577 1.41.43a.696.696 0 0 0 .457-.595.622.622 0 0 0-.338-.595l-.202-.091a2.828 2.828 0 0 0-.915-.311h-.055z" fill="#360000"/><path d="M10.685 29.7c.462.394 1.06.59 1.666.549a.806.806 0 0 0 .137-1.438 2.894 2.894 0 0 0-1.272-.33.78.78 0 0 0-.531 1.218z" fill="#fff"/><path d="M12.159 30.35a2.748 2.748 0 0 1-1.52-.605.685.685 0 0 1-.147-.687.915.915 0 0 1 .705-.64c.359-.02.716.055 1.035.22l.284.11a.788.788 0 0 1 .412.75.915.915 0 0 1-.559.805.689.689 0 0 1-.21.046zm-.797-1.832h-.137a.77.77 0 0 0-.604.55.55.55 0 0 0 .11.54 2.26 2.26 0 0 0 1.601.54.816.816 0 0 0 .477-.678.677.677 0 0 0-.348-.631l-.275-.11a2.372 2.372 0 0 0-.824-.192v-.019z" fill="#360000"/><path d="M12.607 28.573a.852.852 0 0 0 .99-.778 2.005 2.005 0 0 0 0-.31.439.439 0 0 0-.807-.211c-.393.503-.769 1.089-.183 1.3z" fill="#fff"/><path d="M12.79 28.665a.716.716 0 0 1-.201 0 .485.485 0 0 1-.32-.302c-.101-.32.21-.76.503-1.154a.494.494 0 0 1 .559-.173.505.505 0 0 1 .357.466v.33a1.025 1.025 0 0 1-.467.732.833.833 0 0 1-.43.1zm.385-1.547a.357.357 0 0 0-.293.147c-.293.393-.559.787-.485 1.025a.357.357 0 0 0 .238.22.604.604 0 0 0 .503-.092.861.861 0 0 0 .403-.623 1.837 1.837 0 0 0 0-.31.357.357 0 0 0-.256-.349l-.11-.018z" fill="#360000"/><path d="M4.468 31.978a1.657 1.657 0 0 1-1.053-.576c-.183-.193-.915-.97-1.016-1.08-.055 2.132 1.721 6.956 4.349 9.867.55.604 4.312-1.31 4.925-2.938 0 0-2.115-3.332-2.334-3.872a.915.915 0 0 1 0-.65c.11-.21.11-.229.183-.348.192-.284.311-.476.494-.769a1.062 1.062 0 0 1 .467-1.83.915.915 0 0 1 .311-1.438 1.356 1.356 0 0 1 1.08-.1c.204-.38.427-.75.67-1.108.316-.388.58-.816.786-1.272.074-.293 0-1.245-.466-1.199-.202 0-.614.632-1.008 1.126-.137.165-.33.1-.174-.12.156-.219.33-.466.394-.567.375-.558 1.227-1.418.485-2.013-.595-.486-.915-.183-1.117.119l-.75 1.016c-.193.256-.394.146-.147-.174.247-.32.916-1.2.989-1.382.073-.184.238-.669-.265-1.117-.971-.915-1.328-.183-2.372 1.025-.22.247-.311.119-.174-.119.138-.238.412-.659.66-1.034.411-.65.87-1.273.091-1.886-1.337-1.052-1.95.394-2.911 1.83-.962 1.438-1.786 3.113-2.683 4.678a1.6 1.6 0 0 0-.275 1.208c.174 1.19 1.181 2.005 1.75 3.012a1.08 1.08 0 0 1-.889 1.711z" fill="#fff"/><path d="M7.105 40.362a.568.568 0 0 1-.412-.128c-2.527-2.81-4.422-7.633-4.358-9.912v-.147l.11.092c.091.082.448.476.741.787l.275.302a1.64 1.64 0 0 0 1.007.549.85.85 0 0 0 .797-.412 1.208 1.208 0 0 0 0-1.18 8.702 8.702 0 0 0-.715-.99 4.577 4.577 0 0 1-1.052-2.05 1.666 1.666 0 0 1 .293-1.253l.87-1.575c.567-1.034 1.153-2.105 1.83-3.112.129-.183.248-.375.367-.567.521-.824.98-1.538 1.593-1.648a1.363 1.363 0 0 1 1.052.357c.788.622.376 1.263 0 1.83l-.054.101-.23.34a16.13 16.13 0 0 0-.43.686.384.384 0 0 0 0 .146.586.586 0 0 0 .12-.1l.338-.413c.513-.604.852-.997 1.264-1.034a1.235 1.235 0 0 1 .86.412.916.916 0 0 1 .275 1.208c-.12.183-.77 1.09-.989 1.382a.403.403 0 0 0-.1.22.284.284 0 0 0 .137-.119l.283-.384.467-.632a.916.916 0 0 1 .55-.403.917.917 0 0 1 .668.275c.668.54.128 1.272-.275 1.83l-.201.284-.146.22-.248.348a.247.247 0 0 0-.046.11.183.183 0 0 0 .11-.074c.092-.11.184-.228.266-.347.375-.486.613-.778.787-.797a.376.376 0 0 1 .348.147c.207.34.276.746.192 1.135a4.948 4.948 0 0 1-.714 1.18l-.082.11c-.293.412-.66 1.099-.668 1.108h-.055a1.29 1.29 0 0 0-1.026.073.98.98 0 0 0-.467.677.741.741 0 0 0 .183.66l.083.1h-.128a.98.98 0 0 0-.76.778.915.915 0 0 0 .32.915h.055l-.522.824a1.025 1.025 0 0 0-.091.165.917.917 0 0 0-.092.174.86.86 0 0 0 0 .595c.22.53 2.307 3.826 2.326 3.862-.495 1.318-2.994 2.82-4.303 3.067l-.403.228zm-4.633-9.876c0 2.078 1.676 6.719 4.321 9.657a.722.722 0 0 0 .614.055c1.272-.238 3.662-1.675 4.184-2.947-.22-.348-2.106-3.323-2.316-3.845a1.007 1.007 0 0 1 0-.705c.045-.091.073-.137.091-.183l.1-.174.459-.713a1.007 1.007 0 0 1-.32-1.044 1.117 1.117 0 0 1 .76-.86.96.96 0 0 1-.147-.696 1.126 1.126 0 0 1 .54-.769c.326-.154.699-.18 1.044-.073.091-.165.402-.714.65-1.062l.082-.11c.282-.347.513-.732.686-1.144a1.445 1.445 0 0 0-.155-1.016.256.256 0 0 0-.229-.1c-.128 0-.44.42-.696.75l-.274.357a.23.23 0 0 1-.293.091c-.055-.045-.083-.146 0-.292l.247-.357.146-.21.202-.294c.393-.521.87-1.171.302-1.629a.796.796 0 0 0-.568-.238.77.77 0 0 0-.458.348l-.467.622c-.091.137-.192.266-.283.394-.092.128-.257.192-.33.137-.073-.055-.091-.183.073-.403.165-.22.87-1.199.98-1.363.22-.348.137-.696-.247-1.044a1.135 1.135 0 0 0-.76-.375c-.357 0-.678.412-1.163.988l-.348.403c-.155.183-.256.183-.311.147-.055-.037-.064-.184 0-.34.064-.155.275-.457.43-.695l.22-.338.064-.101c.403-.613.742-1.153.055-1.693a1.18 1.18 0 0 0-.916-.33c-.558.092-.997.787-1.501 1.584-.12.192-.238.384-.366.576-.669.989-1.245 2.06-1.831 3.094-.284.522-.577 1.062-.87 1.574a1.565 1.565 0 0 0-.238 1.154 4.402 4.402 0 0 0 1.044 1.977c.256.317.489.654.695 1.006a1.336 1.336 0 0 1 0 1.31.988.988 0 0 1-.915.484 1.72 1.72 0 0 1-1.108-.595l-.275-.302-.604-.668zM29.27 48.857c.322-.265.628-.55.916-.852.274-.283.814-.732.833-1.144a.76.76 0 0 0-.348-.668c-.916-.494-2.014.916-2.747 1.391a2.637 2.637 0 0 1-2.206.32c-.824-.494-1.676-.915-2.518-1.354-1.007-.586-4.22-2.572-4.578-2.947a1.189 1.189 0 0 1-.338-1.18l-4.12-2.646c-2.051 1.464-3.379 4.018-3.232 4.823.055.303 4.321 2.975 7.25 4.44a13.736 13.736 0 0 0 6.758 1.419 8.873 8.873 0 0 0 4.33-1.602z" fill="#360000"/><path d="M24.198 51.017a14.917 14.917 0 0 1-6.217-1.52c-1.336-.668-3.103-1.666-4.733-2.672-2.692-1.666-2.746-1.895-2.746-2.115-.202-1.126 1.373-3.853 3.433-5.318l.274-.201 4.67 3.03-.092.338a.713.713 0 0 0 .229.714c.311.311 3.342 2.206 4.486 2.865l1.126.604c.458.23.916.476 1.401.76a2.326 2.326 0 0 0 1.685-.32c.174-.11.384-.293.613-.476.769-.65 1.73-1.456 2.682-.916a1.272 1.272 0 0 1 .605 1.135 2.088 2.088 0 0 1-.815 1.3l-.156.165c-.311.324-.641.63-.989.915a9.404 9.404 0 0 1-4.577 1.73c-.293.01-.587.004-.88-.018zM11.38 44.408a54.676 54.676 0 0 0 6.986 4.183 13.516 13.516 0 0 0 6.464 1.373 8.662 8.662 0 0 0 4.065-1.52c.32-.25.626-.519.915-.805l.174-.183c.137-.137.513-.503.522-.64a.246.246 0 0 0-.1-.22c-.349-.192-1.054.393-1.557.824-.23.196-.472.38-.723.549a3.06 3.06 0 0 1-2.747.338c-.44-.265-.916-.494-1.337-.732-.42-.238-.778-.403-1.172-.622a55.241 55.241 0 0 1-4.586-3.003 1.71 1.71 0 0 1-.54-1.28l-3.525-2.29a7.735 7.735 0 0 0-2.802 4.028h-.037zm20.124-3.231c.232.171.477.324.732.458.183.11.376 0 .458-.229a.916.916 0 0 0 0-.714.769.769 0 0 0-1.218-.229.402.402 0 0 0 .028.714z" fill="#360000"/><path d="M32.374 42.166a.76.76 0 0 1-.385-.101 7.375 7.375 0 0 1-.778-.485.914.914 0 0 1-.37-1.143.915.915 0 0 1 .26-.35 1.263 1.263 0 0 1 2.005.376 1.336 1.336 0 0 1 0 1.108.914.914 0 0 1-.513.54.704.704 0 0 1-.22.055zm-.559-1.364c.137.091.275.183.449.284a.41.41 0 0 0 0-.183.265.265 0 0 0-.202-.147.248.248 0 0 0-.247.046z" fill="#360000"/><path d="M29.865 39.502a3.707 3.707 0 0 0-.412 1.18c0 .587.916.971 1.291.422.375-.55.595-1.053.43-1.474a.714.714 0 0 0-1.309-.128z" fill="#360000"/><path d="M30.24 41.864a1.5 1.5 0 0 1-.384-.055 1.19 1.19 0 0 1-.916-1.144c.046-.41.17-.809.367-1.172l.082-.174a1.172 1.172 0 0 1 1.126-.622 1.254 1.254 0 0 1 1.071.814 2.123 2.123 0 0 1-.467 1.913 1.072 1.072 0 0 1-.878.44zm.065-2.133c0 .055-.055.119-.083.183-.133.25-.226.518-.274.796a.283.283 0 0 0 .192.147h.183c.375-.623.458-.842.394-1.025a.266.266 0 0 0-.23-.193.193.193 0 0 0-.182.092z" fill="#360000"/><path d="M29.087 40.546a2.306 2.306 0 0 0 .55-1.675.796.796 0 0 0-1.429-.138 2.747 2.747 0 0 0-.33 1.273.779.779 0 0 0 1.209.54z" fill="#360000"/><path d="M28.693 41.196c-.121 0-.241-.02-.357-.055a1.345 1.345 0 0 1-.897-1.053 2.26 2.26 0 0 1 .247-1.281 2.24 2.24 0 0 0 .092-.257v-.045a1.217 1.217 0 0 1 1.144-.632 1.364 1.364 0 0 1 1.172.815 2.681 2.681 0 0 1-.65 2.215 1.007 1.007 0 0 1-.75.293zm-.073-2.243l-.1.247c-.119.22-.184.465-.193.714a.348.348 0 0 0 .192.256c.06.015.123.015.183 0 .251-.336.403-.735.44-1.153a.393.393 0 0 0-.312-.201.23.23 0 0 0-.173.137h-.037z" fill="#360000"/><path d="M27.96 38.614a.85.85 0 0 0-.768-.988 1.824 1.824 0 0 0-.32 0 .439.439 0 0 0-.257.787c.55.412 1.135.76 1.346.201z" fill="#360000"/><path d="M27.595 39.41a2.317 2.317 0 0 1-1.282-.612.916.916 0 0 1-.32-1.035.915.915 0 0 1 .87-.65h.374a1.382 1.382 0 0 1 1.044.66 1.125 1.125 0 0 1 .147.997.916.916 0 0 1-.586.586.77.77 0 0 1-.247.055zm-.55-1.299c.137.106.284.198.44.275a.378.378 0 0 0 0-.083.413.413 0 0 0-.293-.183l-.147-.009z" fill="#360000"/><path d="M31.366 46.751a1.674 1.674 0 0 1-.576 1.062c-.183.174-.97.915-1.08 1.007 2.142.055 6.957-1.72 9.869-4.348.604-.54-1.31-4.31-2.94-4.915 0 0-3.323 2.105-3.872 2.325a.91.91 0 0 1-.65 0l-.339-.183-.769-.494a1.062 1.062 0 0 1-1.83-.467.961.961 0 0 1-1.447-.312 1.39 1.39 0 0 1-.083-1.08 11.49 11.49 0 0 1-1.126-.631 5.78 5.78 0 0 0-1.282-.778c-.293-.082-1.245 0-1.199.458 0 .21.632.622 1.126 1.015.174.129.11.32-.119.165l-.558-.402c-.559-.367-1.41-1.227-2.005-.486-.486.595-.183.916.119 1.117.302.201.705.522 1.016.75.311.23.146.394-.183.147-.33-.247-1.19-.915-1.373-.98-.184-.063-.678-.246-1.127.257-.915.97-.183 1.327 1.026 2.37.256.22.128.312-.12.175-.246-.138-.65-.412-1.034-.65-.65-.412-1.272-.916-1.83-.101-1.054 1.346.393 1.95 1.83 2.91 1.438.962 3.122 1.831 4.679 2.683.353.25.79.351 1.217.283 1.181-.183 1.996-1.19 3.003-1.757a1.081 1.081 0 0 1 1.657.86z" fill="#360000"/><path d="M29.81 49.314h-1.19l.723-.796c.083-.092.32-.32.815-.769l.293-.275c.217-.18.365-.428.421-.704a.43.43 0 0 0-.21-.421.77.77 0 0 0-.742 0 7.16 7.16 0 0 0-.916.65 4.825 4.825 0 0 1-2.243 1.153 2.106 2.106 0 0 1-1.528-.339l-1.566-.915c-1.044-.568-2.124-1.154-3.14-1.83a9.465 9.465 0 0 0-.559-.358c-.915-.577-1.703-1.08-1.83-1.885a1.757 1.757 0 0 1 .448-1.383 1.31 1.31 0 0 1 1.52-.549.414.414 0 0 0 0-.1 1.656 1.656 0 0 1 .521-1.172 1.355 1.355 0 0 1 1.172-.55c.052-.268.176-.517.357-.722a1.18 1.18 0 0 1 1.52-.339.787.787 0 0 1 .238-.311 1.97 1.97 0 0 1 1.52-.284c.466.21.896.495 1.272.842l.11.074c.34.231.691.445 1.053.64l.385.202-.156.402a.915.915 0 0 0 .055.678.531.531 0 0 0 .366.247.33.33 0 0 0 .302-.074l.687-.622.137.915a.576.576 0 0 0 .458.412.486.486 0 0 0 .494-.146l.266-.403 1.181.75.12.074.155.073a.513.513 0 0 0 .265 0c.366-.146 2.518-1.483 3.79-2.288l.211-.137.229.091c1.465.55 3.058 3.185 3.333 4.622a1.162 1.162 0 0 1-.239 1.135c-2.828 2.508-7.69 4.412-10.098 4.412zm2.051-2.553a2.123 2.123 0 0 1-.714 1.4 19.476 19.476 0 0 0 8.047-4.01 4.759 4.759 0 0 0-.769-2.086 5.62 5.62 0 0 0-1.748-1.977c-.806.512-3.214 2.023-3.717 2.224a1.402 1.402 0 0 1-1.035 0l-.165-.082-.22-.128-.439-.183a1.477 1.477 0 0 1-1.19.2 1.62 1.62 0 0 1-.98-.63 1.373 1.373 0 0 1-.55 0 1.502 1.502 0 0 1-1.07-.76 1.83 1.83 0 0 1-.21-1.062 8.306 8.306 0 0 1-.834-.522l-.11-.082a5.108 5.108 0 0 0-1.007-.623 1.21 1.21 0 0 0-.403 0l.412.32.357.275a.65.65 0 0 1 .174.916.612.612 0 0 1-.915.082l-.357-.247-.21-.147-.303-.22c-.723-.53-.916-.548-1.044-.365a.64.64 0 0 0-.146.247.914.914 0 0 0 .183.164l.613.458.394.293a.651.651 0 0 1 .229.915c-.128.183-.495.394-.998 0-.33-.247-1.2-.87-1.346-.97-.146-.1-.22-.137-.494.174-.275.311-.266.403-.266.448 0 .046.43.531.833.87.128.11.275.22.412.348.495.42.266.805.22.915a.66.66 0 0 1-.916.11 13.291 13.291 0 0 1-.723-.458l-.339-.22-.1-.054c-.76-.494-.916-.476-1.126-.156a.85.85 0 0 0-.247.613c.064.367.741.797 1.4 1.209l.577.375c.98.65 2.042 1.226 3.067 1.83.522.284 1.062.577 1.584.916a1.135 1.135 0 0 0 .915.22 3.956 3.956 0 0 0 1.777-.916 8.73 8.73 0 0 1 1.062-.732 1.831 1.831 0 0 1 1.74 0 1.438 1.438 0 0 1 .686 1.29l.009-.182z" fill="#360000"/><path d="M29.27 48.857c.322-.265.628-.55.916-.852.274-.283.814-.732.833-1.144a.76.76 0 0 0-.348-.668c-.916-.494-2.014.916-2.747 1.391a2.637 2.637 0 0 1-2.206.32c-.824-.494-1.676-.915-2.518-1.354-1.007-.586-4.22-2.572-4.578-2.947a1.189 1.189 0 0 1-.338-1.18l-4.12-2.646c-2.051 1.464-3.379 4.018-3.232 4.823.055.303 4.321 2.975 7.25 4.44a13.736 13.736 0 0 0 6.758 1.419 8.873 8.873 0 0 0 4.33-1.602z" fill="#fff"/><path d="M24.207 50.587a14.432 14.432 0 0 1-6.024-1.474c-2.793-1.391-7.215-4.119-7.325-4.476-.155-.915 1.273-3.478 3.26-4.897l4.165 2.746a1.106 1.106 0 0 0 .34 1.117c.347.357 3.478 2.297 4.577 2.929.375.22.769.42 1.144.613.376.192.916.476 1.374.75a2.628 2.628 0 0 0 2.133-.32c.23-.16.45-.334.659-.521.705-.586 1.51-1.264 2.197-.916a.833.833 0 0 1 .394.733c0 .366-.394.732-.696 1.025-.055.064-.119.119-.165.164-.29.303-.595.59-.915.86a9.285 9.285 0 0 1-4.349 1.64 6.785 6.785 0 0 1-.769.027zm-10.07-10.728c-2.024 1.483-3.27 3.982-3.178 4.732.12.302 4.276 2.92 7.215 4.385a13.735 13.735 0 0 0 6.71 1.418 9.028 9.028 0 0 0 4.386-1.592c.324-.26.63-.54.916-.842l.173-.174c.266-.257.632-.613.65-.916a.696.696 0 0 0-.32-.613c-.613-.338-1.373.302-2.05.916a6.8 6.8 0 0 1-.67.521 2.748 2.748 0 0 1-2.279.33c-.448-.275-.915-.513-1.364-.75-.449-.239-.769-.394-1.144-.614-.916-.53-4.221-2.554-4.578-2.956a1.254 1.254 0 0 1-.385-1.19l-4.083-2.655z" fill="#360000"/><path d="M31.504 41.177c.232.171.477.324.732.458.183.11.376 0 .458-.229a.916.916 0 0 0 0-.714.769.769 0 0 0-1.218-.229.402.402 0 0 0 .028.714z" fill="#fff"/><path d="M32.374 41.736a.293.293 0 0 1-.174 0 6.744 6.744 0 0 1-.742-.458.54.54 0 0 1-.265-.394.567.567 0 0 1 .21-.43.842.842 0 0 1 1.415.636c0 .135-.03.267-.087.39a.466.466 0 0 1-.275.283.229.229 0 0 1-.082-.027zm-.357-1.42a.687.687 0 0 0-.477.193.347.347 0 0 0 0 .613c.231.169.473.322.724.458a.194.194 0 0 0 .174 0 .321.321 0 0 0 .192-.21.823.823 0 0 0 0-.66.714.714 0 0 0-.513-.384l-.1-.01z" fill="#360000"/><path d="M29.865 39.502a3.707 3.707 0 0 0-.412 1.18c0 .587.916.971 1.291.422.375-.55.595-1.053.43-1.474a.714.714 0 0 0-1.309-.128z" fill="#fff"/><path d="M30.24 41.434a.788.788 0 0 1-.256 0 .779.779 0 0 1-.604-.714 3.17 3.17 0 0 1 .33-1.007c0-.083.073-.147.091-.202a.769.769 0 0 1 .723-.412.85.85 0 0 1 .705.55c.183.457 0 .915-.44 1.528a.613.613 0 0 1-.549.257zm-.31-1.904l-.092.201a2.72 2.72 0 0 0-.32.915.65.65 0 0 0 .503.577.567.567 0 0 0 .668-.201c.403-.669.577-1.026.421-1.41a.686.686 0 0 0-.586-.467.64.64 0 0 0-.595.385z" fill="#360000"/><path d="M29.087 40.546a2.306 2.306 0 0 0 .55-1.675.796.796 0 0 0-1.429-.138 2.747 2.747 0 0 0-.33 1.273.779.779 0 0 0 1.209.54z" fill="#fff"/><path d="M28.693 40.765a.715.715 0 0 1-.238 0 .914.914 0 0 1-.64-.705 1.83 1.83 0 0 1 .219-1.034l.11-.284a.796.796 0 0 1 .76-.485.915.915 0 0 1 .796.559 2.36 2.36 0 0 1-.567 1.748.604.604 0 0 1-.44.201zm-.43-2.004l-.1.283a1.83 1.83 0 0 0-.22.916.788.788 0 0 0 .549.604.558.558 0 0 0 .55-.1c.37-.45.562-1.02.54-1.603a.797.797 0 0 0-.687-.476.65.65 0 0 0-.632.376z" fill="#360000"/><path d="M27.96 38.614a.85.85 0 0 0-.768-.988 1.824 1.824 0 0 0-.32 0 .439.439 0 0 0-.257.787c.55.412 1.135.76 1.346.201z" fill="#fff"/><path d="M27.595 38.99a2.106 2.106 0 0 1-1.017-.531.495.495 0 0 1-.183-.559.521.521 0 0 1 .476-.356c.11-.01.22-.01.33 0a.97.97 0 0 1 .723.457.741.741 0 0 1 .1.623.494.494 0 0 1-.301.329l-.128.037zm-.66-1.31h-.064a.384.384 0 0 0-.348.257.357.357 0 0 0 .138.412c.384.302.778.558 1.025.485a.33.33 0 0 0 .21-.238.604.604 0 0 0-.082-.503.914.914 0 0 0-.631-.403l-.248-.01z" fill="#360000"/><path d="M31.366 46.751a1.674 1.674 0 0 1-.576 1.062c-.183.174-.97.915-1.08 1.007 2.142.055 6.957-1.72 9.869-4.348.604-.54-1.31-4.31-2.94-4.915 0 0-3.323 2.105-3.872 2.325a.91.91 0 0 1-.65 0l-.339-.183-.769-.494a1.062 1.062 0 0 1-1.83-.467.961.961 0 0 1-1.447-.312 1.39 1.39 0 0 1-.083-1.08 11.49 11.49 0 0 1-1.126-.631 5.78 5.78 0 0 0-1.282-.778c-.293-.082-1.245 0-1.199.458 0 .21.632.622 1.126 1.015.174.129.11.32-.119.165l-.558-.402c-.559-.367-1.41-1.227-2.005-.486-.486.595-.183.916.119 1.117.302.201.705.522 1.016.75.311.23.146.394-.183.147-.33-.247-1.19-.915-1.373-.98-.184-.063-.678-.246-1.127.257-.915.97-.183 1.327 1.026 2.37.256.22.128.312-.12.175-.246-.138-.65-.412-1.034-.65-.65-.412-1.272-.916-1.83-.101-1.054 1.346.393 1.95 1.83 2.91 1.438.962 3.122 1.831 4.679 2.683.353.25.79.351 1.217.283 1.181-.183 1.996-1.19 3.003-1.757a1.081 1.081 0 0 1 1.657.86z" fill="#fff"/><path d="M29.82 48.884h-.257l.1-.11c.074-.082.468-.448.779-.732l.302-.284c.305-.254.504-.613.558-1.007a.916.916 0 0 0-.42-.796 1.19 1.19 0 0 0-1.173 0 8.07 8.07 0 0 0-.997.687 4.505 4.505 0 0 1-2.033 1.07 1.658 1.658 0 0 1-1.254-.302l-1.575-.915c-1.044-.567-2.115-1.144-3.113-1.83l-.567-.367c-.834-.521-1.548-.97-1.658-1.592a1.352 1.352 0 0 1 .367-1.053c.613-.787 1.254-.375 1.877 0l.091.055.339.229c.247.155.476.311.696.43l.146.055a.284.284 0 0 0-.11-.12c-.146-.127-.274-.246-.403-.347-.604-.512-1.007-.842-1.034-1.263a1.197 1.197 0 0 1 .412-.86.915.915 0 0 1 1.208-.275c.174.119 1.08.769 1.383.998.137.1.201.1.21.091.01-.009 0-.064-.119-.137l-.384-.284c-.202-.146-.412-.293-.632-.467a.915.915 0 0 1-.393-.549.914.914 0 0 1 .265-.668c.54-.668 1.282-.128 1.831.275l.275.201c.078.045.151.097.22.156l.347.238c.04.01.08.01.12 0a.183.183 0 0 0-.074-.11l-.357-.128c-.485-.376-.787-.614-.806-.788a.393.393 0 0 1 .147-.347 1.566 1.566 0 0 1 1.135-.183c.43.179.83.42 1.19.714l.11.073c.412.293 1.09.659 1.099.668h.055v.055a1.29 1.29 0 0 0 .082 1.025.914.914 0 0 0 .669.467.78.78 0 0 0 .668-.174l.091-.092v.128a.98.98 0 0 0 .779.76.86.86 0 0 0 .915-.32l.046-.055.824.53.155.092.184.092c.19.064.395.064.586 0 .54-.22 3.826-2.307 3.863-2.334 1.31.494 2.81 2.984 3.058 4.293.073.366 0 .613-.1.741-2.683 2.499-7.398 4.366-9.724 4.366zm1.61-2.133c-.046.433-.26.83-.594 1.108l-.303.274-.659.623c2.079 0 6.72-1.684 9.66-4.33.1-.091.118-.302.063-.613-.247-1.272-1.684-3.661-2.948-4.183-.348.22-3.332 2.105-3.854 2.316a1.007 1.007 0 0 1-.705 0l-.174-.092-.174-.1-.723-.458a.999.999 0 0 1-1.044.33 1.153 1.153 0 0 1-.86-.77.916.916 0 0 1-.687.147 1.089 1.089 0 0 1-.77-.54 1.473 1.473 0 0 1-.11-1.08 12.557 12.557 0 0 1-1.061-.65l-.11-.082a5.053 5.053 0 0 0-1.144-.687 1.383 1.383 0 0 0-1.008.165.23.23 0 0 0-.1.22c0 .137.42.448.75.695l.348.275c.11.092.156.21.092.293-.064.082-.147.091-.293 0l-.33-.22-.22-.155c-.091-.055-.183-.129-.283-.202-.522-.384-1.172-.915-1.639-.302a.789.789 0 0 0-.229.568.696.696 0 0 0 .339.457c.22.174.43.32.632.467l.384.284c.174.128.202.256.147.33-.055.073-.193.091-.403-.074-.21-.165-1.2-.915-1.374-.98-.348-.219-.695-.136-1.043.248a1.088 1.088 0 0 0-.366.76c0 .357.402.677.98 1.162l.411.348c.183.165.174.256.138.311-.037.055-.175.064-.33 0-.156-.064-.458-.274-.705-.44l-.357-.255-.092-.065c-.622-.393-1.162-.741-1.703-.045a1.207 1.207 0 0 0-.33.915c.101.558.788.989 1.594 1.501l.568.366c.997.66 2.069 1.245 3.103 1.83.513.285 1.053.578 1.575.916a1.56 1.56 0 0 0 1.172.266 4.376 4.376 0 0 0 1.968-1.044 9.494 9.494 0 0 1 1.016-.695 1.355 1.355 0 0 1 1.31 0 .988.988 0 0 1 .476.915v-.028zM21.323 2.972c-.322.265-.628.55-.915.851-.275.284-.815.733-.834 1.144a.741.741 0 0 0 .348.669c.916.494 2.015-.916 2.793-1.392a2.637 2.637 0 0 1 2.206-.32c.824.494 1.676.915 2.518 1.355 1.007.585 4.22 2.572 4.578 2.947a1.172 1.172 0 0 1 .357 1.18l4.083 2.646c2.06-1.465 3.378-4.018 3.241-4.824-.055-.302-4.321-2.975-7.251-4.439a13.736 13.736 0 0 0-6.84-1.437 8.873 8.873 0 0 0-4.284 1.62z" fill="#360000"/><path d="M36.457 12.629l-4.67-3.03.092-.339a.714.714 0 0 0-.229-.714c-.311-.31-3.341-2.205-4.486-2.865l-1.126-.604a21.426 21.426 0 0 1-1.4-.76 2.326 2.326 0 0 0-1.685.321c-.174.11-.385.293-.614.476-.769.65-1.73 1.455-2.682.915a1.273 1.273 0 0 1-.604-1.135c.096-.52.388-.985.814-1.3l.156-.118c.317-.325.654-.63 1.007-.916A9.404 9.404 0 0 1 25.608.83a14.13 14.13 0 0 1 7.05 1.474 67.083 67.083 0 0 1 4.733 2.673c2.691 1.666 2.746 1.894 2.746 2.114.202 1.126-1.373 3.853-3.433 5.318l-.247.22zm-3.525-3.47l3.534 2.289a7.735 7.735 0 0 0 2.747-4.027 54.68 54.68 0 0 0-6.986-4.183h-.046a13.516 13.516 0 0 0-6.463-1.373 8.662 8.662 0 0 0-4.065 1.52c-.32.25-.626.519-.916.805l-.174.183c-.146.137-.512.503-.522.64a.256.256 0 0 0 .092.22c.357.192 1.053-.394 1.566-.824.256-.21.494-.403.714-.549a3.077 3.077 0 0 1 2.746-.339c.44.266.916.495 1.337.733.421.238.778.402 1.172.622.815.476 4.239 2.572 4.696 3.03a1.665 1.665 0 0 1 .568 1.254zm-13.824 1.493a5.691 5.691 0 0 0-.733-.458c-.192-.11-.375 0-.457.229a.914.914 0 0 0 0 .714.777.777 0 0 0 1.226.229.403.403 0 0 0-.036-.714z" fill="#360000"/><path d="M18.64 12.07a.974.974 0 0 1-.228 0 1.254 1.254 0 0 1-.916-.695 1.337 1.337 0 0 1 0-1.108.917.917 0 0 1 .513-.54.724.724 0 0 1 .64.055c.274.143.537.306.788.485a.916.916 0 0 1 .064 1.446c-.23.225-.539.352-.86.357zm-.292-1.327a.413.413 0 0 0 0 .183.264.264 0 0 0 .201.147.248.248 0 0 0 .21-.046 2.44 2.44 0 0 0-.411-.284z" fill="#360000"/><path d="M20.746 12.327c.204-.368.343-.767.412-1.181 0-.586-.915-.97-1.29-.421-.376.55-.596 1.053-.43 1.473a.714.714 0 0 0 1.308.129z" fill="#360000"/><path d="M20.114 13.205h-.091a1.253 1.253 0 0 1-1.062-.814 2.123 2.123 0 0 1 .467-1.913 1.108 1.108 0 0 1 1.31-.449 1.2 1.2 0 0 1 .915 1.144 3.19 3.19 0 0 1-.367 1.172 1.424 1.424 0 0 0-.082.174 1.209 1.209 0 0 1-1.09.686zm.239-2.251a.09.09 0 0 0-.083 0c-.375.622-.467.842-.393 1.025a.266.266 0 0 0 .228.192.192.192 0 0 0 .183-.11 1.03 1.03 0 0 1 .083-.183c.132-.25.225-.518.275-.796a.285.285 0 0 0-.202-.147l-.091.019z" fill="#360000"/><path d="M21.525 11.283a2.306 2.306 0 0 0-.55 1.675.796.796 0 0 0 1.428.137c.212-.39.325-.827.33-1.272a.777.777 0 0 0-1.208-.54z" fill="#360000"/><path d="M21.763 13.974h-.083a1.364 1.364 0 0 1-1.163-.815 2.654 2.654 0 0 1 .65-2.215 1.1 1.1 0 0 1 1.108-.256 1.345 1.345 0 0 1 .916 1.034 2.26 2.26 0 0 1-.247 1.282l-.101.256a1.218 1.218 0 0 1-1.08.714zm-.33-1.19a.393.393 0 0 0 .311.201.237.237 0 0 0 .21-.11c0-.082.065-.164.102-.246.113-.222.179-.465.192-.714a.348.348 0 0 0-.192-.257.393.393 0 0 0-.184 0 2.251 2.251 0 0 0-.439 1.126z" fill="#360000"/><path d="M22.65 13.214a.852.852 0 0 0 .77.989c.106.01.213.01.32 0a.44.44 0 0 0 .256-.787c-.549-.412-1.135-.787-1.345-.202z" fill="#360000"/><path d="M23.676 14.716h-.302a1.41 1.41 0 0 1-1.053-.66 1.153 1.153 0 0 1-.137-.997.916.916 0 0 1 .586-.586c.503-.155 1.034.201 1.529.577a.915.915 0 0 1 .32 1.034.915.915 0 0 1-.916.65l-.027-.018zm-.55-1.273c.012.03.028.057.046.083a.412.412 0 0 0 .293.183h.101a2.553 2.553 0 0 0-.44-.266z" fill="#360000"/><path d="M19.245 5.077c.053-.413.26-.792.577-1.061.183-.174.97-.916 1.08-1.007-2.142-.055-6.967 1.72-9.87 4.348-.604.54 1.31 4.31 2.94 4.915 0 0 3.323-2.106 3.872-2.325a.91.91 0 0 1 .65 0l.339.183.769.494a1.063 1.063 0 0 1 1.831.467.961.961 0 0 1 1.447.311 1.346 1.346 0 0 1 .073 1.08c.382.201.752.424 1.108.668a5.78 5.78 0 0 0 1.281.778c.293.083 1.246 0 1.19-.457 0-.21-.631-.623-1.116-1.016-.174-.128-.11-.32.119-.165l.567.394c.55.366 1.41 1.226 2.005.485.486-.595.184-.916-.119-1.117-.302-.201-.705-.522-1.016-.75-.311-.23-.146-.394.183-.147.33.247 1.19.87 1.373.98.184.11.678.247 1.127-.257.915-.97.183-1.327-1.026-2.37-.256-.22-.128-.312.12-.174.246.137.65.411 1.034.65.64.411 1.272.915 1.877.1 1.052-1.345-.394-1.95-1.831-2.91-1.438-.962-3.122-1.785-4.679-2.682a1.667 1.667 0 0 0-1.217-.284c-1.19.183-1.996 1.19-3.003 1.757a1.08 1.08 0 0 1-1.685-.888z" fill="#360000"/><path d="M25.663 14.46a1.835 1.835 0 0 1-.44-.046 5.042 5.042 0 0 1-1.327-.788l-.12-.082a11.8 11.8 0 0 0-1.052-.64l-.384-.202.155-.403a.915.915 0 0 0-.055-.677.53.53 0 0 0-.366-.247.321.321 0 0 0-.302.073l-.687.622-.137-.915a.577.577 0 0 0-.458-.412.486.486 0 0 0-.494.147l-.275.402-1.172-.75-.128-.073-.137-.101a.513.513 0 0 0-.266 0c-.366.146-2.518 1.483-3.79 2.288l-.21.137-.23-.091c-1.465-.55-3.067-3.185-3.332-4.622a1.163 1.163 0 0 1 .238-1.135C13.578 4.39 18.549 2.45 20.91 2.56h1.08l-.723.797c-.082.091-.33.32-.815.769l-.293.274a1.18 1.18 0 0 0-.42.705.43.43 0 0 0 .21.42.77.77 0 0 0 .742 0c.321-.192.627-.409.915-.649a4.84 4.84 0 0 1 2.234-1.153 2.125 2.125 0 0 1 1.538.338l1.556.87c1.053.567 2.134 1.153 3.15 1.83.183.129.375.248.558.358.916.576 1.703 1.08 1.831 1.885a1.757 1.757 0 0 1-.448 1.382 1.328 1.328 0 0 1-1.53.55v.1a1.693 1.693 0 0 1-.52 1.172 1.356 1.356 0 0 1-1.173.549 1.53 1.53 0 0 1-.357.723 1.19 1.19 0 0 1-1.52.339.788.788 0 0 1-.238.31c-.299.215-.657.33-1.025.33zm-2.124-2.234a9.5 9.5 0 0 1 .833.522l.11.082c.309.248.647.457 1.007.623.133.022.27.022.403 0l-.412-.32-.357-.275a.64.64 0 0 1-.174-.916.613.613 0 0 1 .915-.082l.357.247.21.147.303.22c.723.53.916.548 1.044.365a.642.642 0 0 0 .146-.247.919.919 0 0 0-.183-.165l-.613-.457c-.138-.1-.275-.193-.394-.293a.65.65 0 0 1-.229-.915c.128-.184.495-.394.998 0 .33.247 1.19.87 1.346.97.156.1.21.137.494-.174.284-.311.266-.403.266-.449 0-.045-.43-.53-.833-.87l-.421-.356a.64.64 0 0 1-.211-.915.66.66 0 0 1 .916-.11c.238.137.476.293.723.457l.338.22.092.055c.77.494.916.476 1.135.156a.85.85 0 0 0 .248-.614c-.064-.366-.742-.796-1.401-1.208-.183-.119-.385-.238-.577-.375-.98-.65-2.042-1.227-3.067-1.785-.522-.284-1.062-.577-1.584-.915a1.136 1.136 0 0 0-.915-.22 3.956 3.956 0 0 0-1.777.961c-.335.27-.69.515-1.062.732a1.831 1.831 0 0 1-1.74 0 1.418 1.418 0 0 1-.686-1.29 2.087 2.087 0 0 1 .714-1.4 19.558 19.558 0 0 0-8.056 4.008c.108.748.384 1.46.805 2.087a5.72 5.72 0 0 0 1.685 1.986c.806-.512 3.213-2.022 3.717-2.224a1.4 1.4 0 0 1 1.034 0l.165.083.22.128.43.274a1.474 1.474 0 0 1 1.19-.201c.393.08.74.306.971.632.184-.037.374-.037.559 0a1.501 1.501 0 0 1 1.07.76c.182.31.268.666.248 1.024v.037z" fill="#360000"/><path d="M21.323 2.972c-.322.265-.628.55-.915.851-.275.284-.815.733-.834 1.144a.741.741 0 0 0 .348.669c.916.494 2.015-.916 2.793-1.392a2.637 2.637 0 0 1 2.206-.32c.824.494 1.676.915 2.518 1.355 1.007.585 4.22 2.572 4.578 2.947a1.172 1.172 0 0 1 .357 1.18l4.083 2.646c2.06-1.465 3.378-4.018 3.241-4.824-.055-.302-4.321-2.975-7.251-4.439a13.736 13.736 0 0 0-6.84-1.437 8.873 8.873 0 0 0-4.284 1.62z" fill="#fff"/><path d="M36.448 12.134l-4.166-2.7V9.39a1.125 1.125 0 0 0-.338-1.117c-.348-.357-3.489-2.298-4.578-2.93-.385-.219-.77-.42-1.145-.612a24.806 24.806 0 0 1-1.373-.75 2.628 2.628 0 0 0-2.133.32c-.23.16-.45.334-.66.521-.704.586-1.51 1.263-2.197.915a.833.833 0 0 1-.393-.732c0-.366.393-.732.695-1.025.055-.064.12-.119.165-.165.29-.303.595-.59.916-.86a9.34 9.34 0 0 1 4.367-1.675c2.35-.106 4.688.389 6.793 1.437 2.747 1.391 7.215 4.119 7.279 4.476.155.915-1.273 3.478-3.26 4.897l.028.045zm-4.01-2.745l4 2.599c2.06-1.483 3.306-3.982 3.178-4.732-.12-.302-4.276-2.92-7.215-4.384a13.736 13.736 0 0 0-6.71-1.42 9.029 9.029 0 0 0-4.285 1.612 8.9 8.9 0 0 0-.916.842l-.174.174c-.265.256-.632.613-.65.915a.696.696 0 0 0 .32.613c.605.339 1.374-.302 2.042-.87.215-.187.441-.361.678-.521a2.747 2.747 0 0 1 2.27-.33c.458.275.916.513 1.373.751.458.238.76.394 1.145.613.916.531 4.22 2.554 4.578 2.957a1.254 1.254 0 0 1 .366 1.162v.019z" fill="#360000"/><path d="M19.108 10.652a5.691 5.691 0 0 0-.733-.458c-.192-.11-.375 0-.457.229a.914.914 0 0 0 0 .714.777.777 0 0 0 1.226.229.403.403 0 0 0-.036-.714z" fill="#fff"/><path d="M18.64 11.65h-.155a.824.824 0 0 1-.604-.458.916.916 0 0 1 0-.778.468.468 0 0 1 .274-.284.311.311 0 0 1 .284 0c.257.136.505.29.742.458a.54.54 0 0 1 .265.393.567.567 0 0 1-.21.43.842.842 0 0 1-.595.238zm-.356-1.428h-.064a.32.32 0 0 0-.193.21.787.787 0 0 0 0 .659.695.695 0 0 0 .513.384.65.65 0 0 0 .595-.173.42.42 0 0 0 .174-.32.414.414 0 0 0-.21-.294 6.331 6.331 0 0 0-.724-.457.248.248 0 0 0-.091-.01z" fill="#360000"/><path d="M20.746 12.327c.204-.368.343-.767.412-1.181 0-.586-.915-.97-1.29-.421-.376.55-.596 1.053-.43 1.473a.714.714 0 0 0 1.308.129z" fill="#fff"/><path d="M20.115 12.775a.851.851 0 0 1-.705-.549c-.183-.458.046-.915.44-1.529a.677.677 0 0 1 .814-.265.778.778 0 0 1 .604.714 3.175 3.175 0 0 1-.33 1.007 1.825 1.825 0 0 0-.09.201.77.77 0 0 1-.733.421zm.238-2.242a.495.495 0 0 0-.449.229c-.403.668-.577 1.025-.421 1.41a.686.686 0 0 0 .632.457.64.64 0 0 0 .595-.339l.091-.201c.166-.298.275-.624.32-.961a.65.65 0 0 0-.503-.577l-.265-.018z" fill="#360000"/><path d="M21.525 11.283a2.306 2.306 0 0 0-.55 1.675.796.796 0 0 0 1.428.137c.212-.39.325-.827.33-1.272a.777.777 0 0 0-1.208-.54z" fill="#fff"/><path d="M21.763 13.544h-.055a.916.916 0 0 1-.797-.558 2.398 2.398 0 0 1 .559-1.749.688.688 0 0 1 .686-.137.916.916 0 0 1 .641.705 1.83 1.83 0 0 1-.22 1.034c0 .1-.082.192-.11.284a.796.796 0 0 1-.704.42zm.183-2.343a.504.504 0 0 0-.357.128 2.324 2.324 0 0 0-.559 1.602.778.778 0 0 0 .687.476.631.631 0 0 0 .622-.339c0-.082.074-.183.11-.284a1.83 1.83 0 0 0 .22-.915.786.786 0 0 0-.55-.604.75.75 0 0 0-.173-.064z" fill="#360000"/><path d="M22.65 13.214a.852.852 0 0 0 .77.989c.106.01.213.01.32 0a.44.44 0 0 0 .256-.787c-.549-.412-1.135-.787-1.345-.202z" fill="#fff"/><path d="M23.676 14.286h-.265a.97.97 0 0 1-.724-.458.741.741 0 0 1-.1-.623.493.493 0 0 1 .302-.33c.32-.09.76.22 1.144.514a.503.503 0 0 1 .001.81.522.522 0 0 1-.294.105l-.064-.018zm-.915-1.053a.576.576 0 0 0 .082.503.914.914 0 0 0 .632.403h.302a.384.384 0 0 0 .348-.256.375.375 0 0 0-.138-.412c-.384-.302-.778-.559-1.025-.485a.33.33 0 0 0-.21.238l.009.009z" fill="#360000"/><path d="M19.245 5.077c.053-.413.26-.792.577-1.061.183-.174.97-.916 1.08-1.007-2.142-.055-6.967 1.72-9.87 4.348-.604.54 1.31 4.31 2.94 4.915 0 0 3.323-2.106 3.872-2.325a.91.91 0 0 1 .65 0l.339.183.769.494a1.063 1.063 0 0 1 1.831.467.961.961 0 0 1 1.447.311 1.346 1.346 0 0 1 .073 1.08c.382.201.752.424 1.108.668a5.78 5.78 0 0 0 1.281.778c.293.083 1.246 0 1.19-.457 0-.21-.631-.623-1.116-1.016-.174-.128-.11-.32.119-.165l.567.394c.55.366 1.41 1.226 2.005.485.486-.595.184-.916-.119-1.117-.302-.201-.705-.522-1.016-.75-.311-.23-.146-.394.183-.147.33.247 1.19.87 1.373.98.184.11.678.247 1.127-.257.915-.97.183-1.327-1.026-2.37-.256-.22-.128-.312.12-.174.246.137.65.411 1.034.65.64.411 1.272.915 1.877.1 1.052-1.345-.394-1.95-1.831-2.91-1.438-.962-3.122-1.785-4.679-2.682a1.667 1.667 0 0 0-1.217-.284c-1.19.183-1.996 1.19-3.003 1.757a1.08 1.08 0 0 1-1.685-.888z" fill="#fff"/><path d="M25.654 13.992a.962.962 0 0 1-.312 0 4.812 4.812 0 0 1-1.19-.714l-.11-.073c-.412-.293-1.09-.659-1.098-.668h-.055v-.055a1.292 1.292 0 0 0-.028-1.089.915.915 0 0 0-.668-.467.778.778 0 0 0-.669.174l-.091.092v-.129a.98.98 0 0 0-.787-.76.861.861 0 0 0-.916.321v.055l-.824-.53a1.48 1.48 0 0 0-.165-.092l-.174-.092a.916.916 0 0 0-.595 0c-.53.22-3.827 2.307-3.854 2.334-1.31-.494-2.81-2.984-3.058-4.293-.073-.366 0-.613.1-.741 2.802-2.526 7.627-4.421 9.916-4.357h-.046l-.1.11c-.083.082-.468.448-.779.732l-.302.284a1.593 1.593 0 0 0-.558 1.007.915.915 0 0 0 .42.796 1.19 1.19 0 0 0 1.173 0c.348-.201.678-.43.988-.686a4.579 4.579 0 0 1 2.042-1.071 1.658 1.658 0 0 1 1.254.293l1.575.87c1.035.567 2.115 1.143 3.113 1.83l.568.366c.833.522 1.547.97 1.648 1.592a1.309 1.309 0 0 1-.358 1.053c-.613.787-1.254.375-1.83 0l-.092-.055-.348-.229c-.238-.155-.467-.31-.687-.43a.797.797 0 0 0-.146-.055c.024.05.062.091.11.12.137.127.274.246.402.347.605.513 1.008.842 1.035 1.263a1.198 1.198 0 0 1-.412.86.916.916 0 0 1-1.208.275 58.324 58.324 0 0 1-1.383-.998c-.256-.192-.201-.1-.22-.091a.42.42 0 0 0 .129.137l.384.284.632.467a.915.915 0 0 1 .394.549.916.916 0 0 1-.266.668c-.54.668-1.282.128-1.831-.274l-.275-.202a1.462 1.462 0 0 1-.22-.155c-.11-.064-.228-.156-.347-.238a.229.229 0 0 0-.12 0 .19.19 0 0 0 .074.11l.348.265c.485.375.787.613.805.787a.393.393 0 0 1-.146.348c-.259.136-.552.19-.842.155zm-2.6-1.583c.368.196.726.413 1.07.65l.11.082c.35.279.735.51 1.145.687.344.075.705.016 1.007-.165a.229.229 0 0 0 .1-.22c0-.137-.42-.448-.75-.695l-.348-.275c-.11-.091-.155-.21-.091-.293.064-.082.137-.091.293 0l.347.238.22.156c.092.055.183.128.284.201.522.384 1.172.87 1.63.302a.805.805 0 0 0 .238-.567.732.732 0 0 0-.34-.458c-.219-.174-.43-.32-.63-.467l-.385-.284c-.174-.128-.202-.256-.147-.329.055-.073.183-.092.403.073.22.165 1.2.87 1.373.98.348.22.696.137 1.035-.248a1.07 1.07 0 0 0 .375-.76c0-.356-.403-.677-.98-1.162l-.411-.348c-.183-.164-.174-.256-.138-.31.037-.056.174-.065.33 0 .155.063.458.274.705.439l.339.22.091.063c.623.394 1.154.742 1.703.046a1.246 1.246 0 0 0 .33-.915c-.101-.559-.788-.989-1.593-1.501l-.568-.366c-.998-.66-2.07-1.245-3.104-1.831a23.324 23.324 0 0 1-1.574-.915 1.557 1.557 0 0 0-1.172-.266 4.45 4.45 0 0 0-2.005 1.135 8.546 8.546 0 0 1-1.007.696 1.355 1.355 0 0 1-1.31 0 .988.988 0 0 1-.476-.915c.047-.433.26-.83.595-1.108l.302-.275.66-.622c-2.079 0-6.72 1.684-9.66 4.33-.1.09-.118.301-.063.613.238 1.272 1.684 3.66 2.948 4.183.348-.22 3.332-2.106 3.854-2.316.227-.085.478-.085.705 0l.174.091.174.101.714.458a1.025 1.025 0 0 1 1.053-.33 1.155 1.155 0 0 1 .86.77.915.915 0 0 1 .687-.147 1.108 1.108 0 0 1 .77.54c.17.316.217.685.128 1.034z" fill="#360000"/><path d="M20.38 4.437c.286-.305.592-.589.916-.852a8.754 8.754 0 0 1 4.312-1.62 13.552 13.552 0 0 1 6.72 1.419c2.92 1.464 7.16 4.137 7.214 4.44v.127a1.59 1.59 0 0 0 .073-.65c0-.302-4.293-2.974-7.205-4.439a13.736 13.736 0 0 0-6.729-1.464 8.891 8.891 0 0 0-4.321 1.61 9.23 9.23 0 0 0-.916.852c-.274.293-.815.732-.833 1.144.01.084.028.167.055.247.207-.297.447-.57.714-.814zm-2.096 6.288c.274.155.467.274.677.42.06.04.113.09.156.147.238-.247.165-.457-.073-.631a6.29 6.29 0 0 0-.678-.412c-.174-.101-.348 0-.421.201a.85.85 0 0 0 0 .421.284.284 0 0 1 .339-.146zm2.746.833c.047-.13.078-.266.092-.403 0-.54-.916-.915-1.2-.384-.268.33-.425.737-.448 1.162a5.14 5.14 0 0 1 .366-.677c.274-.458 1.099-.183 1.19.302zm1.557.76a.35.35 0 0 1 0 .091c.073-.183.098-.381.073-.577a.723.723 0 0 0-1.126-.494c-.312.394-.5.872-.54 1.373.088-.333.244-.644.457-.915a.725.725 0 0 1 1.136.522zm1.373 1.098c-.513-.394-1.053-.742-1.254-.202a.576.576 0 0 0 0 .33c.238-.302.714 0 1.172.357a.402.402 0 0 1 .11.137.404.404 0 0 0-.028-.622z" fill="#DDDBDE"/><path d="M20.829 6.652c1.016-.568 1.83-1.575 3.012-1.749a1.594 1.594 0 0 1 1.208.275c1.566.915 3.186 1.693 4.688 2.682 1.016.677 1.968 1.09 2.115 1.83.503-1.08-.678-1.574-1.978-2.434-1.501-.989-3.159-1.83-4.715-2.746a1.62 1.62 0 0 0-1.217-.275c-1.19.174-2.015 1.227-3.022 1.785a1.227 1.227 0 0 1-1.721-.787 1.71 1.71 0 0 0 0 .567 1.07 1.07 0 0 0 1.63.852zm4.678 5.913c-.229-.156-.1.21.147.412.247.2.558.43.787.64a.183.183 0 0 0 0-.183 1.089 1.089 0 0 0-.256-.284 6.636 6.636 0 0 0-.678-.585zm-4.77-9.492c-2.133-.055-6.811 1.748-9.723 4.366a.75.75 0 0 0-.055.613 18.798 18.798 0 0 1 9.156-4.339c.21-.238.558-.558.622-.64zm6.51 8.741l.741.55c.122.098.225.22.302.356.101-.22-.082-.485-.228-.595-.348-.247-.724-.512-.916-.668-.412-.33-.156.165.1.357zm1.629-2.078c-.393-.32-.21.1 0 .32.462.336.807.806.99 1.346a.759.759 0 0 0-.239-.915s-.412-.476-.75-.75zm3.415 31.341a6.274 6.274 0 0 1-.677-.412.63.63 0 0 1-.156-.156.367.367 0 0 0 .074.632c.21.146.402.265.677.42.275.156.348 0 .421-.21a.84.84 0 0 0 0-.42.275.275 0 0 1-.339.146zm-2.691-.834a1.763 1.763 0 0 0-.092.412c0 .531.916.916 1.2.376a2.02 2.02 0 0 0 .448-1.163 5.077 5.077 0 0 1-.366.677c-.293.458-1.126.193-1.19-.302zm-1.584-.759a.312.312 0 0 1 0-.092 1.18 1.18 0 0 0-.074.577.724.724 0 0 0 1.127.494 2.49 2.49 0 0 0 .54-1.364 2.488 2.488 0 0 1-.458.916.724.724 0 0 1-1.135-.531zm-1.374-1.089c.513.384 1.053.732 1.255.192a.577.577 0 0 0 0-.33c-.238.303-.714 0-1.172-.347a.558.558 0 0 1-.11-.147.413.413 0 0 0 .027.632zm3.131 6.764c-1.007.558-1.83 1.574-3.012 1.748a1.604 1.604 0 0 1-1.208-.284c-1.566-.915-3.186-1.684-4.688-2.681-1.016-.678-1.968-1.09-2.115-1.831-.494 1.08.678 1.574 1.978 2.435 1.501.997 3.159 1.83 4.715 2.745a1.63 1.63 0 0 0 1.218.284c1.19-.174 2.014-1.226 3.02-1.83a1.227 1.227 0 0 1 1.75.778 1.71 1.71 0 0 0 0-.568 1.061 1.061 0 0 0-1.658-.796zm-4.678-5.922c.229.155.1-.202-.146-.403-.248-.201-.559-.43-.788-.65v.055a.165.165 0 0 0 0 .174.915.915 0 0 0 .257.293c.216.188.442.366.677.53zm4.77 9.492c2.133.054 6.812-1.749 9.723-4.367a.733.733 0 0 0 .082-.631 18.963 18.963 0 0 1-9.155 4.338c-.238.257-.586.586-.65.66zm-6.509-8.742c-.303-.229-.367-.256-.742-.549a1.145 1.145 0 0 1-.302-.357.54.54 0 0 0 .229.595c.348.247.723.513.915.668.412.33.156-.165-.1-.357zm-1.63 2.078c.394.33.21-.091 0-.311a2.746 2.746 0 0 1-.998-1.355.74.74 0 0 0 .238.916s.421.475.76.75zM3.818 30.816a10.307 10.307 0 0 1-.851-.915 8.776 8.776 0 0 1-1.62-4.293 13.544 13.544 0 0 1 1.418-6.719c1.465-2.91 4.139-7.148 4.44-7.203h.129a1.494 1.494 0 0 0-.65-.083c-.302.055-2.976 4.293-4.44 7.213a13.782 13.782 0 0 0-1.465 6.737 8.822 8.822 0 0 0 1.611 4.31c.265.323.55.628.851.916.293.275.733.815 1.145.833.083-.014.166-.032.247-.055a4.91 4.91 0 0 1-.815-.741zm6.29 2.068c.127-.23.268-.454.421-.668a.603.603 0 0 1 .147-.155c-.248-.238-.458-.165-.632.073a5.333 5.333 0 0 0-.412.668c-.1.183 0 .357.21.421.132.05.273.069.412.055a.292.292 0 0 1-.146-.394zm.852-2.681a1.692 1.692 0 0 0-.404-.092c-.54 0-.915.915-.384 1.2.331.267.738.424 1.163.448a5.199 5.199 0 0 1-.678-.367c-.503-.302-.201-1.125.302-1.19zm.74-1.583h.093a1.063 1.063 0 0 0-.577-.074.715.715 0 0 0-.495 1.117c.393.315.872.503 1.374.54a2.379 2.379 0 0 1-.916-.449.722.722 0 0 1 .522-1.135zm1.09-1.347c-.384.513-.741 1.053-.192 1.245a.503.503 0 0 0 .33 0c-.312-.238 0-.714.348-1.162a.412.412 0 0 1 .137-.12.411.411 0 0 0-.623.037z" fill="#DDDBDE"/><path d="M6.034 30.367c-.568-1.006-1.575-1.83-1.749-3.002a1.62 1.62 0 0 1 .275-1.217c.915-1.556 1.694-3.176 2.682-4.677.678-1.016 1.09-1.968 1.831-2.115-1.07-.503-1.574.678-2.435 1.977-.989 1.492-1.831 3.158-2.747 4.714-.244.359-.336.8-.256 1.227.174 1.19 1.227 2.013 1.831 3.02a1.226 1.226 0 0 1-.787 1.748c.188.032.38.032.567 0a1.08 1.08 0 0 0 .788-1.675zm-3.571.092c-.064 2.133 1.74 6.819 4.358 9.72.11.12.339.138.64.092a18.79 18.79 0 0 1-4.339-9.153l-.659-.659zm8.734-6.499l.55-.741c.094-.127.216-.23.357-.302-.22-.11-.485.073-.595.228l-.66.916c-.338.412.156.155.348-.1zm-2.069-1.629c-.32.394.1.21.32-.046a2.747 2.747 0 0 1 1.346-.988.751.751 0 0 0-.915.238s-.485.457-.75.796zm31.339-3.414c-.12.232-.258.456-.412.668a.505.505 0 0 1-.156.156.377.377 0 0 0 .632-.064c.147-.21.266-.403.421-.678.156-.274 0-.348-.21-.42a.841.841 0 0 0-.421 0 .265.265 0 0 1 .146.338zm-.833 2.691c.132.048.271.076.412.082.53 0 .915-.915.375-1.19a2.005 2.005 0 0 0-1.153-.448c.232.104.455.226.668.366.494.293.192 1.126-.302 1.19zm-.76 1.583h-.092c.184.072.382.098.577.074a.724.724 0 0 0 .495-1.126 2.426 2.426 0 0 0-1.364-.54c.335.08.648.237.915.457a.723.723 0 0 1-.531 1.135zm-1.089 1.337c.384-.504.732-1.053.192-1.245a.503.503 0 0 0-.33 0c.302.238 0 .714-.348 1.162a.44.44 0 0 1-.146.12.42.42 0 0 0 .632-.037zm6.765-3.094c.559 1.007 1.575 1.83 1.749 3.011a1.603 1.603 0 0 1-.284 1.209c-.916 1.565-1.684 3.185-2.682 4.677-.678 1.016-1.09 1.968-1.831 2.123 1.07.495 1.565-.686 2.426-1.977.998-1.5 1.83-3.157 2.746-4.723a1.59 1.59 0 0 0 .302-1.226c-.174-1.19-1.227-2.014-1.83-3.02a1.217 1.217 0 0 1 .777-1.749 2.021 2.021 0 0 0-.567 0 1.072 1.072 0 0 0-.806 1.675zm-5.923 4.677c.155-.229-.202-.1-.403.137-.201.238-.43.568-.65.788h.055a.21.21 0 0 0 .183 0c.107-.072.202-.158.284-.257.188-.213.366-.436.53-.668zm9.493-4.769c.056-2.132-1.748-6.81-4.366-9.72-.1-.12-.33-.138-.632-.083a18.964 18.964 0 0 1 4.34 9.098l.659.705zm-8.78 6.499c-.228.311-.255.375-.54.742a1.172 1.172 0 0 1-.365.31.54.54 0 0 0 .595-.228c.247-.348.512-.723.668-.915.366-.421-.128-.165-.357.091zm2.125 1.629c.32-.393-.1-.201-.32.046a2.83 2.83 0 0 1-1.355.998.76.76 0 0 0 .915-.238s.467-.458.76-.806z" fill="#DDDBDE"/><path d="M11.408 16.29a35.524 35.524 0 0 0-2.82-2.38 22.59 22.59 0 0 0-3.232-1.922l-.265-.137.155-.247a17.576 17.576 0 0 1 5.65-5.694l.256-.164.128.283a16.85 16.85 0 0 0 1.83 3.167c.762.993 1.582 1.94 2.455 2.838l.256.247-.311.174a9.4 9.4 0 0 0-3.662 3.762l-.165.302-.275-.229z" fill="#FF8144"/><path d="M11.033 6.093a16.662 16.662 0 0 0 1.886 3.222 29.842 29.842 0 0 0 2.49 2.856 9.831 9.831 0 0 0-3.818 3.872c-.742-.678-1.767-1.593-2.838-2.39a21.638 21.638 0 0 0-3.287-1.94 17.393 17.393 0 0 1 5.557-5.601l.01-.019zm.228-.769l-.521.33a17.896 17.896 0 0 0-5.732 5.776l-.311.503.531.265c1.114.544 2.18 1.18 3.186 1.904 1.08.806 2.115 1.721 2.802 2.353l.512.476.33-.614a9.209 9.209 0 0 1 3.598-3.66l.623-.349-.504-.503a32.852 32.852 0 0 1-2.426-2.838 16.695 16.695 0 0 1-1.831-3.12l-.247-.54-.01.017z" fill="#360000"/><path d="M38.645 16.07a9.458 9.458 0 0 0-3.763-3.707l-.302-.165.229-.256a35.542 35.542 0 0 0 2.38-2.82 21.566 21.566 0 0 0 1.923-3.23l.137-.266.247.156a17.576 17.576 0 0 1 5.695 5.648l.165.256-.284.128a17.39 17.39 0 0 0-3.168 1.83 30.482 30.482 0 0 0-2.838 2.463l-.247.247-.174-.284z" fill="#FF8144"/><path d="M39.34 6.011a17.393 17.393 0 0 1 5.604 5.556c-1.14.51-2.22 1.142-3.223 1.886a31.192 31.192 0 0 0-2.856 2.49 9.832 9.832 0 0 0-3.873-3.818 35.942 35.942 0 0 0 2.39-2.837A21.63 21.63 0 0 0 39.34 6.01zm-.219-.769l-.265.531a21.904 21.904 0 0 1-1.886 3.194c-.806 1.08-1.722 2.115-2.353 2.801l-.476.513.622.348a9.209 9.209 0 0 1 3.662 3.597l.348.622.504-.494a31.334 31.334 0 0 1 2.81-2.471 16.694 16.694 0 0 1 3.122-1.83l.54-.248-.329-.522a17.897 17.897 0 0 0-5.777-5.73l-.504-.31h-.018z" fill="#360000"/><path d="M39.158 45.937a16.526 16.526 0 0 0-1.831-3.176 30.495 30.495 0 0 0-2.463-2.829l-.247-.256.311-.174a9.52 9.52 0 0 0 3.662-3.762l.165-.302.256.238a38.98 38.98 0 0 0 2.811 2.37 22.705 22.705 0 0 0 3.232 1.932l.265.128-.155.257a17.604 17.604 0 0 1-5.64 5.684l-.266.164-.1-.274z" fill="#FF8144"/><path d="M38.856 35.868a35.915 35.915 0 0 0 2.838 2.39 22.743 22.743 0 0 0 3.268 1.949 17.193 17.193 0 0 1-5.557 5.602 16.934 16.934 0 0 0-1.895-3.213 32.712 32.712 0 0 0-2.481-2.856 9.767 9.767 0 0 0 3.817-3.872h.01zm-.156-.915l-.33.613a9.155 9.155 0 0 1-3.607 3.662l-.622.347.503.504a31.4 31.4 0 0 1 2.445 2.81 16.99 16.99 0 0 1 1.83 3.121l.248.558.53-.33a17.896 17.896 0 0 0 5.732-5.775l.32-.467-.521-.265a21.17 21.17 0 0 1-3.196-1.904c-1.07-.805-2.114-1.72-2.746-2.352l-.513-.476-.073-.046z" fill="#360000"/><path d="M10.96 46.13a17.815 17.815 0 0 1-5.695-5.64l-.165-.265.284-.128a17.024 17.024 0 0 0 3.177-1.83 33.315 33.315 0 0 0 2.829-2.463l.256-.256.174.311a9.401 9.401 0 0 0 3.763 3.661l.302.165-.238.257a39.7 39.7 0 0 0-2.371 2.819 22.697 22.697 0 0 0-1.932 3.23l-.128.266-.257-.128z" fill="#FF8144"/><path d="M11.563 35.978a9.75 9.75 0 0 0 3.873 3.808 37.628 37.628 0 0 0-2.399 2.837 21.966 21.966 0 0 0-1.95 3.277 17.394 17.394 0 0 1-5.621-5.556 16.993 16.993 0 0 0 3.232-1.885c.999-.771 1.953-1.6 2.856-2.48h.01zm.12-.915l-.513.503a30.056 30.056 0 0 1-2.811 2.435 16.159 16.159 0 0 1-3.113 1.83l-.558.257.32.522a17.924 17.924 0 0 0 5.786 5.73l.504.31.265-.53a22.287 22.287 0 0 1 1.896-3.185 39.036 39.036 0 0 1 2.362-2.801l.476-.504-.614-.338a9.227 9.227 0 0 1-3.662-3.597l-.339-.623v-.009z" fill="#360000"/><path d="M44.047 12.043c.339-.183.659-.339.915-.476A17.31 17.31 0 0 0 39.35 6.01c-.156.302-.32.632-.513.97a15.26 15.26 0 0 1 5.21 5.062zM11.582 7.036l-.485-.915a17.32 17.32 0 0 0-5.63 5.592c.292.129.612.284.915.458a15.415 15.415 0 0 1 5.2-5.135zm27.31 37.802c.183.348.357.669.504.98a17.395 17.395 0 0 0 5.612-5.538 29.965 29.965 0 0 1-.98-.476 15.26 15.26 0 0 1-5.136 5.034zm-32.51-4.952l-.916.467a17.328 17.328 0 0 0 5.676 5.556c.147-.302.312-.613.486-.915a15.206 15.206 0 0 1-5.246-5.108zM38.91 15.942c.211-.21.468-.448.742-.705a9.785 9.785 0 0 0-3.973-3.844l-.669.732a9.713 9.713 0 0 1 3.9 3.817zm-23.465-3.707c-.21-.229-.448-.485-.696-.769a9.796 9.796 0 0 0-3.973 3.845c.293.265.55.503.77.723a9.795 9.795 0 0 1 3.9-3.799zm24.207 24.356a19.628 19.628 0 0 1-.732-.695 9.794 9.794 0 0 1-3.891 3.807c.21.22.43.467.668.733a9.869 9.869 0 0 0 3.955-3.845zm-28.116-.594c-.22.21-.467.448-.75.704a9.777 9.777 0 0 0 3.973 3.835l.696-.768a9.833 9.833 0 0 1-3.919-3.771z" fill="#F65727"/></svg>